<svg width="50" height="50" viewBox="0 0 50 50" fill="none" xmlns="http://www.w3.org/2000/svg">
<g clip-path="url(#clip0)">
<path d="M43.1409 36.6667C43.4055 35.2617 43.3988 33.8191 43.1209 32.4167L46.9375 23.2058C46.9379 23.1997 46.9379 23.1936 46.9375 23.1875C47.556 21.4942 48.4624 19.9205 49.6167 18.5358C49.9039 18.2325 50.0195 17.8051 49.9242 17.3983L48.3592 10.64C48.3406 10.5693 48.3126 10.5015 48.2759 10.4383C48.2692 10.4258 48.2667 10.4108 48.26 10.3992C48.2534 10.3875 48.2242 10.3592 48.2075 10.3375C48.1734 10.2876 48.134 10.2415 48.09 10.2C48.0611 10.1796 48.0307 10.1612 47.9992 10.145C47.9586 10.1151 47.9153 10.0889 47.87 10.0667C47.8072 10.0429 47.7417 10.027 47.675 10.0192C47.6559 10.0192 47.6392 10.0067 47.62 10.005C47.4603 9.99435 47.3009 10.0299 47.1609 10.1075C47.1484 10.1142 47.1334 10.1167 47.1209 10.1242H47.1125L41.2284 13.7967C40.872 14.0173 40.6509 14.4027 40.64 14.8217C40.4766 16.621 40.0026 18.3783 39.2392 20.0158V20.025L37.3317 24.6358C36.3955 24.1381 35.3932 23.7762 34.355 23.5608C34.748 20.8483 34.8925 18.1055 34.7867 15.3667C36.338 13.5055 37.0825 11.1022 36.855 8.69C36.3342 3.83333 31.945 0.32583 31.7575 0.17833C31.4757 -0.0435927 31.0835 -0.0602826 30.7839 0.136897C30.4842 0.334076 30.3444 0.700878 30.4367 1.0475C30.8659 2.65916 30.4942 4.36 27.3242 7.8575C25.8999 9.23274 25.4485 11.3326 26.1817 13.1717C26.462 13.8751 26.8637 14.5238 27.3684 15.0883C27.1667 16.3758 27.0084 17.595 26.8992 18.7825C26.7112 20.7466 26.6628 22.7215 26.7542 24.6925C26.0108 25.0956 25.3148 25.5805 24.6792 26.1383L20.6375 8.855C20.6375 8.8375 20.6209 8.825 20.6159 8.80916C20.6023 8.7536 20.5828 8.69967 20.5575 8.64833L16.4292 1.02416C16.0161 0.261058 15.1432 -0.131079 14.2983 0.0668057C13.4534 0.264691 12.8455 1.00363 12.8142 1.87083L12.5009 10.5333C12.5011 10.5958 12.5081 10.6582 12.5217 10.7192C12.5217 10.7325 12.5217 10.7442 12.5217 10.7567L16.645 28.3542C15.9946 28.3829 15.3489 28.4792 14.7184 28.6417L10.1825 17.6875C9.81883 16.8501 8.85415 16.455 8.00754 16.7967L1.07504 19.6667C0.226595 20.0208 -0.17661 20.9936 0.172539 21.8442L6.32421 36.6842C2.71879 36.8735 -0.0798173 39.9 0.0132412 43.5092C0.1063 47.1184 3.05716 49.9968 6.66754 50H43.3342C45.716 49.9655 47.8984 48.6629 49.0594 46.5829C50.2204 44.503 50.1835 41.9617 48.9627 39.9163C47.7419 37.8709 45.5226 36.6321 43.1409 36.6667ZM42.2917 15.0967L45.785 12.9167L44.5484 15.9033C44.3721 16.3286 44.574 16.8162 44.9992 16.9925C45.4245 17.1688 45.9121 16.9669 46.0884 16.5417L47.325 13.555L48.2509 17.5658C47.2603 18.7743 46.4466 20.1174 45.8342 21.555C44.9654 21.9577 43.9677 21.9786 43.0828 21.6126C42.1979 21.2466 41.5064 20.5271 41.1759 19.6283C41.7611 18.1784 42.1369 16.6525 42.2917 15.0967ZM40.375 21.6392C40.9263 22.3132 41.6418 22.834 42.4525 23.1517C43.097 23.4289 43.7902 23.575 44.4917 23.5817C44.6605 23.581 44.8291 23.5707 44.9967 23.5508L42.3375 29.9675C41.5413 28.2119 40.3095 26.689 38.7592 25.5433L40.375 21.6392ZM28.9584 15.6875L33.145 15.9433C33.1709 16.7217 33.1617 17.5267 33.1359 18.3442C31.7411 18.4438 30.3395 18.3761 28.9609 18.1425C28.8559 18.1275 28.7534 18.1158 28.6492 18.1017C28.7325 17.3167 28.8342 16.5217 28.9567 15.6875H28.9584ZM28.5609 8.97666C30.7734 6.53583 31.92 4.65833 32.1867 2.89333C33.7771 4.52962 34.8268 6.61463 35.1942 8.86666C35.3692 10.8272 34.7631 12.7775 33.5075 14.2933C31.8614 14.1933 30.2334 14.0933 28.6234 13.9933C27.9316 13.3466 27.5336 12.4456 27.5215 11.4987C27.5094 10.5517 27.8842 9.64087 28.5592 8.97666H28.5609ZM28.4975 19.7625L28.7392 19.7942C29.813 19.9602 30.8969 20.0524 31.9834 20.07C32.3284 20.07 32.6917 20.0425 33.0559 20.0142C32.98 21.0867 32.8559 22.2067 32.6984 23.3642C32.4925 23.3533 32.2909 23.3333 32.0842 23.3333C30.8261 23.3356 29.5773 23.5506 28.3909 23.9692C28.3524 22.5661 28.3875 21.1619 28.4959 19.7625H28.4975ZM22.0517 29.5075L19.6675 19.3517C19.5561 18.9111 19.1121 18.641 18.6696 18.7447C18.2271 18.8483 17.9493 19.2874 18.045 19.7317L20.1875 28.8725C19.5985 28.6618 18.9899 28.5102 18.3709 28.42L14.7134 12.8117C15.2257 13.0449 15.7821 13.166 16.345 13.1667C16.3975 13.1667 16.4534 13.1592 16.5067 13.1567L17.0959 15.6725C17.1594 15.967 17.3768 16.2043 17.6647 16.2931C17.9525 16.382 18.2659 16.3086 18.4843 16.1011C18.7028 15.8937 18.7923 15.5845 18.7184 15.2925L18.1284 12.775C18.6938 12.5247 19.1925 12.145 19.5842 11.6667L23.3025 27.5658C22.8197 28.1681 22.4005 28.8188 22.0517 29.5075ZM16.96 11.4242C15.8943 11.6309 14.8061 11.1951 14.1775 10.31L14.2834 7.375C14.5733 7.42915 14.8676 7.45704 15.1625 7.45833C15.4474 7.45952 15.7315 7.42793 16.0092 7.36416C16.5714 7.21653 17.0972 6.95501 17.5542 6.59583L18.9575 9.18583C18.7903 10.2604 18.0086 11.1371 16.96 11.4258V11.4242ZM14.6775 1.68916C14.7911 1.66287 14.9082 1.71532 14.9642 1.8175L16.7509 5.12166C16.4286 5.41324 16.0437 5.62705 15.6259 5.74666C15.1988 5.82505 14.7594 5.80424 14.3417 5.68583L14.4775 1.93083C14.4821 1.81439 14.564 1.71539 14.6775 1.68916ZM8.64671 18.3333L9.28337 19.8717L6.20004 21.1483C5.83451 21.3018 5.62772 21.6916 5.70559 22.0803C5.78346 22.4691 6.12442 22.7491 6.52087 22.75C6.63036 22.7498 6.73876 22.7283 6.84004 22.6867L9.92337 21.4092L10.5609 22.9492L9.01837 23.5883C8.65075 23.7405 8.44194 24.1313 8.51982 24.5214C8.59769 24.9116 8.94051 25.1923 9.33837 25.1917C9.44758 25.1913 9.55567 25.1698 9.65671 25.1283L11.1992 24.4892L11.8367 26.0292L8.75087 27.3083C8.38325 27.4605 8.17444 27.8513 8.25231 28.2414C8.33019 28.6316 8.67301 28.9123 9.07087 28.9117C9.18008 28.9114 9.2882 28.8899 9.38921 28.8483L12.4725 27.5717L13.1467 29.1992C10.4312 30.4386 8.43995 32.8623 7.75087 35.7667L1.71087 21.2033L8.64671 18.3333ZM43.3342 48.3333H6.66754C3.90612 48.3333 1.66754 46.0948 1.66754 43.3333C1.66754 40.5719 3.90612 38.3333 6.66754 38.3333C7.15039 38.3317 7.63085 38.4014 8.09337 38.54C8.34324 38.6155 8.61404 38.5695 8.82502 38.4158C9.03599 38.2621 9.16277 38.0185 9.16754 37.7575C9.22682 34.7876 10.9437 32.1007 13.6139 30.7992C16.2841 29.4976 19.4582 29.8004 21.8342 31.5833C22.0442 31.7396 22.3153 31.7882 22.5665 31.7144C22.8176 31.6407 23.0195 31.4533 23.1117 31.2083C24.7398 26.8693 29.2395 24.317 33.7991 25.1464C38.3587 25.9757 41.6716 29.9489 41.6675 34.5833C41.6692 35.5364 41.5273 36.4842 41.2467 37.395C41.1591 37.6784 41.2288 37.9869 41.4295 38.2052C41.6303 38.4235 41.932 38.5186 42.2217 38.455C42.5871 38.3746 42.9601 38.3338 43.3342 38.3333C46.0956 38.3333 48.3342 40.5719 48.3342 43.3333C48.3342 46.0948 46.0956 48.3333 43.3342 48.3333Z" fill="#333333"/>
<path d="M32.2375 13.0834C32.4991 13.0843 32.7459 12.9625 32.9042 12.7542C33.9446 11.3461 34.3466 9.56613 34.0125 7.84753C33.9414 7.55367 33.7168 7.32136 33.4255 7.24048C33.1342 7.1596 32.8219 7.24284 32.6095 7.45799C32.3971 7.67314 32.3179 7.98645 32.4025 8.27669C32.602 9.49789 32.3043 10.7481 31.5759 11.7484C31.3865 12.0009 31.356 12.3387 31.4972 12.621C31.6383 12.9034 31.9269 13.0817 32.2425 13.0817L32.2375 13.0834Z" fill="#333333"/>
<path d="M31.1418 38.3334C30.5221 38.3353 29.911 38.4777 29.3543 38.75C27.8552 36.6987 25.0561 36.0978 22.8471 37.3531C20.6382 38.6083 19.7218 41.3206 20.7168 43.6584C20.8477 43.9656 21.1495 44.165 21.4835 44.165C21.5958 44.1653 21.7069 44.1426 21.8101 44.0984C22.0135 44.0117 22.1741 43.8479 22.2566 43.6428C22.3391 43.4378 22.3368 43.2084 22.2501 43.005C22.0687 42.5822 21.9752 42.1268 21.9751 41.6667C21.9751 39.8257 23.4675 38.3334 25.3085 38.3334C26.6014 38.3269 27.779 39.0761 28.321 40.25C28.339 40.2772 28.3585 40.3033 28.3793 40.3284C28.3925 40.3569 28.4072 40.3848 28.4235 40.4117C28.4385 40.43 28.4601 40.4384 28.4768 40.4559C28.5159 40.4964 28.5592 40.5328 28.606 40.5642C28.6476 40.5962 28.6923 40.6242 28.7393 40.6475C28.7877 40.6678 28.8379 40.6834 28.8893 40.6942C28.9405 40.7076 28.993 40.7157 29.046 40.7184C29.1542 40.7175 29.2617 40.6995 29.3643 40.665C29.3865 40.6609 29.4085 40.6556 29.4301 40.6492C29.4572 40.6317 29.4831 40.6125 29.5076 40.5917C29.5376 40.5784 29.5668 40.5633 29.5951 40.5467C30.0329 40.1927 30.5788 39.9997 31.1418 40C32.1162 40.0016 33.0009 40.5692 33.4085 41.4542C33.5995 41.873 34.0938 42.0577 34.5126 41.8667C34.9315 41.6757 35.1161 41.1813 34.9251 40.7625C34.2466 39.2835 32.7691 38.3348 31.1418 38.3334Z" fill="#333333"/>
<path d="M14.7367 32.5425C14.6109 32.5834 11.6667 33.6017 11.6667 36.6667C11.6667 37.1269 12.0398 37.5 12.5001 37.5C12.9603 37.5 13.3334 37.1269 13.3334 36.6667C13.4014 35.5042 14.1663 34.4986 15.2684 34.1225C15.7056 33.9757 15.9411 33.5023 15.7942 33.065C15.6474 32.6278 15.174 32.3924 14.7367 32.5392V32.5425Z" fill="#333333"/>
<path d="M26.4643 31.6417C26.5304 31.6585 26.5985 31.6669 26.6668 31.6667C27.0487 31.6663 27.3815 31.4063 27.4743 31.0359C27.8578 29.4797 29.2354 28.3728 30.8376 28.3334C31.2978 28.3322 31.67 27.9582 31.6688 27.4979C31.6677 27.0377 31.2937 26.6655 30.8334 26.6667C28.4648 26.6981 26.418 28.3291 25.8584 30.6309C25.7466 31.0773 26.0178 31.5298 26.4643 31.6417Z" fill="#333333"/>
</g>
<defs>
<clipPath id="clip0">
<rect width="50" height="50" fill="white"/>
</clipPath>
</defs>
</svg>
