<svg width="709" height="551" viewBox="0 0 709 551" fill="none" xmlns="http://www.w3.org/2000/svg">
    <path d="M646.932 543.544C646.932 547.083 515.867 550.006 354.153 550.006C192.439 550.006 61.3733 547.083 61.3733 543.544C61.3733 540.006 192.439 537.083 354.153 537.083C515.867 537.083 646.932 540.006 646.932 543.544Z" fill="#E5E9ED"/>
    <path d="M639.847 542.005C626.91 514.621 575.623 489.852 606.426 455.39C637.229 420.929 539.122 382.313 584.094 350.005C633.686 314.313 607.966 263.544 639.847 263.544V542.005Z" fill="white" stroke="#BEC8D2" stroke-miterlimit="10"/>
    <path d="M639.848 542.005C652.785 514.621 704.072 489.852 673.269 455.39C642.466 420.929 740.573 382.313 695.601 350.005C646.008 314.313 671.729 263.544 639.848 263.544V542.005Z" fill="white" stroke="#BEC8D2" stroke-miterlimit="10"/>
    <path d="M639.848 522.775C639.848 484.467 596.724 476.928 596.724 476.928" stroke="#BEC8D2" stroke-miterlimit="10"/>
    <path d="M639.848 439.39C639.848 397.544 598.726 365.544 572.082 367.852" stroke="#BEC8D2" stroke-miterlimit="10"/>
    <path d="M639.848 360.005C639.848 316.775 618.132 295.236 618.132 295.236" stroke="#BEC8D2" stroke-miterlimit="10"/>
    <path d="M639.848 522.775C639.848 484.467 682.972 476.928 682.972 476.928" stroke="#BEC8D2" stroke-miterlimit="10"/>
    <path d="M639.848 439.39C639.848 397.544 680.97 365.544 707.614 367.852" stroke="#BEC8D2" stroke-miterlimit="10"/>
    <path d="M639.848 360.005C639.848 316.775 661.564 295.236 661.564 295.236" stroke="#BEC8D2" stroke-miterlimit="10"/>
    <path d="M68.7659 542.005C81.7031 514.621 132.99 489.852 102.187 455.39C71.3842 420.929 169.491 382.313 124.519 350.005C74.9265 314.313 100.647 263.544 68.7659 263.544V542.005Z" fill="white" stroke="#BEC8D2" stroke-miterlimit="10"/>
    <path d="M68.7647 542.005C55.8276 514.621 4.54111 489.852 35.3438 455.39C66.1465 420.929 -31.9601 382.313 13.0118 350.005C62.6042 314.313 36.8839 263.544 68.7647 263.544V542.005Z" fill="white" stroke="#BEC8D2" stroke-miterlimit="10"/>
    <path d="M68.7659 522.775C68.7659 484.467 111.89 476.928 111.89 476.928" stroke="#BEC8D2" stroke-miterlimit="10"/>
    <path d="M68.7659 439.39C68.7659 397.544 109.888 365.544 136.532 367.852" stroke="#BEC8D2" stroke-miterlimit="10"/>
    <path d="M68.7659 360.005C68.7659 316.775 90.4818 295.236 90.4818 295.236" stroke="#BEC8D2" stroke-miterlimit="10"/>
    <path d="M68.7659 522.775C68.7659 484.467 25.6422 476.928 25.6422 476.928" stroke="#BEC8D2" stroke-miterlimit="10"/>
    <path d="M68.7659 439.39C68.7659 397.544 27.6443 365.544 1 367.852" stroke="#BEC8D2" stroke-miterlimit="10"/>
    <path d="M68.7659 360.005C68.7659 316.775 47.05 295.236 47.05 295.236" stroke="#BEC8D2" stroke-miterlimit="10"/>
    <path d="M167.335 183.544C167.335 180.621 167.027 177.852 166.564 175.083C166.256 173.39 167.027 171.698 168.567 170.775L175.189 166.929C177.191 165.852 177.807 163.236 176.729 161.39L167.489 145.236C166.41 143.236 163.792 142.621 161.944 143.698L155.321 147.544C153.781 148.467 151.933 148.313 150.701 147.083C146.389 143.39 141.46 140.621 136.07 138.621C134.53 138.006 133.452 136.467 133.452 134.775V127.083C133.452 124.775 131.603 122.929 129.293 122.929H110.504C108.193 122.929 106.345 124.775 106.345 127.083V134.775C106.345 136.467 105.267 138.006 103.727 138.621C98.3365 140.621 93.4081 143.39 89.0957 147.083C87.7096 148.159 85.8614 148.313 84.4753 147.544L77.8527 143.698C75.8505 142.621 73.3863 143.236 72.3082 145.236L63.0674 161.39C61.9893 163.39 62.6054 165.852 64.6076 166.929L71.0761 170.929C72.6163 171.852 73.3863 173.544 73.0783 175.236C72.6163 178.006 72.3082 180.775 72.3082 183.698C72.3082 186.621 72.6163 189.39 73.0783 192.159C73.3863 193.852 72.6163 195.544 71.0761 196.467L64.4535 200.313C62.4514 201.39 61.8353 204.006 62.9134 205.852L72.1542 222.006C73.2323 224.006 75.8505 224.621 77.6987 223.544L84.3213 219.698C85.8614 218.775 87.7096 218.929 88.9417 220.159C93.2541 223.852 98.1825 226.621 103.573 228.621C105.113 229.236 106.191 230.775 106.191 232.467V240.159C106.191 242.467 108.039 244.313 110.35 244.313H128.985C131.295 244.313 133.144 242.467 133.144 240.159V232.467C133.144 230.775 134.222 229.236 135.762 228.621C141.152 226.621 146.081 223.852 150.393 220.159C151.779 219.083 153.627 218.929 155.013 219.698L161.636 223.544C163.638 224.621 166.102 224.006 167.181 222.006L176.421 205.852C177.499 203.852 176.883 201.39 174.881 200.313L168.259 196.467C166.718 195.544 165.948 193.852 166.256 192.159C167.181 189.236 167.335 186.467 167.335 183.544ZM123.133 208.929C106.345 211.083 92.176 196.929 94.3322 180.159C95.7183 168.775 104.959 159.544 116.356 158.159C133.144 156.006 147.313 170.159 145.157 186.929C143.77 198.313 134.53 207.544 123.133 208.929Z" fill="white" stroke="#BEC8D2" stroke-miterlimit="10"/>
    <path d="M234.946 98.7748C236.641 95.8518 238.181 92.7749 239.259 89.6979C240.029 87.8518 241.877 86.4672 243.879 86.621L252.966 86.7748C255.738 86.7748 257.894 84.621 257.894 82.0056L258.203 59.8518C258.203 57.0825 256.046 54.9287 253.428 54.9287L244.341 54.7748C242.339 54.7748 240.491 53.3902 239.875 51.5441C237.719 45.2364 234.33 39.2364 230.018 34.0056C228.786 32.4672 228.632 30.1595 229.556 28.4672L234.176 20.621C235.563 18.3133 234.792 15.2364 232.482 13.8518L213.385 2.46715C211.074 1.08254 207.994 1.85177 206.608 4.15946L201.988 12.0056C200.91 13.6979 198.907 14.621 196.905 14.3133C190.129 13.0825 183.352 12.9287 176.729 14.0056C174.727 14.3133 172.725 13.3902 171.647 11.5441L167.181 3.54407C165.794 1.23638 162.868 0.313305 160.558 1.69792L141.152 12.4672C138.842 13.8518 137.918 16.7748 139.304 19.0825L143.771 27.0825C144.695 28.9287 144.541 31.0825 143.154 32.621C140.998 35.0825 138.996 37.8518 137.148 40.7748C135.454 43.6979 133.914 46.7748 132.836 49.8518C132.065 51.6979 130.217 53.0825 128.215 52.9287L119.128 52.7749C116.356 52.7749 114.2 54.9287 114.2 57.5441L113.892 79.6979C113.892 82.4672 116.048 84.621 118.666 84.621L127.753 84.7749C129.755 84.7749 131.603 86.1595 132.219 88.0056C134.376 94.3133 137.764 100.313 142.076 105.544C143.308 107.083 143.462 109.39 142.538 111.083L137.918 118.929C136.532 121.236 137.302 124.313 139.612 125.698L158.71 137.083C161.02 138.467 164.1 137.698 165.486 135.39L170.107 127.544C171.185 125.852 173.187 124.929 175.189 125.236C181.966 126.467 188.742 126.621 195.365 125.544C197.367 125.236 199.369 126.159 200.447 128.006L204.914 136.006C206.3 138.313 209.226 139.236 211.536 137.852L230.942 127.083C233.252 125.698 234.176 122.775 232.79 120.467L228.324 112.467C227.4 110.621 227.554 108.467 228.94 106.929C231.096 104.467 233.098 101.698 234.946 98.7748ZM173.957 97.8518C155.476 89.8518 149.623 66.7749 162.098 50.7749C170.569 40.0056 185.662 36.1595 198.291 41.5441C216.773 49.5441 222.625 72.621 210.15 88.621C201.68 99.5441 186.586 103.39 173.957 97.8518Z" fill="white" stroke="#BEC8D2" stroke-miterlimit="10"/>
    <path d="M653.709 143.852C653.709 139.852 653.401 136.006 652.631 132.313C652.169 130.006 653.247 127.698 655.403 126.467L664.49 121.236C667.108 119.698 668.032 116.313 666.492 113.544L653.709 91.5441C652.169 88.9287 648.781 88.0056 646.008 89.5441L636.922 94.7749C634.919 96.0056 632.301 95.6979 630.607 94.1595C624.755 89.2364 617.978 85.2364 610.585 82.621C608.429 81.8518 606.889 79.698 606.889 77.3903V66.9287C606.889 63.8518 604.425 61.3903 601.344 61.3903H575.932C572.852 61.3903 570.388 63.8518 570.388 66.9287V77.3903C570.388 79.698 569.002 81.8518 566.691 82.621C559.299 85.2364 552.522 89.2364 546.67 94.1595C544.822 95.6979 542.357 95.8518 540.355 94.7749L531.268 89.5441C528.65 88.0056 525.108 88.9287 523.568 91.5441L510.785 113.544C509.244 116.159 510.169 119.698 512.787 121.236L521.874 126.467C523.876 127.698 524.954 130.006 524.646 132.313C524.03 136.006 523.568 139.852 523.568 143.852C523.568 147.852 523.876 151.698 524.646 155.39C525.108 157.698 524.03 160.006 521.874 161.236L512.787 166.467C510.169 168.006 509.244 171.39 510.785 174.159L523.568 196.159C525.108 198.775 528.496 199.698 531.268 198.159L540.355 192.929C542.357 191.698 544.976 192.006 546.67 193.544C552.522 198.467 559.299 202.467 566.691 205.083C568.848 205.852 570.388 208.006 570.388 210.313V220.775C570.388 223.852 572.852 226.313 575.932 226.313H601.344C604.425 226.313 606.889 223.852 606.889 220.775V210.313C606.889 208.006 608.275 205.852 610.585 205.083C617.978 202.467 624.755 198.467 630.607 193.544C632.455 192.006 634.919 191.852 636.922 192.929L646.008 198.159C648.627 199.698 652.169 198.775 653.709 196.159L666.492 174.159C668.032 171.544 667.108 168.006 664.49 166.467L655.403 161.236C653.401 160.006 652.323 157.698 652.631 155.39C653.401 151.698 653.709 147.852 653.709 143.852ZM593.336 178.621C570.388 181.544 551.136 162.313 554.062 139.39C556.065 123.852 568.694 111.236 584.249 109.236C607.197 106.313 626.449 125.544 623.522 148.467C621.52 164.006 608.891 176.621 593.336 178.621Z" fill="white" stroke="#BEC8D2" stroke-miterlimit="10"/>
    <path d="M588.716 183.544H119.744V483.852H588.716V183.544Z" fill="#E5E9ED"/>
    <path d="M588.716 195.544H119.744V221.852H588.716V195.544Z" fill="#BEC8D2"/>
    <path d="M147.775 205.698L150.393 208.467V212.16H145.157V208.467L147.775 205.698ZM147.775 203.852C147.621 203.852 147.313 204.006 147.159 204.16L143.925 207.544C143.771 207.698 143.617 208.159 143.617 208.467V212.621C143.617 213.236 144.079 213.852 144.541 213.852H150.855C151.471 213.852 151.779 213.39 151.779 212.621V208.467C151.779 208.159 151.625 207.852 151.471 207.544L148.237 204.16C148.237 203.852 147.929 203.852 147.775 203.852Z" fill="#174159"/>
    <path d="M160.096 211.544L163.792 209.236C164.254 208.929 164.254 208.621 163.792 208.313L160.096 206.006" stroke="#174159" stroke-miterlimit="10" stroke-linecap="round"/>
    <path d="M135.3 211.544L131.603 209.236C131.141 208.929 131.141 208.621 131.603 208.313L135.3 206.006" stroke="#174159" stroke-miterlimit="10" stroke-linecap="round"/>
    <path d="M534.503 216.929H179.81C177.654 216.929 175.805 215.083 175.805 212.929V204.621C175.805 202.467 177.654 200.621 179.81 200.621H534.503C536.659 200.621 538.507 202.467 538.507 204.621V212.929C538.507 215.083 536.659 216.929 534.503 216.929Z" fill="#F2F2F2"/>
    <path d="M416.99 206.313H297.476V211.237H416.99V206.313Z" fill="#BEC8D2"/>
    <path d="M188.588 206.313C189.975 207.698 189.975 209.852 188.588 211.236C187.202 212.621 185.046 212.621 183.66 211.236C182.274 209.852 182.274 207.698 183.66 206.313C185.046 204.929 187.202 204.929 188.588 206.313Z" stroke="#BEC8D2" stroke-miterlimit="10"/>
    <path d="M188.588 211.236L190.591 213.39" stroke="#BEC8D2" stroke-miterlimit="10" stroke-linecap="round"/>
    <path d="M533.117 208.775C533.117 210.775 531.577 212.313 529.574 212.313C527.572 212.313 526.032 210.775 526.032 208.775C526.032 206.775 527.572 205.237 529.574 205.237" stroke="#BEC8D2" stroke-miterlimit="10" stroke-linecap="round"/>
    <path d="M529.574 204.313L531.422 205.544L529.574 206.775V204.313Z" stroke="#BEC8D2" stroke-miterlimit="10" stroke-linecap="round" stroke-linejoin="round"/>
    <path d="M553.6 203.852L554.832 207.544H558.837L555.603 209.852L556.835 213.698L553.6 211.39L550.366 213.698L551.598 209.852L548.364 207.544H552.368L553.6 203.852Z" stroke="#174159" stroke-miterlimit="10" stroke-linecap="round" stroke-linejoin="round"/>
    <path d="M567.154 204.621H580.245" stroke="#174159" stroke-miterlimit="10" stroke-linecap="round" stroke-linejoin="round"/>
    <path d="M567.154 208.775H580.245" stroke="#174159" stroke-miterlimit="10" stroke-linecap="round" stroke-linejoin="round"/>
    <path d="M567.154 212.929H580.245" stroke="#174159" stroke-miterlimit="10" stroke-linecap="round" stroke-linejoin="round"/>
    <path d="M588.716 183.544V483.852H119.744" stroke="#174159" stroke-width="0.75" stroke-miterlimit="10"/>
    <path d="M588.716 183.544H119.744V195.544H588.716V183.544Z" fill="#174159"/>
    <path d="M129.139 192.313C130.67 192.313 131.911 191.074 131.911 189.544C131.911 188.015 130.67 186.775 129.139 186.775C127.608 186.775 126.367 188.015 126.367 189.544C126.367 191.074 127.608 192.313 129.139 192.313Z" fill="#FAE54E"/>
    <path d="M136.994 192.313C138.525 192.313 139.766 191.074 139.766 189.544C139.766 188.015 138.525 186.775 136.994 186.775C135.463 186.775 134.222 188.015 134.222 189.544C134.222 191.074 135.463 192.313 136.994 192.313Z" fill="#2D80EA"/>
    <path d="M147.467 189.544C147.467 191.083 146.235 192.313 144.695 192.313C143.154 192.313 141.922 191.083 141.922 189.544C141.922 188.006 143.154 186.775 144.695 186.775C146.235 186.775 147.467 188.006 147.467 189.544Z" fill="#E148BE"/>
    <path d="M552.676 447.698H390.5V466.006H552.676V447.698Z" fill="#5620D8"/>
    <path d="M176.883 277.39C188.707 277.39 198.291 267.816 198.291 256.006C198.291 244.195 188.707 234.621 176.883 234.621C165.06 234.621 155.476 244.195 155.476 256.006C155.476 267.816 165.06 277.39 176.883 277.39Z" fill="#5620D8"/>
    <path d="M292.393 247.083H208.918V254.313H292.393V247.083Z" fill="#BBA6EF"/>
    <path d="M270.37 257.698H208.918V264.929H270.37V257.698Z" fill="#BBA6EF"/>
    <path d="M448.255 247.083H406.518V254.313H448.255V247.083Z" fill="#BEC8D2"/>
    <path d="M500.466 247.083H458.728V254.313H500.466V247.083Z" fill="#BEC8D2"/>
    <path d="M156.246 285.39H552.214" stroke="#174159" stroke-miterlimit="10"/>
    <path d="M292.394 377.083H156.246V388.006H292.394V377.083Z" fill="#BBA6EF"/>
    <path d="M345.682 398.467H156.246V403.236H345.682V398.467Z" fill="#BEC8D2"/>
    <path d="M329.049 407.852H156.246V412.621H329.049V407.852Z" fill="#BEC8D2"/>
    <path d="M315.033 417.236H156.246V422.006H315.033V417.236Z" fill="#BEC8D2"/>
    <path d="M345.682 426.621H156.246V431.39H345.682V426.621Z" fill="#BEC8D2"/>
    <g opacity="0.2">
        <path opacity="0.2" d="M214.309 467.544H167.026C161.944 467.544 157.94 463.39 157.94 458.467C157.94 453.39 162.098 449.39 167.026 449.39H214.309C219.391 449.39 223.395 453.544 223.395 458.467C223.395 463.544 219.391 467.544 214.309 467.544Z" fill="black"/>
    </g>
    <path d="M212.769 466.006H165.486C160.404 466.006 156.4 461.852 156.4 456.929C156.4 451.852 160.558 447.852 165.486 447.852H212.769C217.851 447.852 221.855 452.006 221.855 456.929C221.855 462.006 217.851 466.006 212.769 466.006Z" fill="#FCA70C"/>
    <g opacity="0.2">
        <path opacity="0.2" d="M289.775 467.544H242.493C237.411 467.544 233.406 463.39 233.406 458.467C233.406 453.39 237.565 449.39 242.493 449.39H289.775C294.858 449.39 298.862 453.544 298.862 458.467C299.016 463.544 294.858 467.544 289.775 467.544Z" fill="black"/>
    </g>
    <path d="M288.235 466.006H240.953C235.871 466.006 231.866 461.852 231.866 456.929C231.866 451.852 236.025 447.852 240.953 447.852H288.235C293.318 447.852 297.322 452.006 297.322 456.929C297.476 462.006 293.318 466.006 288.235 466.006Z" fill="#174159"/>
    <path d="M183.968 303.544H156.246V331.236H183.968V303.544Z" fill="#5620D8"/>
    <path d="M156.246 303.544L183.968 331.083" stroke="#F2F2F2" stroke-width="0.5" stroke-miterlimit="10"/>
    <path d="M183.968 303.544L156.246 331.083" stroke="#F2F2F2" stroke-width="0.5" stroke-miterlimit="10"/>
    <path d="M222.779 303.544H195.057V331.236H222.779V303.544Z" fill="#5620D8"/>
    <path d="M195.057 303.544L222.625 331.083" stroke="#F2F2F2" stroke-width="0.5" stroke-miterlimit="10"/>
    <path d="M222.625 303.544L195.057 331.083" stroke="#F2F2F2" stroke-width="0.5" stroke-miterlimit="10"/>
    <path d="M261.437 303.544H233.714V331.236H261.437V303.544Z" fill="#5620D8"/>
    <path d="M233.714 303.544L261.437 331.083" stroke="#F2F2F2" stroke-width="0.5" stroke-miterlimit="10"/>
    <path d="M261.437 303.544L233.714 331.083" stroke="#F2F2F2" stroke-width="0.5" stroke-miterlimit="10"/>
    <g opacity="0.2">
        <path opacity="0.2" d="M163.971 339.714L163.584 364.019L307.418 366.306L307.805 342.001L163.971 339.714Z" fill="black"/>
    </g>
    <path d="M160.891 338.175L160.503 362.48L304.338 364.768L304.725 340.463L160.891 338.175Z" fill="#5620D8"/>
    <path d="M458.112 18.467V138.621" stroke="#BEC8D2" stroke-miterlimit="10" stroke-linecap="round"/>
    <path d="M465.351 165.39C464.273 165.39 463.348 166.313 463.348 167.39C463.502 169.852 461.5 172.313 458.882 172.775C458.266 172.929 457.65 172.929 456.88 172.775C456.264 172.621 455.648 172.467 455.186 172.159C454.108 171.544 453.184 170.467 452.721 169.236C452.259 168.005 452.259 166.621 452.721 165.39C455.648 159.698 461.192 156.005 461.192 150.313C465.351 148.929 468.277 144.929 468.277 140.467C468.277 134.621 463.502 130.005 457.804 130.005C451.951 130.005 447.331 134.775 447.331 140.467C447.331 144.929 450.103 148.775 453.954 150.159C453.646 154.159 448.871 157.852 446.869 163.236C445.945 165.852 446.099 168.621 447.177 171.082C448.101 173.544 449.949 175.544 452.259 176.621C454.57 177.852 457.034 178.005 459.498 177.544C461.808 176.929 463.964 175.698 465.351 173.698C466.737 171.852 467.353 169.544 467.199 167.39V167.236C467.353 166.159 466.429 165.39 465.351 165.39ZM458.112 136.005C460.576 136.005 462.424 138.005 462.424 140.313C462.424 141.852 461.654 143.082 460.576 143.852C459.806 143.236 458.882 142.775 457.804 142.929C457.034 143.082 456.264 143.39 455.648 143.852C454.57 143.082 453.8 141.852 453.8 140.313C453.8 138.005 455.802 136.005 458.112 136.005Z" fill="#BEC8D2"/>
    <g opacity="0.2">
        <path opacity="0.2" d="M595.328 267.074L329.379 303.596L350.943 460.279L616.892 423.757L595.328 267.074Z" fill="black"/>
        <path opacity="0.2" d="M536.659 331.082L469.047 420.313L410.522 376.005L350.149 455.39L350.919 460.467L616.9 423.852L611.971 388.159L536.659 331.082Z" fill="black"/>
        <path opacity="0.2" d="M590.102 274.16L609.969 418.776L356.155 453.545L336.287 308.929L590.102 274.16ZM595.338 267.237L329.357 303.699L350.919 460.468L616.9 424.006L595.338 267.237Z" fill="black"/>
        <path opacity="0.2" d="M474.594 348.114C482.323 338.513 480.797 324.47 471.186 316.749C461.574 309.028 447.517 310.552 439.787 320.153C432.058 329.754 433.583 343.797 443.195 351.518C452.807 359.239 466.864 357.715 474.594 348.114Z" fill="black"/>
    </g>
    <path d="M579.925 240.92L313.976 277.443L335.54 434.126L601.489 397.603L579.925 240.92Z" fill="#BBA6EF"/>
    <path d="M521.258 304.929L453.646 394.159L395.12 349.852L334.747 429.236L335.517 434.313L601.499 397.698L596.57 362.005L521.258 304.929Z" fill="#5620D8"/>
    <path d="M574.7 248.007L594.568 392.622L340.754 427.391L320.886 282.776L574.7 248.007ZM579.937 241.083L313.955 277.545L335.517 434.314L601.499 397.853L579.937 241.083Z" fill="#5620D8"/>
    <path d="M459.191 321.961C466.921 312.359 465.395 298.317 455.783 290.596C446.172 282.875 432.114 284.399 424.385 294C416.655 303.601 418.181 317.644 427.792 325.365C437.404 333.086 451.462 331.562 459.191 321.961Z" fill="#F2F2F2"/>
    <path d="M331.205 275.236L319.192 315.852L333.977 274.775" stroke="#BEC8D2" stroke-miterlimit="10" stroke-linecap="round" stroke-linejoin="round"/>
    <path d="M554.062 244.005L585.481 281.698L551.29 243.544" stroke="#BEC8D2" stroke-miterlimit="10" stroke-linecap="round" stroke-linejoin="round"/>
    <path d="M551.29 243.544L462.424 174.775C460.268 171.852 455.956 171.698 453.646 174.621L333.823 274.775" stroke="#BEC8D2" stroke-miterlimit="10" stroke-linecap="round" stroke-linejoin="round"/>
    <path d="M454.235 27.7401C459.348 22.6333 459.348 14.3535 454.235 9.24673C449.123 4.13993 440.834 4.13993 435.722 9.24673C430.609 14.3535 430.609 22.6333 435.722 27.7401C440.834 32.8469 449.123 32.8469 454.235 27.7401Z" stroke="#BEC8D2" stroke-miterlimit="10" stroke-linecap="round"/>
    <path d="M445.021 23.2365C447.658 23.2365 449.795 21.1012 449.795 18.4672C449.795 15.8333 447.658 13.698 445.021 13.698C442.384 13.698 440.247 15.8333 440.247 18.4672C440.247 21.1012 442.384 23.2365 445.021 23.2365Z" stroke="#BEC8D2" stroke-miterlimit="10" stroke-linecap="round"/>
    <path d="M544.052 426.313C538.969 449.236 540.971 478.621 552.06 495.698C560.839 509.236 576.394 513.39 590.41 524.159L589.794 530.929L595.954 523.544C595.954 523.544 588.253 515.852 565.767 492.775C560.223 487.082 564.227 464.775 565.613 459.082C572.544 449.852 565.613 440.159 560.993 426.313H544.052Z" fill="#174159"/>
    <path d="M590.41 524.005L589.794 530.775L595.954 523.39L593.336 520.775C593.182 520.929 593.644 523.698 590.41 524.005Z" fill="#2D80EA"/>
    <path d="M537.583 426.313C522.952 455.236 523.414 473.852 544.822 541.544L538.045 545.698H548.364C548.364 545.698 547.902 474.159 552.06 457.852C558.991 448.621 559.145 440.006 554.524 426.313H537.583Z" fill="#2E546A"/>
    <path d="M537.891 545.698H548.21V541.544C548.21 541.544 546.054 542.929 544.668 541.544L537.891 545.698Z" fill="#2D80EA"/>
    <path d="M553.446 359.544C550.828 367.39 543.59 371.236 539.739 370.621C535.889 369.852 534.041 363.39 535.273 356.159C536.659 348.929 540.817 344.775 544.668 344.313C550.212 343.544 557.143 348.467 553.446 359.544Z" fill="#F2F2F2"/>
    <path d="M551.752 361.698H544.668V379.544H551.752V361.698Z" fill="#F2F2F2"/>
    <path d="M546.208 375.39C536.813 377.083 530.498 392.467 529.574 398.006C528.958 401.236 529.42 404.467 532.963 410.775C538.045 419.544 537.583 426.313 537.583 426.313H560.993C560.993 419.236 565.459 411.39 568.232 400.467C570.85 389.544 562.071 372.467 546.208 375.39Z" fill="#2D80EA"/>
    <path d="M554.217 375.698C554.217 375.698 567.77 377.39 573.468 375.39C586.713 370.621 592.412 359.39 592.874 347.698H596.416C596.416 347.698 601.191 382.159 568.54 394.621L554.217 375.698Z" fill="#428DEC"/>
    <path d="M592.72 347.544C590.41 344.929 591.796 342.775 590.872 340.621C589.948 338.621 591.026 336.159 593.644 341.852L592.566 334.006C592.566 334.006 595.646 335.544 596.262 347.544H592.72Z" fill="#F2F2F2"/>
    <path d="M545.592 377.237C552.676 378.621 551.752 391.236 543.743 398.621C536.197 405.544 514.789 411.544 486.142 415.39L485.218 412.313C485.218 412.313 501.236 409.39 515.251 400.929C529.112 392.16 535.427 375.237 545.592 377.237Z" fill="#428DEC"/>
    <path d="M485.064 412.159C481.984 410.775 480.29 412.621 478.134 412.313C475.978 412.006 474.9 413.544 480.906 414.313L472.743 415.544C472.743 415.544 474.745 417.852 485.988 415.39L485.064 412.159Z" fill="#F2F2F2"/>
    <path d="M536.505 345.236C532.963 351.544 544.668 350.006 544.668 356.159C544.668 362.313 531.731 363.544 529.266 371.544C526.494 380.775 545.284 378.313 542.511 387.852C538.353 401.852 510.785 403.082 521.258 418.006C528.958 428.775 547.594 422.621 545.438 440.313C543.436 457.544 574.854 454.006 577.472 440.006C579.321 430.621 561.763 424.929 571.62 417.852C583.633 409.236 598.88 397.544 585.789 387.698C579.167 382.775 561.455 379.698 559.607 371.698C557.759 363.698 568.232 351.544 555.757 343.39C543.128 334.929 536.505 345.236 536.505 345.236Z" fill="#FCA70C"/>
    <path d="M221.393 158.621C221.393 158.621 227.554 183.544 240.645 183.544C270.524 183.544 279.148 172.159 291.007 172.929C297.322 173.39 313.185 183.544 313.185 183.544H322.118L315.804 179.698C315.804 179.698 298.554 157.236 287.003 155.852C272.372 154.159 253.12 168.621 242.647 158.775H221.393V158.621Z" fill="#174159"/>
    <path d="M313.185 183.544L311.183 182.313C311.183 182.313 314.725 182.467 315.804 179.698L322.118 183.544H313.185Z" fill="#2D80EA"/>
    <path d="M438.244 7.23633L299.478 94.7748L279.61 113.698V179.544" stroke="#BEC8D2" stroke-miterlimit="10" stroke-linecap="round"/>
    <path d="M276.068 116.313C277.3 114.159 280.226 110.159 281.613 112.775C282.537 114.467 282.075 117.544 281.305 117.852C280.534 118.159 278.378 118.313 278.378 118.313L276.068 116.313Z" fill="#BEC8D2"/>
    <path d="M217.697 112.313C229.094 105.852 247.422 126.467 253.12 127.544C262.207 129.236 274.99 117.39 276.222 116.467L278.532 118.621C278.532 118.621 264.517 138.775 251.118 139.236C237.565 139.39 203.066 120.467 217.697 112.313Z" fill="#2D80EA"/>
    <path d="M276.068 116.313C276.53 114.159 277.3 113.39 278.84 112.621C280.996 111.39 280.534 110.313 281.305 110.313C282.075 110.313 282.845 112.467 280.996 113.082C280.996 113.082 281.151 116.775 277.916 117.698L276.068 116.313Z" fill="#F2F2F2"/>
    <path d="M281.613 112.929C281.767 113.698 280.842 113.544 279.918 113.544C278.84 113.544 277.608 113.39 277.762 114.775C278.07 117.082 277.762 118.467 278.84 118.467C279.918 118.467 280.688 118.775 281.459 118.313C282.229 118.006 282.691 114.621 281.613 112.929Z" fill="#F2F2F2"/>
    <path d="M243.879 152.159C258.511 181.082 269.908 210.775 297.168 236.467L304.869 234.313L297.938 242.005C297.938 242.005 241.107 208.775 225.706 188.467C218.775 179.236 216.927 172.467 221.547 158.775L243.879 152.159Z" fill="#2E546A"/>
    <path d="M297.938 241.852L304.869 234.159L297.168 236.313C297.168 236.313 297.63 238.929 294.704 239.852L297.938 241.852Z" fill="#2D80EA"/>
    <path d="M211.382 98.0056C215.541 104.313 222.933 105.852 226.168 104.313C229.402 102.775 229.402 96.621 226.476 90.4672C223.549 84.3133 218.775 81.8518 215.387 82.3133C210.304 83.2364 205.53 89.2364 211.382 98.0056Z" fill="#F2F2F2"/>
    <path d="M214.155 116.313L224.165 113.544L219.699 97.8518L208.764 91.5441L214.155 116.313Z" fill="#F2F2F2"/>
    <path d="M221.701 110.159C211.074 111.544 201.834 114.467 206.454 150.159C210.766 183.698 221.701 183.544 221.701 183.544C221.701 183.544 255.276 185.852 262.053 160.621C262.053 160.621 247.576 150.621 243.109 132.467C238.643 114.313 229.864 109.083 221.701 110.159Z" fill="#428DEC"/>
    <path d="M221.701 110.159L295.32 94.7748L297.014 98.7748C297.014 98.7748 246.189 131.698 228.478 132.775C210.92 133.852 208.918 114.006 221.701 110.159Z" fill="#428DEC"/>
    <path d="M295.474 94.7748C295.474 94.7748 298.554 90.6209 300.248 90.9286C301.942 91.2363 304.407 95.2363 303.328 96.7748C302.404 98.3133 297.168 98.7748 297.168 98.7748L295.474 94.7748Z" fill="#F2F2F2"/>
    <path d="M212.461 108.467C212.461 108.467 218.005 106.467 217.697 100.159C217.697 100.159 215.079 101.544 214.309 95.8517C214.001 93.2364 216.465 92.7748 217.697 95.5441C219.391 96.1594 221.547 95.0825 221.239 92.0056C220.623 87.2364 226.784 88.0056 226.938 82.3133C227.246 74.9287 212.461 65.2364 209.688 72.0056C207.378 77.5441 208.148 80.7748 201.064 80.9287C188.126 81.0825 201.218 110.929 212.461 108.467Z" fill="#174159"/>
    <path d="M169.645 426.313C174.727 449.236 172.725 478.621 161.636 495.698C152.857 509.236 137.302 513.39 123.287 524.159L123.903 530.929L117.742 523.544C117.742 523.544 125.443 515.852 147.929 492.775C153.473 487.083 149.469 464.775 148.083 459.082C141.152 449.852 148.083 440.159 152.703 426.313H169.645Z" fill="#174159"/>
    <path d="M123.287 524.006L123.903 530.775L117.742 523.39L120.36 520.775C120.36 520.929 120.052 523.698 123.287 524.006Z" fill="#2D80EA"/>
    <path d="M175.959 426.313C190.591 455.236 190.129 473.852 168.721 541.544L175.497 545.698H165.178C165.178 545.698 165.64 474.159 161.482 457.852C154.551 448.621 154.397 440.006 159.018 426.313H175.959Z" fill="#2E546A"/>
    <path d="M175.651 545.698H165.332V541.544C165.332 541.544 167.489 542.929 168.875 541.544L175.651 545.698Z" fill="#2D80EA"/>
    <path d="M160.096 359.544C162.714 367.39 169.953 371.236 173.803 370.621C177.653 369.852 179.502 363.39 178.27 356.159C176.883 348.929 172.725 344.775 168.875 344.313C163.33 343.544 156.554 348.467 160.096 359.544Z" fill="#F2F2F2"/>
    <path d="M156.446 379.549H168.922V361.702H156.446V379.549Z" fill="#F2F2F2"/>
    <path d="M159.48 375.698C159.48 375.698 145.927 377.39 140.228 375.39C126.983 370.621 121.285 359.39 120.822 347.698H117.28C117.28 347.698 112.506 382.159 145.157 394.621L159.48 375.698Z" fill="#428DEC"/>
    <path d="M120.823 347.544C123.133 344.929 121.747 342.775 122.671 340.621C123.595 338.621 122.517 336.159 119.899 341.852V334.005C119.899 334.005 117.897 335.544 117.281 347.544H120.823Z" fill="#F2F2F2"/>
    <path d="M174.111 378.159C165.332 373.852 161.79 375.698 147.159 376.313C132.527 376.929 145.003 412.005 145.003 451.39C145.003 451.39 157.632 458.775 189.05 451.39C189.05 451.39 187.818 385.082 174.111 378.159Z" fill="#428DEC"/>
    <path d="M167.951 364.467C170.107 368.313 157.632 371.544 154.397 367.698C151.163 363.852 139.92 360.929 148.083 346.006C151.625 339.544 153.011 330.006 158.248 329.082C170.877 326.929 177.037 336.621 176.729 342.313C176.267 350.159 173.187 354.929 170.107 356.621C167.951 357.698 164.562 358.467 167.951 364.467Z" fill="#E148BE"/>
    <path d="M166.872 375.698C181.966 375.698 193.209 383.852 204.144 384.929C216.927 386.159 229.71 377.39 232.328 370.621L238.027 369.698C238.027 369.698 229.248 388.159 204.606 396.159C192.285 400.159 177.037 400.775 167.951 396.621C158.864 392.313 156.246 375.852 166.872 375.698Z" fill="#428DEC"/>
    <path d="M232.328 370.621C230.48 367.852 233.252 365.083 233.714 363.083C234.022 361.083 235.1 359.544 236.179 359.39C237.873 359.083 237.411 361.39 236.795 363.698C236.795 364.006 236.949 364.159 237.257 364.006C238.643 363.39 242.031 362.006 244.649 362.313C245.573 362.467 246.035 363.39 242.493 365.236C238.951 367.083 238.181 369.698 238.181 369.698L232.328 370.621Z" fill="#F2F2F2"/>
    <g opacity="0.2">
        <path opacity="0.2" d="M403.899 477.39H232.482V522.929H403.899V477.39Z" fill="black"/>
        <path opacity="0.2" d="M271.602 486.313H243.879V514.006H271.602V486.313Z" fill="black"/>
        <path opacity="0.2" d="M243.879 486.313L271.602 514.006" stroke="black" stroke-width="0.5" stroke-miterlimit="10"/>
        <path opacity="0.2" d="M271.602 486.313L243.879 514.006" stroke="black" stroke-width="0.5" stroke-miterlimit="10"/>
        <path opacity="0.2" d="M384.34 492.467H281.151V495.698H384.34V492.467Z" fill="black"/>
        <path opacity="0.2" d="M384.34 504.621H281.151V507.852H384.34V504.621Z" fill="black"/>
        <path opacity="0.2" d="M373.251 498.621H281.151V501.852H373.251V498.621Z" fill="black"/>
    </g>
    <path d="M402.359 475.852H230.942V521.39H402.359V475.852Z" fill="#5620D8"/>
    <path d="M270.062 484.775H242.339V512.467H270.062V484.775Z" fill="#784DE0"/>
    <path d="M242.339 484.775L270.062 512.467" stroke="#5620D8" stroke-width="0.5" stroke-miterlimit="10"/>
    <path d="M270.062 484.775L242.339 512.467" stroke="#5620D8" stroke-width="0.5" stroke-miterlimit="10"/>
    <path d="M382.799 490.929H279.61V494.16H382.799V490.929Z" fill="#5799EE"/>
    <path d="M382.799 503.083H279.61V506.313H382.799V503.083Z" fill="#5799EE"/>
    <path d="M371.71 497.083H279.61V500.313H371.71V497.083Z" fill="#5799EE"/>
    <g opacity="0.2">
        <path opacity="0.2" d="M375.099 497.083H203.682V542.621H375.099V497.083Z" fill="black"/>
        <path opacity="0.2" d="M242.955 506.005H215.233V533.698H242.955V506.005Z" fill="black"/>
        <path opacity="0.2" d="M215.233 506.006L242.801 533.544" stroke="black" stroke-width="0.5" stroke-miterlimit="10"/>
        <path opacity="0.2" d="M242.801 506.006L215.233 533.544" stroke="black" stroke-width="0.5" stroke-miterlimit="10"/>
        <path opacity="0.2" d="M355.693 512.159H252.504V515.39H355.693V512.159Z" fill="black"/>
        <path opacity="0.2" d="M355.693 524.313H252.504V527.544H355.693V524.313Z" fill="black"/>
        <path opacity="0.2" d="M344.604 518.159H252.504V521.39H344.604V518.159Z" fill="black"/>
    </g>
    <path d="M373.559 495.544H202.142V541.083H373.559V495.544Z" fill="#2D80EA"/>
    <path d="M241.415 504.467H213.693V532.16H241.415V504.467Z" fill="#5620D8"/>
    <path d="M213.693 504.467L241.261 532.006" stroke="#2D80EA" stroke-width="0.5" stroke-miterlimit="10"/>
    <path d="M241.261 504.467L213.693 532.006" stroke="#2D80EA" stroke-width="0.5" stroke-miterlimit="10"/>
    <path d="M354.153 510.621H250.964V513.852H354.153V510.621Z" fill="#5799EE"/>
    <path d="M354.153 522.775H250.964V526.006H354.153V522.775Z" fill="#5799EE"/>
    <path d="M343.064 516.621H250.964V519.852H343.064V516.621Z" fill="#5799EE"/>
    <path d="M359.851 161.39C362.318 161.39 364.318 159.393 364.318 156.929C364.318 154.465 362.318 152.467 359.851 152.467C357.385 152.467 355.385 154.465 355.385 156.929C355.385 159.393 357.385 161.39 359.851 161.39Z" fill="white" stroke="#BEC8D2" stroke-miterlimit="10"/>
    <path d="M343.68 136.159C348.528 136.159 352.459 132.233 352.459 127.39C352.459 122.547 348.528 118.621 343.68 118.621C338.832 118.621 334.901 122.547 334.901 127.39C334.901 132.233 338.832 136.159 343.68 136.159Z" fill="white" stroke="#BEC8D2" stroke-miterlimit="10"/>
    <path d="M388.036 140.159C390.843 140.159 393.118 137.886 393.118 135.083C393.118 132.279 390.843 130.006 388.036 130.006C385.229 130.006 382.953 132.279 382.953 135.083C382.953 137.886 385.229 140.159 388.036 140.159Z" fill="white" stroke="#BEC8D2" stroke-miterlimit="10"/>
    <path d="M60.4492 112.467C64.3619 112.467 67.5338 109.299 67.5338 105.39C67.5338 101.482 64.3619 98.3134 60.4492 98.3134C56.5365 98.3134 53.3646 101.482 53.3646 105.39C53.3646 109.299 56.5365 112.467 60.4492 112.467Z" fill="white" stroke="#BEC8D2" stroke-miterlimit="10"/>
    <path d="M78.0067 89.3902C81.4091 89.3902 84.1673 86.635 84.1673 83.2364C84.1673 79.8377 81.4091 77.0825 78.0067 77.0825C74.6044 77.0825 71.8462 79.8377 71.8462 83.2364C71.8462 86.635 74.6044 89.3902 78.0067 89.3902Z" fill="white" stroke="#BEC8D2" stroke-miterlimit="10"/>
    <path d="M634.457 232.775C637.434 232.775 639.848 230.364 639.848 227.39C639.848 224.416 637.434 222.006 634.457 222.006C631.48 222.006 629.067 224.416 629.067 227.39C629.067 230.364 631.48 232.775 634.457 232.775Z" fill="white" stroke="#BEC8D2" stroke-miterlimit="10"/>
    <path d="M681.064 229.246C685.635 224.68 685.635 217.277 681.064 212.711C676.493 208.145 669.082 208.145 664.511 212.711C659.94 217.277 659.94 224.68 664.511 229.246C669.082 233.812 676.493 233.812 681.064 229.246Z" fill="white" stroke="#BEC8D2" stroke-miterlimit="10"/>
</svg>
