<svg width="100%" height="100%" viewBox="0 0 229 56" fill="none" xmlns="http://www.w3.org/2000/svg">
    <path d="M27.9779 5.66262C33.7852 5.663 39.3642 7.89019 43.5331 11.8724C47.7019 15.8545 50.1332 21.2789 50.3117 26.9962C50.4202 26.9962 50.5287 26.9962 50.6453 26.9962C51.458 27.0275 52.2663 26.8631 53 26.5173C52.701 20.2432 49.9841 14.3176 45.4031 9.94831C40.822 5.57903 34.7217 3.09504 28.3457 3.00267C21.9696 2.91031 15.7978 5.21652 11.0883 9.45121C6.37882 13.6859 3.48617 19.5303 3 25.793C3.80005 26.3172 4.70404 26.668 5.6521 26.8221C5.87443 21.1364 8.3239 15.7565 12.4865 11.8114C16.6491 7.86622 22.2013 5.66249 27.9779 5.66262Z" fill="#5620D8"/>
    <path d="M50.2633 29.7275C49.7228 35.3563 47.1385 40.5779 43.0151 44.3724C38.8917 48.1669 33.5256 50.2615 27.9649 50.2472C22.4043 50.2329 17.0486 48.1107 12.9441 44.2951C8.8397 40.4794 6.28135 35.2446 5.76885 29.6131H5.41119C4.57613 29.5686 3.75739 29.3604 3 29C3.36968 35.4633 6.14463 41.5411 10.7611 45.9987C15.3776 50.4564 21.4894 52.9594 27.8549 52.9995C34.2204 53.0396 40.3622 50.6136 45.0326 46.2145C49.703 41.8153 52.5517 35.7729 53 29.3147C52.454 29.5745 51.8623 29.7205 51.2599 29.7439C50.9277 29.7603 50.5948 29.7549 50.2633 29.7275Z" fill="#B1B1B1"/>
    <path d="M12.9616 36.6705C10.7347 32.813 10.0347 28.2715 11.0066 23.9879C11.9786 19.7044 14.5479 16.0076 18.1818 13.6645C17.4119 13.0173 16.7009 12.488 16.0318 11.8158C12.0472 14.6398 9.29142 18.9073 8.31007 23.7733C7.32873 28.6393 8.19333 33.7492 10.7327 38.0914C13.2721 42.4335 17.3011 45.6913 22.0222 47.2199C26.7432 48.7484 31.8121 48.4362 36.2253 46.3451C36.0717 45.3849 36.0062 44.4496 35.7919 43.4959C31.9364 45.5773 27.394 46.0286 23.1305 44.754C18.8671 43.4794 15.2189 40.5794 12.9616 36.6705Z" fill="#B1B1B1"/>
    <path d="M43.0057 19.3246C45.0893 22.9263 45.8152 27.1525 45.0502 31.2288C44.2853 35.3051 42.0807 38.9585 38.8406 41.5195C39.0599 42.5344 39.0441 43.5004 39.2186 44.6169C43.4473 41.7928 46.4263 37.4423 47.5431 32.4602C48.6599 27.4781 47.8294 22.2432 45.2225 17.8323C42.6157 13.4213 38.4306 10.1697 33.5282 8.74626C28.6257 7.32279 23.3786 7.83568 18.8661 10.1794C19.5855 10.8987 20.3851 11.5322 21.2488 12.0674C25.1134 10.3948 29.4648 10.21 33.476 11.548C37.4873 12.886 40.8787 15.6535 43.0057 19.3246Z" fill="#5620D8"/>
    <path d="M15.2353 25.2638C15.7837 25.317 16.3274 25.4098 16.8618 25.5414C17.4292 23.0246 18.8728 20.7781 20.9462 19.1848C23.0196 17.5916 25.5945 16.7502 28.2318 16.8043C30.8692 16.8584 33.4057 17.8046 35.4088 19.4815C37.4119 21.1584 38.7576 23.4622 39.2165 26C39.9324 25.7512 40.6641 25.5483 41.4071 25.3926C41.6129 25.3483 41.8188 25.3161 42 25.288C41.3712 22.1165 39.6343 19.2568 37.0862 17.1979C34.5381 15.139 31.3372 14.0086 28.0305 14C24.7238 13.9915 21.5168 15.1053 18.9576 17.151C16.3984 19.1967 14.646 22.0474 14 25.2156C14.4124 25.2088 14.8248 25.2249 15.2353 25.2638Z" fill="#5620D8"/>
    <path d="M28.0042 39.1363C25.1224 39.135 22.3522 38.0329 20.2706 36.0595C18.1889 34.0862 16.9563 31.3938 16.8293 28.543C15.928 28.1908 14.8934 27.8906 14.0002 28.0387V28.0587C13.9793 31.7354 15.4343 35.2698 18.045 37.8842C20.6557 40.4987 24.2083 41.9791 27.9213 41.9998C31.6343 42.0205 35.2035 40.5798 37.8438 37.9946C40.4841 35.4094 41.9791 31.8915 42 28.2148C41.0217 28.3809 40.0639 28.6492 39.1426 29.0152C38.9019 31.7764 37.6243 34.3479 35.5621 36.2217C33.4999 38.0956 30.803 39.1356 28.0042 39.1363Z" fill="#B1B1B1"/>
    <path d="M32.4006 29.2148C32.1223 30.5457 31.3332 31.7176 30.1942 32.4917C29.0552 33.2659 27.6518 33.5841 26.2698 33.3815C26.1933 34.2971 26.201 35.2185 26.2929 36.1345C28.2887 36.34 30.2853 35.8336 31.913 34.7092C33.5406 33.5847 34.689 31.9183 35.1453 30.0187C35.6017 28.1192 35.335 26.1152 34.3948 24.378C33.4546 22.6407 31.9046 21.2881 30.0319 20.5705C29.5094 21.3351 29.0621 22.1465 28.6958 22.9942C29.9862 23.4109 31.0783 24.2766 31.7622 25.4249C32.4461 26.5732 32.6734 27.923 32.4006 29.2148Z" fill="#5620D8"/>
    <path d="M24.7232 31.7916C23.8837 31.1712 23.2411 30.3673 22.8656 29.4678C22.4901 28.5683 22.3963 27.608 22.5942 26.6918C22.7922 25.7756 23.2744 24.9389 23.9882 24.2731C24.7019 23.6074 25.6196 23.1383 26.6409 22.9171C26.6949 22.4992 26.7999 22.09 26.954 21.6966C27.2089 21.0684 27.4353 20.9118 28.0221 20.1492C26.053 20.1017 24.1587 20.6418 22.644 21.6826C21.1292 22.7233 20.082 24.2042 19.6708 25.8871C19.2596 27.5699 19.5082 29.3569 20.3768 30.9605C21.2454 32.5642 22.6834 33.8913 24.4596 34.7284C24.3468 34.3763 24.2966 34.0136 24.3108 33.6536C24.3357 33.0124 24.4748 32.384 24.7232 31.7916Z" fill="#B1B1B1"/>
    <path d="M78.34 18C81.06 18 83.2 18.65 84.76 19.95C86.32 21.25 87.1 23.04 87.1 25.32C87.1 27.6 86.32 29.39 84.76 30.69C83.2 31.99 81.06 32.64 78.34 32.64H73.15V39H70.15V18H78.34ZM78.25 30.03C80.15 30.03 81.6 29.63 82.6 28.83C83.6 28.01 84.1 26.84 84.1 25.32C84.1 23.8 83.6 22.64 82.6 21.84C81.6 21.02 80.15 20.61 78.25 20.61H73.15V30.03H78.25ZM94.5074 18H97.5074V39H94.5074V18ZM106.795 18H109.795V36.39H121.165V39H106.795V18ZM127.607 18H130.607V39H127.607V18ZM154.444 28.38H157.324V36.57C156.284 37.43 155.074 38.09 153.694 38.55C152.314 39.01 150.874 39.24 149.374 39.24C147.254 39.24 145.344 38.78 143.644 37.86C141.944 36.92 140.604 35.64 139.624 34.02C138.664 32.38 138.184 30.54 138.184 28.5C138.184 26.46 138.664 24.62 139.624 22.98C140.604 21.34 141.944 20.06 143.644 19.14C145.364 18.22 147.294 17.76 149.434 17.76C151.114 17.76 152.634 18.04 153.994 18.6C155.374 19.14 156.544 19.94 157.504 21L155.644 22.86C153.964 21.24 151.934 20.43 149.554 20.43C147.954 20.43 146.514 20.78 145.234 21.48C143.974 22.16 142.984 23.12 142.264 24.36C141.544 25.58 141.184 26.96 141.184 28.5C141.184 30.02 141.544 31.4 142.264 32.64C142.984 33.86 143.974 34.82 145.234 35.52C146.514 36.22 147.944 36.57 149.524 36.57C151.404 36.57 153.044 36.12 154.444 35.22V28.38ZM180.108 39L175.578 32.55C175.018 32.59 174.578 32.61 174.258 32.61H169.068V39H166.068V18H174.258C176.978 18 179.118 18.65 180.678 19.95C182.238 21.25 183.018 23.04 183.018 25.32C183.018 26.94 182.618 28.32 181.818 29.46C181.018 30.6 179.878 31.43 178.398 31.95L183.378 39H180.108ZM174.168 30.06C176.068 30.06 177.518 29.65 178.518 28.83C179.518 28.01 180.018 26.84 180.018 25.32C180.018 23.8 179.518 22.64 178.518 21.84C177.518 21.02 176.068 20.61 174.168 20.61H169.068V30.06H174.168ZM190.865 18H193.865V39H190.865V18ZM222.622 39L222.592 23.7L215.002 36.45H213.622L206.032 23.79V39H203.152V18H205.612L214.372 32.76L223.012 18H225.472L225.502 39H222.622Z" fill="black"/>
</svg>
