<svg width="229" height="55" viewBox="0 0 229 55" fill="none" xmlns="http://www.w3.org/2000/svg">
<path d="M27.9779 4.98293C33.7852 4.98331 39.3642 7.2105 43.5331 11.1927C47.7019 15.1748 50.1332 20.5992 50.3117 26.3166C50.4202 26.3166 50.5287 26.3166 50.6453 26.3166C51.458 26.3478 52.2663 26.1835 53 25.8376C52.701 19.5635 49.9841 13.6379 45.4031 9.26862C40.822 4.89934 34.7217 2.41535 28.3457 2.32298C21.9696 2.23062 15.7978 4.53683 11.0883 8.77152C6.37882 13.0062 3.48617 18.8506 3 25.1133C3.80005 25.6375 4.70404 25.9883 5.6521 26.1424C5.87443 20.4567 8.3239 15.0768 12.4865 11.1317C16.6491 7.18653 22.2013 4.98281 27.9779 4.98293Z" fill="white"/>
<path d="M50.2633 29.0478C49.7228 34.6766 47.1385 39.8983 43.0151 43.6927C38.8917 47.4872 33.5256 49.5818 27.9649 49.5675C22.4043 49.5532 17.0486 47.431 12.9441 43.6154C8.8397 39.7997 6.28135 34.5649 5.76885 28.9334H5.41119C4.57613 28.8889 3.75739 28.6807 3 28.3203C3.36968 34.7836 6.14463 40.8614 10.7611 45.3191C15.3776 49.7767 21.4894 52.2798 27.8549 52.3198C34.2204 52.3599 40.3622 49.9339 45.0326 45.5348C49.703 41.1356 52.5517 35.0932 53 28.635C52.454 28.8949 51.8623 29.0408 51.2599 29.0642C50.9277 29.0806 50.5948 29.0752 50.2633 29.0478Z" fill="#B1B1B1"/>
<path d="M12.9616 35.9911C10.7347 32.1336 10.0347 27.592 11.0066 23.3085C11.9786 19.0249 14.5479 15.3282 18.1818 12.9851C17.4119 12.3379 16.7009 11.8086 16.0318 11.1364C12.0472 13.9604 9.29142 18.2278 8.31007 23.0939C7.32873 27.9599 8.19333 33.0698 10.7327 37.4119C13.2721 41.7541 17.3011 45.0119 22.0222 46.5404C26.7432 48.069 31.8121 47.7568 36.2253 45.6657C36.0717 44.7054 36.0062 43.7702 35.7919 42.8164C31.9364 44.8978 27.394 45.3492 23.1305 44.0746C18.8671 42.8 15.2189 39.8999 12.9616 35.9911Z" fill="#B1B1B1"/>
<path d="M43.0057 18.6452C45.0893 22.2468 45.8152 26.473 45.0502 30.5493C44.2853 34.6257 42.0807 38.279 38.8406 40.84C39.0599 41.855 39.0441 42.8209 39.2186 43.9375C43.4473 41.1134 46.4263 36.7629 47.5431 31.7807C48.6599 26.7986 47.8294 21.5638 45.2225 17.1528C42.6157 12.7419 38.4306 9.49029 33.5282 8.06682C28.6257 6.64335 23.3786 7.15624 18.8661 9.5C19.5855 10.2192 20.3851 10.8528 21.2488 11.388C25.1134 9.71541 29.4648 9.53055 33.476 10.8685C37.4873 12.2065 40.8787 14.9741 43.0057 18.6452Z" fill="white"/>
<path d="M15.2353 24.5841C15.7837 24.6373 16.3274 24.7301 16.8618 24.8617C17.4292 22.3449 18.8728 20.0984 20.9462 18.5051C23.0196 16.9119 25.5945 16.0706 28.2318 16.1247C30.8692 16.1788 33.4057 17.1249 35.4088 18.8018C37.4119 20.4787 38.7576 22.7825 39.2165 25.3203C39.9324 25.0715 40.6641 24.8686 41.4071 24.7129C41.6129 24.6686 41.8188 24.6364 42 24.6083C41.3712 21.4368 39.6343 18.5771 37.0862 16.5182C34.5381 14.4593 31.3372 13.3289 28.0305 13.3204C24.7238 13.3118 21.5168 14.4256 18.9576 16.4713C16.3984 18.517 14.646 21.3677 14 24.5359C14.4124 24.5291 14.8248 24.5452 15.2353 24.5841Z" fill="white"/>
<path d="M28.0042 38.4566C25.1224 38.4553 22.3522 37.3532 20.2706 35.3799C18.1889 33.4065 16.9563 30.7141 16.8293 27.8633C15.928 27.5111 14.8934 27.2109 14.0002 27.359V27.379C13.9793 31.0557 15.4343 34.5901 18.045 37.2045C20.6557 39.819 24.2083 41.2994 27.9213 41.3201C31.6343 41.3408 35.2035 39.9001 37.8438 37.3149C40.4841 34.7297 41.9791 31.2118 42 27.5351C41.0217 27.7012 40.0639 27.9695 39.1426 28.3355C38.9019 31.0967 37.6243 33.6682 35.5621 35.5421C33.4999 37.4159 30.803 38.4559 28.0042 38.4566Z" fill="#B1B1B1"/>
<path d="M32.4006 28.5354C32.1223 29.8663 31.3332 31.0382 30.1942 31.8123C29.0552 32.5864 27.6518 32.9046 26.2698 32.7021C26.1933 33.6177 26.201 34.539 26.2929 35.4551C28.2887 35.6606 30.2853 35.1542 31.913 34.0297C33.5406 32.9052 34.689 31.2389 35.1453 29.3393C35.6017 27.4397 35.335 25.4357 34.3948 23.6985C33.4546 21.9613 31.9046 20.6086 30.0319 19.8911C29.5094 20.6556 29.0621 21.4671 28.6958 22.3148C29.9862 22.7315 31.0783 23.5971 31.7622 24.7454C32.4461 25.8937 32.6734 27.2435 32.4006 28.5354Z" fill="white"/>
<path d="M24.7232 31.1122C23.8837 30.4917 23.2411 29.6878 22.8656 28.7884C22.4901 27.8889 22.3963 26.9285 22.5942 26.0124C22.7922 25.0962 23.2744 24.2594 23.9882 23.5937C24.7019 22.9279 25.6196 22.4588 26.6409 22.2377C26.6949 21.8197 26.7999 21.4105 26.954 21.0171C27.2089 20.389 27.4353 20.2324 28.0221 19.4697C26.053 19.4223 24.1587 19.9624 22.644 21.0031C21.1292 22.0439 20.082 23.5248 19.6708 25.2076C19.2596 26.8905 19.5082 28.6774 20.3768 30.2811C21.2454 31.8847 22.6834 33.2118 24.4596 34.0489C24.3468 33.6968 24.2966 33.3341 24.3108 32.9742C24.3357 32.3329 24.4748 31.7046 24.7232 31.1122Z" fill="#B1B1B1"/>
<path d="M78.34 17C81.06 17 83.2 17.65 84.76 18.95C86.32 20.25 87.1 22.04 87.1 24.32C87.1 26.6 86.32 28.39 84.76 29.69C83.2 30.99 81.06 31.64 78.34 31.64H73.15V38H70.15V17H78.34ZM78.25 29.03C80.15 29.03 81.6 28.63 82.6 27.83C83.6 27.01 84.1 25.84 84.1 24.32C84.1 22.8 83.6 21.64 82.6 20.84C81.6 20.02 80.15 19.61 78.25 19.61H73.15V29.03H78.25ZM94.5074 17H97.5074V38H94.5074V17ZM106.795 17H109.795V35.39H121.165V38H106.795V17ZM127.607 17H130.607V38H127.607V17ZM154.444 27.38H157.324V35.57C156.284 36.43 155.074 37.09 153.694 37.55C152.314 38.01 150.874 38.24 149.374 38.24C147.254 38.24 145.344 37.78 143.644 36.86C141.944 35.92 140.604 34.64 139.624 33.02C138.664 31.38 138.184 29.54 138.184 27.5C138.184 25.46 138.664 23.62 139.624 21.98C140.604 20.34 141.944 19.06 143.644 18.14C145.364 17.22 147.294 16.76 149.434 16.76C151.114 16.76 152.634 17.04 153.994 17.6C155.374 18.14 156.544 18.94 157.504 20L155.644 21.86C153.964 20.24 151.934 19.43 149.554 19.43C147.954 19.43 146.514 19.78 145.234 20.48C143.974 21.16 142.984 22.12 142.264 23.36C141.544 24.58 141.184 25.96 141.184 27.5C141.184 29.02 141.544 30.4 142.264 31.64C142.984 32.86 143.974 33.82 145.234 34.52C146.514 35.22 147.944 35.57 149.524 35.57C151.404 35.57 153.044 35.12 154.444 34.22V27.38ZM180.108 38L175.578 31.55C175.018 31.59 174.578 31.61 174.258 31.61H169.068V38H166.068V17H174.258C176.978 17 179.118 17.65 180.678 18.95C182.238 20.25 183.018 22.04 183.018 24.32C183.018 25.94 182.618 27.32 181.818 28.46C181.018 29.6 179.878 30.43 178.398 30.95L183.378 38H180.108ZM174.168 29.06C176.068 29.06 177.518 28.65 178.518 27.83C179.518 27.01 180.018 25.84 180.018 24.32C180.018 22.8 179.518 21.64 178.518 20.84C177.518 20.02 176.068 19.61 174.168 19.61H169.068V29.06H174.168ZM190.865 17H193.865V38H190.865V17ZM222.622 38L222.592 22.7L215.002 35.45H213.622L206.032 22.79V38H203.152V17H205.612L214.372 31.76L223.012 17H225.472L225.502 38H222.622Z" fill="white"/>
</svg>
