<svg width="35" height="35" viewBox="0 0 35 35" fill="none" xmlns="http://www.w3.org/2000/svg">
<path d="M0 30.4871C0 32.9797 2.02057 35 4.51295 35H30.4869C32.9797 35 35 32.9794 35 30.4871V4.51309C35 2.02029 32.9794 0 30.4871 0H4.51309C2.02029 0 0 2.02057 0 4.51295V30.4869V30.4871Z" fill="#563D7C"/>
<path d="M14.5138 15.4818V10.5253H18.8766C19.2922 10.5253 19.6928 10.5599 20.0786 10.6292C20.4645 10.6984 20.8058 10.822 21.1027 11.0001C21.3993 11.1783 21.6368 11.4256 21.815 11.7421C21.993 12.0587 22.0821 12.4644 22.0821 12.9589C22.0821 13.8493 21.815 14.4925 21.2807 14.8881C20.7465 15.2839 20.0639 15.4818 19.2328 15.4818H14.5138ZM9.854 6.9043V28.0957H20.1232C21.073 28.0957 21.998 27.977 22.8983 27.7396C23.7986 27.5021 24.5999 27.1361 25.3024 26.6414C26.0047 26.1468 26.5638 25.5086 26.9792 24.7271C27.3949 23.9455 27.6025 23.0204 27.6025 21.952C27.6025 20.6262 27.281 19.4935 26.638 18.5537C25.9949 17.6138 25.0203 16.9559 23.7144 16.5799C24.6642 16.1249 25.3815 15.5411 25.8664 14.8288C26.351 14.1165 26.5934 13.2262 26.5934 12.1576C26.5934 11.1683 26.4302 10.3373 26.1037 9.66451C25.7772 8.99186 25.3172 8.45264 24.7235 8.04699C24.13 7.64135 23.4177 7.34945 22.5866 7.17145C21.7556 6.9933 20.8355 6.9043 19.8264 6.9043H9.854ZM14.5138 24.4747V18.6575H19.5889C20.598 18.6575 21.4093 18.8899 22.0228 19.355C22.6361 19.82 22.9429 20.5965 22.9429 21.6848C22.9429 22.2389 22.8488 22.6939 22.6608 23.0501C22.4729 23.4062 22.2206 23.6883 21.904 23.896C21.5875 24.1038 21.2213 24.2521 20.8058 24.3413C20.3902 24.4301 19.955 24.4747 19.4999 24.4747H14.5138Z" fill="white"/>
</svg>
