<svg width="35" height="35" viewBox="0 0 35 35" fill="none" xmlns="http://www.w3.org/2000/svg">
<path d="M35 35H0V0H35V35Z" fill="#FF80E4"/>
<path d="M35 35H17.5V0H35V35Z" fill="#FF5AD4"/>
<path d="M32.9492 32.9492H2.05078V2.05078H32.9492V32.9492Z" fill="#7F1363"/>
<path d="M32.9492 32.9492H17.5V2.05078H32.9492V32.9492Z" fill="#661054"/>
<path d="M10.012 12.4141L12.9159 16.7453L15.8034 12.4141H18.248L14.0972 18.3203L18.1167 24.0625H15.6722L12.9159 19.8953L10.1433 24.0625H7.68241L11.7019 18.3203L7.55109 12.4141H10.012Z" fill="#FF80E4"/>
<path d="M22.2675 24.2266C19.7435 24.2266 18.1823 22.1228 18.1823 19.7641C18.1823 17.0898 19.9828 15.318 22.0213 15.318C23.7482 15.318 24.6406 16.4828 24.9252 16.975V12.0859H27.1236V21.5359C27.1236 21.7656 27.4461 22.1814 27.6322 22.1922V24.0625C27.2492 24.1389 26.9374 24.1773 26.697 24.1773C25.1096 24.1773 25.2533 22.5695 25.2533 22.5695C24.936 23.1166 23.9903 24.2266 22.2675 24.2266ZM22.8417 22.3563C24.2211 22.3563 24.8486 21.1204 24.9252 20.9125V18.8617C24.8376 18.6212 24.0502 17.1883 22.7104 17.1883C21.2133 17.1883 20.4628 18.6735 20.4628 19.8133C20.4628 21.0661 21.3841 22.3563 22.8417 22.3563Z" fill="#FF5AD4"/>
<path d="M17.5 12.4141V13.4783L18.2479 12.4141H17.5Z" fill="#FF5AD4"/>
<path d="M17.5 24.0625H18.1167L17.5 23.1815V24.0625Z" fill="#FF5AD4"/>
</svg>
