<svg width="122" height="35" viewBox="0 0 122 35" fill="none" xmlns="http://www.w3.org/2000/svg">
<g clip-path="url(#clip0)">
<path d="M0.788447 27.1546V13.7783H17.6232V12.9959H0.788447V0.79284H18.6875V0.0106506H0V27.9368H18.8451V27.1546H0.788683H0.788447ZM34.0241 7.83301L27.0459 16.9463L20.2251 7.83325H19.2L26.5727 17.5331L18.4902 27.9366H19.4364L27.0455 18.1193L34.694 27.9366H35.6796L27.558 17.5327L34.9699 7.83278H34.0239L34.0241 7.83301ZM38.0454 34.8206V22.3049H38.1242C38.5974 24.1301 39.5305 25.5968 40.9235 26.7051C42.3165 27.8131 44.0905 28.3674 46.2458 28.3674C47.6388 28.3674 48.8742 28.0871 49.9518 27.5265C51.0294 26.9659 51.9296 26.2032 52.6525 25.2384C53.3751 24.2735 53.9272 23.1524 54.3084 21.8746C54.6894 20.5971 54.8801 19.2541 54.8801 17.8463C54.8801 16.3338 54.6827 14.9387 54.2885 13.6612C53.8943 12.3834 53.3226 11.2752 52.5737 10.3366C51.8245 9.39786 50.9177 8.66755 49.8532 8.1464C48.7888 7.62479 47.5863 7.36398 46.2458 7.36398C45.2207 7.36398 44.268 7.51399 43.3875 7.81376C42.507 8.11377 41.7252 8.53726 41.0418 9.08494C40.3544 9.63682 39.7561 10.2897 39.2676 11.0209C38.7683 11.7641 38.3871 12.579 38.1242 13.4656H38.0454V7.83301H37.2569V34.8206H38.0454ZM46.2458 27.6239C43.7753 27.6239 41.7907 26.783 40.2926 25.1013C38.7946 23.4195 38.0454 21.0009 38.0454 17.8458C38.0454 16.542 38.2295 15.3035 38.5974 14.1302C38.9654 12.9569 39.4976 11.9268 40.194 11.0404C40.8906 10.1538 41.7515 9.44974 42.7763 8.92836C43.8014 8.40674 44.958 8.14593 46.2458 8.14593C47.56 8.14593 48.71 8.40674 49.6956 8.92836C50.6811 9.44974 51.4961 10.1603 52.1399 11.0599C52.7838 11.9595 53.2701 12.9895 53.5987 14.1497C53.9272 15.3101 54.0914 16.542 54.0914 17.8458C54.0914 19.0193 53.9404 20.1863 53.638 21.3464C53.3358 22.5068 52.8692 23.5498 52.2384 24.4757C51.6078 25.401 50.7997 26.1572 49.8139 26.7441C48.8281 27.3307 47.6388 27.6239 46.2458 27.6239ZM59.2168 27.9368V16.5552C59.2168 15.4601 59.3744 14.3908 59.69 13.348C60.0052 12.305 60.4915 11.3857 61.1486 10.5906C61.8057 9.79529 62.6401 9.16945 63.6521 8.71309C64.664 8.25674 65.8665 8.06776 67.2596 8.14593V7.36374C66.0504 7.33792 64.9927 7.46797 64.0859 7.75484C63.1789 8.0417 62.3971 8.4328 61.74 8.92836C61.0828 9.42368 60.5573 10.0037 60.1631 10.6688C59.7691 11.3328 59.4768 12.0511 59.2956 12.8003H59.2168V7.83301H58.4283V27.9371H59.2168V27.9368ZM68.2451 18.0414H85.1979C85.2507 16.6594 85.1127 15.3298 84.784 14.052C84.4556 12.7743 83.9298 11.64 83.2071 10.6493C82.4842 9.65843 81.5512 8.8631 80.4078 8.26331C79.2644 7.66352 77.9043 7.36374 76.3274 7.36374C75.197 7.36374 74.0932 7.5985 73.0155 8.068C71.9379 8.53726 70.9917 9.22156 70.1769 10.1211C69.3622 11.0207 68.7051 12.1224 68.2058 13.4264C67.7065 14.73 67.4567 16.2162 67.4567 17.885C67.4567 19.3712 67.6275 20.7598 67.9692 22.0504C68.3109 23.3411 68.8364 24.4625 69.5461 25.4142C70.256 26.3659 71.1694 27.1025 72.2863 27.6239C73.4031 28.1455 74.7503 28.3932 76.3274 28.3671C78.6402 28.3671 80.5853 27.7216 82.1622 26.4311C83.7393 25.1402 84.6723 23.3216 84.9615 20.9748H84.173C83.8314 23.1913 82.9573 24.8536 81.5512 25.9616C80.1449 27.0699 78.3775 27.6239 76.2484 27.6239C74.8028 27.6239 73.5806 27.3762 72.5818 26.8809C71.5832 26.3856 70.7683 25.7074 70.1374 24.847C69.5068 23.9864 69.0402 22.9761 68.738 21.8157C68.4356 20.6556 68.2714 19.3973 68.2451 18.0414ZM84.4094 17.2592H68.2453C68.3239 15.8512 68.5868 14.5866 69.0336 13.4654C69.4806 12.344 70.0653 11.3857 70.7882 10.5906C71.5108 9.79529 72.352 9.18917 73.3113 8.77178C74.2706 8.35463 75.3023 8.14593 76.4062 8.14593C77.7204 8.14593 78.8766 8.38726 79.8756 8.86967C80.8742 9.35208 81.7088 10.0106 82.3792 10.8449C83.0493 11.6792 83.5552 12.6506 83.8969 13.7586C84.2386 14.8668 84.4094 16.0338 84.4094 17.2592ZM101.56 13.7783H102.348C102.348 11.5357 101.691 9.90609 100.377 8.88915C99.0624 7.87221 97.2752 7.36374 95.0149 7.36374C93.7532 7.36374 92.6889 7.52032 91.8214 7.83325C90.9541 8.14593 90.2445 8.55017 89.6924 9.0455C89.1406 9.54082 88.7464 10.0885 88.5098 10.6883C88.2731 11.2881 88.1548 11.8618 88.1548 12.4092C88.1548 13.5044 88.3519 14.3779 88.7464 15.0298C89.1406 15.6817 89.7582 16.1901 90.5992 16.5552C91.1775 16.8157 91.8344 17.0505 92.5705 17.2594C93.3064 17.4679 94.1607 17.6895 95.1332 17.924C96.0005 18.1329 96.8547 18.3414 97.6959 18.5498C98.5369 18.7585 99.2794 19.0388 99.9233 19.3907C100.567 19.7428 101.093 20.1926 101.5 20.7403C101.908 21.2877 102.111 22.0049 102.111 22.8913C102.111 23.7519 101.908 24.482 101.5 25.0815C101.096 25.6782 100.565 26.1791 99.9432 26.5485C99.3123 26.9265 98.6091 27.2002 97.8339 27.3697C97.0584 27.5392 96.3029 27.6239 95.567 27.6239C93.1751 27.6239 91.3417 27.0959 90.067 26.04C88.7923 24.9839 88.155 23.3216 88.155 21.053H87.3664C87.3664 23.5824 88.0564 25.4337 89.4361 26.6072C90.8162 27.7805 92.8597 28.3671 95.567 28.3671C96.4342 28.3671 97.3081 28.2692 98.1888 28.0737C99.0691 27.8781 99.8577 27.5589 100.554 27.1154C101.245 26.6783 101.825 26.0895 102.249 25.3947C102.683 24.6905 102.9 23.8301 102.9 22.8132C102.9 21.8483 102.709 21.0661 102.328 20.4664C101.947 19.8668 101.448 19.3712 100.83 18.9801C100.212 18.5891 99.5161 18.2827 98.7406 18.0611C97.9608 17.8382 97.1788 17.623 96.3947 17.4155C95.4297 17.1644 94.4638 16.9167 93.4969 16.6725C92.6692 16.4639 91.9004 16.2162 91.1908 15.9293C90.5074 15.6425 89.9619 15.2319 89.5545 14.6974C89.147 14.1628 88.9435 13.4001 88.9435 12.4092C88.9435 12.2268 88.996 11.9008 89.1011 11.4315C89.2061 10.962 89.456 10.4862 89.8502 10.0037C90.2445 9.52157 90.8488 9.09127 91.6638 8.71309C92.4785 8.33514 93.5956 8.14593 95.0149 8.14593C95.9874 8.14593 96.8743 8.2504 97.676 8.45886C98.4777 8.66755 99.1677 8.99996 99.7458 9.45631C100.324 9.91267 100.771 10.4927 101.086 11.1968C101.402 11.901 101.56 12.7614 101.56 13.7783ZM119.813 13.7783H120.602C120.602 11.5357 119.945 9.90609 118.631 8.88915C117.316 7.87221 115.529 7.36374 113.269 7.36374C112.007 7.36374 110.943 7.52032 110.075 7.83325C109.208 8.14593 108.498 8.55017 107.946 9.0455C107.394 9.54082 107 10.0885 106.764 10.6883C106.527 11.2881 106.409 11.8618 106.409 12.4092C106.409 13.5044 106.606 14.3779 107 15.0298C107.394 15.6817 108.012 16.1901 108.853 16.5552C109.432 16.8157 110.088 17.0505 110.824 17.2594C111.56 17.4679 112.414 17.6895 113.387 17.924C114.254 18.1329 115.109 18.3414 115.95 18.5498C116.791 18.7585 117.533 19.0388 118.177 19.3907C118.821 19.7428 119.347 20.1926 119.754 20.7403C120.162 21.2877 120.365 22.0049 120.365 22.8913C120.365 23.7519 120.162 24.482 119.754 25.0815C119.35 25.6782 118.819 26.1791 118.197 26.5485C117.566 26.9265 116.863 27.2002 116.088 27.3697C115.312 27.5392 114.557 27.6239 113.821 27.6239C111.429 27.6239 109.596 27.0959 108.321 26.04C107.046 24.9839 106.409 23.3216 106.409 21.053H105.62C105.62 23.5824 106.31 25.4337 107.69 26.6072C109.07 27.7805 111.113 28.3671 113.821 28.3671C114.688 28.3671 115.562 28.2692 116.443 28.0737C117.323 27.8781 118.112 27.5589 118.808 27.1154C119.499 26.6783 120.079 26.0895 120.503 25.3947C120.937 24.6905 121.154 23.8301 121.154 22.8132C121.154 21.8483 120.963 21.0661 120.582 20.4664C120.201 19.8668 119.702 19.3712 119.084 18.9801C118.466 18.5891 117.77 18.2827 116.995 18.0611C116.215 17.8382 115.433 17.623 114.649 17.4155C113.684 17.1644 112.718 16.9167 111.751 16.6725C110.923 16.4639 110.154 16.2162 109.445 15.9293C108.761 15.6425 108.216 15.2319 107.808 14.6974C107.401 14.1628 107.197 13.4001 107.197 12.4092C107.197 12.2268 107.25 11.9008 107.355 11.4315C107.46 10.962 107.71 10.4862 108.104 10.0037C108.498 9.52157 109.103 9.09127 109.918 8.71309C110.732 8.33514 111.849 8.14593 113.269 8.14593C114.241 8.14593 115.128 8.2504 115.93 8.45886C116.732 8.66755 117.422 8.99996 118 9.45631C118.578 9.91267 119.025 10.4927 119.34 11.1968C119.656 11.901 119.814 12.7614 119.814 13.7783H119.813Z" fill="#222222"/>
</g>
<defs>
<clipPath id="clip0">
<rect width="121.154" height="35" fill="white"/>
</clipPath>
</defs>
</svg>
