<svg width="25" height="35" viewBox="0 0 25 35" fill="none" xmlns="http://www.w3.org/2000/svg">
<g clip-path="url(#clip0)">
<path d="M6.12591 35C9.50623 35 12.2497 32.3867 12.2497 29.1667V23.3333H6.12591C2.74559 23.3333 0.00213623 25.9467 0.00213623 29.1667C0.00213623 32.3867 2.74559 35 6.12591 35Z" fill="#4FCB63"/>
<path d="M0.00213623 17.5C0.00213623 14.28 2.74559 11.6667 6.12591 11.6667H12.2497V23.3333H6.12591C2.74559 23.3333 0.00213623 20.72 0.00213623 17.5Z" fill="#895DB5"/>
<path d="M0.00299072 5.83333C0.00299072 2.61333 2.74644 -3.8147e-06 6.12676 -3.8147e-06H12.2505V11.6667H6.12676C2.74644 11.6667 0.00299072 9.05333 0.00299072 5.83333Z" fill="#E14040"/>
<path d="M12.25 -3.8147e-06H18.3738C21.7541 -3.8147e-06 24.4976 2.61333 24.4976 5.83333C24.4976 9.05333 21.7541 11.6667 18.3738 11.6667H12.25V-3.8147e-06Z" fill="#F2925C"/>
<path d="M24.4976 17.5C24.4976 20.72 21.7541 23.3333 18.3738 23.3333C14.9935 23.3333 12.25 20.72 12.25 17.5C12.25 14.28 14.9935 11.6667 18.3738 11.6667C21.7541 11.6667 24.4976 14.28 24.4976 17.5Z" fill="#1BC0D7"/>
</g>
<defs>
<clipPath id="clip0">
<rect width="24.5" height="35" fill="white"/>
</clipPath>
</defs>
</svg>
