<svg width="18" height="39" viewBox="0 0 18 39" fill="none" xmlns="http://www.w3.org/2000/svg">
<path d="M13.8681 37.8113L14.2496 31.5803L15.303 29.8177C15.303 29.8177 12.9054 30.7791 8.89158 30.7791C4.87765 30.7791 2.51646 29.8355 2.51646 29.8355L3.69702 31.7582L4.11465 37.8113C4.11465 38.4603 6.29799 38.9863 8.9914 38.9863C11.6847 38.9863 13.8681 38.4603 13.8681 37.8113ZM12.6647 8.71326L13.4654 5.61083L17.8998 1.03722L16.731 0.0614624L12.0364 4.9335L11.1066 8.64008C10.4069 8.6171 9.70679 8.60569 9.00665 8.60584C4.06228 8.60584 0.0540466 9.15818 0.0540466 9.83937C0.0540466 10.5206 4.06228 11.0729 9.00665 11.0729C13.951 11.0729 17.9591 10.5206 17.9591 9.83937C17.9591 9.33774 15.7853 8.90599 12.6647 8.71326Z" fill="#D34A47"/>
<path d="M12.1989 10.4507C12.1989 10.4507 12.0255 10.4888 11.5153 10.4909C11.005 10.493 10.6427 10.4877 10.4984 10.3588C10.4596 10.3243 10.4384 10.2556 10.4386 10.209C10.439 10.1205 10.5031 10.0683 10.5848 10.0357L10.6621 10.1545C10.6285 10.1658 10.6093 10.1793 10.6092 10.1936C10.6089 10.2609 11.1309 10.3069 11.5302 10.3019C11.9296 10.2971 12.4121 10.2649 12.4125 10.1986C12.4125 10.1785 12.376 10.1596 12.3126 10.1448L12.3895 10.0268C12.4929 10.0583 12.5833 10.1191 12.5831 10.2244C12.5821 10.4034 12.3497 10.4306 12.1989 10.4507Z" fill="white"/>
<path d="M17.8911 1.04625C18.0026 0.920015 17.8334 0.597128 17.5132 0.325161C17.1928 0.0533324 16.8427 -0.0647701 16.731 0.0614632C16.6195 0.187696 16.7888 0.510583 17.1091 0.782412C17.4293 1.05431 17.7795 1.17255 17.8911 1.04625ZM13.6548 22.5914C13.5497 21.6003 15.8665 20.1649 15.2719 20.1189C13.9919 20.1906 13.3549 21.5892 12.7109 23.054C12.4749 23.5908 11.6674 25.8799 11.1378 25.5981C10.6084 25.3164 11.8243 23.434 12.1651 22.3161C11.7718 22.5988 10.3297 23.6971 9.95804 22.6685C9.36052 23.1659 8.08373 23.4354 8.22777 22.1288C7.90989 22.6807 7.19645 23.4513 6.3401 23.1311C5.21549 22.7107 6.99174 19.1992 7.43342 19.3764C7.87516 19.5535 7.34428 20.3534 7.20523 20.664C6.89944 21.3476 6.54621 22.207 6.78219 22.3829C7.18647 22.6843 8.2866 21.2427 8.31107 21.211C8.51683 20.9446 9.10303 19.2014 9.57549 19.4015C10.048 19.6017 8.39704 21.9033 9.01431 22.3601C9.13881 22.4523 9.64818 22.3032 9.95804 21.9746C10.1585 21.7621 10.0896 21.2912 10.7579 19.729C11.4262 18.1669 12.0218 16.2215 12.4801 16.3697C12.9385 16.5178 12.5607 17.5163 12.3963 17.8885C11.6247 19.6355 10.2905 22.5217 10.9197 22.3032C11.5489 22.0848 11.8766 22.072 12.4927 21.3653C13.1089 20.6585 13.0805 19.4944 13.4911 19.5191C13.902 19.5439 13.833 19.9172 13.7334 20.2014C14.1376 19.748 15.6494 18.7931 16.0144 19.7388C16.4467 20.8585 13.8514 22.4757 14.4985 22.3932C15.1294 22.3128 16.1515 21.6783 16.5879 21.1013L17.7891 10.5158C17.7891 10.5158 16.5804 11.4963 8.89038 11.4963C1.2003 11.4963 0.116608 10.5362 0.116608 10.5362L1.13928 20.1983C1.68211 18.686 2.97114 15.6272 5.00299 15.7299C5.92724 15.7766 7.16109 17.5211 6.10418 17.5802C5.65681 17.6051 5.6114 16.7094 5.08165 16.5779C4.69938 16.4829 4.16716 16.7876 3.8232 17.1176C3.13725 17.7757 1.66194 20.3719 1.85687 21.6663C2.10522 23.3165 4.18003 21.0929 4.53109 20.4327C4.77832 19.9677 4.94534 18.5898 5.48606 18.7344C6.02685 18.879 5.43889 20.3009 5.04692 21.558C4.60658 22.9697 4.3751 24.4588 3.8232 24.2875C3.27123 24.1163 4.17032 22.2939 4.13778 21.9746C3.61899 22.4438 2.66324 23.6316 1.4405 23.0437L2.07563 29.0438C2.07563 29.0438 3.76366 30.3511 8.84869 30.3511C13.9337 30.3511 15.6843 29.0642 15.6843 29.0642L16.4729 22.1147C15.8277 22.7305 13.7855 23.8242 13.6548 22.5914Z" fill="#D34A47"/>
</svg>
