<svg width="35" height="35" viewBox="0 0 35 35" fill="none" xmlns="http://www.w3.org/2000/svg">
<g clip-path="url(#clip0)">
<path d="M2.20377 1.15864L4.47534 30.2193C4.50944 30.6557 4.80482 31.0278 5.2221 31.1601L17.1751 34.9498C17.3865 35.0168 17.6135 35.0168 17.8248 34.9498L29.7779 31.1601C30.1952 31.0278 30.4906 30.6557 30.5247 30.2193L32.7962 1.15864C32.8451 0.533851 32.3513 0 31.7247 0H3.27542C2.64878 0 2.15499 0.533851 2.20377 1.15864ZM26.9709 10.1752H12.1667L12.6135 14.2952H26.649L25.7308 26.0406L17.5 28.6501L9.26928 26.0406L8.7896 19.9043H13.1097V22.9143L17.6155 24.1235L22.0943 22.9143L22.4418 18.1173H8.64989L7.73423 6.40259H27.2658L26.9709 10.1752Z" fill="#FC490B"/>
</g>
<defs>
<clipPath id="clip0">
<rect width="35" height="35" fill="white"/>
</clipPath>
</defs>
</svg>
