<svg width="35" height="35" viewBox="0 0 35 35" fill="none" xmlns="http://www.w3.org/2000/svg">
<path d="M35 35H0V0H35V35Z" fill="#FEC478"/>
<path d="M35 35H17.5V0H35V35Z" fill="#FEA832"/>
<path d="M32.9492 32.9492H2.05078V2.05078H32.9492V32.9492Z" fill="#994C0F"/>
<path d="M32.9492 32.9492H17.5V2.05078H32.9492V32.9492Z" fill="#713708"/>
<path d="M14.1847 12.4141H16.1863L20.616 24.0625H18.2863L17.2035 21.1586H13.1347L12.0683 24.0625H9.73865L14.1847 12.4141ZM16.7933 19.5672L15.1855 14.9898L13.5121 19.5672H16.7933Z" fill="#FEC478"/>
<path d="M21.6824 14.268V12.0859H23.8807V14.268H21.6824ZM21.6824 24.0625V15.4656H23.8807V24.0625H21.6824Z" fill="#FEA832"/>
<path d="M17.5 15.8688V21.954L18.2863 24.0625H20.616L17.5 15.8688Z" fill="#FEA832"/>
</svg>
