<svg width="119" height="35" viewBox="0 0 119 35" fill="none" xmlns="http://www.w3.org/2000/svg">
<g clip-path="url(#clip0)">
<path fill-rule="evenodd" clip-rule="evenodd" d="M110.798 14.495C110.692 14.5171 110.584 14.7604 110.584 14.8929C110.563 15.7779 110.541 18.1225 110.541 19.715C110.541 19.7593 110.606 19.8478 110.67 19.8478C110.992 19.8698 111.764 19.8919 112.429 19.8919C113.351 19.8919 113.887 19.7593 114.188 19.6268C114.959 19.2284 115.324 18.3658 115.324 17.4145C115.324 15.2692 113.866 14.4507 111.699 14.4507C111.549 14.4286 111.121 14.4287 110.798 14.495ZM116.332 24.3822C116.332 22.1924 114.767 20.9758 111.935 20.9758C111.807 20.9758 110.906 20.9537 110.691 20.9978C110.627 21.0201 110.541 21.0644 110.541 21.1308C110.541 22.701 110.52 25.2008 110.584 26.1739C110.627 26.5941 110.927 27.1914 111.292 27.3683C111.678 27.5895 112.557 27.6336 113.158 27.6336C114.852 27.6336 116.332 26.6605 116.332 24.3822ZM106.423 13.2786C106.638 13.2786 107.281 13.3448 108.933 13.3448C110.498 13.3448 111.742 13.3007 113.265 13.3007C115.131 13.3007 117.705 13.9862 117.705 16.8617C117.705 18.2773 116.74 19.4056 115.474 19.9585C115.41 19.9806 115.41 20.0247 115.474 20.0467C117.276 20.5115 118.863 21.6615 118.863 23.829C118.863 25.9527 117.576 27.3019 115.71 28.1425C114.573 28.6511 113.158 28.828 111.721 28.828C110.627 28.828 107.689 28.6954 106.059 28.7398C105.887 28.6731 106.209 27.8769 106.359 27.7443C106.745 27.7221 107.045 27.7 107.453 27.5672C108.032 27.4126 108.096 27.2355 108.182 26.3287C108.225 25.5545 108.225 22.8115 108.225 20.8653C108.225 18.1889 108.246 16.3752 108.225 15.4905C108.203 14.805 107.968 14.5835 107.496 14.4507C107.131 14.3845 106.53 14.2959 106.037 14.2297C105.93 14.119 106.294 13.3668 106.423 13.2786ZM94.0473 27.0365C94.5624 27.4565 95.5704 27.6334 96.4713 27.6334C97.6294 27.6334 98.7876 27.4126 99.903 26.3726C101.04 25.3113 101.833 23.6744 101.833 21.0644C101.833 18.5647 100.911 16.5298 99.0235 15.3356C97.9511 14.6496 96.5784 14.3625 94.9912 14.3625C94.5194 14.3625 94.0689 14.3845 93.7903 14.5171C93.7257 14.5614 93.5757 14.7604 93.5757 14.8709C93.5327 15.3133 93.5328 18.7196 93.5328 20.7104C93.5328 22.7674 93.5327 25.643 93.5757 25.9747C93.5757 26.3067 93.7257 26.8153 94.0476 27.0365H94.0473ZM89.1786 13.2784C89.5862 13.2784 91.1518 13.3448 91.9025 13.3448C93.2541 13.3448 94.2191 13.2786 96.7713 13.2786C98.9161 13.2786 100.718 13.8757 102.005 15.0037C103.57 16.3972 104.386 18.3217 104.386 20.6661C104.386 24.0062 102.906 25.9306 101.426 27.0365C99.946 28.1645 98.0155 28.828 95.2701 28.828C93.8117 28.828 91.3022 28.7839 89.2216 28.7616H89.2002C89.093 28.5626 89.3717 27.7884 89.5432 27.7664C90.101 27.7 90.2512 27.6777 90.5301 27.5675C90.9803 27.3903 91.0663 27.147 91.1307 26.3287C91.1948 24.8024 91.1734 22.9666 91.1734 20.8873C91.1734 19.4056 91.1948 16.5077 91.1518 15.5787C91.0877 14.8047 90.766 14.6055 90.1224 14.4728C89.8008 14.4066 89.3717 14.3179 88.7714 14.2518C88.6854 14.0967 89.0714 13.4112 89.1786 13.2786V13.2784Z" fill="#8E714E"/>
<path fill-rule="evenodd" clip-rule="evenodd" d="M63.2263 27.8989C62.6901 27.8326 62.3041 27.7443 61.8323 27.5231C61.7679 27.4788 61.6605 27.2578 61.6605 27.1691C61.6177 26.3949 61.6177 24.183 61.6177 22.7013C61.6177 21.5067 61.4248 20.4671 60.9314 19.7373C60.3522 18.8965 59.516 18.4101 58.4433 18.4101C57.4997 18.4101 56.2342 19.0736 55.1832 20.0026C55.1618 20.0247 54.9902 20.1798 55.0116 19.9362C55.0116 19.6929 55.0546 19.2064 55.076 18.8744C55.0976 18.5647 54.9259 18.4101 54.9259 18.4101C54.2395 18.7639 52.3093 19.2284 51.6013 19.2946C51.0867 19.4056 50.958 19.9142 51.4944 20.0911H51.5158C52.0945 20.268 52.4808 20.4671 52.7808 20.6663C52.9954 20.8432 52.974 21.0865 52.974 21.2857C52.9954 22.9443 52.9954 25.4882 52.9312 26.8817C52.9098 27.4347 52.7597 27.6336 52.3734 27.7221L52.4164 27.7C52.1161 27.7664 51.8802 27.8326 51.5155 27.8769C51.3868 28.0097 51.3868 28.7175 51.5155 28.8723C51.7514 28.8723 52.9954 28.8059 54.0252 28.8059C55.4407 28.8059 56.17 28.8723 56.5345 28.8723C56.6846 28.6954 56.7276 28.0317 56.6418 27.8769C56.2342 27.8548 55.9339 27.8107 55.6552 27.7221C55.2691 27.6334 55.1618 27.4347 55.1402 26.9702C55.0976 25.7976 55.0976 23.3204 55.0976 21.6395C55.0976 21.1749 55.2261 20.9537 55.3547 20.8209C55.8481 20.3787 56.6418 20.069 57.3496 20.069C58.0359 20.069 58.4861 20.2903 58.8294 20.5779C59.3012 20.9758 59.4513 21.551 59.5157 21.9712C59.6229 22.9223 59.5801 24.8024 59.5801 26.4392C59.5801 27.3239 59.5157 27.5452 59.1943 27.6557C59.0439 27.7221 58.6579 27.8107 58.2074 27.8546C58.0573 28.0097 58.1003 28.6954 58.2074 28.8503C58.8294 28.8503 59.5587 28.7839 60.6311 28.7839C61.9608 28.7839 62.8189 28.8503 63.1622 28.8503C63.2691 28.7175 63.3121 28.0761 63.2263 27.8989ZM69.1675 19.4499C68.031 19.4499 67.323 20.3566 67.323 21.772C67.323 23.2099 67.945 24.8688 69.7037 24.8688C70.004 24.8688 70.5618 24.736 70.8189 24.4263C71.2265 24.0284 71.5054 23.232 71.5054 22.3914C71.5054 20.5556 70.626 19.4497 69.1675 19.4497V19.4499ZM69.0174 29.2261C68.5885 29.2261 68.288 29.3589 68.0951 29.4696C67.1942 30.0665 66.7868 30.6417 66.7868 31.3277C66.7868 31.9689 67.0227 32.4775 67.5375 32.92C68.1595 33.4729 69.0174 33.7385 70.1111 33.7385C72.2989 33.7385 73.2642 32.5218 73.2642 31.3277C73.2642 30.4869 72.8565 29.9339 72.0202 29.6245C71.4197 29.3589 70.3259 29.2261 69.0174 29.2261ZM69.1675 34.9772C67.8592 34.9772 66.9153 34.6896 66.1005 34.0482C65.3067 33.4288 64.9637 32.4998 64.9637 31.8584C64.9637 31.6815 65.0067 31.1947 65.3927 30.7524C65.6284 30.4869 66.1435 29.9783 67.366 29.1156C67.4088 29.0936 67.4302 29.0715 67.4302 29.0269C67.4302 28.9828 67.3872 28.9385 67.3444 28.9167C66.3364 28.5185 66.0361 27.8769 65.9501 27.5231V27.4788C65.9289 27.346 65.8859 27.2134 66.0791 27.0806C66.2292 26.9702 66.4438 26.8374 66.6794 26.6828C67.0441 26.4613 67.4302 26.218 67.6661 26.0188C67.7091 25.9747 67.7091 25.9306 67.7091 25.8863C67.7091 25.8419 67.6661 25.7976 67.6231 25.7758C66.1221 25.2669 65.3714 24.1167 65.3714 22.3914C65.3714 21.2634 65.8646 20.2459 66.7438 19.6045C67.3444 19.1179 68.8458 18.5206 69.8325 18.5206H69.8968C70.9049 18.5427 71.4624 18.7639 72.2559 19.0515C72.685 19.2064 73.0926 19.2725 73.6505 19.2725C74.4867 19.2725 74.8514 19.0072 75.1514 18.6978C75.1731 18.7419 75.2161 18.8526 75.2374 19.14C75.2588 19.4276 75.173 19.8478 74.9585 20.1575C74.787 20.4007 74.4009 20.5779 74.0149 20.5779H73.9075C73.5215 20.5335 73.3497 20.4892 73.3497 20.4892L73.2642 20.5335C73.2428 20.5779 73.2642 20.622 73.2856 20.6884L73.3072 20.7327C73.3499 20.9317 73.4357 21.5287 73.4357 21.6838C73.4357 23.4975 72.728 24.2935 71.9773 24.8908C71.2479 25.4438 70.4117 25.7976 69.4678 25.8863C69.4464 25.8863 69.3609 25.8863 69.1675 25.9083C69.0604 25.9083 68.9102 25.9306 68.8886 25.9306H68.8672C68.6957 25.9747 68.2669 26.196 68.2669 26.5718C68.2669 26.9035 68.4598 27.3019 69.382 27.3683C69.5749 27.3903 69.7678 27.3903 69.9826 27.4126C71.2051 27.5008 72.728 27.6116 73.4357 27.8548C74.4223 28.2307 75.0443 29.1377 75.0443 30.2215C75.0443 31.8586 73.9077 33.3847 72.0202 34.3356C71.098 34.756 70.1755 34.9772 69.1675 34.9772ZM81.3929 19.5604C80.9427 19.5604 80.535 19.6707 80.2347 19.8919C79.3985 20.4228 78.9694 21.4846 78.9694 23.0328C78.9694 25.9306 80.3849 27.9656 82.4011 27.9656C83.0017 27.9656 83.4735 27.7885 83.881 27.4347C84.5029 26.9035 84.8248 25.8419 84.8248 24.3599C84.8248 21.4846 83.4305 19.5602 81.3931 19.5602L81.3929 19.5604ZM81.7792 29.0272C78.1329 29.0272 76.8246 26.2624 76.8246 23.6744C76.8246 21.8607 77.5324 20.4671 78.9478 19.4717C79.9561 18.8303 81.1572 18.4765 82.2296 18.4765C85.0177 18.4765 86.9696 20.5335 86.9696 23.4975C86.9696 25.5102 86.1975 27.1027 84.7175 28.0761C84.0097 28.5626 82.7872 29.0272 81.7789 29.0272H81.7792ZM43.5583 19.5602C43.1079 19.5602 42.7005 19.6707 42.3999 19.8919C41.5637 20.4228 41.1346 21.4846 41.1346 23.0328C41.1346 25.9306 42.5501 27.9656 44.5664 27.9656C45.1669 27.9656 45.6387 27.7885 46.0464 27.4347C46.6681 26.9035 46.99 25.8419 46.99 24.3599C46.99 21.4846 45.6174 19.5602 43.5583 19.5602ZM43.9444 29.0272C40.2982 29.0272 38.9899 26.2624 38.9899 23.6744C38.9899 21.8607 39.6976 20.4671 41.113 19.4717C42.1213 18.8303 43.3224 18.4765 44.3948 18.4765C47.1832 18.4765 49.1348 20.5335 49.1348 23.4975C49.1348 25.5102 48.3627 27.1027 46.8827 28.0761C46.1963 28.5626 44.9738 29.0272 43.9444 29.0272ZM19.429 28.8059C19.386 28.7398 19.343 28.5406 19.3646 28.2973C19.3646 28.1202 19.4076 28.0097 19.429 27.9656C19.8794 27.8989 20.1153 27.8326 20.3726 27.7664C20.8017 27.6557 20.9732 27.4126 20.9946 26.8597C21.0592 25.5325 21.0592 23.0107 21.0376 21.2634V21.219C21.0376 21.0201 21.0376 20.7766 20.8017 20.5997C20.4584 20.3787 20.051 20.1798 19.5148 20.0244C19.3219 19.9585 19.1931 19.8478 19.2145 19.7152C19.2145 19.5824 19.3432 19.4276 19.6221 19.3833C20.3299 19.3169 22.1741 18.8526 22.9035 18.5206C22.9465 18.5647 23.0109 18.6978 23.0109 18.8746L22.9895 19.1177C22.9679 19.3612 22.9465 19.6488 22.9465 19.9362C22.9465 20.0247 23.0325 20.0911 23.118 20.0911C23.161 20.0911 23.204 20.069 23.2468 20.0467C24.6194 18.9408 25.8634 18.5427 26.5067 18.5427C27.558 18.5427 28.3731 19.0515 28.995 20.1131C29.0378 20.1798 29.0808 20.2018 29.1452 20.2018C29.1879 20.2018 29.2521 20.1798 29.2737 20.1354C30.5392 19.14 31.8048 18.5427 32.641 18.5427C34.6357 18.5427 35.8154 20.069 35.8154 22.6569C35.8154 23.3868 35.8154 24.3379 35.7941 25.2008C35.7941 25.9747 35.7727 26.6825 35.7727 27.1914C35.7727 27.3016 35.9226 27.6557 36.1585 27.7221C36.4588 27.8769 36.8664 27.9433 37.4026 28.0317H37.424C37.467 28.1866 37.3813 28.7616 37.2955 28.8723C37.1667 28.8723 36.9736 28.8723 36.7593 28.8503C36.2164 28.8211 35.6728 28.8063 35.1291 28.8059C33.7994 28.8059 33.1131 28.828 32.4479 28.8723C32.4053 28.6954 32.3837 28.1645 32.4479 28.0317C32.8342 27.9656 33.0271 27.8989 33.2632 27.8328C33.6923 27.7 33.7994 27.5008 33.821 26.9258C33.821 26.5056 33.9066 22.9223 33.7778 22.0596C33.6493 21.1749 33.0057 20.1354 31.59 20.1354C31.0538 20.1354 30.2176 20.3566 29.4025 20.9978C29.3597 21.0422 29.3165 21.1527 29.3165 21.219V21.2413C29.4025 21.7056 29.4025 22.2368 29.4025 23.0551V24.4927C29.4025 25.4882 29.3808 26.4172 29.4025 27.1248C29.4025 27.6116 29.6814 27.7221 29.9173 27.8107C30.046 27.8326 30.1316 27.8548 30.2389 27.8769C30.4319 27.9212 30.625 27.9656 30.9253 28.0317C30.9683 28.1204 30.9683 28.4078 30.9039 28.6511C30.8823 28.7839 30.8393 28.85 30.8179 28.8723C30.0888 28.8503 29.3381 28.828 28.2443 28.828C27.9226 28.828 27.3648 28.8503 26.893 28.8503C26.5067 28.8503 26.1423 28.8723 25.928 28.8723C25.9064 28.828 25.8634 28.6734 25.8634 28.4299C25.8634 28.2309 25.9064 28.0761 25.9494 28.0317C26.0565 28.0097 26.1423 27.9876 26.2497 27.9876C26.5067 27.9433 26.7215 27.8989 26.9358 27.8548C27.3007 27.7443 27.4292 27.5452 27.4506 27.0586C27.515 25.9527 27.5793 22.7897 27.4292 21.9932C27.1719 20.7104 26.4642 20.069 25.3272 20.069C24.6624 20.069 23.8257 20.4007 23.1396 20.9319C23.0322 21.0201 22.9465 21.2411 22.9465 21.4403V22.7454C22.9465 24.3379 22.9465 26.3287 22.9679 27.1914C22.9895 27.4565 23.075 27.7664 23.5684 27.8769C23.6758 27.8989 23.8473 27.9433 24.0619 27.9656L24.4477 28.0317C24.4909 28.1645 24.4693 28.6954 24.3835 28.8723C24.169 28.8723 23.9117 28.8503 23.6112 28.8503C23.161 28.828 22.5818 28.8059 21.9385 28.8059C21.1877 28.8059 20.6515 28.828 20.2225 28.8503C19.9222 28.8059 19.6863 28.8059 19.429 28.8059Z" fill="#442D22"/>
<path fill-rule="evenodd" clip-rule="evenodd" d="M8.14703 34.1145L7.26778 33.8046C7.26778 33.8046 7.37516 29.1819 5.76633 28.8502C4.69417 27.5672 5.93833 -25.5624 9.79886 28.6731C9.79886 28.6731 8.46894 29.3586 8.23303 30.5312C7.97551 31.6814 8.14703 34.1145 8.14703 34.1145Z" fill="white"/>
<path fill-rule="evenodd" clip-rule="evenodd" d="M8.14703 34.1145L7.26778 33.8046C7.26778 33.8046 7.37516 29.1819 5.76633 28.8502C4.69417 27.5672 5.93833 -25.5624 9.79886 28.6731C9.79886 28.6731 8.46894 29.3586 8.23303 30.5312C7.97551 31.6814 8.14703 34.1145 8.14703 34.1145Z" fill="#A6A385"/>
<path fill-rule="evenodd" clip-rule="evenodd" d="M8.61906 29.6465C8.61906 29.6465 16.3192 24.4263 14.5172 13.5657C12.7801 5.66964 8.68344 3.08172 8.23301 2.08629C7.73981 1.37849 7.26776 0.140015 7.26776 0.140015L7.58967 22.1037C7.58967 22.126 6.92471 28.8279 8.61929 29.6467" fill="white"/>
<path fill-rule="evenodd" clip-rule="evenodd" d="M8.61906 29.6465C8.61906 29.6465 16.3192 24.4263 14.5172 13.5657C12.7801 5.66964 8.68344 3.08172 8.23301 2.08629C7.73981 1.37849 7.26776 0.140015 7.26776 0.140015L7.58967 22.1037C7.58967 22.126 6.92471 28.8279 8.61929 29.6467" fill="#499D4A"/>
<path fill-rule="evenodd" clip-rule="evenodd" d="M6.81757 29.9339C6.81757 29.9339 -0.41074 24.8465 0.0183105 15.8886C0.425746 6.93041 5.53042 2.52876 6.51705 1.73251C7.16063 1.02471 7.18201 0.759133 7.22501 0.0513306C7.67544 1.04676 7.58968 14.9375 7.65383 16.5741C7.84674 22.8779 7.31077 28.7397 6.81757 29.9339Z" fill="white"/>
<path fill-rule="evenodd" clip-rule="evenodd" d="M6.81757 29.9339C6.81757 29.9339 -0.41074 24.8465 0.0183105 15.8886C0.425746 6.93041 5.53042 2.52876 6.51705 1.73251C7.16063 1.02471 7.18201 0.759133 7.22501 0.0513306C7.67544 1.04676 7.58968 14.9375 7.65383 16.5741C7.84674 22.8779 7.31077 28.7397 6.81757 29.9339Z" fill="#58AA50"/>
</g>
<defs>
<clipPath id="clip0">
<rect width="119" height="35" fill="white"/>
</clipPath>
</defs>
</svg>
