<svg width="80" height="40" viewBox="0 0 121 84" fill="none" xmlns="http://www.w3.org/2000/svg">
	<g clip-path="url(#clip0)">
		<path d="M37.0385 67.8378H33.7627C33.6468 62.3004 33.3278 57.0945 32.8062 52.2164H32.7771L27.7896 67.8378H25.2956L20.3379 52.2164H20.3094C19.9416 56.8999 19.7099 62.1071 19.6137 67.8378H16.6278C16.8202 60.869 17.3039 54.3357 18.0768 48.2372H22.1369L26.8623 62.6396H26.8914L31.6459 48.2372H35.5307C36.3814 55.3804 36.884 61.9143 37.0385 67.8378ZM51.2451 53.3765C49.9113 60.6249 48.1516 65.8916 45.9677 69.1792C44.2662 71.7099 42.402 72.9765 40.3719 72.9765C39.8307 72.9765 39.1629 72.8129 38.3716 72.4884V70.7406C38.7584 70.7964 39.2122 70.8281 39.7338 70.8281C40.6821 70.8281 41.4442 70.5669 42.0253 70.0433C42.7204 69.4055 43.0679 68.6886 43.0679 67.8955C43.0679 67.3516 42.797 66.2397 42.2564 64.5559L38.6615 53.3759H41.8797L44.4599 61.7375C45.0397 63.6361 45.2815 64.9617 45.1847 65.7167C46.5956 61.9429 47.5812 57.828 48.1427 53.3752H51.2451V53.3765Z" fill="#5D87A1"/>
		<path d="M94.8499 67.8378H85.5446V48.2372H88.6749V65.4251H94.8499V67.8378ZM83.1088 68.3114L79.5108 66.5332C79.8299 66.2708 80.135 65.9868 80.4097 65.6577C81.939 63.8586 82.7018 61.198 82.7018 57.674C82.7018 51.1895 80.1609 47.9456 75.0772 47.9456C72.5845 47.9456 70.6399 48.7685 69.2491 50.4148C67.7211 52.2152 66.9583 54.8663 66.9583 58.3713C66.9583 61.8167 67.6343 64.3442 68.9871 65.9474C70.2246 67.3998 72.0901 68.1269 74.5848 68.1269C75.5153 68.1269 76.3692 68.0128 77.1472 67.7827L81.8314 70.5137L83.1088 68.3114ZM71.4533 63.9157C70.6607 62.6389 70.2645 60.5888 70.2645 57.7621C70.2645 52.8269 71.7615 50.3565 74.7588 50.3565C76.3255 50.3565 77.4738 50.9473 78.2081 52.1264C78.9994 53.4051 79.3975 55.4368 79.3975 58.2242C79.3975 63.2 77.8992 65.6882 74.9038 65.6882C73.3365 65.6888 72.1882 65.0999 71.4533 63.9157ZM65.5942 62.405C65.5942 64.0672 64.9852 65.4308 63.7686 66.499C62.5507 67.5627 60.9175 68.0959 58.871 68.0959C56.9568 68.0959 55.1008 67.4835 53.3043 66.265L54.1456 64.582C55.6914 65.3573 57.091 65.7427 58.3475 65.7427C59.5268 65.7427 60.4484 65.4809 61.1169 64.9617C61.7847 64.4406 62.1829 63.7097 62.1829 62.7854C62.1829 61.6208 61.372 60.6256 59.8844 59.7919C58.5127 59.0376 55.7692 57.4603 55.7692 57.4603C54.2823 56.375 53.5379 55.2099 53.5379 53.2903C53.5379 51.7017 54.093 50.4192 55.204 49.4436C56.3162 48.4642 57.7512 47.976 59.5103 47.976C61.3271 47.976 62.9786 48.4635 64.4661 49.4284L63.7116 51.1121C62.4393 50.5707 61.1834 50.3 59.9446 50.3C58.9412 50.3 58.1665 50.5416 57.6278 51.0265C57.0846 51.5096 56.7498 52.1277 56.7498 52.8859C56.7498 54.0447 57.5778 55.0527 59.1058 55.9028C60.4959 56.6584 63.3077 58.2629 63.3077 58.2629C64.8327 59.3463 65.5942 60.5007 65.5942 62.405Z" fill="#F8981D"/>
		<path d="M98.7796 41.6723C96.8869 41.6241 95.4215 41.8149 94.1915 42.336C93.8364 42.478 93.2718 42.478 93.2224 42.9275C93.4142 43.1177 93.4364 43.4245 93.6028 43.687C93.8864 44.1605 94.3808 44.7976 94.8322 45.1298C95.3278 45.5101 95.8253 45.8867 96.3469 46.2182C97.2667 46.7882 98.3093 47.1197 99.2056 47.6877C99.7278 48.018 100.247 48.4453 100.77 48.8009C101.027 48.9904 101.191 49.2979 101.525 49.4165V49.3442C101.358 49.1312 101.31 48.8231 101.146 48.586L100.436 47.9001C99.75 46.9771 98.8973 46.1713 97.9776 45.5095C97.2205 44.9872 95.5645 44.2771 95.2575 43.4036L95.2094 43.3554C95.7298 43.3066 96.3469 43.1177 96.8413 42.9725C97.6459 42.7601 98.3795 42.8083 99.205 42.596C99.5848 42.5009 99.9614 42.3817 100.342 42.2644V42.0508C99.9146 41.6241 99.6095 41.0574 99.1594 40.6542C97.9554 39.6127 96.6286 38.5939 95.2575 37.7413C94.5232 37.2665 93.5788 36.9609 92.797 36.5571C92.5153 36.4145 92.0406 36.3441 91.8747 36.107C91.4506 35.5859 91.212 34.9 90.9043 34.2832C90.2207 32.9817 89.5567 31.5376 88.9667 30.1613C88.5401 29.2383 88.2805 28.3166 87.7602 27.4627C85.3231 23.4372 82.6765 20.9991 78.6088 18.606C77.7346 18.1077 76.6946 17.8953 75.5836 17.6342L73.8093 17.5403C73.4308 17.3742 73.0516 16.9235 72.7212 16.7105C71.3716 15.8585 67.897 14.0119 66.9045 16.45C66.2651 17.9911 67.8502 19.5062 68.3946 20.2878C68.7965 20.8304 69.3175 21.4479 69.5986 22.0641C69.765 22.4666 69.8119 22.8939 69.9784 23.3193C70.3569 24.3615 70.7108 25.5209 71.2083 26.4934C71.4678 26.9891 71.7508 27.5102 72.0825 27.959C72.2724 28.2215 72.6028 28.3375 72.675 28.7654C72.3452 29.2371 72.3192 29.949 72.13 30.5411C71.2792 33.2169 71.6115 36.5317 72.8174 38.4982C73.1947 39.0903 74.0948 40.3937 75.2988 39.8941C76.3648 39.4681 76.1287 38.1185 76.435 36.9349C76.5053 36.649 76.4591 36.4614 76.6009 36.2737V36.32C76.9307 36.9825 77.2637 37.6208 77.5694 38.2852C78.3031 39.4447 79.5805 40.6529 80.6445 41.4561C81.2111 41.8847 81.6599 42.6175 82.3695 42.8793V42.8083H82.3227C82.179 42.5959 81.9688 42.5009 81.7802 42.336C81.3535 41.9094 80.8813 41.3883 80.5502 40.9154C79.5589 39.5886 78.6816 38.1197 77.903 36.604C77.5219 35.8686 77.1934 35.0648 76.8864 34.3307C76.7433 34.0473 76.7433 33.6201 76.5059 33.4774C76.1502 33.9979 75.6318 34.4486 75.3722 35.0864C74.9222 36.1064 74.8753 37.3609 74.7082 38.6656L74.6151 38.7112C73.8619 38.5217 73.5998 37.7413 73.3137 37.0788C72.6053 35.3964 72.4863 32.6958 73.101 30.7547C73.2656 30.2583 73.9777 28.695 73.6935 28.2221C73.5511 27.7689 73.0776 27.5108 72.818 27.1539C72.5129 26.7051 72.1787 26.1371 71.966 25.6388C71.3988 24.3133 71.1133 22.8445 70.5025 21.5195C70.217 20.9021 69.7214 20.2631 69.32 19.6944C68.8693 19.0554 68.3737 18.6053 68.0173 17.8478C67.8996 17.5872 67.7344 17.1612 67.9236 16.8779C67.9698 16.6877 68.066 16.6167 68.2547 16.5691C68.5611 16.3099 69.4365 16.6395 69.7435 16.7821C70.6202 17.1371 71.3533 17.4687 72.085 17.9657C72.4161 18.2034 72.7712 18.6535 73.1959 18.7721H73.6935C74.4487 18.9369 75.3001 18.8177 76.0109 19.032C77.2637 19.4352 78.3986 20.0266 79.4165 20.665C82.5138 22.6321 85.068 25.4271 86.7923 28.7654C87.0753 29.3093 87.1955 29.8076 87.4538 30.375C87.952 31.5363 88.5679 32.7205 89.0623 33.8572C89.5592 34.9697 90.0327 36.1057 90.7423 37.03C91.0961 37.527 92.5179 37.7876 93.1553 38.0481C93.6269 38.2605 94.3612 38.4494 94.7866 38.7099C95.5911 39.2063 96.3925 39.7762 97.149 40.322C97.5256 40.606 98.7093 41.1981 98.7796 41.6723ZM74.6582 21.0923C74.3317 21.0889 74.0063 21.1289 73.6903 21.2114V21.259H73.7359C73.9264 21.6374 74.2575 21.8999 74.4936 22.2302C74.6841 22.6099 74.8494 22.9865 75.0361 23.3656L75.0817 23.3186C75.4153 23.0822 75.5811 22.7031 75.5811 22.1345C75.4374 21.9671 75.4153 21.8035 75.2956 21.6374C75.1564 21.4004 74.8494 21.2824 74.6582 21.0923Z" fill="#5D87A1"/>
		<path d="M101.032 67.8348H101.522V65.4334H100.787L100.187 67.0722L99.5359 65.4334H98.8282V67.8348H99.2909V66.0078H99.3169L99.9993 67.8348H100.352L101.032 66.0078V67.8348ZM97.0849 67.8348H97.6034V65.8404H98.2819V65.4328H96.3779V65.8404H97.0837L97.0849 67.8348Z" fill="#F8981D"/>
	</g>
	<defs>
		<clipPath id="clip0">
			<rect width="121" height="84" fill="white"/>
		</clipPath>
	</defs>
</svg>
