<svg width="179" height="35" viewBox="0 0 179 35" fill="none" xmlns="http://www.w3.org/2000/svg">
<g clip-path="url(#clip0)">
<path d="M17.7649 18.3236C17.7649 21.0004 16.9712 23.2551 15.3783 25.0803C13.7159 26.9927 11.5558 27.9528 8.91154 27.9528C6.26034 27.9528 4.1072 26.9927 2.44479 25.0803C0.851132 23.2551 0.0515137 21.0004 0.0515137 18.3236C0.0515137 15.6394 0.851132 13.3854 2.44479 11.5668C4.12569 9.67226 6.28582 8.72551 8.91154 8.72551C11.5558 8.72551 13.7159 9.67226 15.3783 11.5668C16.9712 13.3854 17.7649 15.6394 17.7649 18.3236ZM12.5002 18.3236C12.5002 17.1112 12.2109 16.0878 11.6315 15.2604C10.9834 14.3199 10.0762 13.8527 8.91154 13.8527C7.74649 13.8527 6.83972 14.3199 6.19088 15.2604C5.60557 16.0878 5.31587 17.1112 5.31587 18.3236C5.31587 19.5293 5.60557 20.565 6.19088 21.4172C6.83972 22.3577 7.74649 22.8256 8.91154 22.8256C10.0762 22.8256 10.9834 22.3577 11.6315 21.4172C12.2109 20.565 12.5002 19.5293 12.5002 18.3236ZM36.8005 18.3236C36.8005 20.824 36.0825 23.0087 34.6403 24.8777C33.0976 26.9234 31.1079 27.9528 28.6898 27.9528C26.9831 27.9528 25.5353 27.454 24.3514 26.4691C24.3514 26.6959 24.3765 27.2454 24.4271 28.1239C24.4774 29.007 24.5022 29.7269 24.5022 30.2953C24.5022 33.4345 23.5703 35 21.7068 35C20.9446 35 20.3216 34.7284 19.8238 34.1915C19.3328 33.649 19.087 32.9973 19.087 32.228V11.8132C19.087 11.0681 19.339 10.4237 19.8427 9.88121C20.3463 9.34431 20.97 9.07341 21.7131 9.07341C22.8335 9.07341 23.6523 9.63411 24.1689 10.7527C25.2707 9.40136 26.7757 8.72551 28.6835 8.72551C31.1079 8.72551 33.0914 9.73526 34.6403 11.7628C36.0762 13.6385 36.8005 15.8232 36.8005 18.3236ZM31.5358 18.3236C31.5358 17.1112 31.2405 16.0878 30.6611 15.2604C30.0119 14.3199 29.1055 13.8527 27.9404 13.8527C26.7757 13.8527 25.869 14.3199 25.2201 15.2604C24.6407 16.0878 24.3514 17.1112 24.3514 18.3236C24.3514 19.5293 24.6407 20.565 25.2201 21.4172C25.869 22.3577 26.7757 22.8256 27.9404 22.8256C29.1055 22.8256 30.0119 22.3577 30.6611 21.4172C31.2405 20.565 31.5358 19.5293 31.5358 18.3236ZM55.9554 17.7559C55.9554 18.6389 55.7473 19.2451 55.3317 19.5867C54.9163 19.921 54.2678 20.0914 53.3925 20.0914H43.8902C43.8902 21.1019 44.3628 21.8782 45.3073 22.4207C46.0692 22.8445 47.0011 23.0598 48.103 23.0598C48.9598 23.0598 49.986 22.7745 51.1887 22.2135C52.3915 21.6447 53.1656 21.3665 53.5 21.3665C54.1104 21.3665 54.6266 21.5877 55.0549 22.0423C55.4765 22.491 55.6912 23.0339 55.6912 23.6593C55.6912 25.1045 54.6144 26.2297 52.4602 27.0375C50.817 27.6434 49.1483 27.9528 47.4423 27.9528C44.6968 27.9528 42.4802 27.0375 40.7863 25.213C39.0922 23.3877 38.2426 21.0956 38.2426 18.3236C38.2426 15.6835 39.1239 13.4295 40.8869 11.5486C42.6435 9.66596 44.8291 8.72551 47.4356 8.72551C49.86 8.72551 51.8875 9.61591 53.5125 11.3964C55.1366 13.1775 55.9554 15.2989 55.9554 17.7559ZM50.6914 16.429C50.6659 15.6205 50.2945 14.8883 49.5766 14.2247C48.8586 13.5622 48.097 13.2342 47.2908 13.2342C46.4598 13.2342 45.6849 13.5622 44.9673 14.2247C44.2497 14.8883 43.8902 15.6205 43.8902 16.429H50.6914ZM73.6433 24.8329C73.6433 25.6039 73.3976 26.2539 72.9069 26.7971C72.4091 27.3343 71.7858 27.6059 71.0239 27.6059C69.1852 27.6059 68.2655 26.1408 68.2655 23.2173C68.2655 22.6552 68.3036 21.7714 68.379 20.5527C68.461 19.34 68.499 18.4499 68.499 17.8878C68.499 14.7868 67.4977 13.2342 65.5016 13.2342C63.5051 13.2342 62.5104 14.7868 62.5104 17.8878C62.5104 18.4499 62.5418 19.34 62.5984 20.5527C62.6616 21.7714 62.693 22.6552 62.693 23.2173C62.693 26.1408 61.7862 27.6059 59.973 27.6059C59.2107 27.6059 58.5877 27.3343 58.0963 26.7971C57.5989 26.2539 57.3532 25.6039 57.3532 24.8329V11.8076C57.3532 11.0422 57.5989 10.3929 58.0963 9.86861C58.5877 9.33801 59.2174 9.07341 59.9793 9.07341C61.2386 9.07341 62.1136 9.63411 62.6047 10.7527C63.4549 9.40136 64.9595 8.72551 67.1134 8.72551C69.1095 8.72551 70.6965 9.25541 71.8612 10.31C73.0514 11.4412 73.6433 12.9938 73.6433 14.9706V24.8329ZM90.1592 24.2718C90.1592 25.465 89.3865 26.4117 87.8365 27.1072C86.6091 27.6684 85.2752 27.9568 83.9263 27.9528C81.2748 27.9528 79.1216 26.9927 77.4592 25.0803C75.8663 23.2551 75.0666 21.0004 75.0666 18.3236C75.0666 15.6394 75.8788 13.3732 77.5095 11.5164C79.1405 9.65406 81.2748 8.72551 83.9263 8.72551C85.4564 8.72551 86.7726 8.95266 87.8686 9.40136C89.3976 10.0076 90.1592 10.9543 90.1592 12.2427C90.1592 12.8926 89.9589 13.4673 89.5551 13.9664C89.1526 14.4589 88.6357 14.7116 88.0064 14.7116C87.5775 14.7116 86.9607 14.5663 86.1548 14.2828C85.3493 13.9916 84.7074 13.8527 84.2352 13.8527C82.9818 13.8527 82.0056 14.301 81.3069 15.1974C80.6577 16.0059 80.3307 17.0415 80.3307 18.3236C80.3307 19.5293 80.6203 20.5527 81.2064 21.3798C81.8541 22.3461 82.7675 22.8256 83.9323 22.8256C84.4492 22.8256 85.1538 22.6741 86.054 22.364C86.9552 22.0619 87.604 21.9041 88.0064 21.9041C88.5928 21.9041 89.0954 22.1561 89.5243 22.6489C89.9463 23.1476 90.1592 23.6838 90.1592 24.2718ZM109.296 24.8329C109.296 25.6039 109.051 26.2539 108.559 26.7971C108.062 27.3343 107.433 27.6059 106.67 27.6059C105.524 27.6059 104.706 27.0435 104.215 25.9259C103.113 27.2776 101.608 27.9528 99.6998 27.9528C97.2574 27.9528 95.2547 26.9234 93.7046 24.8777C92.2942 23.0087 91.5839 20.824 91.5839 18.3236C91.5839 15.8232 92.2942 13.6385 93.7046 11.7628C95.2798 9.73526 97.2755 8.72551 99.6998 8.72551C101.608 8.72551 103.113 9.40136 104.215 10.7527C104.706 9.63411 105.524 9.07341 106.67 9.07341C107.413 9.07341 108.037 9.34431 108.541 9.88121C109.044 10.4237 109.296 11.0618 109.296 11.8076V24.8329ZM104.032 18.3236C104.032 17.1112 103.743 16.0878 103.163 15.2604C102.489 14.3199 101.582 13.8527 100.443 13.8527C99.2779 13.8527 98.3715 14.3199 97.7223 15.2604C97.1376 16.0878 96.848 17.1112 96.848 18.3236C96.848 19.5293 97.1303 20.565 97.6905 21.4172C98.3589 22.3577 99.2779 22.8256 100.443 22.8256C101.608 22.8256 102.514 22.3577 103.163 21.4172C103.743 20.565 104.032 19.5293 104.032 18.3236ZM122.728 11.4594C122.728 12.5895 122.18 13.3662 121.084 13.789C120.07 14.1306 119.062 14.4785 118.055 14.8372C116.953 15.4693 116.405 16.6436 116.405 18.3488V24.8329C116.405 25.6039 116.153 26.2539 115.663 26.7971C115.164 27.3343 114.535 27.6059 113.773 27.6059C113.006 27.6059 112.375 27.3343 111.885 26.7971C111.386 26.2539 111.141 25.6039 111.141 24.8329V11.8076C111.141 11.0422 111.386 10.3929 111.878 9.86861C112.375 9.33801 113.006 9.07341 113.768 9.07341C115.026 9.07341 115.901 9.63411 116.393 10.7527C117.52 9.40136 118.729 8.72551 120.033 8.72551C120.775 8.72551 121.411 8.99641 121.94 9.53331C122.463 10.0765 122.728 10.7205 122.728 11.4594ZM136.461 11.6995C136.461 12.8737 136.001 13.6126 135.089 13.929C134.641 14.0865 133.702 14.1684 132.273 14.1684V24.8329C132.273 25.6039 132.021 26.2539 131.531 26.7971C131.033 27.3343 130.403 27.6059 129.641 27.6059C128.899 27.6059 128.268 27.3343 127.764 26.7971C127.262 26.2539 127.009 25.6039 127.009 24.8329V14.1684C125.926 14.1684 125.139 14.0294 124.642 13.7585C123.963 13.3795 123.627 12.691 123.627 11.6995C123.627 10.7086 123.974 10.0328 124.673 9.67226C125.145 9.40696 125.926 9.26871 127.009 9.26871V7.00806C127.009 4.34981 127.884 3.02401 129.641 3.02401C131.392 3.02401 132.273 4.34981 132.273 7.00806V9.26871C133.702 9.26871 134.641 9.35061 135.089 9.50811C136.001 9.82381 136.461 10.5571 136.461 11.6995ZM178.753 8.49311C178.739 6.87226 175.752 6.13656 168.021 6.13656C149.88 6.13656 145.277 5.35956 140.352 0.162415C142.424 3.28301 143.557 9.13606 162.732 8.84486C182.737 8.53581 170.533 14.0175 166.982 20.2108C173.386 14.4792 178.734 10.7013 178.753 8.51656V8.49311ZM153.261 25.1367C153.261 25.865 152.972 26.5635 152.458 27.0785C151.945 27.5935 151.248 27.8829 150.522 27.8831C149.004 27.8831 147.777 26.6525 147.777 25.1367C147.777 24.7751 147.847 24.417 147.985 24.0829C148.123 23.7487 148.325 23.4451 148.58 23.1894C148.835 22.9337 149.138 22.7309 149.471 22.5927C149.804 22.4544 150.161 22.3833 150.522 22.3836C152.034 22.3836 153.261 23.6145 153.261 25.1367ZM165.754 25.1367C165.753 25.865 165.465 26.5635 164.951 27.0785C164.437 27.5935 163.741 27.8829 163.015 27.8831C161.498 27.8831 160.27 26.6525 160.27 25.1367C160.27 24.7751 160.34 24.417 160.478 24.0829C160.616 23.7488 160.818 23.4453 161.073 23.1896C161.328 22.9339 161.631 22.7311 161.964 22.5928C162.297 22.4545 162.654 22.3834 163.015 22.3836C164.527 22.3836 165.754 23.6145 165.754 25.1367Z" fill="url(#paint0_linear)"/>
</g>
<defs>
<linearGradient id="paint0_linear" x1="89.4022" y1="27.7203" x2="89.4022" y2="0.162415" gradientUnits="userSpaceOnUse">
<stop stop-color="#04B6F0"/>
<stop offset="1" stop-color="#3ECAF0"/>
</linearGradient>
<clipPath id="clip0">
<rect width="178.804" height="35" fill="white"/>
</clipPath>
</defs>
</svg>
