<svg width="35" height="35" viewBox="0 0 35 35" fill="none" xmlns="http://www.w3.org/2000/svg">
<path d="M35 35H0V0H35V35Z" fill="#CCEFFF"/>
<path d="M35 35H17.5V0H35V35Z" fill="#ACE3FC"/>
<path d="M32.9492 32.9492H2.05078V2.05078H32.9492V32.9492Z" fill="#0C61C6"/>
<path d="M32.9492 32.9492H17.5V2.05078H32.9492V32.9492Z" fill="#0A4EAF"/>
<path d="M9.62927 24.0625V12.4141H14.5676C16.8278 12.4141 18.2754 14.4922 18.2754 16.2859C18.2754 18.4001 16.6683 20.1578 14.6496 20.1578H11.8933V24.0625H9.62927ZM11.8933 18.1727H14.5183C15.3125 18.1727 15.9785 17.4316 15.9785 16.2859C15.9785 15.3016 15.3808 14.3992 14.4199 14.3992H11.8933V18.1727Z" fill="#CCEFFF"/>
<path d="M22.8854 24.2266C20.9009 24.2266 19.4893 23.3242 18.9971 22.8977L19.8174 21.5195C20.3424 21.8915 21.5504 22.6516 22.8361 22.6516C23.6695 22.6516 24.2471 22.3022 24.2471 21.7C24.2471 20.9607 23.0273 20.7213 22.3604 20.5352C21.8025 20.3821 19.2924 20.0293 19.2924 18.1398C19.2924 16.3208 20.8753 15.3016 22.6721 15.3016C24.5582 15.3016 25.565 16.0673 26.0354 16.4828L25.1494 17.8117C24.7118 17.4836 23.7379 16.8602 22.6557 16.8602C21.858 16.8602 21.3432 17.2009 21.3432 17.8281C21.3432 18.6108 22.7157 18.8345 23.033 18.9109C23.6236 19.0642 26.3635 19.4824 26.3635 21.5031C26.3635 23.8916 23.9572 24.2266 22.8854 24.2266Z" fill="#ACE3FC"/>
<path d="M17.5 13.9701V18.6739C17.9861 18.0128 18.2754 17.1816 18.2754 16.2859C18.2754 15.5026 17.9992 14.6651 17.5 13.9701Z" fill="#ACE3FC"/>
</svg>
