<svg width="35" height="35" viewBox="0 0 35 35" fill="none" xmlns="http://www.w3.org/2000/svg">
<path d="M30.3886 20.8351C29.8306 21.0899 29.8532 21.0944 29.558 20.4452C29.1811 19.6184 28.9806 18.7489 28.9633 17.8032C28.949 16.9917 29.133 16.2374 29.3643 15.4975C29.549 14.9091 29.3087 14.7015 28.8867 14.648C28.5795 14.6099 28.2627 14.6135 27.9548 14.6516C27.1543 14.7504 27.0755 14.8338 26.863 15.7723C26.7368 16.329 26.6362 16.8902 26.4267 17.4187C25.91 18.7198 25.3228 19.9729 24.7206 21.2168C24.6125 21.4408 24.5231 21.6819 24.3707 21.8732C23.9344 21.0844 23.77 20.2131 23.7332 19.2992C23.6964 18.397 23.9254 17.5584 24.177 16.7287C24.2618 16.4495 24.1913 16.2763 23.9915 16.1557C23.9029 16.1022 23.8038 16.0523 23.7069 16.0432C23.1933 15.9943 22.6812 16.0015 22.1803 16.1711C21.955 16.2463 21.8078 16.3987 21.7575 16.7042C21.6599 17.3017 21.5075 17.8819 21.3016 18.4405C20.731 19.9873 20.164 21.5367 19.5941 23.0845C19.0985 24.4291 18.6104 25.7772 18.0232 27.0684C17.9819 27.1599 17.9474 27.3187 17.8437 27.2869C17.7386 27.2551 17.7754 27.0992 17.7709 26.9922C17.7371 26.2306 17.9091 25.5044 18.0554 24.7772C18.2875 23.6266 18.5412 22.4815 18.7876 21.3346C18.8582 21.0054 18.7395 20.7842 18.5135 20.6264C18.1884 20.4006 17.8647 20.3898 17.5126 20.7062C17.5607 20.2383 17.5816 19.8276 17.5651 19.4169C17.5276 18.5012 17.1761 17.9055 16.5642 17.7676C16.1174 17.667 15.6946 17.8239 15.2951 18.0523C14.364 18.5846 13.6153 19.387 12.986 20.3607C12.9124 20.474 12.8381 20.5783 12.7315 20.6481C11.5503 21.4251 10.3699 22.2022 9.19171 22.9864C9.06257 23.0735 8.97921 23.049 8.88607 22.9284C8.29283 22.1604 7.60429 21.5267 6.92244 20.8839C5.96951 19.9845 4.9836 19.1322 4.16133 18.0478C3.68077 17.4132 3.27976 16.7177 3.07926 15.8782C2.75184 14.5055 2.99669 13.2271 3.54185 12.0122C4.18691 10.5751 5.14357 9.46536 6.19855 8.47704C7.87386 6.90847 9.7113 5.6627 11.6479 4.63732C13.8166 3.49037 16.0663 2.75143 18.4624 2.86293C19.4116 2.90736 20.3329 3.10589 21.1785 3.66713C21.777 4.06428 22.1734 4.63819 22.2853 5.48047C22.4168 6.46689 22.2207 7.37816 21.8581 8.24223C21.0479 10.1725 19.7601 11.5398 18.2379 12.6106C16.9704 13.5018 15.603 14.0676 14.1559 14.364C13.3562 14.5281 12.5535 14.627 11.7492 14.4792C10.8264 14.3096 9.97332 13.937 9.34184 13.0394C9.26897 12.936 9.17662 12.8644 9.05273 12.9369C8.92582 13.0113 8.93559 13.1472 8.94759 13.2778C8.95657 13.3676 8.97691 13.4582 9.00314 13.5435C9.1721 14.0939 9.48823 14.5091 9.8584 14.8718C10.8211 15.8175 11.9617 16.095 13.1594 16.1231C14.3316 16.1512 15.4858 15.9717 16.6279 15.6417C19.2043 14.8982 21.3624 13.3722 22.9379 10.7574C23.8795 9.19429 24.4758 7.47162 24.4232 5.50052C24.3894 4.25023 24.0409 3.14589 23.2863 2.24833C22.3889 1.18295 21.2753 0.647138 20.0806 0.325303C18.7499 -0.0319349 17.4059 -0.0826961 16.0482 0.113147C14.867 0.283566 13.7129 0.575551 12.5895 1.04247C10.8706 1.75781 9.2104 2.63637 7.62147 3.70444C5.99352 4.79785 4.45935 6.05004 3.11375 7.61852C1.92281 9.0066 0.899313 10.538 0.322598 12.4393C0.0763175 13.2535 -0.100901 14.0904 0.0643161 14.9707C0.276102 16.1041 0.738623 17.0851 1.34689 17.97C2.26676 19.3101 3.39539 20.3654 4.55931 21.3736C5.4942 22.1841 6.47264 22.9222 7.37073 23.7935C7.62528 24.0401 7.62377 24.0401 7.32416 24.2296C6.97426 24.4499 6.62054 24.6621 6.27666 24.8969C4.88982 25.8435 3.54947 26.8699 2.45533 28.2961C1.91692 28.9988 1.5512 29.7876 1.38081 30.6634C2.27135 32.2701 3.33093 33.728 4.52863 35C6.57189 34.8078 8.13602 33.5239 9.29168 31.4006C9.84964 30.3751 10.1109 29.2146 10.2093 27.9905C10.2957 26.9116 10.2048 25.8671 9.94198 24.8371C9.8962 24.6557 9.72574 24.4753 9.79258 24.3158C9.85488 24.1689 10.0427 24.0945 10.1808 23.9984C10.738 23.6076 11.2966 23.2224 11.8703 22.8243C11.8951 22.9731 11.847 23.0601 11.8261 23.1543C11.4971 24.6114 11.2681 26.0802 11.5182 27.5943C11.6736 28.5373 11.9327 29.4249 12.4253 30.2055C12.9321 31.0089 14.0638 30.9172 14.5233 30.1838C14.9596 29.4874 15.2487 28.7022 15.5498 27.9207C15.715 27.4927 15.8667 27.0576 16.0244 26.625C15.9951 27.1455 15.9966 27.6532 16.0124 28.1591C16.0281 28.6578 16.0943 29.1501 16.309 29.5908C16.5673 30.1202 17.0531 30.2744 17.5045 29.9915C17.9806 29.6931 18.305 29.2018 18.5572 28.6686C19.6393 26.3757 20.6432 24.0338 21.4745 21.5884C21.6517 21.0689 21.8334 20.5503 22.0339 19.9728C22.0647 20.1623 22.085 20.2783 22.1038 20.3944C22.2885 21.5595 22.6174 22.662 23.0935 23.6983C23.1956 23.9204 23.1844 24.0737 23.0552 24.2867C22.6167 25.0075 22.1361 25.6857 21.6623 26.3711C21.2643 26.9478 20.8385 27.4991 20.5021 28.1337C20.2002 28.7049 20.3737 29.2897 20.8761 29.4194C21.0307 29.4593 21.1937 29.4711 21.3522 29.4683C22.23 29.4557 23.0402 29.1392 23.7949 28.6206C24.8109 27.9215 25.4132 26.8969 25.3854 25.4381C25.3726 24.7744 25.2239 24.1371 25.0024 23.5287C24.9536 23.3936 24.9513 23.2957 25.0242 23.1687C25.7278 21.9519 26.3495 20.6763 26.921 19.3635C27.0224 19.1323 27.0937 18.8756 27.2574 18.6499C27.2791 18.7415 27.2964 18.7987 27.3062 18.8576C27.4879 19.9456 27.7327 21.0091 28.1923 21.9801C28.3184 22.2458 28.2554 22.3808 28.0812 22.5586C27.4812 23.1742 26.9751 23.8922 26.5778 24.7146C26.2684 25.3548 26.0566 26.0383 26.0589 26.7882C26.0612 27.6224 26.5898 28.1137 27.2634 27.9179C27.9655 27.7148 28.6165 27.3693 29.2007 26.8535C30.4735 25.7283 30.8467 24.5414 30.448 22.885C30.2919 22.2331 30.2948 22.244 30.8362 22.0463C32.0204 21.6147 33.2219 21.5966 34.4293 21.8342C34.566 21.8613 34.7012 21.8922 34.8348 21.9276C34.9054 21.4099 34.9609 20.8858 35 20.3553C33.4553 19.8994 31.9129 20.1361 30.3886 20.8351ZM5.36664 32.4994C5.02349 32.6463 4.66682 32.7089 4.30182 32.6744C3.84749 32.6309 3.55917 32.2438 3.52985 31.6616C3.49679 30.9907 3.66129 30.3851 3.90455 29.7957C4.34681 28.7258 5.08946 27.9996 5.8472 27.287C6.58381 26.5934 7.37533 26.0013 8.17576 25.4256C8.41831 25.2515 8.42204 25.2533 8.47759 25.6024C8.54967 26.0503 8.61428 26.4991 8.59021 26.9062C8.65338 29.3478 7.1846 31.7224 5.36664 32.4994ZM16.3885 20.1877C16.2609 21.2168 15.9823 22.1969 15.6857 23.1652C15.2817 24.4871 14.8882 25.8153 14.3798 27.0865C14.2634 27.3794 14.141 27.6704 13.9526 27.9089C13.7747 28.1347 13.6169 28.1084 13.4938 27.8327C13.2535 27.2941 13.2836 26.6949 13.2445 26.2596C13.2558 24.0764 13.8626 22.292 14.862 20.6881C15.1413 20.2411 15.498 19.8776 15.9704 19.7315C16.2909 19.6329 16.4388 19.7888 16.3885 20.1877ZM23.3871 26.6514C23.0447 27.3659 22.5513 27.8854 21.9461 28.2553C21.8815 28.2942 21.7982 28.3631 21.7396 28.2716C21.684 28.1854 21.7734 28.1283 21.8139 28.0739C22.4154 27.2806 23.0094 26.4809 23.5448 25.6205C23.553 25.6068 23.5733 25.605 23.6191 25.5815C23.6138 25.9796 23.5417 26.3295 23.3871 26.6514ZM27.5404 26.6206C27.451 26.6713 27.3474 26.7665 27.2603 26.685C27.1642 26.5952 27.2025 26.4365 27.2318 26.3151C27.3685 25.7611 27.5524 25.2307 27.8062 24.7365C28.0194 24.3204 28.2838 23.9568 28.5744 23.6177C28.6915 23.4817 28.744 23.498 28.7838 23.6939C28.8252 23.8942 28.8289 24.0946 28.8319 24.2986C28.8244 25.4147 28.3551 26.1573 27.5404 26.6206Z" fill="#CD6699"/>
</svg>
