<svg width="51" height="51" viewBox="0 0 51 51" fill="none" xmlns="http://www.w3.org/2000/svg">
<g clip-path="url(#clip0)">
<path d="M3.62488 25.4993C3.62488 34.1586 8.65691 41.641 15.9537 45.1875L5.51881 16.5966C4.2679 19.3978 3.62252 22.4315 3.62488 25.4993ZM40.2681 24.3955C40.2681 21.6919 39.297 19.8196 38.464 18.3624C37.3552 16.5604 36.3162 15.0344 36.3162 13.2325C36.3162 11.2216 37.8409 9.34974 39.9892 9.34974C40.0862 9.34974 40.1782 9.36181 40.2731 9.36723C36.3807 5.80164 31.1955 3.62466 25.5004 3.62466C17.8581 3.62466 11.1344 7.54572 7.22294 13.4848C7.73617 13.5002 8.22027 13.5106 8.63069 13.5106C10.9188 13.5106 14.4607 13.2329 14.4607 13.2329C15.6399 13.1634 15.7789 14.8954 14.6014 15.0349C14.6014 15.0349 13.4159 15.1743 12.0972 15.2434L20.0634 38.9383L24.8511 24.5807L21.4424 15.243C20.2644 15.1739 19.1485 15.0344 19.1485 15.0344C17.9696 14.9654 18.1078 13.163 19.2866 13.2325C19.2866 13.2325 22.8993 13.5101 25.0488 13.5101C27.3365 13.5101 30.8787 13.2325 30.8787 13.2325C32.0588 13.163 32.1974 14.895 31.019 15.0344C31.019 15.0344 29.8315 15.1739 28.5153 15.243L36.4207 38.7585L38.6022 31.4671C39.5484 28.4414 40.2681 26.2682 40.2681 24.3955Z" fill="#00749A"/>
<path d="M25.8842 27.4129L19.3208 46.4845C21.3274 47.0759 23.4085 47.3762 25.5004 47.3762C28.0479 47.3762 30.4908 46.9353 32.7648 46.1361C32.7038 46.0407 32.6517 45.9398 32.6091 45.8348L25.8842 27.4129ZM44.6953 15.0041C44.7894 15.7009 44.8426 16.4493 44.8426 17.2535C44.8426 19.4733 44.4281 21.9688 43.1793 25.089L36.4973 44.4083C43.0007 40.6159 47.3751 33.57 47.3751 25.4994C47.3809 21.831 46.4591 18.2206 44.6953 15.0041Z" fill="#00749A"/>
<path d="M25.5005 -3.05176e-05C11.44 -3.05176e-05 0.000244141 11.4389 0.000244141 25.4993C0.000244141 39.5615 11.4396 51.0004 25.5005 51.0004C39.5605 51.0004 51.0019 39.5619 51.0019 25.4993C51.0015 11.4389 39.5605 -3.05176e-05 25.5005 -3.05176e-05ZM25.5005 49.8311C12.0848 49.8311 1.16949 38.9159 1.16949 25.4993C1.16949 12.0841 12.0844 1.16963 25.5005 1.16963C38.9157 1.16963 49.8302 12.0841 49.8302 25.4993C49.8302 38.9159 38.9153 49.8311 25.5005 49.8311Z" fill="#00749A"/>
</g>
<defs>
<clipPath id="clip0">
<rect width="51" height="51" fill="white"/>
</clipPath>
</defs>
</svg>
