<svg width="612" height="437" viewBox="0 0 612 437" fill="none" xmlns="http://www.w3.org/2000/svg">
    <path d="M36.953 391.978C36.953 399.452 131.45 405.43 247.983 405.43C364.516 405.43 459.013 399.452 459.013 391.978C459.013 384.505 364.516 378.526 247.983 378.526C131.45 378.526 36.953 384.505 36.953 391.978Z" fill="#CDCCFF"/>
    <path d="M165.812 408.607C165.812 413.278 141.908 417.014 112.214 417.014C82.7073 417.014 58.6162 413.278 58.6162 408.607C58.6162 403.936 82.5205 400.199 112.214 400.199C141.721 400.199 165.812 403.936 165.812 408.607Z" fill="#CDCCFF"/>
    <path d="M522.135 417.014C571.746 417.014 611.963 414.003 611.963 410.288C611.963 406.573 571.746 403.562 522.135 403.562C472.525 403.562 432.307 406.573 432.307 410.288C432.307 414.003 472.525 417.014 522.135 417.014Z" fill="#CDCCFF"/>
    <path d="M58.0561 299.306L54.5078 347.697H100.636L97.4608 299.119L58.0561 299.306Z" fill="#D7D7FF"/>
    <path d="M67.207 303.603C67.207 302.856 67.954 302.296 68.701 302.296C69.6348 302.296 70.1951 302.856 70.1951 303.603C70.1951 304.351 69.4481 304.911 68.701 304.911C67.954 304.911 67.207 304.164 67.207 303.603ZM68.701 302.669C68.1408 302.669 67.5805 303.043 67.5805 303.417C67.5805 303.79 68.1408 304.164 68.701 304.164C69.2613 304.164 69.8216 303.79 69.8216 303.417C69.8216 303.043 69.4481 302.669 68.701 302.669Z" fill="#EAE6FF"/>
    <path d="M82.8943 303.417H83.081H82.8943C82.8943 303.043 83.081 302.856 83.2678 302.482C83.6413 302.109 84.0148 301.922 84.3883 301.922C85.3221 301.922 85.8823 302.482 85.8823 303.23C85.8823 303.603 85.6956 303.977 85.3221 304.164C84.9486 304.351 84.5751 304.538 84.2016 304.538C83.6413 304.724 82.8943 304.164 82.8943 303.417ZM84.5751 302.669C84.2016 302.669 84.0148 302.856 83.6413 303.043C83.4545 303.23 83.4545 303.23 83.4545 303.603C83.4545 303.977 84.0148 304.351 84.5751 304.351C84.9486 304.351 85.1353 304.164 85.3221 304.164C85.5088 303.977 85.6956 303.79 85.6956 303.603C85.5088 303.043 85.1353 302.669 84.5751 302.669Z" fill="#EAE6FF"/>
    <path d="M76.1711 313.319C76.3578 313.319 76.5446 313.319 76.5446 313.319C79.3459 313.132 81.5869 312.385 83.0809 310.516C85.5087 307.714 84.9484 303.603 84.9484 303.417C84.9484 303.23 84.5749 302.856 84.3882 303.043C84.2014 303.043 83.8279 303.417 84.0147 303.603C84.0147 303.603 84.5749 307.34 82.3339 309.956C81.0266 311.451 79.1591 312.198 76.5446 312.385C74.1168 312.385 72.2493 311.824 70.942 310.516C68.701 308.087 69.2612 303.977 69.2612 303.79C69.2612 303.603 69.0745 303.23 68.8877 303.23C68.701 303.23 68.3275 303.417 68.3275 303.603C68.3275 303.79 67.7672 308.274 70.195 311.077C71.5023 312.385 73.5565 313.319 76.1711 313.319Z" fill="#EAE6FF"/>
    <path d="M79.7193 312.759L74.3035 348.818L124.353 348.631L119.311 312.759H79.7193Z" fill="#BDC6F9"/>
    <path d="M61.2309 373.481C55.6283 373.481 51.1462 377.965 51.1462 383.57C51.1462 389.175 55.6283 393.659 61.2309 393.659C66.8334 393.659 71.3155 389.175 71.3155 383.57C71.3155 377.965 66.8334 373.481 61.2309 373.481ZM61.2309 388.428C58.6163 388.428 56.5621 386.373 56.5621 383.757C56.5621 381.141 58.6163 379.086 61.2309 379.086C63.8454 379.086 65.8997 381.141 65.8997 383.757C65.8997 386.373 63.8454 388.428 61.2309 388.428Z" fill="#8784EF"/>
    <path d="M59.5502 373.481C53.9476 373.481 49.4656 377.965 49.4656 383.57C49.4656 389.175 53.9476 393.659 59.5502 393.659C65.1528 393.659 69.6348 389.175 69.6348 383.57C69.6348 377.965 65.1528 373.481 59.5502 373.481ZM59.5502 388.428C56.9357 388.428 54.8814 386.373 54.8814 383.757C54.8814 381.141 56.9357 379.086 59.5502 379.086C62.1647 379.086 64.219 381.141 64.219 383.757C64.219 386.373 62.1647 388.428 59.5502 388.428Z" fill="#9AA3F4"/>
    <path d="M118.564 373.481C112.961 373.481 108.479 377.965 108.479 383.57C108.479 389.175 112.961 393.659 118.564 393.659C124.166 393.659 128.648 389.175 128.648 383.57C128.648 377.965 124.166 373.481 118.564 373.481ZM118.564 388.428C115.949 388.428 113.895 386.373 113.895 383.757C113.895 381.141 115.949 379.086 118.564 379.086C121.178 379.086 123.233 381.141 123.233 383.757C123.233 386.373 121.178 388.428 118.564 388.428Z" fill="#8784EF"/>
    <path d="M116.883 373.481C111.281 373.481 106.798 377.965 106.798 383.57C106.798 389.175 111.281 393.659 116.883 393.659C122.486 393.659 126.968 389.175 126.968 383.57C126.968 377.965 122.486 373.481 116.883 373.481ZM116.883 388.428C114.269 388.428 112.214 386.373 112.214 383.757C112.214 381.141 114.269 379.086 116.883 379.086C119.498 379.086 121.552 381.141 121.552 383.757C121.552 386.373 119.498 388.428 116.883 388.428Z" fill="#9AA3F4"/>
    <path d="M195.132 259.51H164.692C161.517 259.51 158.529 261.191 156.848 263.807L138.36 293.514" stroke="#9AA3F4" stroke-width="1.5" stroke-miterlimit="10"/>
    <path d="M56.3753 347.884H124.54C128.088 347.884 131.263 345.268 131.823 341.718L138.92 297.625C139.667 293.14 136.119 289.03 131.636 289.03H49.2787C44.7967 289.03 41.2484 293.14 41.9954 297.625L49.092 341.718C49.6522 345.268 52.827 347.884 56.3753 347.884Z" stroke="#9AA3F4" stroke-width="1.5" stroke-miterlimit="10"/>
    <path d="M90.551 289.217V347.884" stroke="#9AA3F4" stroke-width="1.5" stroke-miterlimit="10"/>
    <path d="M135.558 318.551H45.3569" stroke="#9AA3F4" stroke-width="1.5" stroke-miterlimit="10"/>
    <path d="M117.443 289.217L111.654 347.884" stroke="#9AA3F4" stroke-width="1.5" stroke-miterlimit="10"/>
    <path d="M64.9659 289.217L70.195 347.884" stroke="#9AA3F4" stroke-width="1.5" stroke-miterlimit="10"/>
    <path d="M130.329 345.268L141.348 361.71C144.336 366.194 141.161 372.173 135.745 372.173H45.3569" stroke="#9AA3F4" stroke-width="1.5" stroke-miterlimit="10"/>
    <path d="M367.691 353.116H274.128V378.339H367.691V353.116Z" fill="#4A41A3"/>
    <path d="M466.11 361.337H176.83C167.119 361.337 159.276 353.489 159.276 343.774V145.538C159.276 135.823 167.119 127.976 176.83 127.976H466.11C475.821 127.976 483.664 135.823 483.664 145.538V343.774C483.664 353.489 475.821 361.337 466.11 361.337Z" fill="#5620D8"/>
    <path d="M462.748 338.916H179.071C173.095 338.916 168.24 334.058 168.24 328.079V147.22C168.24 141.241 173.095 136.383 179.071 136.383H462.748C468.724 136.383 473.58 141.241 473.58 147.22V328.079C473.58 334.058 468.724 338.916 462.748 338.916Z" fill="#C4C3FC"/>
    <path d="M407.843 391.978H233.977V389.736C233.977 382.262 240.14 376.097 247.61 376.097H394.21C401.68 376.097 407.843 382.262 407.843 389.736V391.978Z" fill="#5851BC"/>
    <g opacity="0.35">
        <g opacity="0.35">
            <g opacity="0.35">
                <path opacity="0.35" d="M445.38 294.075H250.598C245.369 294.075 241.26 289.964 241.26 284.733V159.738C241.26 154.507 245.369 150.396 250.598 150.396H445.38C450.609 150.396 454.718 154.507 454.718 159.738V284.546C454.718 289.777 450.609 294.075 445.38 294.075Z" fill="white"/>
            </g>
        </g>
    </g>
    <g opacity="0.25">
        <g opacity="0.25">
            <g opacity="0.25">
                <g opacity="0.25">
                    <g opacity="0.25">
                        <path opacity="0.25" d="M270.954 255.212H261.616V278.567H270.954V255.212Z" fill="#FCA70C"/>
                    </g>
                </g>
            </g>
            <g opacity="0.25">
                <g opacity="0.25">
                    <g opacity="0.25">
                        <path opacity="0.25" d="M291.87 234.847H282.532V278.754H291.87V234.847Z" fill="#B1AFFD"/>
                    </g>
                </g>
            </g>
            <g opacity="0.25">
                <g opacity="0.25">
                    <g opacity="0.25">
                        <path opacity="0.25" d="M312.786 239.331H303.448V278.754H312.786V239.331Z" fill="#FCA70C"/>
                    </g>
                </g>
            </g>
            <g opacity="0.25">
                <g opacity="0.25">
                    <g opacity="0.25">
                        <path opacity="0.25" d="M333.702 217.097H324.365V278.567H333.702V217.097Z" fill="#B1AFFD"/>
                    </g>
                </g>
            </g>
            <g opacity="0.15">
                <g opacity="0.15">
                    <g opacity="0.15">
                        <path opacity="0.26" d="M286.828 234.847H282.532V278.754H286.828V234.847Z" fill="black"/>
                    </g>
                </g>
            </g>
            <g opacity="0.15">
                <g opacity="0.15">
                    <g opacity="0.15">
                        <path opacity="0.26" d="M265.911 255.212H261.616V278.567H265.911V255.212Z" fill="black"/>
                    </g>
                </g>
            </g>
            <g opacity="0.62">
                <g opacity="0.62">
                    <g opacity="0.62">
                        <path opacity="0.26" d="M328.66 217.097H324.365V278.567H328.66V217.097Z" fill="black"/>
                    </g>
                </g>
            </g>
            <g opacity="0.15">
                <g opacity="0.15">
                    <g opacity="0.15">
                        <path opacity="0.26" d="M307.744 239.331H303.448V278.754H307.744V239.331Z" fill="black"/>
                    </g>
                </g>
            </g>
            <g opacity="0.25">
                <g opacity="0.25">
                    <g opacity="0.25">
                        <path opacity="0.25" d="M338.558 285.107H255.453V196.358H256.76V283.799H338.558V285.107Z" fill="#D5DBDA"/>
                    </g>
                </g>
            </g>
            <g opacity="0.25">
                <g opacity="0.25">
                    <g opacity="0.25">
                        <path opacity="0.25" d="M264.044 244.376L263.11 243.442L284.96 223.824L305.129 228.308L326.979 203.832L327.913 204.766L305.503 229.616L285.333 225.318L264.044 244.376Z" fill="#D5DBDA"/>
                    </g>
                </g>
            </g>
            <g opacity="0.25">
                <g opacity="0.25">
                    <g opacity="0.25">
                        <path opacity="0.25" d="M329.594 208.316L323.431 202.524L331.275 200.282L329.594 208.316Z" fill="#D5DBDA"/>
                    </g>
                </g>
            </g>
            <g opacity="0.25">
                <g opacity="0.25">
                    <g opacity="0.25">
                        <g opacity="0.25">
                            <path opacity="0.25" d="M352.938 253.718H346.588V260.07H352.938V253.718Z" fill="#B1AFFD"/>
                        </g>
                    </g>
                </g>
                <g opacity="0.25">
                    <g opacity="0.25">
                        <g opacity="0.25">
                            <path opacity="0.25" d="M352.938 264.928H346.588V271.28H352.938V264.928Z" fill="#FCA70C"/>
                        </g>
                    </g>
                </g>
                <g opacity="0.25">
                    <g opacity="0.25">
                        <g opacity="0.25">
                            <path opacity="0.25" d="M374.788 267.544H354.619V271.094H374.788V267.544Z" fill="#EFEFEF"/>
                        </g>
                    </g>
                </g>
                <g opacity="0.25">
                    <g opacity="0.25">
                        <g opacity="0.25">
                            <path opacity="0.25" d="M374.788 256.333H354.619V259.883H374.788V256.333Z" fill="#EFEFEF"/>
                        </g>
                    </g>
                </g>
            </g>
            <g opacity="0.25">
                <g opacity="0.25">
                    <g opacity="0.25">
                        <g opacity="0.25">
                            <path opacity="0.25" d="M390.475 253.718H384.125V260.07H390.475V253.718Z" fill="#B1AFFD"/>
                        </g>
                    </g>
                </g>
                <g opacity="0.25">
                    <g opacity="0.25">
                        <g opacity="0.25">
                            <path opacity="0.25" d="M390.475 264.928H384.125V271.28H390.475V264.928Z" fill="#FCA70C"/>
                        </g>
                    </g>
                </g>
                <g opacity="0.25">
                    <g opacity="0.25">
                        <g opacity="0.25">
                            <path opacity="0.25" d="M412.325 267.544H392.156V271.094H412.325V267.544Z" fill="#EFEFEF"/>
                        </g>
                    </g>
                </g>
                <g opacity="0.25">
                    <g opacity="0.25">
                        <g opacity="0.25">
                            <path opacity="0.25" d="M412.325 256.333H392.156V259.883H412.325V256.333Z" fill="#EFEFEF"/>
                        </g>
                    </g>
                </g>
            </g>
            <g opacity="0.25">
                <g opacity="0.25">
                    <g opacity="0.25">
                        <g opacity="0.25">
                            <path opacity="0.25" d="M424.277 253.718H417.928V260.07H424.277V253.718Z" fill="#B1AFFD"/>
                        </g>
                    </g>
                </g>
                <g opacity="0.25">
                    <g opacity="0.25">
                        <g opacity="0.25">
                            <path opacity="0.25" d="M424.277 264.928H417.928V271.28H424.277V264.928Z" fill="#FCA70C"/>
                        </g>
                    </g>
                </g>
                <g opacity="0.25">
                    <g opacity="0.25">
                        <g opacity="0.25">
                            <path opacity="0.25" d="M439.404 267.544H426.145V271.094H439.404V267.544Z" fill="#EFEFEF"/>
                        </g>
                    </g>
                </g>
                <g opacity="0.25">
                    <g opacity="0.25">
                        <g opacity="0.25">
                            <path opacity="0.25" d="M439.404 256.333H426.145V259.883H439.404V256.333Z" fill="#EFEFEF"/>
                        </g>
                    </g>
                </g>
            </g>
            <g opacity="0.25">
                <g opacity="0.25">
                    <g opacity="0.25">
                        <g opacity="0.25">
                            <path opacity="0.25" d="M439.404 192.622H347.709V194.303H439.404V192.622Z" fill="#EFEFEF"/>
                        </g>
                    </g>
                </g>
                <g opacity="0.25">
                    <g opacity="0.25">
                        <g opacity="0.25">
                            <path opacity="0.25" d="M439.404 172.069H255.453V175.806H439.404V172.069Z" fill="#EFEFEF"/>
                        </g>
                    </g>
                </g>
                <g opacity="0.25">
                    <g opacity="0.25">
                        <g opacity="0.25">
                            <path opacity="0.25" d="M439.404 197.853H347.522V199.535H439.404V197.853Z" fill="#EFEFEF"/>
                        </g>
                    </g>
                </g>
                <g opacity="0.25">
                    <g opacity="0.25">
                        <g opacity="0.25">
                            <path opacity="0.25" d="M439.404 187.39H347.522V189.072H439.404V187.39Z" fill="#EFEFEF"/>
                        </g>
                    </g>
                </g>
                <g opacity="0.25">
                    <g opacity="0.25">
                        <g opacity="0.25">
                            <path opacity="0.25" d="M439.404 202.898H347.522V204.579H439.404V202.898Z" fill="#EFEFEF"/>
                        </g>
                    </g>
                </g>
                <g opacity="0.25">
                    <g opacity="0.25">
                        <g opacity="0.25">
                            <path opacity="0.25" d="M439.404 208.129H347.522V209.811H439.404V208.129Z" fill="#EFEFEF"/>
                        </g>
                    </g>
                </g>
                <g opacity="0.25">
                    <g opacity="0.25">
                        <g opacity="0.25">
                            <path opacity="0.25" d="M439.404 213.361H347.522V215.042H439.404V213.361Z" fill="#EFEFEF"/>
                        </g>
                    </g>
                </g>
                <g opacity="0.25">
                    <g opacity="0.25">
                        <g opacity="0.25">
                            <path opacity="0.25" d="M439.404 218.592H347.522V220.274H439.404V218.592Z" fill="#EFEFEF"/>
                        </g>
                    </g>
                </g>
                <g opacity="0.25">
                    <g opacity="0.25">
                        <g opacity="0.25">
                            <path opacity="0.25" d="M439.404 223.637H347.522V225.318H439.404V223.637Z" fill="#EFEFEF"/>
                        </g>
                    </g>
                </g>
                <g opacity="0.25">
                    <g opacity="0.25">
                        <g opacity="0.25">
                            <path opacity="0.25" d="M439.404 228.868H347.522V230.55H439.404V228.868Z" fill="#EFEFEF"/>
                        </g>
                    </g>
                </g>
                <g opacity="0.25">
                    <g opacity="0.25">
                        <g opacity="0.25">
                            <path opacity="0.25" d="M439.404 234.1H358.727V235.781H439.404V234.1Z" fill="#EFEFEF"/>
                        </g>
                    </g>
                </g>
            </g>
        </g>
        <path opacity="0.25" d="M445.38 150.396H250.598C245.369 150.396 241.26 154.507 241.26 159.738V167.959H454.718V159.738C454.718 154.507 450.609 150.396 445.38 150.396Z" fill="#7A7AE5"/>
        <path opacity="0.25" d="M427.265 159.551C427.265 161.046 426.145 162.167 424.651 162.167C423.157 162.167 422.036 161.046 422.036 159.551C422.036 158.057 423.157 156.936 424.651 156.936C426.145 156.749 427.265 158.057 427.265 159.551Z" fill="#CFCFFF"/>
        <path opacity="0.25" d="M435.669 162.167C437.113 162.167 438.284 160.996 438.284 159.551C438.284 158.107 437.113 156.936 435.669 156.936C434.225 156.936 433.055 158.107 433.055 159.551C433.055 160.996 434.225 162.167 435.669 162.167Z" fill="#CFCFFF"/>
        <path opacity="0.25" d="M446.688 162.167C448.132 162.167 449.302 160.996 449.302 159.551C449.302 158.107 448.132 156.936 446.688 156.936C445.244 156.936 444.073 158.107 444.073 159.551C444.073 160.996 445.244 162.167 446.688 162.167Z" fill="#CFCFFF"/>
    </g>
    <path opacity="0.55" d="M388.607 325.837H193.825C188.596 325.837 184.487 321.727 184.487 316.495V191.687C184.487 186.456 188.596 182.346 193.825 182.346H388.607C393.837 182.346 397.945 186.456 397.945 191.687V316.309C398.132 321.54 393.837 325.837 388.607 325.837Z" fill="#C4C3FC"/>
    <path d="M393.09 320.232H198.307C193.078 320.232 188.969 316.122 188.969 310.89V186.082C188.969 180.851 193.078 176.74 198.307 176.74H393.09C398.319 176.74 402.427 180.851 402.427 186.082V310.89C402.427 315.935 398.132 320.232 393.09 320.232Z" fill="white"/>
    <path d="M218.476 281.557H209.139V304.911H218.476V281.557Z" fill="#FCA70C"/>
    <path d="M239.393 261.004H230.055V304.911H239.393V261.004Z" fill="#5620D8"/>
    <path d="M260.496 265.489H251.158V304.911H260.496V265.489Z" fill="#FCA70C"/>
    <path d="M281.412 243.255H272.074V304.725H281.412V243.255Z" fill="#5620D8"/>
    <g opacity="0.15">
        <g opacity="0.15">
            <g opacity="0.15">
                <path opacity="0.26" d="M234.35 261.004H230.055V304.911H234.35V261.004Z" fill="black"/>
            </g>
        </g>
    </g>
    <g opacity="0.15">
        <g opacity="0.15">
            <g opacity="0.15">
                <path opacity="0.26" d="M213.434 281.557H209.139V304.911H213.434V281.557Z" fill="black"/>
            </g>
        </g>
    </g>
    <g opacity="0.62">
        <g opacity="0.62">
            <g opacity="0.62">
                <path opacity="0.26" d="M276.37 243.255H272.074V304.725H276.37V243.255Z" fill="black"/>
            </g>
        </g>
    </g>
    <g opacity="0.15">
        <g opacity="0.15">
            <g opacity="0.15">
                <path opacity="0.26" d="M255.453 265.489H251.158V304.911H255.453V265.489Z" fill="black"/>
            </g>
        </g>
    </g>
    <path d="M286.267 311.264H202.976V230.55H204.283V309.956H286.267V311.264Z" fill="#D5DBDA"/>
    <path d="M211.566 270.533L210.633 269.599L232.483 249.981L252.652 254.465L274.502 229.989L275.436 230.923L253.025 255.773L232.856 251.476L211.566 270.533Z" fill="#E148BE"/>
    <path d="M277.116 234.473L270.954 228.681L278.984 226.439L277.116 234.473Z" fill="#E148BE"/>
    <path d="M300.461 279.875H294.111V286.227H300.461V279.875Z" fill="#5620D8"/>
    <path d="M300.461 291.085H294.111V297.438H300.461V291.085Z" fill="#FCA70C"/>
    <path d="M322.497 293.701H302.328V297.251H322.497V293.701Z" fill="#EFEFEF"/>
    <path d="M322.497 282.491H302.328V286.041H322.497V282.491Z" fill="#EFEFEF"/>
    <path d="M337.998 279.875H331.648V286.227H337.998V279.875Z" fill="#5620D8"/>
    <path d="M337.998 291.085H331.648V297.438H337.998V291.085Z" fill="#FCA70C"/>
    <path d="M360.035 293.701H339.865V297.251H360.035V293.701Z" fill="#EFEFEF"/>
    <path d="M360.035 282.491H339.865V286.041H360.035V282.491Z" fill="#EFEFEF"/>
    <path d="M371.8 279.875H365.45V286.227H371.8V279.875Z" fill="#5620D8"/>
    <path d="M371.8 291.085H365.45V297.438H371.8V291.085Z" fill="#FCA70C"/>
    <path d="M386.927 293.701H373.667V297.251H386.927V293.701Z" fill="#EFEFEF"/>
    <path d="M386.927 282.491H373.667V286.041H386.927V282.491Z" fill="#EFEFEF"/>
    <path d="M387.114 218.779H295.418V220.46H387.114V218.779Z" fill="#EFEFEF"/>
    <path d="M386.927 198.227H202.976V201.964H386.927V198.227Z" fill="#EFEFEF"/>
    <path d="M386.927 224.01H295.045V225.692H386.927V224.01Z" fill="#EFEFEF"/>
    <path d="M386.927 213.547H295.045V215.229H386.927V213.547Z" fill="#EFEFEF"/>
    <path d="M386.927 229.055H295.045V230.737H386.927V229.055Z" fill="#EFEFEF"/>
    <path d="M386.927 234.287H295.045V235.968H386.927V234.287Z" fill="#EFEFEF"/>
    <path d="M386.927 239.518H295.045V241.2H386.927V239.518Z" fill="#EFEFEF"/>
    <path d="M386.927 244.75H295.045V246.431H386.927V244.75Z" fill="#EFEFEF"/>
    <path d="M386.927 249.794H295.045V251.476H386.927V249.794Z" fill="#EFEFEF"/>
    <path d="M386.927 255.026H295.045V256.707H386.927V255.026Z" fill="#EFEFEF"/>
    <path d="M386.927 260.257H306.25V261.938H386.927V260.257Z" fill="#EFEFEF"/>
    <path d="M393.09 176.554H198.307C193.078 176.554 188.969 180.664 188.969 185.895V194.116H402.427V185.895C402.427 180.851 398.132 176.554 393.09 176.554Z" fill="#A4A4F7"/>
    <path d="M374.975 185.709C374.975 187.203 373.854 188.324 372.36 188.324C370.866 188.324 369.745 187.203 369.745 185.709C369.745 184.214 370.866 183.093 372.36 183.093C373.854 183.093 374.975 184.214 374.975 185.709Z" fill="#CFCFFF"/>
    <path d="M385.993 185.709C385.993 187.203 384.872 188.324 383.378 188.324C381.884 188.324 380.764 187.203 380.764 185.709C380.764 184.214 381.884 183.093 383.378 183.093C384.686 182.906 385.993 184.214 385.993 185.709Z" fill="#CFCFFF"/>
    <path d="M396.825 185.709C396.825 187.203 395.704 188.324 394.21 188.324C392.716 188.324 391.596 187.203 391.596 185.709C391.596 184.214 392.716 183.093 394.21 183.093C395.704 182.906 396.825 184.214 396.825 185.709Z" fill="#CFCFFF"/>
    <path opacity="0.35" d="M465.176 128.162H415.126C415.5 144.417 415.687 160.672 415.873 176.74C415.873 179.169 415.873 181.785 414.94 184.027C414.193 184.027 414.566 184.214 414.379 185.335C412.325 188.698 408.403 190.38 404.481 191.314C404.481 191.501 404.481 191.687 404.481 191.874C404.108 192.248 403.921 192.808 404.108 193.369C404.295 193.929 407.283 194.677 411.204 194.303C412.325 194.116 414.566 193.556 415.5 193.182C416.06 192.808 416.62 192.435 417.181 192.061C417.741 192.061 418.114 191.874 418.675 191.687L418.861 191.874L423.343 190.006C423.343 190.006 422.783 187.203 422.41 185.709C422.41 185.335 422.223 185.148 422.036 184.961C425.771 174.872 428.759 164.409 430.813 153.759C430.066 167.025 425.211 193.743 424.837 194.677C424.277 196.172 422.223 198.414 419.235 198.6C418.114 198.6 412.885 198.414 413.446 200.842C413.632 201.403 416.247 202.711 420.169 202.898C421.289 202.898 423.53 202.711 424.651 202.524C426.145 202.15 427.452 201.029 427.452 201.029L428.012 201.777L432.681 200.656C432.681 200.656 432.681 199.348 432.681 197.853C432.681 196.358 431.747 195.051 431.747 195.051V192.435L434.362 192.061C434.362 192.061 439.591 175.059 442.205 169.08C443.326 166.651 444.446 164.409 445.007 161.793C445.754 158.804 445.94 155.815 446.127 152.638C446.501 147.033 447.621 141.615 449.115 136.197C449.302 135.823 449.302 135.449 449.489 135.262C449.862 134.889 450.609 134.702 451.17 134.702C457.893 134.141 460.881 135.262 465.176 133.954C470.779 132.273 471.339 129.657 471.526 129.657C469.845 128.536 467.604 128.162 465.176 128.162Z" fill="#5851BC"/>
    <g opacity="0.35">
        <path opacity="0.35" d="M483.664 240.079V181.972C475.074 193.369 466.483 203.458 457.893 214.855C454.158 219.713 439.404 235.968 449.489 242.508C452.103 244.189 456.585 244.189 458.64 244.189C466.67 244.75 474.513 242.508 482.357 240.265C482.731 240.265 483.104 240.265 483.664 240.079Z" fill="#5851BC"/>
    </g>
    <path opacity="0.35" d="M483.664 252.597L478.809 252.97V252.783L475.074 253.157L473.953 249.981C473.393 248.113 471.152 246.805 469.284 246.992C467.23 247.178 466.296 248.673 466.857 250.541C467.043 251.102 467.604 252.597 467.977 253.718L464.055 254.091V254.278L456.025 254.839C454.718 254.839 452.85 256.52 453.224 257.641V257.828C453.224 258.015 453.224 258.015 453.224 258.202L460.32 278.007L460.134 361.523H468.351L483.851 301.548V252.597H483.664ZM470.965 251.849C469.845 251.849 468.724 251.102 468.351 250.168C467.977 249.234 468.537 248.299 469.658 248.113C470.778 248.113 471.899 248.86 472.273 249.794C472.646 250.915 472.086 251.849 470.965 251.849Z" fill="#5851BC"/>
    <path opacity="0.35" d="M179.632 218.032C177.764 220.087 175.71 224.384 174.776 226.066C173.842 227.934 172.909 228.868 170.294 230.176C166.746 231.858 162.824 233.352 159.276 234.847V244.376C166.746 239.892 173.469 235.781 173.656 235.595C179.445 237.837 184.114 232.979 185.608 229.616C186.355 228.121 185.234 227.374 185.234 226.813C185.234 226.439 185.608 224.197 185.608 224.011C185.234 221.955 179.819 223.824 180.192 222.889C180.379 222.142 181.126 220.461 182.433 219.526C185.048 217.658 187.102 215.79 187.102 215.042C187.102 213.548 180.379 217.471 179.632 218.032Z" fill="#5851BC"/>
    <path d="M582.084 412.157H481.985C474.888 412.157 469.099 406.365 469.099 399.265V279.315C469.099 272.215 474.888 266.423 481.985 266.423H582.084C589.181 266.423 594.97 272.215 594.97 279.315V399.265C594.97 406.365 589.181 412.157 582.084 412.157Z" fill="#A2A7F4"/>
    <path d="M583.95 311.451H484.038C482.17 311.451 480.676 309.956 480.676 308.088V284.733C480.676 282.865 482.17 281.37 484.038 281.37H583.95C585.818 281.37 587.312 282.865 587.312 284.733V308.088C587.312 309.956 585.818 311.451 583.95 311.451Z" fill="#9090F4"/>
    <path d="M504.767 341.158H484.038C482.17 341.158 480.676 339.663 480.676 337.795V325.464C480.676 323.595 482.17 322.101 484.038 322.101H504.767C506.635 322.101 508.129 323.595 508.129 325.464V337.795C508.129 339.663 506.635 341.158 504.767 341.158Z" fill="#9090F4"/>
    <path d="M544.359 341.158H523.629C521.762 341.158 520.268 339.663 520.268 337.795V325.464C520.268 323.595 521.762 322.101 523.629 322.101H544.359C546.226 322.101 547.72 323.595 547.72 325.464V337.795C547.72 339.663 546.226 341.158 544.359 341.158Z" fill="#9090F4"/>
    <path d="M583.95 341.158H563.221C561.353 341.158 559.859 339.663 559.859 337.795V325.464C559.859 323.595 561.353 322.101 563.221 322.101H583.95C585.818 322.101 587.312 323.595 587.312 325.464V337.795C587.312 339.663 585.818 341.158 583.95 341.158Z" fill="#9090F4"/>
    <path d="M504.767 371.8H484.038C482.17 371.8 480.676 370.305 480.676 368.436V356.105C480.676 354.237 482.17 352.742 484.038 352.742H504.767C506.635 352.742 508.129 354.237 508.129 356.105V368.436C508.129 370.305 506.635 371.8 504.767 371.8Z" fill="#9090F4"/>
    <path d="M544.359 371.8H523.629C521.762 371.8 520.268 370.305 520.268 368.436V356.105C520.268 354.237 521.762 352.742 523.629 352.742H544.359C546.226 352.742 547.72 354.237 547.72 356.105V368.436C547.72 370.305 546.226 371.8 544.359 371.8Z" fill="#9090F4"/>
    <path d="M504.767 402.254H484.038C482.17 402.254 480.676 400.759 480.676 398.891V386.56C480.676 384.691 482.17 383.197 484.038 383.197H504.767C506.635 383.197 508.129 384.691 508.129 386.56V398.891C508.129 400.759 506.635 402.254 504.767 402.254Z" fill="#9090F4"/>
    <path d="M544.359 402.254H523.629C521.762 402.254 520.268 400.759 520.268 398.891V386.56C520.268 384.691 521.762 383.197 523.629 383.197H544.359C546.226 383.197 547.72 384.691 547.72 386.56V398.891C547.72 400.759 546.226 402.254 544.359 402.254Z" fill="#9090F4"/>
    <path d="M583.95 402.254H563.221C561.353 402.254 559.859 400.759 559.859 398.891V355.918C559.859 354.05 561.353 352.555 563.221 352.555H583.95C585.818 352.555 587.312 354.05 587.312 355.918V398.891C587.312 400.759 585.818 402.254 583.95 402.254Z" fill="#9090F4"/>
    <g opacity="0.45">
        <path opacity="0.45" d="M478.622 282.865C478.622 280.996 480.116 279.501 481.984 279.501H581.896C583.764 279.501 585.258 280.996 585.258 282.865V306.219C585.258 308.088 583.764 309.582 581.896 309.582H481.984" fill="#E2DEFF"/>
        <path opacity="0.45" d="M502.9 339.29H482.17C480.303 339.29 478.809 337.795 478.809 335.927V323.595C478.809 321.727 480.303 320.232 482.17 320.232H502.9C504.767 320.232 506.261 321.727 506.261 323.595V335.927C506.075 337.795 504.581 339.29 502.9 339.29Z" fill="#E2DEFF"/>
        <path opacity="0.45" d="M542.492 339.29H521.762C519.894 339.29 518.4 337.795 518.4 335.927V323.595C518.4 321.727 519.894 320.232 521.762 320.232H542.492C544.359 320.232 545.853 321.727 545.853 323.595V335.927C545.666 337.795 544.172 339.29 542.492 339.29Z" fill="#E2DEFF"/>
        <path opacity="0.45" d="M582.083 339.29H561.353C559.486 339.29 557.992 337.795 557.992 335.927V323.595C557.992 321.727 559.486 320.232 561.353 320.232H582.083C583.95 320.232 585.444 321.727 585.444 323.595V335.927C585.258 337.795 583.764 339.29 582.083 339.29Z" fill="#E2DEFF"/>
        <path opacity="0.45" d="M502.9 369.744H482.17C480.303 369.744 478.809 368.25 478.809 366.381V354.05C478.809 352.181 480.303 350.687 482.17 350.687H502.9C504.767 350.687 506.261 352.181 506.261 354.05V366.381C506.075 368.25 504.581 369.744 502.9 369.744Z" fill="#E2DEFF"/>
        <path opacity="0.45" d="M542.492 369.744H521.762C519.894 369.744 518.4 368.25 518.4 366.381V354.05C518.4 352.181 519.894 350.687 521.762 350.687H542.492C544.359 350.687 545.853 352.181 545.853 354.05V366.381C545.666 368.25 544.172 369.744 542.492 369.744Z" fill="#E2DEFF"/>
        <path opacity="0.45" d="M502.9 400.386H482.17C480.303 400.386 478.809 398.891 478.809 397.023V384.691C478.809 382.823 480.303 381.328 482.17 381.328H502.9C504.767 381.328 506.261 382.823 506.261 384.691V397.023C506.075 398.891 504.581 400.386 502.9 400.386Z" fill="#E2DEFF"/>
        <path opacity="0.45" d="M542.492 400.386H521.762C519.894 400.386 518.4 398.891 518.4 397.023V384.691C518.4 382.823 519.894 381.328 521.762 381.328H542.492C544.359 381.328 545.853 382.823 545.853 384.691V397.023C545.666 398.891 544.172 400.386 542.492 400.386Z" fill="#E2DEFF"/>
    </g>
    <path d="M582.083 400.386H561.353C559.486 400.386 557.992 398.891 557.992 397.023V354.05C557.992 352.181 559.486 350.687 561.353 350.687H582.083C583.95 350.687 585.444 352.181 585.444 354.05V397.023C585.258 398.891 583.764 400.386 582.083 400.386Z" fill="#FCA70C"/>
    <path d="M559.859 398.891V355.918C559.859 354.05 561.353 352.555 563.221 352.555H583.951C584.324 352.555 584.698 352.555 585.071 352.742C584.511 351.434 583.39 350.5 581.896 350.5H561.167C559.299 350.5 557.805 351.995 557.805 353.863V396.836C557.805 398.331 558.739 399.452 560.046 400.012C559.859 399.825 559.859 399.452 559.859 398.891Z" fill="#F9C110"/>
    <path opacity="0.35" d="M468.911 300.614L472.273 309.583H486.466C486.466 309.583 485.532 348.071 485.345 355.171C485.345 362.458 491.321 412.157 491.321 412.157H499.538L498.605 349.566L510.183 317.43C510.183 317.43 518.961 360.403 522.509 367.689C526.057 374.976 545.666 412.343 545.666 412.343H553.136L533.901 329.948L525.684 301.362L484.038 281.931L469.098 283.425" fill="#5851BC"/>
    <path d="M186.728 332.563L180.192 400.946H244.808L238.645 332.563H186.728Z" fill="#FCA70C"/>
    <path d="M197.933 338.917C197.933 337.796 199.054 336.862 200.361 336.862C201.668 336.862 202.789 337.796 202.789 338.917C202.789 340.038 201.668 340.972 200.361 340.972C199.054 340.972 197.933 340.038 197.933 338.917ZM200.361 337.609C199.427 337.609 198.68 338.169 198.68 338.917C198.68 339.664 199.427 340.225 200.361 340.225C201.295 340.225 202.042 339.664 202.042 338.917C202.042 338.169 201.295 337.609 200.361 337.609Z" fill="#5851BC"/>
    <path d="M222.024 338.729H222.398H222.024C222.024 338.169 222.211 337.795 222.585 337.421C222.958 337.048 223.705 336.674 224.452 336.674C225.759 336.674 226.88 337.608 226.88 338.729C226.88 339.29 226.693 339.85 226.133 340.224C225.759 340.597 225.012 340.784 224.452 340.784C223.145 340.784 222.024 339.85 222.024 338.729ZM224.452 337.608C223.892 337.608 223.518 337.795 223.145 338.169C222.958 338.355 222.771 338.542 222.771 338.916C222.771 339.663 223.518 340.224 224.452 340.224C224.826 340.224 225.386 340.037 225.573 339.85C225.946 339.663 225.946 339.29 225.946 338.916C226.133 338.169 225.386 337.608 224.452 337.608Z" fill="#5851BC"/>
    <path d="M211.753 353.863C211.94 353.863 212.127 353.863 212.5 353.863C216.982 353.676 220.344 352.368 222.585 349.566C226.32 345.082 225.386 338.916 225.386 338.729C225.386 338.355 225.012 337.982 224.452 337.982C224.079 337.982 223.705 338.355 223.705 338.916C223.705 338.916 224.452 344.708 221.277 348.445C219.41 350.687 216.422 351.995 212.313 352.182C208.391 352.368 205.59 351.247 203.723 349.192C200.174 345.269 201.108 339.103 201.108 338.916C201.108 338.542 200.921 338.169 200.361 337.982C199.988 337.982 199.614 338.169 199.427 338.729C199.427 339.103 198.494 345.829 202.415 350.313C204.656 352.555 207.831 353.863 211.753 353.863Z" fill="#5851BC"/>
    <path d="M123.046 178.796C125.474 183.093 123.419 189.072 125.847 193.369C126.781 195.051 128.648 196.545 129.022 198.414C129.395 200.095 128.835 201.964 127.528 202.898C126.221 204.019 124.353 204.019 122.859 203.272C122.485 203.085 122.299 202.898 121.925 202.711C120.618 202.337 119.497 203.458 118.564 204.206C117.256 205.14 115.576 205.514 114.082 204.953C112.214 204.393 110.907 202.337 110.347 200.469C108.479 195.051 109.786 189.072 111.467 183.654C112.214 180.851 113.521 177.862 116.136 176.927" fill="#FCA70C"/>
    <path d="M181.313 224.758C181.313 225.319 182.246 225.879 181.686 227.187C180.379 229.989 176.084 233.913 171.041 232.045C170.854 232.045 143.028 248.113 140.974 248.113C138.92 248.113 124.166 234.287 119.498 217.284C118.377 213.174 118.751 208.503 122.672 206.448C122.672 206.448 125.847 207.195 127.901 211.119C131.076 217.098 140.601 236.902 142.655 237.65C145.269 235.968 157.969 232.045 168.24 227.747C170.481 226.813 171.415 225.879 172.162 224.384C172.909 222.89 174.776 219.34 176.457 217.658C177.017 217.098 183.18 213.735 183.18 214.856C183.18 215.416 181.313 217.098 179.072 218.592C177.951 219.34 177.391 220.834 177.017 221.395C176.644 222.142 181.313 220.648 181.873 222.329C181.686 222.703 181.313 224.384 181.313 224.758Z" fill="#FFB9B0"/>
    <path d="M121.365 205.887C124.913 206.822 127.901 209.064 129.582 212.24C129.956 212.987 130.329 213.921 130.703 214.856C132.197 218.592 134.251 221.955 135.745 225.879C133.691 227.561 131.263 228.308 129.209 229.055C127.341 229.803 125.1 229.989 123.046 229.803C122.672 229.803 122.299 229.803 122.112 229.616C121.738 229.429 121.365 229.055 120.991 228.682C120.431 227.934 119.684 227.187 119.124 226.44C118.564 225.879 118.19 225.132 117.817 224.384C117.443 223.263 117.817 222.142 118.19 221.021" fill="#7762EF"/>
    <g opacity="0.35">
        <path opacity="0.35" d="M124.913 216.163C124.727 215.977 124.727 215.79 124.353 215.79C123.98 215.603 123.606 215.977 123.419 216.163C123.233 216.537 123.233 216.911 123.233 217.284C123.233 218.779 123.419 220.274 123.98 221.769L123.419 229.803C125.287 229.989 127.341 229.616 129.022 229.055C129.956 228.682 130.889 228.495 131.823 227.934C130.889 223.637 127.901 219.713 124.913 216.163Z" fill="#7762EF"/>
    </g>
    <path d="M112.588 198.04C112.588 198.04 112.401 203.085 113.335 203.272C114.829 203.832 116.509 204.206 116.509 204.206V214.482L102.877 212.427L93.3522 207.195C93.3522 207.195 103.25 204.019 103.25 202.898C103.25 201.964 102.69 196.359 102.69 196.359" fill="#FFB9B0"/>
    <path d="M91.4846 346.95C87.7496 364.7 89.4304 389.175 88.6833 402.628C88.8701 402.628 93.7257 403.375 93.7257 403.375C93.7257 403.375 105.304 346.95 107.359 336.113C107.545 335.366 107.545 334.619 107.545 334.058C108.106 325.837 100.635 325.464 96.5269 332.19C95.7799 333.311 95.2197 334.432 94.6594 335.74C94.4727 336.3 94.2859 336.861 93.9124 337.421C93.1654 339.103 92.6051 341.158 92.0449 343.026V343.213C91.8581 343.774 91.6714 344.334 91.6714 344.895V345.082C91.8581 345.829 91.6714 346.39 91.4846 346.95Z" fill="#FFB9B0"/>
    <path d="M113.521 283.051C113.335 284.546 112.588 291.459 111.654 299.867C110.907 306.78 109.973 314.627 109.226 320.793C108.666 325.464 108.292 329.2 108.106 330.882C108.106 332.003 107.919 332.937 107.732 333.871C106.051 342.092 100.262 342.466 96.9005 340.598C96.3402 340.411 95.9667 340.037 95.5932 339.663C94.8462 338.916 94.2859 338.169 94.0992 337.234C93.9124 335.553 93.7257 333.311 93.5389 330.508C93.1654 325.277 92.7919 318.364 92.4184 311.824C92.0449 303.604 91.8581 295.943 91.6714 291.459C91.6714 291.272 91.6714 290.899 91.6714 290.712C91.6714 277.073 103.997 268.478 111.841 272.775C112.027 272.775 112.027 272.775 112.027 272.962C112.214 272.962 112.214 273.149 112.401 273.149C113.335 273.709 113.521 275.765 113.521 278.007C113.708 279.688 113.708 281.557 113.521 283.051Z" fill="#FFB9B0"/>
    <path d="M94.6594 334.245L93.7257 330.695C93.7257 331.442 93.9124 337.234 92.6052 343.026V343.213C92.4184 343.774 92.4184 344.334 92.2317 344.895V345.082C92.0449 346.016 91.8582 346.576 91.8582 346.95C91.8582 348.632 95.2197 341.345 95.9667 339.663C96.1534 339.476 96.1534 339.29 96.1534 339.29L95.2197 335.553L94.6594 334.245Z" fill="#FFB9B0"/>
    <path d="M121.365 350.313C120.991 368.997 126.781 390.857 128.275 404.496C128.461 404.496 132.944 403.936 132.944 403.936C132.944 403.936 133.877 346.763 133.877 335.553C133.877 334.806 133.877 334.058 133.691 333.311C132.757 325.09 126.034 326.585 123.606 334.245C123.232 335.553 122.859 336.861 122.485 338.356C122.299 338.916 122.299 339.477 122.112 340.224C121.738 342.092 121.552 344.148 121.365 346.39V346.576C121.365 347.137 121.365 347.884 121.178 348.445V348.632C121.365 349.005 121.365 349.753 121.365 350.313Z" fill="#FFB9B0"/>
    <path d="M125.287 342.84C124.726 342.653 124.353 342.466 123.979 342.279C123.046 341.719 122.485 340.971 122.299 340.224C121.738 338.542 121.178 336.3 120.618 333.685C119.311 328.453 117.817 321.914 116.509 315.374C114.829 307.34 113.335 299.68 112.401 295.196C112.401 295.009 111.654 291.833 111.654 291.459C109.226 277.82 119.871 269.039 127.528 271.654C127.714 271.654 127.714 271.654 127.901 271.841C129.395 272.402 129.956 278.007 130.142 281.557C130.516 285.294 133.13 323.409 133.691 330.322C133.877 331.443 133.877 332.377 133.877 333.498C133.691 341.905 128.648 343.774 125.287 342.84Z" fill="#FFB9B0"/>
    <path d="M121.925 336.861L120.431 333.498C120.618 334.245 121.552 340.037 121.552 346.203V346.39C121.552 346.95 121.552 347.698 121.365 348.258V348.445C121.365 349.379 121.365 350.126 121.365 350.313C121.552 351.995 123.419 343.961 123.979 342.092C123.979 341.906 123.979 341.719 123.979 341.719L122.485 338.169L121.925 336.861Z" fill="#FFB9B0"/>
    <path d="M98.3944 256.894C98.3944 256.894 88.4965 269.599 89.4303 282.304C89.8038 287.536 90.5508 292.206 91.1111 297.625C91.1111 298.372 92.4183 309.582 92.0448 309.582C92.0448 309.582 112.588 315.935 132.57 307.527C132.57 306.219 134.251 280.062 123.419 255.213C110.347 257.268 98.3944 256.894 98.3944 256.894Z" fill="#5146AF"/>
    <path d="M129.582 227.561C129.582 231.11 127.528 233.353 124.727 236.529C124.353 237.089 123.606 245.123 123.233 250.542C123.046 253.344 124.353 255.026 123.233 255.399C119.311 258.949 104.931 261.752 98.2078 256.894C98.9548 251.102 96.3403 238.21 94.4727 231.484C94.286 230.55 93.9125 229.616 93.7257 229.055C92.045 224.011 89.0569 208.129 91.2979 207.382C91.6715 207.195 92.4185 207.008 93.1655 206.821C96.527 205.7 101.756 204.019 101.756 204.019C101.756 204.019 104.744 212.8 112.588 213.921C116.883 212.24 116.509 206.821 116.323 204.393C117.63 204.766 118.377 205.14 122.672 206.448C123.793 208.129 122.859 211.866 124.727 217.284C125.474 218.592 129.769 223.263 129.582 227.561Z" fill="#7762EF"/>
    <path d="M122.486 177.675C122.486 177.675 123.233 187.204 121.552 192.248C120.244 195.985 115.389 199.535 111.094 199.348C99.7017 199.348 97.6475 183.84 97.6475 183.093C97.6475 182.346 114.642 175.806 114.642 175.806L122.486 177.675Z" fill="#FFB9B0"/>
    <path d="M144.335 409.915C140.227 410.662 135.932 409.541 134.064 409.728C132.57 409.915 128.835 411.036 127.341 409.728C125.847 408.42 126.22 403.936 127.714 403.375C127.714 403.375 128.088 403.562 128.835 403.562C129.769 403.749 131.636 403.749 133.691 403.188C136.865 404.496 136.865 405.057 140.414 405.804C141.908 406.178 143.775 406.551 144.896 407.112C146.576 407.859 146.763 409.541 144.335 409.915Z" fill="#5045AF"/>
    <path d="M100.262 411.596C96.1534 410.849 93.5389 408.607 91.8581 408.42C90.3641 408.233 86.629 407.486 86.2555 405.991C85.882 404.87 87.0025 400.199 88.8701 400.199C88.8701 400.199 89.2436 400.386 89.8038 400.759C90.7376 401.32 92.2316 401.88 94.4726 402.067C96.9004 404.309 96.9004 404.87 99.8884 406.738C101.196 407.486 102.69 408.607 103.623 409.541C104.931 410.475 102.69 412.157 100.262 411.596Z" fill="#5045AF"/>
    <path d="M40.6881 220.834L44.4232 216.35L67.3937 236.902C67.3937 236.902 78.5988 221.955 81.5869 217.284C84.9484 212.24 87.9364 207.756 92.9787 207.008C94.0993 207.756 92.6052 226.066 92.045 226.626C85.1352 231.858 71.689 248.486 67.3937 249.421C62.5381 250.168 40.6881 220.834 40.6881 220.834Z" fill="#FFB9B0"/>
    <path d="M94.6595 206.074C94.6595 206.074 89.9907 206.074 87.9364 207.756C85.8822 209.437 76.3578 224.758 76.3578 224.758C76.3578 224.758 76.1711 227.56 78.9723 229.989C81.9604 232.605 85.8822 232.979 85.8822 232.979C85.8822 232.979 90.7377 228.121 93.3523 226.066C95.033 224.758 95.2198 228.121 95.2198 228.121L103.81 219.713L94.6595 206.074Z" fill="#7762EF"/>
    <path d="M91.8581 206.261C91.6714 206.074 91.2979 205.887 91.1111 205.887C89.8039 205.14 88.4966 204.206 88.1231 202.711C87.3761 200.469 87.0026 197.293 88.1231 195.238C88.8701 193.743 90.3641 192.809 91.2979 191.688C92.6051 190.006 92.9786 187.577 93.1654 185.335C93.3521 183.093 93.1654 180.851 93.5389 178.796C94.2859 175.059 95.4064 171.509 98.2077 169.267C102.69 165.53 112.027 163.101 116.883 167.399C117.817 168.146 118.003 168.707 119.124 168.893C120.805 169.08 121.738 169.267 123.233 170.201C124.913 171.135 126.781 172.443 126.594 174.685C126.407 176.18 124.727 178.609 123.419 179.169C122.859 179.543 122.299 179.543 121.738 179.543C119.871 179.543 118.19 178.235 116.323 178.609C115.389 178.796 114.455 179.169 113.895 179.917C113.148 180.851 113.335 181.972 112.588 182.719C111.28 184.027 109.226 183.84 107.732 184.775C107.545 184.961 107.172 185.148 106.985 185.335C106.798 185.522 106.798 185.896 106.798 186.082C106.798 186.83 106.798 187.764 106.798 188.511C106.051 188.138 106.051 187.017 105.304 186.643C104.744 186.082 103.81 186.269 103.063 186.83C102.503 187.39 102.13 188.138 101.943 188.885C101.756 189.819 102.13 190.753 102.316 191.688C102.877 193.369 104.184 194.864 105.304 193.743C106.051 194.864 105.304 196.919 105.118 198.414C105.118 199.535 105.118 201.59 106.051 202.337C106.985 203.085 108.479 202.524 108.479 204.206C108.479 205.7 106.985 207.008 105.491 207.195C103.997 207.382 102.503 206.822 101.009 206.448C99.515 206.074 97.8342 205.7 96.5269 206.261C95.5932 206.635 94.8462 207.195 93.9124 207.382C93.5389 207.008 92.6051 206.635 91.8581 206.261Z" fill="#FCA70C"/>
    <path d="M50.2124 221.582C50.2124 221.582 44.7965 217.284 44.423 216.163C44.0495 215.042 44.0495 213.734 43.4893 212.613C42.929 210.932 41.435 209.624 39.7542 208.877C38.447 208.316 39.0072 207.942 37.7 208.129C35.4589 208.503 34.5252 210.745 33.5914 212.427C29.8564 219.526 40.1277 220.834 40.5012 221.021C41.2482 221.021 44.9833 225.318 44.9833 225.318" fill="#FFB9B0"/>
    <path d="M33.2179 218.032L36.9529 220.461C37.5132 220.834 38.0734 220.648 38.4469 220.087L46.4773 206.448L41.6217 203.832L32.8444 216.537C32.6576 217.098 32.6576 217.658 33.2179 218.032Z" fill="#E148BE"/>
    <path d="M19.9585 189.259L21.2657 190.193L26.4948 182.719L25.1875 181.785C23.32 180.477 20.7055 181.225 19.3982 183.28C17.9042 185.335 18.2777 187.951 19.9585 189.259Z" fill="#EF8BD8"/>
    <path d="M15.2897 198.414L39.0072 201.964L44.423 194.116L32.4709 173.377L15.2897 198.414Z" fill="#EF8BD8"/>
    <path d="M16.7837 198.601L39.0072 201.964L41.0615 198.787L22.573 190.38L16.7837 198.601Z" fill="#E569C9"/>
    <path d="M48.7183 207.569C50.0256 208.503 51.8931 207.942 52.8269 206.448L53.7606 205.14C54.6944 203.645 54.5076 201.777 53.2004 201.029C51.8931 200.095 50.0256 200.656 49.0918 202.15L48.1581 203.458C47.2243 204.953 47.4111 206.821 48.7183 207.569Z" fill="#E148BE"/>
    <path d="M49.0918 202.15L48.1581 203.458C47.2243 204.953 47.4111 206.821 48.7183 207.569C50.0256 208.503 51.8931 207.942 52.8269 206.448L53.7606 205.14C53.7606 204.953 53.9474 204.953 53.9474 204.766C53.0136 205.887 51.3329 206.261 50.0256 205.514C48.9051 204.766 48.5316 203.085 49.2786 201.59C49.2786 201.964 49.2786 201.964 49.0918 202.15Z" fill="#EF8BD8"/>
    <path d="M14.5424 199.161C15.2894 199.722 16.4099 199.348 16.9702 198.601L33.2177 175.059C33.7779 174.125 33.5912 173.191 32.8441 172.63C32.0971 172.07 30.9766 172.443 30.4164 173.191L14.3557 196.732C13.6087 197.48 13.7954 198.601 14.5424 199.161Z" fill="#E669C9"/>
    <path d="M33.2179 172.817L19.7717 192.435C19.2115 193.369 18.0909 193.556 17.3439 192.995C17.1572 192.809 16.9704 192.809 16.9704 192.622L14.1691 196.545C13.6089 197.48 13.7956 198.414 14.5426 198.974C15.2897 199.535 16.4102 199.161 16.9704 198.414L33.2179 174.872C33.5914 174.312 33.5914 173.377 33.2179 172.817Z" fill="#E148BE"/>
    <path d="M41.0614 206.074L42.5554 207.195C44.7965 208.69 48.158 207.943 49.8388 205.327L51.3328 203.085C53.0136 200.469 52.6401 197.106 50.399 195.611L48.905 194.49C46.664 192.995 43.3025 193.743 41.6217 196.359L40.1277 198.601C38.4469 201.216 38.8204 204.579 41.0614 206.074Z" fill="#E669C9"/>
    <path d="M40.3145 198.414L38.0735 201.777C37.5133 202.524 37.7 203.645 38.2603 204.206L45.3568 209.064C46.1039 209.624 47.0376 209.25 47.5979 208.503L49.8389 205.14C49.2786 205.887 48.1581 206.261 47.5979 205.7L40.5013 200.843C39.7543 200.282 39.7543 199.348 40.3145 198.414Z" fill="#E148BE"/>
    <path d="M33.965 214.669C33.5915 212.613 34.1517 210.558 35.2722 209.064C35.6457 208.503 36.206 208.129 36.5795 207.569C36.7662 207.382 36.953 207.195 37.3265 207.008C37.8868 206.822 38.447 207.008 39.0073 207.382C39.5675 207.756 40.1278 208.129 40.5013 208.877C40.8748 209.811 40.3145 210.558 39.3808 211.119L39.194 211.306C39.194 211.492 39.194 211.679 39.3808 211.679C39.7543 212.24 39.941 212.987 39.941 213.548C39.941 214.108 39.3808 214.669 38.6338 214.482C38.447 214.482 38.0735 214.295 37.8868 214.482V214.669C37.8868 215.229 37.8868 215.79 37.5133 216.163C37.5133 216.35 37.3265 216.35 37.1398 216.35C36.953 216.35 36.953 216.35 36.7663 216.35C36.3927 216.163 35.8325 215.977 35.459 215.79" fill="#FFB9B0"/>
    <path d="M44.4231 216.35C44.2363 215.603 44.0496 214.295 44.0496 213.361C44.0496 211.119 42.7423 209.064 40.8748 207.943C40.688 207.943 40.5013 207.756 40.3145 207.756C40.1278 207.756 39.941 207.943 39.941 208.316C39.941 208.503 39.941 208.69 40.1278 209.064C40.3145 209.811 41.2483 211.119 41.0616 211.679C40.6881 212.8 40.3145 213.921 40.3145 215.042C40.3145 215.977 40.8748 217.658 41.9953 217.845" fill="#FFB9B0"/>
    <path d="M16.9705 161.98L21.826 173.191" stroke="#E148BE" stroke-width="0.75" stroke-miterlimit="10" stroke-linecap="round" stroke-linejoin="round"/>
    <path d="M7.07263 171.883L16.7838 179.356" stroke="#E148BE" stroke-width="0.75" stroke-miterlimit="10" stroke-linecap="round" stroke-linejoin="round"/>
    <path d="M0.90979 185.522L13.0487 186.643" stroke="#E148BE" stroke-width="0.75" stroke-miterlimit="10" stroke-linecap="round" stroke-linejoin="round"/>
    <path d="M388.981 67.6271C388.981 67.6271 384.686 64.6376 384.499 63.3298C384.312 62.0219 381.324 56.7904 380.39 55.8563C379.457 54.7352 374.228 53.0537 373.294 52.8669C372.173 52.68 366.01 53.2405 366.757 54.1747C367.504 55.1089 371.613 54.7352 372.36 55.1089C373.107 55.4826 373.107 55.4826 373.107 55.4826C373.107 55.4826 372.36 56.6036 372.733 57.1641C373.107 57.7246 371.426 58.8457 371.986 59.7799C372.547 60.9009 371.8 60.7141 372.36 62.0219C373.294 63.8903 375.722 65.0113 376.282 64.4508C376.655 65.5718 378.523 67.8139 380.204 67.6271C381.884 67.4402 385.993 71.3638 385.993 71.3638" fill="#FFB9B0"/>
    <path d="M455.278 45.767C455.465 48.7564 455.278 53.801 456.025 54.5484C456.772 55.2957 459.573 55.1089 459.573 55.1089C459.573 55.1089 449.862 67.2534 449.115 66.6928C448.181 65.9455 436.79 56.7904 439.404 56.2299C442.019 55.6694 444.446 55.8562 444.446 54.5484C444.446 53.2405 444.26 51.9326 444.26 50.6248" fill="#FFB9B0"/>
    <path d="M466.296 110.973C466.296 110.973 447.435 113.029 443.139 113.215C438.844 113.215 439.031 110.973 439.031 110.973C438.844 106.116 437.91 94.9054 437.163 91.1686C436.416 87.6187 436.043 86.3108 435.296 82.9477C433.615 75.4742 433.802 73.9795 432.121 64.6376L443.326 55.6694C443.326 55.6694 444.446 59.2193 449.115 59.2193C455.465 59.2193 457.332 54.922 457.332 54.922L472.646 65.1981L474.14 90.0476L472.273 110.413" fill="#FCA70C"/>
    <path d="M455.465 42.9644C455.091 44.4591 454.718 45.9538 454.157 47.2617C453.224 49.8774 451.73 50.8116 448.928 50.8116C447.061 50.8116 445.007 50.8116 443.139 50.9984C441.645 50.9984 439.778 50.9984 438.657 50.0642C437.537 49.1301 437.537 47.2617 437.163 45.9538C436.79 44.0854 436.603 42.217 436.416 40.5355C436.043 36.9856 435.856 33.2488 435.856 29.6989C435.856 29.1384 435.856 28.7647 436.043 28.2042C436.043 28.0173 436.229 27.8305 436.229 27.6437C436.416 27.4568 436.603 27.4568 436.976 27.4568C440.525 26.8963 444.26 26.7095 447.808 26.7095C450.422 26.7095 453.037 27.0831 455.091 28.5779C457.146 30.0726 458.079 32.6883 459.013 35.1172C459.2 35.4909 459.2 36.0514 458.826 36.2382" fill="#FFB9B0"/>
    <path d="M413.259 178.235C413.259 178.235 413.819 181.972 414.379 183.28C414.939 184.588 419.048 183.467 419.421 182.532C419.608 181.785 418.114 175.619 418.114 175.619" fill="#ED9C80"/>
    <path d="M420.916 183.467C421.289 184.775 421.663 187.577 421.663 187.577L417.554 189.445L416.807 188.885C416.807 188.885 415.686 190.193 414.566 190.753C413.632 191.127 411.578 191.688 410.457 191.874C406.722 192.248 404.108 191.501 403.921 191.127C402.987 189.072 407.843 188.511 408.777 188.138C411.578 187.39 413.072 184.961 413.445 183.467C413.632 182.346 413.445 182.159 414.006 182.159C414.006 182.159 414.566 182.159 415.126 182.719C415.873 183.467 416.994 183.84 418.114 183.467C418.674 183.28 419.235 182.719 419.608 182.159C419.421 181.972 420.542 182.159 420.916 183.467Z" fill="#38287C"/>
    <path d="M431.747 129.098C425.211 130.405 416.994 130.405 410.271 129.658C411.204 132.274 413.445 135.637 414.379 139.561C417.181 151.892 418.301 168.52 419.048 178.797C419.048 178.797 417.741 181.412 413.259 179.357C406.722 163.102 395.144 130.219 395.33 122.932C395.517 113.777 418.114 111.722 434.735 109.48" fill="#453087"/>
    <path d="M460.88 110.973C466.11 114.71 431.934 129.097 431.934 129.097C428.199 129.844 424.464 130.218 420.729 130.218C420.355 129.47 419.982 128.91 419.982 128.163C419.795 127.228 419.795 126.107 419.795 125.173C419.421 123.305 418.114 121.623 416.433 120.502C414.753 119.568 412.698 119.007 410.831 118.634C406.162 117.886 398.132 118.447 398.132 118.447C408.403 110.787 429.506 109.852 439.217 109.292C440.898 112.281 460.133 110.413 460.88 110.973Z" fill="#38287C"/>
    <path d="M424.09 186.83C424.09 186.83 424.09 190.566 424.277 192.061C424.464 193.369 428.946 192.995 429.319 192.248C429.693 191.501 429.133 185.148 429.133 185.148" fill="#ED9C80"/>
    <path d="M430.627 193.369C430.813 194.864 430.813 197.479 430.813 197.479L426.331 198.6L425.771 197.853C425.771 197.853 424.464 198.974 423.157 199.348C422.223 199.535 419.982 199.908 419.048 199.721C415.313 199.535 412.885 198.414 412.698 197.853C412.138 195.611 416.994 195.798 418.114 195.798C420.916 195.611 422.97 193.556 423.53 192.061C423.904 190.94 423.717 190.753 424.277 190.94C424.277 190.94 424.837 190.94 425.211 191.687C425.771 192.622 426.892 193.182 428.012 192.808C428.572 192.622 429.319 192.435 429.693 191.874C429.506 191.687 430.44 192.061 430.627 193.369Z" fill="#38287C"/>
    <path d="M472.272 110.226C472.272 110.226 461.814 111.347 449.115 110.973C446.127 110.973 423.717 115.271 421.663 119.007C418.114 125.173 423.904 161.793 423.343 187.951C423.343 187.951 425.958 190.193 430.813 188.138C431.934 175.246 439.591 144.978 434.362 130.965C446.687 132.647 456.585 134.141 467.977 130.591C470.592 129.657 472.646 127.789 473.766 124.426C474.7 120.689 474.14 113.215 472.272 110.226Z" fill="#453087"/>
    <path d="M443.139 55.6694C443.139 55.6694 440.525 55.8563 439.964 55.8563C437.723 56.0431 435.482 56.4168 433.241 57.1641C430.253 58.2852 428.012 61.0877 425.584 63.3298C423.157 65.385 410.831 77.3427 408.403 77.7163C406.162 78.09 385.806 64.264 385.806 64.264L380.764 69.3086C380.764 69.3086 402.801 89.674 409.337 89.674C412.512 89.674 430.067 80.5189 435.669 76.7821L443.139 55.6694Z" fill="#FCA70C"/>
    <path opacity="0.25" d="M409.524 85.5634C405.042 85.7503 384.312 70.0559 381.884 68.1875L380.951 69.1217C380.951 69.1217 402.987 89.487 409.524 89.487C412.138 89.487 424.837 83.1346 432.308 78.8373L434.175 77.7162L433.055 70.8032C433.055 70.9901 414.379 85.3766 409.524 85.5634Z" fill="#CE4A30"/>
    <path d="M388.421 114.337H438.844L429.88 84.8161C429.319 83.1346 427.825 82.0135 426.145 82.0135H382.071C380.39 82.0135 379.083 83.6951 379.643 85.1898L388.421 114.337Z" fill="#A4A4F7"/>
    <path d="M387.86 114.337H437.536L428.572 84.8161C428.012 83.1346 426.518 82.0135 424.837 82.0135H380.577C378.896 82.0135 377.589 83.6951 378.149 85.1898L386.74 113.402C386.927 113.963 387.3 114.337 387.86 114.337Z" fill="#7A74D1"/>
    <g opacity="0.25">
        <path opacity="0.25" d="M465.363 69.869C462.935 81.2662 462.375 90.0476 461.628 98.2684C452.85 101.632 449.302 106.863 440.525 110.6C440.525 110.6 433.801 109.479 433.054 112.094C432.681 113.589 441.085 114.71 441.085 114.71C449.115 114.71 470.218 108.918 471.525 108.545C473.019 108.171 477.128 81.2662 477.315 66.8796C477.315 64.8244 477.315 62.5824 476.008 60.9008C475.261 59.9666 474.327 59.4061 473.393 59.0324C467.79 56.2299 463.682 55.2957 457.332 54.922" fill="#FAE54E"/>
    </g>
    <path d="M441.832 112.281C440.898 111.16 439.217 110.973 437.723 110.973C436.603 110.973 435.482 111.16 434.362 111.16C433.802 111.16 433.241 111.347 433.241 111.908C433.241 112.468 435.669 111.908 436.976 112.281C434.362 112.468 431.747 112.655 429.133 112.468C428.759 112.468 428.572 112.468 428.199 112.468C427.825 112.655 427.639 112.842 427.639 113.215C427.639 113.402 427.825 113.589 428.012 113.776C428.759 114.337 429.693 114.71 430.627 114.897C434.549 115.644 438.844 115.458 442.392 113.776" fill="#FFB9B0"/>
    <path d="M464.802 69.6823C464.616 81.8268 463.682 87.4319 464.055 99.5764C457.893 100.884 449.489 107.797 440.898 111.534C440.898 111.534 440.338 113.216 441.272 114.71C442.019 114.897 470.405 107.984 472.646 105.929C474.7 104.06 477.315 81.2662 477.502 66.6929C477.502 64.6377 477.502 62.3956 476.194 60.7141C475.447 59.7799 474.514 59.2193 473.58 58.8457C467.977 56.0431 463.869 55.1089 457.519 54.7352" fill="#FCA70C"/>
    <path opacity="0.45" d="M413.446 98.6421C413.632 101.258 410.644 103.313 406.536 103.313C402.427 103.313 399.252 101.258 399.066 98.6421C398.879 96.0264 401.867 93.9712 405.976 93.9712C410.084 93.9712 413.259 96.0264 413.446 98.6421Z" stroke="#A4A4F7" stroke-miterlimit="10"/>
    <path d="M410.733 98.7815C410.789 97.338 408.83 96.0897 406.357 95.9932C403.883 95.8967 401.833 96.9886 401.776 98.4321C401.72 99.8756 403.68 101.124 406.153 101.22C408.626 101.317 410.677 100.225 410.733 98.7815Z" fill="#A4A4F7"/>
    <path d="M446.687 35.3042C446.501 34.9305 445.567 34.7436 444.633 34.9305C443.699 35.1173 440.898 35.3042 440.338 35.8647C439.778 36.2383 439.778 36.612 439.591 36.612C439.217 36.612 439.217 36.4252 438.657 36.0515C438.097 35.6778 436.416 36.0515 435.482 36.0515C434.548 36.2383 433.428 36.4252 433.615 36.7989C433.615 37.1725 433.801 38.1067 433.988 38.1067C434.175 38.2936 434.175 38.2936 434.922 39.9751C435.295 40.9093 436.042 41.6566 437.35 41.283C439.031 40.9093 439.031 39.0409 439.217 38.2936C439.404 37.5462 439.404 37.3594 439.778 37.3594C439.964 37.3594 440.151 37.3594 440.525 38.1067C440.898 38.8541 441.085 40.5356 442.766 40.7225C445.007 40.9093 445.94 40.1619 446.314 38.6672C446.687 36.7989 446.687 36.7989 446.874 36.612L448.555 36.7989V36.2383C448.181 36.2383 446.687 35.491 446.687 35.3042ZM438.47 39.2278C438.47 40.1619 437.91 41.0961 436.79 41.283C435.856 41.4698 435.295 40.9093 434.735 39.6014C434.175 38.4804 434.175 37.5462 434.362 37.1725C434.548 36.7989 435.109 36.7989 436.416 36.7989C437.723 36.7989 438.097 36.612 438.284 37.1725C438.47 37.3594 438.657 38.2936 438.47 39.2278ZM445.754 38.1067C445.567 39.6014 445.007 40.1619 443.699 40.3488C441.645 40.5356 441.272 39.7883 441.085 38.8541C440.711 37.9199 440.711 37.1725 440.711 36.9857C440.711 36.4252 441.272 36.2383 442.392 36.0515C443.699 35.8647 445.38 35.491 445.567 35.8647C445.754 36.2383 445.94 36.9857 445.754 38.1067Z" fill="#483A99"/>
    <path d="M460.133 32.1279C459.947 31.0068 459.76 30.0727 459.573 29.1385C458.826 26.5227 457.332 24.2807 454.904 22.9728C451.916 21.2913 447.621 20.9176 444.446 21.8518C442.579 22.4123 441.832 23.3465 440.898 23.3465C440.151 23.3465 439.217 22.786 438.283 22.4123C430.813 19.6097 431.934 27.0832 432.868 29.1385C433.241 30.0727 434.922 30.6332 435.109 31.0068C435.295 31.3805 435.295 33.2489 435.482 33.9963C435.669 34.7436 436.416 35.1173 436.416 35.1173C436.416 35.1173 436.416 32.6884 436.416 32.5016C436.603 31.5674 436.789 30.82 437.536 30.2595C438.283 29.699 439.404 29.699 440.338 29.5121C441.271 29.3253 445.567 30.2595 445.94 30.4463C447.434 31.5674 447.621 34.3699 448.181 36.0515C448.368 36.7988 448.555 37.3593 448.928 37.3593C449.115 35.1173 449.862 35.1173 451.356 35.8646C452.103 36.2383 452.477 37.733 452.477 38.854C452.477 40.3488 451.73 41.8435 450.236 42.2171C449.675 42.404 451.356 45.3934 452.103 46.1407C452.29 46.3276 452.663 46.7013 452.85 46.8881C453.037 47.0749 453.41 47.0749 453.784 47.2618C454.157 47.4486 454.531 47.4486 454.904 47.6354C455.465 47.8223 455.838 47.8223 456.398 47.8223C457.145 47.6354 457.706 46.7013 457.892 45.9539C458.453 44.646 459.2 43.525 459.573 42.2171C460.133 39.2277 460.507 35.491 460.133 32.1279Z" fill="#483A99"/>
    <path d="M595.902 144.044H500.472L511.864 135.636V94.1581C511.864 90.795 514.665 87.9924 518.027 87.9924H595.716C599.077 87.9924 601.879 90.795 601.879 94.1581V137.691C602.252 141.241 599.451 144.044 595.902 144.044Z" fill="#CECBFF"/>
    <path opacity="0.45" d="M594.035 96.0265H550.335V100.137H594.035V96.0265Z" fill="white"/>
    <path opacity="0.45" d="M594.035 102.192H550.335V106.303H594.035V102.192Z" fill="white"/>
    <path opacity="0.45" d="M594.035 108.545H550.335V112.655H594.035V108.545Z" fill="white"/>
    <path opacity="0.45" d="M594.035 114.523H550.335V118.634H594.035V114.523Z" fill="white"/>
    <path opacity="0.45" d="M580.776 121.81H550.335V125.921H580.776V121.81Z" fill="white"/>
    <path d="M540.624 128.163H525.87C522.322 128.163 519.521 125.36 519.521 121.81V102.379C519.521 98.8291 522.322 96.0265 525.87 96.0265H540.624C544.172 96.0265 546.973 98.8291 546.973 102.379V121.81C546.787 125.173 543.985 128.163 540.624 128.163Z" fill="#A9ADFF"/>
    <path opacity="0.45" d="M546.973 132.086H519.521V135.449H546.973V132.086Z" fill="white"/>
    <path d="M535.955 116.766H526.057C525.497 116.766 524.937 116.392 524.937 115.831L523.069 108.732C522.882 107.984 523.443 107.237 524.19 107.237H538.009C538.756 107.237 539.503 107.984 539.13 108.732L537.262 115.831C536.889 116.392 536.515 116.766 535.955 116.766Z" fill="white"/>
    <path d="M537.636 118.447H525.684C525.497 118.447 525.497 118.26 525.497 118.26C525.497 118.073 525.684 118.073 525.684 118.073H537.449L541.557 103.5C541.557 103.313 541.744 103.313 541.744 103.313H544.359C544.546 103.313 544.545 103.5 544.545 103.5C544.545 103.687 544.359 103.687 544.359 103.687H541.931L537.822 118.26C537.822 118.447 537.822 118.447 537.636 118.447Z" fill="white"/>
    <path d="M527.551 120.316C527.551 121.063 526.991 121.81 526.057 121.81C525.31 121.81 524.563 121.25 524.563 120.316C524.563 119.568 525.123 118.821 526.057 118.821C526.804 119.008 527.551 119.568 527.551 120.316Z" fill="white"/>
    <path d="M536.515 121.81C537.34 121.81 538.009 121.141 538.009 120.316C538.009 119.49 537.34 118.821 536.515 118.821C535.69 118.821 535.021 119.49 535.021 120.316C535.021 121.141 535.69 121.81 536.515 121.81Z" fill="white"/>
    <path d="M241.447 86.3109H363.023L348.456 75.4743V8.95994C348.456 4.66267 344.908 0.925903 340.425 0.925903H241.26C236.965 0.925903 233.23 4.47583 233.23 8.95994V78.2769C233.603 82.761 237.151 86.3109 241.447 86.3109Z" fill="#CECBFF"/>
    <g opacity="0.45">
        <path opacity="0.45" d="M244.02 18.6425L299.672 18.6425V13.411L244.02 13.411V18.6425Z" fill="white"/>
        <path opacity="0.45" d="M244.02 26.687L299.672 26.687V21.4555L244.02 21.4555V26.687Z" fill="white"/>
        <path opacity="0.45" d="M244.02 34.5452L299.672 34.5452V29.3137L244.02 29.3137V34.5452Z" fill="white"/>
        <path opacity="0.45" d="M244.02 42.3695L299.672 42.3695V37.138L244.02 37.138V42.3695Z" fill="white"/>
        <path opacity="0.45" d="M244.02 50.0071L299.672 50.0071V44.7756L244.02 44.7756V50.0071Z" fill="white"/>
        <path opacity="0.45" d="M244.02 64.1322H299.672V58.9007L244.02 58.9007V64.1322Z" fill="white"/>
        <path opacity="0.45" d="M244.069 72.4803L338.94 72.4803V67.2489L244.069 67.2489V72.4803Z" fill="white"/>
    </g>
    <path d="M312.039 54.1747H330.901C335.383 54.1747 338.931 50.6248 338.931 46.1406V21.478C338.931 16.9939 335.383 13.444 330.901 13.444H312.039C307.556 13.444 304.008 16.9939 304.008 21.478V46.1406C304.008 50.6248 307.556 54.1747 312.039 54.1747Z" fill="#C4C4F7"/>
    <path opacity="0.45" d="M303.997 63.7585L338.92 63.7585V59.4613L303.997 59.4613V63.7585Z" fill="white"/>
    <path d="M318.015 39.7882H330.714C331.461 39.7882 332.021 39.2276 332.208 38.6671L334.636 29.6989C334.823 28.7647 334.076 27.6437 333.142 27.6437H315.587C314.467 27.6437 313.72 28.5779 314.093 29.6989L316.521 38.6671C316.708 39.4145 317.268 39.7882 318.015 39.7882Z" fill="white"/>
    <path d="M315.774 41.8434H331.088C331.274 41.8434 331.461 41.6566 331.461 41.4697C331.461 41.2829 331.274 41.096 331.088 41.096H316.148L310.918 22.5991C310.918 22.4122 310.732 22.4122 310.545 22.4122H307.183C306.997 22.4122 306.81 22.5991 306.81 22.7859C306.81 22.9727 306.997 23.1596 307.183 23.1596H310.358L315.587 41.6566C315.587 41.8434 315.587 41.8434 315.774 41.8434Z" fill="white"/>
    <path d="M328.66 44.4592C328.66 45.3934 329.407 46.3276 330.527 46.3276C331.461 46.3276 332.395 45.5802 332.395 44.4592C332.395 43.525 331.648 42.5908 330.527 42.5908C329.594 42.5908 328.66 43.3382 328.66 44.4592Z" fill="white"/>
    <path d="M315.214 44.4592C315.214 45.3934 315.961 46.3276 317.081 46.3276C318.015 46.3276 318.949 45.5802 318.949 44.4592C318.949 43.525 318.202 42.5908 317.081 42.5908C316.148 42.5908 315.214 43.3382 315.214 44.4592Z" fill="white"/>
    <path d="M522.696 436.632C552.297 436.632 576.293 434.123 576.293 431.027C576.293 427.932 552.297 425.422 522.696 425.422C493.094 425.422 469.098 427.932 469.098 431.027C469.098 434.123 493.094 436.632 522.696 436.632Z" fill="#EAE6FF"/>
    <path d="M493.936 422.993C493.562 423.927 491.321 425.983 488.333 427.29C485.345 428.598 478.996 429.159 482.544 430.467C486.092 431.588 490.201 430.84 492.255 430.654C494.309 430.28 496.364 430.28 498.791 430.28C501.966 430.28 501.966 430.093 501.593 426.356C501.032 421.125 495.43 420.191 493.936 422.993Z" fill="#9AA3F4"/>
    <path d="M552.389 421.125C552.202 422.059 553.696 425.235 551.082 427.477C548.467 429.719 542.678 432.148 546.6 432.148C550.522 432.148 554.257 431.401 556.124 430.28C558.179 429.346 556.498 427.851 558.926 427.104C562.1 426.17 561.54 423.741 559.859 422.246C557.618 417.388 552.949 417.949 552.389 421.125Z" fill="#9AA3F4"/>
    <path d="M540.064 319.111C540.064 319.111 547.72 296.504 525.87 277.82C525.87 277.82 514.105 282.491 504.767 283.051C497.297 283.425 493.562 282.865 493.562 282.865C493.562 282.865 493.002 303.043 493.002 313.88L540.064 319.111Z" fill="#4A41A3"/>
    <path d="M491.321 356.666C490.948 346.577 501.779 347.884 505.888 355.358C514.292 371.052 502.713 406.925 501.219 424.114C499.725 424.675 496.924 425.235 495.43 424.488C494.309 423.927 493.749 422.62 493.749 422.62C494.122 401.694 491.881 367.502 491.321 356.666Z" fill="#4A41A3"/>
    <path d="M505.514 358.16C504.207 362.271 490.201 366.568 491.321 351.621C491.881 344.895 493.189 308.088 493.375 304.538C493.562 300.988 494.309 295.756 495.99 295.196C504.581 292.02 519.708 303.23 517.467 316.495C516.159 325.464 508.129 349.566 505.514 358.16Z" fill="#4A41A3"/>
    <path d="M527.551 363.952C524.19 354.424 535.208 352.742 541.371 358.534C555.938 372.36 556.498 404.683 560.046 421.499C557.992 422.806 554.817 423.367 553.697 423.367C552.576 423.367 552.016 422.433 552.016 422.433C546.226 402.441 531.286 374.229 527.551 363.952Z" fill="#4A41A3"/>
    <path d="M542.118 360.776C542.491 365.073 530.913 374.042 526.244 359.655C524.19 353.303 515.412 315.561 514.478 312.198C513.358 308.835 513.731 301.735 515.039 300.614C521.762 294.449 536.889 299.867 539.877 313.132C541.744 321.914 541.184 351.995 542.118 360.776Z" fill="#4A41A3"/>
    <path d="M481.984 195.985C482.357 195.611 482.731 195.237 483.104 194.677C485.905 191.127 486.279 187.951 488.893 183.84C489.267 183.28 489.827 181.598 490.761 180.29C491.695 178.796 494.309 177.301 494.87 176.927C495.99 176.367 495.056 178.983 495.056 178.983C495.056 178.983 495.99 177.488 497.111 177.675C497.484 177.675 497.484 179.917 497.484 180.29C497.484 183.467 496.737 186.456 495.43 189.259C495.056 189.819 494.683 190.567 494.683 191.314C495.617 191.314 496.364 190.753 497.111 190.193C497.858 189.632 498.791 189.072 499.725 189.446C499.538 189.819 499.352 190.193 499.165 190.567C498.044 192.622 496.924 194.864 494.683 195.798C493.376 196.359 492.068 196.545 490.761 197.106C488.52 198.227 487.399 201.029 485.158 202.15" fill="#F2A181"/>
    <path d="M495.056 196.732L488.52 193.93C487.96 193.743 487.586 192.996 487.96 192.435L493.749 178.422C493.936 177.862 494.683 177.488 495.243 177.862L501.779 180.664C502.34 180.851 502.713 181.598 502.34 182.159L496.55 196.172C496.364 196.732 495.616 197.106 495.056 196.732Z" fill="#5E5DBB"/>
    <path d="M502.101 181.694L494.692 178.593L488.638 193.073L496.047 196.173L502.101 181.694Z" fill="#B4B4DB"/>
    <path d="M502.153 210.371C502.153 210.371 496.55 210.745 491.508 212.24C483.851 214.482 481.237 218.032 478.622 219.526C483.664 212.987 489.454 199.348 489.454 199.348C489.454 199.348 482.544 193.743 481.797 195.051C481.05 196.358 452.29 229.989 453.037 235.594C453.411 237.837 456.772 240.079 459.76 239.892C467.977 239.705 477.315 236.716 487.399 233.352C491.695 231.858 493.189 235.034 493.189 235.034" fill="#428DEC"/>
    <path d="M478.622 219.34C478.622 219.34 475.074 226.626 473.953 227.187C472.833 227.747 476.568 225.692 478.622 223.637C480.676 221.582 483.478 215.977 483.478 215.977C482.357 216.35 478.622 219.34 478.622 219.34Z" fill="#6960C4"/>
    <path d="M490.014 184.027C490.388 184.214 490.388 184.775 490.574 185.148C490.761 186.83 491.135 188.511 490.388 190.006C490.014 190.94 489.267 191.874 488.52 192.435C487.586 193.182 486.653 193.93 485.532 194.49" fill="#F2A181"/>
    <path d="M502.34 171.883C500.472 172.443 499.352 174.872 498.791 176.554C498.044 178.609 497.671 180.851 497.297 182.906C497.111 184.401 496.924 186.083 497.671 187.39C498.044 188.138 498.418 188.698 498.978 189.259C499.165 189.632 499.538 190.006 499.912 190.193C500.285 190.38 500.659 190.567 501.219 190.38C501.779 190.193 501.966 189.446 502.153 188.885C503.273 184.775 504.394 180.851 506.822 177.301" fill="#170D54"/>
    <path d="M500.099 184.588C500.099 183.28 498.791 182.533 497.484 183.84C496.55 184.961 496.177 187.017 496.177 188.511C496.177 190.38 497.484 190.753 498.791 190.94" fill="#F2A181"/>
    <path d="M487.4 216.911C489.827 214.108 497.297 209.624 507.382 209.998C514.292 210.184 533.154 211.306 535.395 215.976C536.515 218.405 537.636 242.694 536.142 251.102C535.021 257.455 531.847 272.962 531.847 276.699C531.847 280.436 533.901 282.117 532.967 283.238C530.913 285.667 516.346 286.788 509.623 286.788C503.647 286.788 493.376 285.107 492.815 283.238C492.068 280.436 493.936 280.436 494.309 277.446C494.496 274.457 495.243 254.839 494.309 251.663C492.255 245.871 491.321 236.529 489.827 232.231C488.147 228.868 484.972 219.713 487.4 216.911Z" fill="#428DEC"/>
    <path d="M530.539 236.716C531.286 238.21 536.142 246.057 536.142 246.057L536.329 246.992C536.142 248.673 535.955 249.981 535.768 251.102C534.648 257.455 531.473 272.962 531.473 276.699C531.473 280.436 533.341 281.93 532.594 283.238C530.913 285.48 503.647 290.525 504.954 284.359C505.141 283.799 527.738 266.423 527.925 265.862C529.045 260.818 529.979 257.268 530.353 253.718C531.66 244.75 529.792 235.034 530.539 236.716Z" fill="#2D80EA"/>
    <path d="M501.779 201.403C501.779 201.403 501.779 209.25 501.406 209.624C501.032 209.998 499.538 210.745 499.538 210.745C499.538 210.745 500.659 217.658 502.34 217.097C504.02 216.537 515.412 210.932 515.412 210.932C515.412 210.932 513.731 210.184 513.731 209.624C513.731 209.063 515.226 196.545 515.226 196.545" fill="#FFBE9D"/>
    <path d="M509.81 172.63C508.129 173.004 503.834 172.256 502.526 173.938C501.406 175.806 500.285 180.104 499.725 181.225C498.791 183.654 498.231 186.269 497.671 188.698C496.737 191.874 495.43 197.853 498.605 200.469C499.538 201.216 499.912 201.59 501.032 201.777C502.526 201.964 504.02 202.337 505.514 202.711C507.756 203.085 510.37 203.645 512.611 202.898C515.599 201.964 517.28 197.666 518.214 194.864L522.696 178.422L509.81 172.63Z" fill="#FFBE9D"/>
    <path d="M501.593 220.087C501.593 220.087 500.846 250.915 499.725 269.599L504.207 275.765L507.382 267.917C507.382 267.917 508.689 245.31 504.394 220.087H501.593Z" fill="#3B2E7A"/>
    <path d="M500.472 217.471L500.659 217.845C500.846 218.592 501.219 219.34 501.593 220.087L504.394 220.274C504.394 220.274 506.261 219.34 506.448 218.219C506.635 217.098 503.273 215.416 503.273 215.416L502.9 215.603C501.966 215.977 501.219 216.537 500.472 217.471Z" fill="#3B2E7A"/>
    <path d="M514.105 207.569C514.105 207.569 515.973 208.69 517.28 210.745C515.786 214.108 512.611 219.9 509.063 222.516C507.382 218.032 503.46 215.416 503.46 215.416C503.46 215.416 512.984 213.735 514.105 207.569Z" fill="white"/>
    <path d="M503.46 215.416C503.46 215.416 499.912 216.724 497.858 220.648C497.858 220.648 497.111 215.416 498.605 210.932C498.605 210.932 500.846 207.943 501.593 207.943C501.406 211.679 503.46 215.416 503.46 215.416Z" fill="white"/>
    <path d="M503.834 284.359C500.472 284.92 499.165 286.228 497.111 288.096C496.924 288.283 496.737 288.47 496.737 288.657C496.737 288.843 497.111 289.03 497.297 289.03C498.978 289.217 499.165 288.283 500.659 287.722C501.593 287.349 502.713 286.788 503.647 286.414" fill="#F2A181"/>
    <path d="M492.068 259.136L504.207 298.372C504.581 299.493 504.02 300.24 502.9 300.427L477.502 302.669C476.568 302.669 475.634 301.922 475.447 300.988L462.375 262.499C462.001 261.378 463.495 259.883 464.616 259.883L490.014 257.641C490.948 257.455 491.882 258.202 492.068 259.136Z" fill="#E9E6FF"/>
    <path d="M491.321 260.257L503.273 298.746C503.647 299.867 503.087 300.614 501.966 300.801L476.568 303.043C475.634 303.043 474.7 302.296 474.514 301.362L462.561 262.873C462.188 261.752 462.748 261.005 463.869 260.818L489.267 258.576C490.014 258.576 490.948 259.323 491.321 260.257Z" fill="#E0D9FF"/>
    <path d="M470.965 258.949L471.899 262.312L483.665 261.191L482.731 257.828L470.965 258.949Z" fill="white"/>
    <path d="M473.206 255.773C473.393 256.52 474.327 259.51 474.327 259.51L479.929 258.949L478.809 255.213C478.249 253.531 476.568 252.41 475.074 252.41C473.58 252.784 472.646 254.092 473.206 255.773ZM474.514 255.773C474.14 254.839 474.7 254.092 475.634 253.905C476.568 253.905 477.502 254.465 477.688 255.399C478.062 256.334 477.502 257.081 476.568 257.268C475.634 257.268 474.7 256.707 474.514 255.773Z" fill="white"/>
    <path d="M513.545 281.557C510.93 282.117 503.834 284.172 503.087 284.546C502.153 284.92 499.165 287.162 498.605 287.909C495.99 290.525 497.297 291.833 496.177 295.57C496.177 295.756 496.177 295.943 496.177 296.13C496.177 296.504 496.737 296.877 497.297 296.504C497.484 297.064 498.418 296.691 498.791 296.13C498.791 296.504 499.352 296.691 500.099 296.317C500.472 296.13 500.472 296.13 501.406 295.196C502.153 294.635 502.9 294.075 504.394 293.514C505.328 293.141 506.448 292.767 507.195 292.206C508.316 291.459 510.183 291.272 511.117 288.283C511.304 287.535 512.051 287.162 512.611 286.788C514.105 285.854 515.599 284.92 516.906 283.986" fill="#FFBE9D"/>
    <path d="M529.979 231.484C531.099 235.595 535.768 263.62 535.768 263.62L509.25 282.678L511.491 288.47C511.491 288.47 543.238 277.82 545.853 270.533C548.281 263.247 548.281 230.363 539.503 218.779C536.702 215.042 531.099 213.174 531.099 213.174" fill="#428DEC"/>
    <path d="M502.713 291.646C502.713 291.646 502.526 291.833 501.966 292.206C501.593 292.58 501.032 292.954 500.659 293.514C500.285 294.075 499.725 294.635 499.351 295.009C498.978 295.383 498.604 295.57 498.604 295.57C498.604 295.57 499.165 294.262 500.285 293.141C500.659 292.58 501.406 292.206 501.779 291.833C502.34 291.833 502.713 291.646 502.713 291.646Z" fill="#F2A181"/>
    <path d="M501.219 289.964C501.219 289.964 500.846 290.338 500.472 290.899C500.285 291.085 500.099 291.459 499.725 291.833C499.538 292.02 499.538 292.206 499.352 292.393C499.165 292.58 499.165 292.767 498.978 292.954C498.231 294.635 497.111 296.13 497.111 296.13C497.111 296.13 497.297 295.756 497.484 295.009C497.671 294.449 498.231 293.514 498.605 292.767C498.978 291.833 499.725 291.272 500.099 290.712C500.846 290.151 501.219 289.964 501.219 289.964Z" fill="#F2A181"/>
    <path d="M499.538 288.47C499.538 288.47 499.352 288.843 498.978 289.404C498.791 289.591 498.605 289.964 498.231 290.338C498.044 290.712 497.858 291.085 497.671 291.459C497.297 292.207 497.111 293.141 496.737 293.701C496.55 294.262 496.364 294.822 496.364 294.822C496.364 294.822 496.364 294.449 496.55 293.701C496.737 292.954 496.924 292.207 497.297 291.459C497.484 291.085 497.671 290.712 497.858 290.338C498.044 289.964 498.418 289.778 498.605 289.591C499.352 288.843 499.538 288.47 499.538 288.47Z" fill="#F2A181"/>
    <path d="M519.894 191.874C518.774 191.314 518.027 190.567 517.467 191.688C517.093 192.248 516.906 192.995 516.346 193.182C515.786 193.369 515.039 192.809 515.039 192.248C514.852 191.688 515.039 190.94 515.226 190.38C515.599 189.072 515.973 187.764 516.533 186.269C516.906 184.961 517.28 183.467 516.906 182.159C516.72 181.598 516.159 181.038 515.599 180.477C513.918 178.983 511.677 178.235 509.436 177.862C507.195 177.488 504.954 177.114 502.713 176.554C501.779 176.18 500.846 175.806 500.099 175.246C498.978 174.312 498.231 172.63 498.231 171.135C498.231 169.641 498.791 168.146 499.538 166.838C499.725 167.399 499.912 167.959 500.285 168.333C500.472 167.586 501.032 167.025 501.593 166.464C502.153 170.014 517.467 168.893 521.015 170.388C523.443 171.509 525.497 172.256 525.497 176.18C525.497 176.367 525.87 176.554 526.057 176.741C528.298 178.796 529.232 181.225 529.419 184.775C529.792 189.259 527.178 193.93 524.563 197.666C524.003 198.601 523.629 199.161 522.696 199.909C521.762 200.656 520.268 200.843 519.147 200.656C518.027 200.469 515.973 200.469 515.786 199.348C515.786 198.601 517.467 197.106 518.027 196.545" fill="#E148BE"/>
    <path d="M515.786 196.172C515.786 196.172 515.599 196.919 516.159 197.48C516.533 198.04 517.467 197.853 518.027 197.666C519.708 197.106 520.828 195.611 521.015 193.93C521.388 192.061 520.268 190.006 518.587 190.567C517.653 190.94 516.906 192.061 516.906 193.182" fill="#FFBE9D"/>
    <path d="M501.779 202.151L506.635 203.085C506.635 203.085 504.954 204.953 501.779 204.953" fill="#F2A181"/>
    <g opacity="0.3">
        <g opacity="0.3">
            <g opacity="0.3">
                <path opacity="0.3" d="M118.75 118.26L125.287 121.623L121.925 113.589" fill="#3939D3"/>
            </g>
            <path opacity="0.3" d="M98.3945 108.171C98.3945 115.458 104.557 121.25 112.214 121.25C119.871 121.25 126.034 115.458 126.034 108.171C126.034 100.884 119.871 95.0922 112.214 95.0922C104.557 95.0922 98.3945 100.884 98.3945 108.171Z" fill="#3939D3"/>
        </g>
        <path opacity="0.3" d="M108.853 103.873V113.215C108.853 113.963 109.6 114.523 110.347 114.15L118.377 109.479C118.937 109.105 118.937 108.171 118.377 107.797L110.347 103.126C109.6 102.566 108.853 103.126 108.853 103.873Z" fill="#FEFEFE"/>
    </g>
    <g opacity="0.3">
        <g opacity="0.3">
            <g opacity="0.3">
                <path opacity="0.3" d="M570.878 217.471L564.341 220.834L567.703 212.8" fill="#3939D3"/>
            </g>
            <path opacity="0.3" d="M591.234 207.382C591.234 214.669 585.071 220.461 577.414 220.461C569.757 220.461 563.594 214.669 563.594 207.382C563.594 200.095 569.757 194.303 577.414 194.303C585.071 194.303 591.234 200.095 591.234 207.382Z" fill="#3939D3"/>
        </g>
        <g opacity="0.3">
            <g opacity="0.3">
                <g opacity="0.3">
                    <path opacity="0.3" d="M574.986 213.548C577.974 213.548 580.962 213.548 583.764 213.361C584.697 213.361 585.444 212.053 584.324 211.492C584.697 211.305 585.258 211.119 585.444 210.558C585.631 210.184 585.444 209.437 584.884 209.437C586.005 209.624 586.378 208.129 585.444 207.569C585.818 207.195 586.191 206.821 586.378 206.261C586.378 205.7 586.191 205.14 585.818 204.953C585.444 204.766 585.071 204.766 584.697 204.766C583.39 204.766 582.27 204.766 580.962 204.766C581.336 202.898 581.336 200.843 580.402 199.348C580.029 198.787 579.282 198.227 578.721 198.6C578.161 198.974 578.348 199.908 578.348 200.469C578.535 202.711 577.041 205.14 574.986 206.261C574.8 206.074 574.986 211.119 574.986 213.548Z" fill="#FEFEFE"/>
                </g>
            </g>
            <path opacity="0.3" d="M573.866 206.074H569.384V213.548H573.866V206.074Z" fill="#FEFEFE"/>
        </g>
    </g>
    <g opacity="0.3">
        <g opacity="0.3">
            <g opacity="0.3">
                <path opacity="0.3" d="M361.715 104.247L366.571 99.2025L360.034 100.51" fill="#3939D3"/>
            </g>
            <path opacity="0.3" d="M344.161 105.555C344.161 110.787 348.643 115.084 354.245 115.084C359.848 115.084 364.33 110.787 364.33 105.555C364.33 100.324 359.848 96.0264 354.245 96.0264C348.643 96.0264 344.161 100.324 344.161 105.555Z" fill="#3939D3"/>
        </g>
        <g opacity="0.3">
            <g opacity="0.3">
                <g opacity="0.3">
                    <path opacity="0.3" d="M352.191 110.039C354.245 110.039 356.113 110.039 357.98 110.039C358.54 110.039 359.101 109.105 358.354 108.731C358.727 108.544 358.914 108.358 359.101 108.171C359.288 107.797 359.101 107.423 358.727 107.237C359.474 107.423 359.661 106.302 359.101 105.929C359.474 105.742 359.661 105.368 359.661 104.995C359.661 104.621 359.661 104.247 359.288 104.06C359.101 103.874 358.727 103.874 358.54 103.874C357.793 103.874 356.86 103.874 356.113 103.874C356.299 102.566 356.486 101.071 355.739 99.9499C355.552 99.5762 354.992 99.2026 354.619 99.3894C354.245 99.5763 354.245 100.324 354.432 100.697C354.432 102.379 353.685 104.06 352.191 104.808C352.191 104.621 352.191 108.171 352.191 110.039Z" fill="#FEFEFE"/>
                </g>
            </g>
            <path opacity="0.3" d="M351.444 104.621H348.456V110.039H351.444V104.621Z" fill="#FEFEFE"/>
        </g>
    </g>
    <g opacity="0.3">
        <path opacity="0.3" d="M408.403 35.1173C410.458 32.5016 411.578 29.3253 411.578 25.9622C411.578 17.7414 405.042 11.202 396.825 11.202C388.608 11.202 382.071 17.7414 382.071 25.9622C382.071 34.1831 388.608 40.7224 396.825 40.7224C399.813 40.7224 402.614 39.7883 405.042 38.2936L410.831 41.283L408.403 35.1173Z" fill="#3939D3"/>
        <path opacity="0.3" d="M390.662 21.8518C392.156 20.5439 394.397 20.5439 395.704 21.8518L396.638 22.786L397.572 21.8518C399.066 20.3571 401.307 20.5439 402.614 21.8518C403.921 23.3465 403.921 25.5886 402.614 26.8964L399.066 30.4464C398.505 31.0069 397.758 31.3806 397.011 31.3806C395.891 31.5674 394.77 31.1937 393.837 30.2595L390.475 26.7096C389.168 25.5886 389.168 23.3465 390.662 21.8518Z" fill="white"/>
    </g>
</svg>
