<svg width="56" height="56" viewBox="0 0 56 56" fill="none" xmlns="http://www.w3.org/2000/svg">
<path d="M12.9692 52.1719H30.4692C31.8031 52.1704 33.082 51.6398 34.0252 50.6966C34.9684 49.7534 35.499 48.4745 35.5005 47.1406V41.2344H36.7046C36.8678 41.2344 37.0251 41.1736 37.1459 41.064C37.2666 40.9543 37.3422 40.8035 37.3579 40.6411L37.5766 38.3735C38.5242 38.1218 39.4322 37.7398 40.2746 37.2381L42.0156 38.6799C42.1415 38.7841 42.3017 38.8376 42.4649 38.83C42.6281 38.8223 42.7826 38.754 42.8982 38.6385L45.4994 36.0372C45.615 35.9216 45.6832 35.7672 45.6909 35.6039C45.6985 35.4407 45.645 35.2805 45.5408 35.1547L44.0956 33.4097C44.5956 32.5673 44.9786 31.6608 45.234 30.7151L47.4697 30.497C47.632 30.4812 47.7825 30.4055 47.892 30.2848C48.0016 30.164 48.0622 30.0069 48.0622 29.8438V26.156C48.0622 25.9929 48.0014 25.8356 47.8917 25.7148C47.782 25.5941 47.6312 25.5185 47.4688 25.5029L45.2013 25.2841C44.9497 24.3365 44.5676 23.4285 44.066 22.586L45.5076 20.8451C45.6114 20.7198 45.6649 20.5605 45.6578 20.3979C45.6507 20.2354 45.5835 20.0813 45.4693 19.9655L42.9009 17.3643C42.7856 17.2474 42.6306 17.1779 42.4666 17.1697C42.3026 17.1615 42.1414 17.2151 42.015 17.3199L40.27 18.7649C39.4278 18.2651 38.5215 17.8821 37.576 17.6267L37.3572 15.3587C37.3415 15.1964 37.266 15.0458 37.1454 14.9362C37.0247 14.8266 36.8676 14.7658 36.7046 14.7656H35.5005V8.85938C35.499 7.52547 34.9684 6.24662 34.0252 5.30341C33.082 4.36019 31.8031 3.82963 30.4692 3.82812H12.9692C11.6353 3.82966 10.3565 4.36023 9.4133 5.30344C8.47009 6.24665 7.93952 7.52548 7.93799 8.85938V47.1406C7.93952 48.4745 8.47009 49.7533 9.4133 50.6966C10.3565 51.6398 11.6353 52.1703 12.9692 52.1719ZM36.3148 18.2177C36.3281 18.3563 36.3852 18.487 36.4777 18.5909C36.5702 18.6949 36.6934 18.7668 36.8294 18.7962C37.9479 19.0451 39.0122 19.4943 39.9709 20.1222C40.0881 20.1978 40.2263 20.2341 40.3656 20.2258C40.5048 20.2175 40.6378 20.1651 40.7452 20.0761L42.3894 18.7141L44.1181 20.465L42.7517 22.1156C42.6617 22.2243 42.6091 22.3592 42.6018 22.5001C42.5945 22.6411 42.6328 22.7806 42.711 22.8981C43.3418 23.8515 43.7896 24.914 44.0315 26.0312C44.061 26.1672 44.1329 26.2902 44.2369 26.3826C44.3409 26.475 44.4715 26.532 44.61 26.5453L46.7497 26.7516V29.2481L44.6422 29.4547C44.5038 29.4682 44.3734 29.5252 44.2695 29.6176C44.1657 29.71 44.0939 29.8329 44.0644 29.9688C43.8156 31.0873 43.3664 32.1516 42.7386 33.1102C42.663 33.2274 42.6267 33.3657 42.635 33.5049C42.6433 33.6441 42.6957 33.7771 42.7846 33.8845L44.1487 35.5317L42.3923 37.288L40.7452 35.924C40.6365 35.834 40.5016 35.7814 40.3607 35.7741C40.2197 35.7668 40.0801 35.8051 39.9627 35.8834C39.0092 36.5142 37.9467 36.9619 36.8294 37.2039C36.6935 37.2334 36.5704 37.3053 36.478 37.4093C36.3856 37.5133 36.3287 37.6439 36.3153 37.7824L36.1086 39.9219H33.6129L33.4066 37.7823C33.3933 37.6438 33.3363 37.5132 33.2439 37.4092C33.1515 37.3052 33.0285 37.2333 32.8925 37.2038C31.774 36.9549 30.7097 36.5057 29.7511 35.8778C29.6339 35.8022 29.4956 35.7659 29.3564 35.7742C29.2171 35.7825 29.0841 35.8349 28.9767 35.9239L27.3295 37.2879L25.5727 35.5316L26.9369 33.8844C27.0269 33.7757 27.0794 33.6408 27.0867 33.4999C27.0941 33.3589 27.0557 33.2194 26.9774 33.1019C26.3466 32.1485 25.8989 31.086 25.657 29.9688C25.6275 29.8328 25.5555 29.7098 25.4516 29.6174C25.3476 29.525 25.2169 29.468 25.0785 29.4547L22.9389 29.2484V26.7521L25.0785 26.5459C25.2169 26.5325 25.3476 26.4756 25.4516 26.3832C25.5555 26.2908 25.6275 26.1677 25.657 26.0318C25.9058 24.9131 26.355 23.8486 26.9829 22.8899C27.0585 22.7727 27.0948 22.6345 27.0866 22.4952C27.0783 22.356 27.0259 22.2231 26.937 22.1156L25.5728 20.4684L27.3292 18.7121L28.9764 20.0761C29.0851 20.1661 29.22 20.2187 29.3609 20.226C29.5019 20.2333 29.6415 20.195 29.759 20.1167C30.7124 19.4859 31.7749 19.0381 32.8922 18.7962C33.0282 18.7667 33.1512 18.6948 33.2436 18.5908C33.336 18.4868 33.393 18.3562 33.4063 18.2177L33.6129 16.0781H36.1086L36.3148 18.2177ZM12.9692 5.14062H30.4692C31.4552 5.14173 32.4004 5.53387 33.0976 6.23104C33.7947 6.9282 34.1869 7.87344 34.188 8.85938V10.3906H32.6567C32.4827 10.3906 32.3158 10.4598 32.1927 10.5828C32.0696 10.7059 32.0005 10.8728 32.0005 11.0469C32.0005 11.2209 32.0696 11.3878 32.1927 11.5109C32.3158 11.634 32.4827 11.7031 32.6567 11.7031H34.188V14.7656H33.0168C32.8537 14.7656 32.6964 14.8264 32.5756 14.9361C32.4549 15.0458 32.3793 15.1965 32.3636 15.3589L32.1449 17.6265C31.1973 17.8782 30.2893 18.2602 29.4469 18.7619L27.706 17.3201C27.5801 17.2158 27.4199 17.1623 27.2566 17.17C27.0934 17.1777 26.9389 17.246 26.8233 17.3615L24.2221 19.9628C24.1065 20.0784 24.0383 20.2328 24.0306 20.3961C24.023 20.5593 24.0765 20.7195 24.1807 20.8453L25.6258 22.5903C25.126 23.4325 24.743 24.3388 24.4874 25.2842L22.2195 25.503C22.0571 25.5186 21.9064 25.5942 21.7967 25.715C21.687 25.8357 21.6263 25.993 21.6263 26.1562V29.844C21.6263 30.0071 21.687 30.1644 21.7967 30.2852C21.9064 30.406 22.0571 30.4816 22.2195 30.4972L24.4871 30.716C24.7388 31.6636 25.121 32.5716 25.6226 33.4141L24.1808 35.155C24.0766 35.2808 24.0231 35.441 24.0307 35.6043C24.0384 35.7675 24.1066 35.922 24.2222 36.0375L26.8234 38.6388C26.939 38.7544 27.0935 38.8227 27.2567 38.8303C27.42 38.838 27.5802 38.7845 27.7061 38.6803L29.4511 37.2352C30.2934 37.735 31.1998 38.1178 32.1454 38.3731L32.3642 40.6411C32.3798 40.8034 32.4553 40.9541 32.576 41.0637C32.6966 41.1734 32.8538 41.2342 33.0168 41.2344H34.188V42.9844H9.25049V11.7031H27.0786C27.2527 11.7031 27.4196 11.634 27.5427 11.5109C27.6657 11.3878 27.7349 11.2209 27.7349 11.0469C27.7349 10.8728 27.6657 10.7059 27.5427 10.5828C27.4196 10.4598 27.2527 10.3906 27.0786 10.3906H9.25049V8.85938C9.25162 7.87345 9.64378 6.92822 10.3409 6.23107C11.0381 5.53391 11.9833 5.14175 12.9692 5.14062ZM9.25049 44.2969H34.188V47.1406C34.1869 48.1266 33.7947 49.0718 33.0976 49.769C32.4004 50.4661 31.4552 50.8583 30.4692 50.8594H12.9692C11.9833 50.8582 11.0381 50.4661 10.3409 49.7689C9.64378 49.0718 9.25162 48.1266 9.25049 47.1406V44.2969Z" fill="#333333"/>
<path d="M29.2324 11.7031H30.4481C30.6222 11.7031 30.7891 11.634 30.9122 11.5109C31.0352 11.3878 31.1044 11.2209 31.1044 11.0469C31.1044 10.8728 31.0352 10.7059 30.9122 10.5828C30.7891 10.4598 30.6222 10.3906 30.4481 10.3906H29.2324C29.0584 10.3906 28.8915 10.4598 28.7684 10.5828C28.6453 10.7059 28.5762 10.8728 28.5762 11.0469C28.5762 11.2209 28.6453 11.3878 28.7684 11.5109C28.8915 11.634 29.0584 11.7031 29.2324 11.7031Z" fill="#333333"/>
<path d="M21.7192 49.875C22.1735 49.875 22.6176 49.7403 22.9953 49.4879C23.373 49.2355 23.6674 48.8768 23.8413 48.4571C24.0151 48.0374 24.0606 47.5756 23.972 47.13C23.8834 46.6845 23.6646 46.2752 23.3434 45.954C23.0221 45.6328 22.6129 45.414 22.1673 45.3254C21.7218 45.2368 21.26 45.2822 20.8403 45.4561C20.4206 45.6299 20.0618 45.9243 19.8095 46.3021C19.5571 46.6798 19.4224 47.1239 19.4224 47.5781C19.423 48.1871 19.6652 48.7709 20.0958 49.2015C20.5264 49.6321 21.1103 49.8743 21.7192 49.875ZM21.7192 46.5938C21.9139 46.5938 22.1042 46.6515 22.2661 46.7597C22.428 46.8678 22.5542 47.0216 22.6287 47.2014C22.7032 47.3813 22.7227 47.5792 22.6847 47.7702C22.6467 47.9611 22.553 48.1365 22.4153 48.2742C22.2776 48.4119 22.1022 48.5056 21.9113 48.5436C21.7203 48.5816 21.5224 48.5621 21.3425 48.4876C21.1627 48.4131 21.0089 48.2869 20.9008 48.125C20.7926 47.9631 20.7349 47.7728 20.7349 47.5781C20.7352 47.3171 20.839 47.0669 21.0235 46.8824C21.208 46.6978 21.4583 46.594 21.7192 46.5938Z" fill="#333333"/>
<path d="M27.0244 28C27.0244 29.5498 27.484 31.0649 28.3451 32.3536C29.2061 33.6423 30.43 34.6466 31.8619 35.2398C33.2938 35.8329 34.8694 35.9881 36.3895 35.6857C37.9096 35.3833 39.3059 34.637 40.4018 33.5411C41.4977 32.4451 42.244 31.0489 42.5464 29.5288C42.8488 28.0087 42.6936 26.4331 42.1005 25.0012C41.5074 23.5693 40.503 22.3454 39.2143 21.4843C37.9256 20.6233 36.4106 20.1637 34.8607 20.1637C32.7831 20.166 30.7913 20.9924 29.3222 22.4615C27.8531 23.9306 27.0268 25.9224 27.0244 28ZM34.8607 21.4762C36.151 21.4762 37.4123 21.8588 38.4851 22.5757C39.5579 23.2925 40.3941 24.3114 40.8879 25.5034C41.3817 26.6955 41.5108 28.0072 41.2591 29.2727C41.0074 30.5382 40.3861 31.7006 39.4737 32.613C38.5613 33.5254 37.3989 34.1467 36.1334 34.3984C34.8679 34.6501 33.5562 34.5209 32.3642 34.0272C31.1721 33.5334 30.1532 32.6972 29.4364 31.6244C28.7195 30.5516 28.3369 29.2903 28.3369 28C28.3389 26.2704 29.0268 24.6121 30.2498 23.3891C31.4729 22.1661 33.1311 21.4781 34.8607 21.4762Z" fill="#333333"/>
<path d="M33.5346 30.3375C33.6572 30.4571 33.8217 30.5241 33.9931 30.5241C34.1644 30.5241 34.3289 30.4571 34.4515 30.3375L38.2779 26.6016C38.3402 26.5416 38.39 26.4698 38.4244 26.3904C38.4589 26.311 38.4773 26.2256 38.4786 26.1391C38.4799 26.0526 38.4641 25.9667 38.4321 25.8863C38.4001 25.8059 38.3525 25.7326 38.292 25.6707C38.2315 25.6088 38.1594 25.5594 38.0798 25.5255C38.0002 25.4915 37.9147 25.4737 37.8282 25.4729C37.7417 25.4722 37.6558 25.4885 37.5757 25.5211C37.4955 25.5536 37.4225 25.6017 37.361 25.6625L33.993 28.9507L32.3276 27.3247C32.2028 27.2044 32.0354 27.1383 31.8621 27.141C31.6888 27.1436 31.5235 27.2147 31.4025 27.3388C31.2814 27.4628 31.2143 27.6297 31.2158 27.803C31.2174 27.9764 31.2875 28.1421 31.4108 28.2639L33.5346 30.3375Z" fill="#333333"/>
<path d="M19.5781 25.9219H18.6714C18.4973 25.9219 18.3304 25.991 18.2073 26.1141C18.0843 26.2372 18.0151 26.4041 18.0151 26.5781C18.0151 26.7522 18.0843 26.9191 18.2073 27.0422C18.3304 27.1652 18.4973 27.2344 18.6714 27.2344H19.5781C19.7522 27.2344 19.9191 27.1652 20.0421 27.0422C20.1652 26.9191 20.2344 26.7522 20.2344 26.5781C20.2344 26.4041 20.1652 26.2372 20.0421 26.1141C19.9191 25.991 19.7522 25.9219 19.5781 25.9219Z" fill="#333333"/>
<path d="M11.8125 27.2344H15.7694C15.9434 27.2344 16.1103 27.1652 16.2334 27.0422C16.3565 26.9191 16.4256 26.7522 16.4256 26.5781C16.4256 26.4041 16.3565 26.2372 16.2334 26.1141C16.1103 25.991 15.9434 25.9219 15.7694 25.9219H11.8125C11.6385 25.9219 11.4715 25.991 11.3485 26.1141C11.2254 26.2372 11.1562 26.4041 11.1562 26.5781C11.1562 26.7522 11.2254 26.9191 11.3485 27.0422C11.4715 27.1652 11.6385 27.2344 11.8125 27.2344Z" fill="#333333"/>
<path d="M19.5781 31.3906H15.3901C15.2161 31.3906 15.0492 31.4598 14.9261 31.5828C14.803 31.7059 14.7339 31.8728 14.7339 32.0469C14.7339 32.2209 14.803 32.3878 14.9261 32.5109C15.0492 32.634 15.2161 32.7031 15.3901 32.7031H19.5781C19.7522 32.7031 19.9191 32.634 20.0421 32.5109C20.1652 32.3878 20.2344 32.2209 20.2344 32.0469C20.2344 31.8728 20.1652 31.7059 20.0421 31.5828C19.9191 31.4598 19.7522 31.3906 19.5781 31.3906Z" fill="#333333"/>
<path d="M11.8125 32.7031H12.4881C12.6622 32.7031 12.8291 32.634 12.9521 32.5109C13.0752 32.3878 13.1444 32.2209 13.1444 32.0469C13.1444 31.8728 13.0752 31.7059 12.9521 31.5828C12.8291 31.4598 12.6622 31.3906 12.4881 31.3906H11.8125C11.6385 31.3906 11.4715 31.4598 11.3485 31.5828C11.2254 31.7059 11.1562 31.8728 11.1562 32.0469C11.1562 32.2209 11.2254 32.3878 11.3485 32.5109C11.4715 32.634 11.6385 32.7031 11.8125 32.7031Z" fill="#333333"/>
<path d="M19.1406 37.5156C19.1406 37.6897 19.2098 37.8566 19.3328 37.9797C19.4559 38.1027 19.6228 38.1719 19.7969 38.1719H22.8594C23.0334 38.1719 23.2003 38.1027 23.3234 37.9797C23.4465 37.8566 23.5156 37.6897 23.5156 37.5156C23.5156 37.3416 23.4465 37.1747 23.3234 37.0516C23.2003 36.9285 23.0334 36.8594 22.8594 36.8594H19.7969C19.6228 36.8594 19.4559 36.9285 19.3328 37.0516C19.2098 37.1747 19.1406 37.3416 19.1406 37.5156Z" fill="#333333"/>
<path d="M16.8631 36.8594H11.8125C11.6385 36.8594 11.4715 36.9285 11.3485 37.0516C11.2254 37.1747 11.1562 37.3416 11.1562 37.5156C11.1562 37.6897 11.2254 37.8566 11.3485 37.9797C11.4715 38.1027 11.6385 38.1719 11.8125 38.1719H16.8631C17.0372 38.1719 17.2041 38.1027 17.3271 37.9797C17.4502 37.8566 17.5194 37.6897 17.5194 37.5156C17.5194 37.3416 17.4502 37.1747 17.3271 37.0516C17.2041 36.9285 17.0372 36.8594 16.8631 36.8594Z" fill="#333333"/>
<path d="M16.5156 21.3281H20.6719C20.8459 21.3281 21.0128 21.259 21.1359 21.1359C21.259 21.0128 21.3281 20.8459 21.3281 20.6719C21.3281 20.4978 21.259 20.3309 21.1359 20.2078C21.0128 20.0848 20.8459 20.0156 20.6719 20.0156H16.5156C16.3416 20.0156 16.1747 20.0848 16.0516 20.2078C15.9285 20.3309 15.8594 20.4978 15.8594 20.6719C15.8594 20.8459 15.9285 21.0128 16.0516 21.1359C16.1747 21.259 16.3416 21.3281 16.5156 21.3281Z" fill="#333333"/>
<path d="M11.8125 21.3281H13.5819C13.7559 21.3281 13.9228 21.259 14.0459 21.1359C14.169 21.0128 14.2381 20.8459 14.2381 20.6719C14.2381 20.4978 14.169 20.3309 14.0459 20.2078C13.9228 20.0848 13.7559 20.0156 13.5819 20.0156H11.8125C11.6385 20.0156 11.4715 20.0848 11.3485 20.2078C11.2254 20.3309 11.1562 20.4978 11.1562 20.6719C11.1562 20.8459 11.2254 21.0128 11.3485 21.1359C11.4715 21.259 11.6385 21.3281 11.8125 21.3281Z" fill="#333333"/>
</svg>
