<svg width="56" height="56" viewBox="0 0 56 56" fill="none" xmlns="http://www.w3.org/2000/svg">
<path d="M32.3149 3.82812H14.8149C13.481 3.82966 12.2022 4.36023 11.259 5.30344C10.3158 6.24665 9.78523 7.52548 9.78369 8.85938V47.1406C9.78523 48.4745 10.3158 49.7534 11.259 50.6966C12.2022 51.6398 13.481 52.1703 14.8149 52.1719H32.3149C33.6488 52.1703 34.9277 51.6398 35.8709 50.6966C36.8141 49.7534 37.3447 48.4745 37.3462 47.1406V42.1108H43.1555C43.967 42.1099 44.7449 41.7871 45.3186 41.2134C45.8924 40.6396 46.2151 39.8617 46.2161 39.0503V19.373C46.216 19.2826 46.1972 19.1932 46.161 19.1104C46.1247 19.0276 46.0718 18.9532 46.0054 18.8918L39.8416 13.1892C39.7204 13.0768 39.5612 13.0143 39.3959 13.0142H37.3462V8.85938C37.3447 7.52548 36.8141 6.24665 35.8709 5.30344C34.9277 4.36023 33.6488 3.82966 32.3149 3.82812V3.82812ZM32.3149 50.8594H14.8149C13.829 50.8583 12.8838 50.4661 12.1866 49.769C11.4894 49.0718 11.0973 48.1266 11.0962 47.1406V44.2969H36.0337V47.1406C36.0326 48.1266 35.6404 49.0718 34.9433 49.769C34.2461 50.4661 33.3009 50.8583 32.3149 50.8594V50.8594ZM36.0337 42.9844H11.0962V11.7031H28.9243C29.0984 11.7031 29.2653 11.634 29.3884 11.5109C29.5114 11.3878 29.5806 11.2209 29.5806 11.0469C29.5806 10.8728 29.5114 10.7059 29.3884 10.5828C29.2653 10.4598 29.0984 10.3906 28.9243 10.3906H11.0962V8.85938C11.0973 7.87344 11.4894 6.9282 12.1866 6.23104C12.8838 5.53387 13.829 5.14173 14.8149 5.14062H32.3149C33.3009 5.14173 34.2461 5.53387 34.9433 6.23104C35.6404 6.9282 36.0326 7.87344 36.0337 8.85938V10.3906H34.5024C34.3284 10.3906 34.1615 10.4598 34.0384 10.5828C33.9153 10.7059 33.8462 10.8728 33.8462 11.0469C33.8462 11.2209 33.9153 11.3878 34.0384 11.5109C34.1615 11.634 34.3284 11.7031 34.5024 11.7031H36.0337V13.0142H27.1828C26.3714 13.0151 25.5935 13.3379 25.0197 13.9116C24.446 14.4854 24.1232 15.2633 24.1223 16.0747V39.0503C24.1232 39.8617 24.446 40.6396 25.0197 41.2134C25.5935 41.7871 26.3714 42.1099 27.1828 42.1108H36.0337V42.9844ZM43.1555 40.7983H27.1828C26.7194 40.7978 26.2751 40.6134 25.9474 40.2857C25.6197 39.958 25.4353 39.5137 25.4348 39.0503V16.0747C25.4353 15.6113 25.6197 15.167 25.9474 14.8393C26.2751 14.5116 26.7194 14.3272 27.1828 14.3267H38.7396V18.171C38.7402 18.6637 38.9362 19.1361 39.2846 19.4845C39.633 19.8328 40.1054 20.0288 40.5981 20.0293H44.9036V39.0503C44.903 39.5137 44.7187 39.958 44.391 40.2857C44.0633 40.6134 43.619 40.7978 43.1555 40.7983V40.7983ZM40.0521 15.1717L43.8842 18.7169H40.5981C40.4534 18.7167 40.3147 18.6591 40.2124 18.5568C40.11 18.4545 40.0524 18.3158 40.0521 18.1711V15.1717Z" fill="#333333"/>
<path d="M31.0784 11.7031H32.2942C32.4682 11.7031 32.6352 11.634 32.7582 11.5109C32.8813 11.3878 32.9504 11.2209 32.9504 11.0469C32.9504 10.8728 32.8813 10.7059 32.7582 10.5828C32.6352 10.4598 32.4682 10.3906 32.2942 10.3906H31.0784C30.9043 10.3906 30.7374 10.4598 30.6143 10.5828C30.4913 10.7059 30.4221 10.8728 30.4221 11.0469C30.4221 11.2209 30.4913 11.3878 30.6143 11.5109C30.7374 11.634 30.9043 11.7031 31.0784 11.7031Z" fill="#333333"/>
<path d="M23.5649 45.2813C23.1107 45.2812 22.6666 45.416 22.2889 45.6683C21.9111 45.9207 21.6168 46.2795 21.4429 46.6992C21.2691 47.1189 21.2236 47.5807 21.3122 48.0262C21.4008 48.4718 21.6196 48.881 21.9408 49.2023C22.262 49.5235 22.6713 49.7422 23.1168 49.8309C23.5624 49.9195 24.0242 49.874 24.4439 49.7002C24.8636 49.5263 25.2223 49.2319 25.4747 48.8542C25.7271 48.4765 25.8618 48.0324 25.8618 47.5781C25.8611 46.9692 25.6189 46.3854 25.1883 45.9548C24.7577 45.5242 24.1739 45.2819 23.5649 45.2813V45.2813ZM23.5649 48.5625C23.3703 48.5625 23.1799 48.5048 23.0181 48.3966C22.8562 48.2884 22.73 48.1347 22.6555 47.9548C22.581 47.775 22.5615 47.577 22.5995 47.3861C22.6375 47.1951 22.7312 47.0197 22.8689 46.8821C23.0066 46.7444 23.182 46.6506 23.3729 46.6127C23.5639 46.5747 23.7618 46.5942 23.9416 46.6687C24.1215 46.7432 24.2753 46.8694 24.3834 47.0312C24.4916 47.1931 24.5493 47.3834 24.5493 47.5781C24.549 47.8391 24.4452 48.0893 24.2607 48.2739C24.0761 48.4584 23.8259 48.5622 23.5649 48.5625V48.5625Z" fill="#333333"/>
<path d="M33.7236 22.6188C33.8568 22.7308 34.029 22.7854 34.2024 22.7705C34.3758 22.7556 34.5362 22.6724 34.6483 22.5392L36.0191 20.9108C36.1186 20.7924 36.1733 20.6428 36.1733 20.4881C36.1733 20.3335 36.1186 20.1838 36.0191 20.0655L34.6483 18.437C34.5931 18.3699 34.5252 18.3144 34.4485 18.2737C34.3718 18.233 34.2877 18.208 34.2013 18.2C34.1148 18.1921 34.0276 18.2014 33.9447 18.2273C33.8618 18.2533 33.785 18.2955 33.7185 18.3514C33.6521 18.4074 33.5974 18.4759 33.5576 18.5532C33.5179 18.6304 33.4939 18.7147 33.4869 18.8013C33.48 18.8879 33.4904 18.9749 33.5174 19.0575C33.5444 19.14 33.5875 19.2164 33.6442 19.2822L34.6593 20.4881L33.6438 21.6945C33.5319 21.8277 33.4774 21.9999 33.4924 22.1732C33.5074 22.3465 33.5905 22.5067 33.7236 22.6188V22.6188Z" fill="#333333"/>
<path d="M29.2004 22.5397C29.2554 22.6073 29.3233 22.6632 29.4001 22.7042C29.4769 22.7453 29.5611 22.7706 29.6478 22.7788C29.7345 22.787 29.822 22.7778 29.9051 22.7518C29.9882 22.7258 30.0654 22.6836 30.132 22.6275C30.1986 22.5714 30.2534 22.5026 30.2932 22.4251C30.333 22.3476 30.3569 22.263 30.3637 22.1762C30.3704 22.0894 30.3598 22.002 30.3324 21.9194C30.3051 21.8367 30.2615 21.7603 30.2044 21.6946L29.1894 20.4886L30.2044 19.2826C30.2615 19.2169 30.3051 19.1405 30.3324 19.0578C30.3598 18.9751 30.3704 18.8878 30.3637 18.801C30.3569 18.7142 30.333 18.6295 30.2932 18.5521C30.2534 18.4746 30.1986 18.4058 30.132 18.3497C30.0654 18.2936 29.9882 18.2513 29.9051 18.2254C29.822 18.1994 29.7345 18.1902 29.6478 18.1984C29.5611 18.2066 29.4769 18.2319 29.4001 18.273C29.3233 18.314 29.2554 18.3699 29.2004 18.4375L27.8295 20.066C27.7299 20.1843 27.6753 20.3339 27.6753 20.4886C27.6753 20.6432 27.7299 20.7929 27.8295 20.9112L29.2004 22.5397Z" fill="#333333"/>
<path d="M31.4108 23.8513C31.496 23.8645 31.5829 23.8607 31.6667 23.8401C31.7504 23.8196 31.8292 23.7828 31.8987 23.7317C31.9682 23.6807 32.0269 23.6164 32.0715 23.5426C32.1161 23.4688 32.1457 23.387 32.1585 23.3017L32.9876 17.8737C33.0006 17.7885 32.9967 17.7015 32.9761 17.6178C32.9556 17.5341 32.9187 17.4553 32.8677 17.3859C32.8166 17.3164 32.7524 17.2577 32.6786 17.2131C32.6049 17.1684 32.5231 17.1388 32.4379 17.1257C32.3527 17.1127 32.2658 17.1166 32.1821 17.1372C32.0984 17.1578 32.0195 17.1947 31.9501 17.2457C31.8806 17.2968 31.8219 17.361 31.7773 17.4347C31.7327 17.5085 31.703 17.5903 31.69 17.6755L30.861 23.1035C30.848 23.1887 30.8519 23.2757 30.8725 23.3593C30.8931 23.443 30.93 23.5218 30.981 23.5913C31.0321 23.6607 31.0963 23.7194 31.17 23.7641C31.2438 23.8087 31.3256 23.8383 31.4108 23.8513V23.8513Z" fill="#333333"/>
<path d="M32.8378 33.3649H28.3315C28.1575 33.3649 27.9906 33.434 27.8675 33.5571C27.7444 33.6802 27.6753 33.8471 27.6753 34.0211C27.6753 34.1952 27.7444 34.3621 27.8675 34.4852C27.9906 34.6082 28.1575 34.6774 28.3315 34.6774H32.8378C33.0118 34.6774 33.1788 34.6082 33.3018 34.4852C33.4249 34.3621 33.494 34.1952 33.494 34.0211C33.494 33.8471 33.4249 33.6802 33.3018 33.5571C33.1788 33.434 33.0118 33.3649 32.8378 33.3649Z" fill="#333333"/>
<path d="M35.6484 33.3649C35.4744 33.3649 35.3075 33.434 35.1844 33.5571C35.0613 33.6802 34.9922 33.8471 34.9922 34.0211C34.9922 34.1952 35.0613 34.3621 35.1844 34.4852C35.3075 34.6082 35.4744 34.6774 35.6484 34.6774H36.586C36.76 34.6774 36.927 34.6082 37.05 34.4852C37.1731 34.3621 37.2423 34.1952 37.2423 34.0211C37.2423 33.8471 37.1731 33.6802 37.05 33.5571C36.927 33.434 36.76 33.3649 36.586 33.3649H35.6484Z" fill="#333333"/>
<path d="M42.478 33.3649H39.3608C39.1868 33.3649 39.0199 33.434 38.8968 33.5571C38.7737 33.6802 38.7046 33.8471 38.7046 34.0211C38.7046 34.1952 38.7737 34.3621 38.8968 34.4852C39.0199 34.6082 39.1868 34.6774 39.3608 34.6774H42.478C42.6521 34.6774 42.819 34.6082 42.9421 34.4852C43.0651 34.3621 43.1343 34.1952 43.1343 34.0211C43.1343 33.8471 43.0651 33.6802 42.9421 33.5571C42.819 33.434 42.6521 33.3649 42.478 33.3649V33.3649Z" fill="#333333"/>
<path d="M29.2452 36.9578H28.3315C28.1575 36.9578 27.9906 37.027 27.8675 37.15C27.7444 37.2731 27.6753 37.44 27.6753 37.6141C27.6753 37.7881 27.7444 37.955 27.8675 38.0781C27.9906 38.2012 28.1575 38.2703 28.3315 38.2703H29.2452C29.4192 38.2703 29.5861 38.2012 29.7092 38.0781C29.8323 37.955 29.9014 37.7881 29.9014 37.6141C29.9014 37.44 29.8323 37.2731 29.7092 37.15C29.5861 37.027 29.4192 36.9578 29.2452 36.9578Z" fill="#333333"/>
<path d="M38.9812 36.9578H34.9297C34.7556 36.9578 34.5887 37.027 34.4656 37.15C34.3426 37.2731 34.2734 37.44 34.2734 37.6141C34.2734 37.7881 34.3426 37.955 34.4656 38.0781C34.5887 38.2012 34.7556 38.2703 34.9297 38.2703H38.9812C39.1552 38.2703 39.3221 38.2012 39.4452 38.0781C39.5683 37.955 39.6374 37.7881 39.6374 37.6141C39.6374 37.44 39.5683 37.2731 39.4452 37.15C39.3221 37.027 39.1552 36.9578 38.9812 36.9578Z" fill="#333333"/>
<path d="M32.1525 36.9578H32.0557C31.8816 36.9578 31.7147 37.027 31.5916 37.15C31.4686 37.2731 31.3994 37.44 31.3994 37.6141C31.3994 37.7881 31.4686 37.955 31.5916 38.0781C31.7147 38.2012 31.8816 38.2703 32.0557 38.2703H32.1525C32.3265 38.2703 32.4934 38.2012 32.6165 38.0781C32.7396 37.955 32.8087 37.7881 32.8087 37.6141C32.8087 37.44 32.7396 37.2731 32.6165 37.15C32.4934 37.027 32.3265 36.9578 32.1525 36.9578V36.9578Z" fill="#333333"/>
<path d="M42.478 36.9578H41.7561C41.5821 36.9578 41.4151 37.027 41.2921 37.15C41.169 37.2731 41.0999 37.44 41.0999 37.6141C41.0999 37.7881 41.169 37.955 41.2921 38.0781C41.4151 38.2012 41.5821 38.2703 41.7561 38.2703H42.478C42.652 38.2703 42.8189 38.2012 42.942 38.0781C43.0651 37.955 43.1342 37.7881 43.1342 37.6141C43.1342 37.44 43.0651 37.2731 42.942 37.15C42.8189 37.027 42.652 36.9578 42.478 36.9578V36.9578Z" fill="#333333"/>
<path d="M28.3315 27.0129H30.4425C30.6165 27.0129 30.7834 26.9437 30.9065 26.8207C31.0296 26.6976 31.0987 26.5307 31.0987 26.3566C31.0987 26.1826 31.0296 26.0157 30.9065 25.8926C30.7834 25.7695 30.6165 25.7004 30.4425 25.7004H28.3315C28.1575 25.7004 27.9906 25.7695 27.8675 25.8926C27.7444 26.0157 27.6753 26.1826 27.6753 26.3566C27.6753 26.5307 27.7444 26.6976 27.8675 26.8207C27.9906 26.9437 28.1575 27.0129 28.3315 27.0129V27.0129Z" fill="#333333"/>
<path d="M32.5969 26.3566C32.5969 26.5307 32.6661 26.6976 32.7891 26.8207C32.9122 26.9437 33.0791 27.0129 33.2532 27.0129H37.7837C37.9578 27.0129 38.1247 26.9437 38.2477 26.8207C38.3708 26.6976 38.44 26.5307 38.44 26.3566C38.44 26.1826 38.3708 26.0157 38.2477 25.8926C38.1247 25.7695 37.9578 25.7004 37.7837 25.7004H33.2532C33.0791 25.7004 32.9122 25.7695 32.7891 25.8926C32.6661 26.0157 32.5969 26.1826 32.5969 26.3566V26.3566Z" fill="#333333"/>
<path d="M40.5583 27.0129H42.4779C42.6519 27.0129 42.8188 26.9437 42.9419 26.8207C43.065 26.6976 43.1341 26.5307 43.1341 26.3566C43.1341 26.1826 43.065 26.0157 42.9419 25.8926C42.8188 25.7695 42.6519 25.7004 42.4779 25.7004H40.5583C40.3843 25.7004 40.2174 25.7695 40.0943 25.8926C39.9712 26.0157 39.9021 26.1826 39.9021 26.3566C39.9021 26.5307 39.9712 26.6976 40.0943 26.8207C40.2174 26.9437 40.3843 27.0129 40.5583 27.0129V27.0129Z" fill="#333333"/>
<path d="M28.3315 30.6057H31.6402C31.8143 30.6057 31.9812 30.5365 32.1043 30.4134C32.2274 30.2904 32.2965 30.1235 32.2965 29.9494C32.2965 29.7754 32.2274 29.6084 32.1043 29.4854C31.9812 29.3623 31.8143 29.2932 31.6402 29.2932H28.3315C28.1575 29.2932 27.9906 29.3623 27.8675 29.4854C27.7444 29.6084 27.6753 29.7754 27.6753 29.9494C27.6753 30.1235 27.7444 30.2904 27.8675 30.4134C27.9906 30.5365 28.1575 30.6057 28.3315 30.6057Z" fill="#333333"/>
<path d="M36.6687 29.9494C36.6687 30.1235 36.7378 30.2904 36.8609 30.4134C36.984 30.5365 37.1509 30.6057 37.325 30.6057H40.179C40.353 30.6057 40.52 30.5365 40.643 30.4134C40.7661 30.2904 40.8352 30.1235 40.8352 29.9494C40.8352 29.7754 40.7661 29.6084 40.643 29.4854C40.52 29.3623 40.353 29.2932 40.179 29.2932H37.325C37.1509 29.2932 36.984 29.3623 36.8609 29.4854C36.7378 29.6084 36.6687 29.7754 36.6687 29.9494V29.9494Z" fill="#333333"/>
<path d="M34.5477 30.6057C34.7218 30.6057 34.8887 30.5365 35.0118 30.4134C35.1348 30.2904 35.204 30.1235 35.204 29.9494C35.204 29.7754 35.1348 29.6084 35.0118 29.4854C34.8887 29.3623 34.7218 29.2932 34.5477 29.2932H34.4509C34.2769 29.2932 34.11 29.3623 33.9869 29.4854C33.8638 29.6084 33.7947 29.7754 33.7947 29.9494C33.7947 30.1235 33.8638 30.2904 33.9869 30.4134C34.11 30.5365 34.2769 30.6057 34.4509 30.6057H34.5477Z" fill="#333333"/>
<path d="M42.9537 29.2932H42.478C42.304 29.2932 42.1371 29.3623 42.014 29.4854C41.8909 29.6084 41.8218 29.7754 41.8218 29.9494C41.8218 30.1235 41.8909 30.2904 42.014 30.4134C42.1371 30.5365 42.304 30.6057 42.478 30.6057H42.9537C43.1277 30.6057 43.2947 30.5365 43.4177 30.4134C43.5408 30.2904 43.61 30.1235 43.61 29.9494C43.61 29.7754 43.5408 29.6084 43.4177 29.4854C43.2947 29.3623 43.1277 29.2932 42.9537 29.2932V29.2932Z" fill="#333333"/>
</svg>
