<svg width="143" height="143" viewBox="0 0 143 143" fill="none" xmlns="http://www.w3.org/2000/svg">
    <path d="M84.0844 38.1997C92.8692 41.5645 100.006 48.2429 104.041 56.8746C108.076 65.5064 108.706 75.4423 105.802 84.6587C111.972 86.1887 118.274 87.1492 124.632 87.5288C128.231 74.1228 126.968 59.9277 121.077 47.5732C115.187 35.2186 105.068 25.542 92.5944 20.3358C80.1212 15.1296 66.1395 14.7467 53.2393 19.2581C40.3391 23.7695 29.3949 32.8694 22.4339 44.872C27.0816 49.2818 32.1323 53.2295 37.5198 56.6635C41.785 48.3078 48.8992 41.8003 57.4948 38.392C66.0904 34.9836 75.5605 34.9151 84.0844 38.1997Z" fill="#5620D8" fill-opacity="0.1"/>
    <path d="M93.2416 93.4747C88.0804 98.5262 81.8825 102.031 75.3257 103.607C68.7689 105.182 62.106 104.767 56.0656 102.407C50.0253 100.047 44.8403 95.8334 41.0779 90.2262C37.3154 84.619 35.1205 77.8346 34.7331 70.6153C31.9378 69.7864 29.2583 68.6194 26.7406 67.1343C22.7304 64.7023 21.9097 62.9832 17.3456 58.1365C14.856 71.5342 16.4618 85.0671 21.9047 96.5585C27.3476 108.05 36.3111 116.832 47.3536 121.491C58.396 126.151 70.8755 126.418 82.7846 122.248C94.6937 118.079 105.34 109.716 113.012 98.5053C110.482 98.888 107.95 98.832 105.507 98.3394C101.154 97.4643 97.0149 95.8226 93.2416 93.4747Z" fill="#333333" fill-opacity="0.1"/>
</svg>
