<svg width="300" height="237" viewBox="0 0 300 237" fill="none" xmlns="http://www.w3.org/2000/svg">
    <path d="M281.934 230.135H28.7422C26.7833 230.135 25.3141 231.769 25.3141 233.567C25.3141 235.529 26.9465 237 28.7422 237H281.934C283.893 237 285.362 235.365 285.362 233.567C285.362 231.769 283.893 230.135 281.934 230.135Z" fill="white"/>
    <path d="M76.0831 155.929V141.546H69.7166C68.9003 137.95 67.4311 134.518 65.4722 131.412L70.043 126.836L59.9219 116.702L55.3511 121.278C52.2494 119.317 48.8213 117.846 45.2299 117.029V110.654H30.8645V117.029C27.2731 117.846 23.845 119.317 20.7433 121.278L16.1725 116.702L6.05138 126.836L10.6222 131.412C8.66329 134.518 7.19409 137.95 6.37787 141.546H0.0113525V155.929H6.37787C7.19409 159.525 8.66329 162.958 10.6222 166.063L6.05138 170.64L16.1725 180.774L20.7433 176.197C23.845 178.158 27.2731 179.629 30.8645 180.447V186.821H45.2299V180.447C48.8213 179.629 52.2494 178.158 55.3511 176.197L59.9219 180.774L70.043 170.64L65.4722 166.063C67.4311 162.958 68.9003 159.525 69.7166 155.929H76.0831ZM38.0472 164.592C29.232 164.592 22.2125 157.564 22.2125 148.738C22.2125 139.912 29.232 132.883 38.0472 132.883C46.8624 132.883 53.8819 139.912 53.8819 148.738C53.8819 157.401 46.6991 164.592 38.0472 164.592Z" fill="white"/>
    <path d="M242.102 203.657C250.754 177.341 267.568 153.805 289.606 136.97L290.423 137.95C268.711 154.622 252.06 177.995 243.735 203.984L242.102 203.657Z" fill="#FCA70C"/>
    <path d="M247.816 166.553C245.367 161.487 248.305 154.785 248.305 154.785C248.305 154.785 255.488 156.42 257.937 161.487C260.385 166.553 257.447 173.255 257.447 173.255C257.447 173.255 250.264 171.62 247.816 166.553Z" fill="#FCA70C"/>
    <path d="M270.017 163.938C275.731 163.938 280.301 169.496 280.301 169.496C280.301 169.496 275.731 175.216 270.017 175.38C264.303 175.38 259.733 169.823 259.733 169.823C259.733 169.823 264.303 163.938 270.017 163.938Z" fill="#FCA70C"/>
    <path d="M278.506 151.353C283.403 151.353 287.321 156.093 287.321 156.093C287.321 156.093 283.403 160.997 278.669 160.997C273.772 160.997 269.854 156.256 269.854 156.256C269.854 156.256 273.608 151.353 278.506 151.353Z" fill="#FCA70C"/>
    <path d="M262.344 150.209C261.039 145.796 264.303 140.893 264.303 140.893C264.303 140.893 269.854 143.017 271.16 147.431C272.466 151.844 269.201 156.747 269.201 156.747C269.201 156.747 263.65 154.622 262.344 150.209Z" fill="#FCA70C"/>
    <path d="M275.894 139.258C274.751 135.499 277.526 131.413 277.526 131.413C277.526 131.413 282.26 133.211 283.403 136.97C284.546 140.729 281.77 144.815 281.77 144.815C281.77 144.815 277.2 142.854 275.894 139.258Z" fill="#FCA70C"/>
    <path d="M290.422 141.546C294.177 142.527 296.299 147.104 296.299 147.104C296.299 147.104 292.218 150.046 288.464 149.065C284.709 148.084 282.587 143.508 282.587 143.508C282.587 143.508 286.668 140.566 290.422 141.546Z" fill="#FCA70C"/>
    <path d="M291.402 131.576C294.504 129.124 299.238 130.268 299.238 130.268C299.238 130.268 299.238 135.335 296.136 137.623C293.034 139.912 288.3 138.931 288.3 138.931C288.3 138.931 288.3 133.864 291.402 131.576Z" fill="#FCA70C"/>
    <path d="M89.3058 81.2336C82.4496 53.4474 67.1047 27.9495 45.8829 8.98948L46.6992 8.00879C68.2474 27.1322 83.9188 52.7936 90.775 80.7433L89.3058 81.2336Z" fill="#FCA70C"/>
    <path d="M87.8367 41.8426C90.7751 36.7757 88.1632 29.584 88.1632 29.584C88.1632 29.584 80.654 30.7281 77.5523 35.795C74.6139 40.8619 77.2258 48.0536 77.2258 48.0536C77.2258 48.0536 84.7351 46.9095 87.8367 41.8426Z" fill="#FCA70C"/>
    <path d="M64.9824 37.266C59.1056 36.7756 53.8818 42.3329 53.8818 42.3329C53.8818 42.3329 58.1262 48.7074 64.003 49.1977C69.8798 49.6881 75.1036 44.1308 75.1036 44.1308C75.1036 44.1308 70.8592 37.7563 64.9824 37.266Z" fill="#FCA70C"/>
    <path d="M57.1467 23.7001C52.0862 23.2098 47.6786 27.9498 47.6786 27.9498C47.6786 27.9498 51.27 33.3436 56.3305 33.8339C61.3911 34.3243 65.7987 29.5843 65.7987 29.5843C65.7987 29.5843 62.2073 24.027 57.1467 23.7001Z" fill="#FCA70C"/>
    <path d="M73.9609 23.7C75.7566 19.2869 72.655 13.8931 72.655 13.8931C72.655 13.8931 66.7782 15.691 64.9825 20.2675C63.1868 24.6807 66.2885 30.0744 66.2885 30.0744C66.2885 30.0744 72.1653 28.2765 73.9609 23.7Z" fill="#FCA70C"/>
    <path d="M60.7382 11.2778C62.2074 7.51845 59.7587 2.94189 59.7587 2.94189C59.7587 2.94189 54.8614 4.41293 53.229 8.17224C51.7598 11.9315 54.2084 16.5081 54.2084 16.5081C54.2084 16.5081 59.269 15.0371 60.7382 11.2778Z" fill="#FCA70C"/>
    <path d="M45.5565 12.5855C41.6386 13.2393 39.0267 17.8158 39.0267 17.8158C39.0267 17.8158 42.9446 21.2482 47.0257 20.431C50.9435 19.7772 53.5555 15.2006 53.5555 15.2006C53.5555 15.2006 49.4744 11.9317 45.5565 12.5855Z" fill="#FCA70C"/>
    <path d="M45.23 2.12475C42.2916 -0.653867 37.0678 0.163374 37.0678 0.163374C37.0678 0.163374 36.7413 5.39372 39.6797 8.00889C42.6181 10.7875 47.8419 9.97027 47.8419 9.97027C47.8419 9.97027 48.3316 4.73993 45.23 2.12475Z" fill="#FCA70C"/>
    <path d="M239.001 62.6006H63.8397C53.3921 62.6006 44.9034 71.0999 44.9034 81.5606V189.273C44.9034 199.734 53.3921 208.233 63.8397 208.233H239.001C249.448 208.233 257.937 199.734 257.937 189.273V81.5606C257.774 71.0999 249.448 62.6006 239.001 62.6006Z" fill="#4A41A3"/>
    <path d="M63.8398 198.099C58.9425 198.099 55.0247 194.176 55.0247 189.273V81.5606C55.0247 76.6571 58.9425 72.7344 63.8398 72.7344H228.063C232.961 72.7344 236.879 76.6571 236.879 81.5606V189.273C236.879 194.176 232.961 198.099 228.063 198.099H63.8398Z" fill="white"/>
    <path d="M252.55 137.296C252.55 134.191 249.938 131.576 246.836 131.576C243.735 131.576 241.123 134.191 241.123 137.296C241.123 140.402 243.735 143.017 246.836 143.017C249.938 143.017 252.55 140.402 252.55 137.296Z" fill="white"/>
    <path d="M170.928 94.8002C166.194 90.0602 159.664 87.1182 152.318 87.1182V113.433L133.871 132.066C138.606 136.806 145.135 139.749 152.481 139.749C159.664 139.749 166.357 136.806 171.091 132.066C175.825 127.326 178.764 120.789 178.764 113.433C178.6 106.242 175.662 99.5402 170.928 94.8002Z" fill="#4A41A3"/>
    <path d="M133.871 94.8002C129.137 99.5402 126.199 106.078 126.199 113.433C126.199 120.625 129.137 127.326 133.871 132.066L152.481 113.433V87.1182C145.135 87.1182 138.606 90.0602 133.871 94.8002Z" fill="#E148BE"/>
    <path d="M115.425 100.848C113.14 96.925 109.711 93.4925 105.794 91.2043C101.876 88.916 97.4682 87.6084 92.5708 87.6084V99.867C95.1827 99.867 97.4682 100.521 99.5903 101.828C101.712 103.136 103.508 104.77 104.814 107.059C105.957 109.184 106.773 111.472 106.773 114.087C106.773 116.702 106.12 118.99 104.814 121.115C103.508 123.24 101.876 125.038 99.5903 126.346C97.4682 127.49 95.1827 128.307 92.5708 128.307C89.9589 128.307 87.6735 127.653 85.5513 126.346C83.4292 125.038 81.6335 123.404 80.3275 121.115L69.7167 127.326C72.0021 131.249 75.4302 134.682 79.3481 136.97C83.2659 139.258 87.6735 140.566 92.5708 140.566C97.3049 140.566 101.876 139.258 105.794 136.97C109.711 134.682 113.14 131.249 115.425 127.326C117.71 123.404 119.016 118.99 119.016 114.087C119.016 109.184 117.71 104.77 115.425 100.848Z" fill="#E148BE"/>
    <path d="M79.5112 91.2043C75.5934 93.4925 72.1652 96.925 69.8798 100.848C67.5944 104.77 66.2885 109.184 66.2885 114.087C66.2885 118.99 67.5944 123.404 69.8798 127.326L80.4907 121.115C79.348 118.99 78.5317 116.702 78.5317 114.087C78.5317 111.472 79.1847 109.184 80.4907 107.059C81.7966 104.934 83.4291 103.136 85.7145 101.828C87.8367 100.684 90.1221 99.867 92.734 99.867V87.6084C87.8367 87.6084 83.2658 88.916 79.5112 91.2043Z" fill="#4A41A3"/>
    <path d="M108.569 151.844H74.4507C73.308 151.844 72.3285 152.824 72.3285 153.969C72.3285 155.113 73.308 156.093 74.4507 156.093H108.569C109.711 156.093 110.691 155.113 110.691 153.969C110.528 152.661 109.711 151.844 108.569 151.844Z" fill="#4A41A3"/>
    <path d="M108.569 160.997H74.4507C73.308 160.997 72.3285 161.977 72.3285 163.121C72.3285 164.266 73.308 165.246 74.4507 165.246H108.569C109.711 165.246 110.691 164.266 110.691 163.121C110.528 161.814 109.711 160.997 108.569 160.997Z" fill="#4A41A3"/>
    <path d="M96.3254 170.477H74.4507C73.308 170.477 72.3285 171.457 72.3285 172.601C72.3285 173.746 73.308 174.726 74.4507 174.726H96.3254C97.4681 174.726 98.4475 173.746 98.4475 172.601C98.2843 171.294 97.4681 170.477 96.3254 170.477Z" fill="#E148BE"/>
    <path d="M159.501 184.206H76.8993C75.2669 184.206 73.9609 185.514 73.9609 187.148C73.9609 188.783 75.2669 190.09 76.8993 190.09H159.664C161.296 190.09 162.602 188.783 162.602 187.148C162.602 185.514 161.133 184.206 159.501 184.206Z" fill="#E148BE"/>
    <path d="M141.544 158.872H134.035V173.255H141.544V158.872Z" fill="#2444B5"/>
    <path d="M154.44 153.641H146.931V173.255H154.44V153.641Z" fill="#E148BE"/>
    <path d="M167.826 148.901H160.317V173.255H167.826V148.901Z" fill="#2444B5"/>
    <path d="M251.57 99.8668C267.799 99.8668 280.954 86.6947 280.954 70.4461C280.954 54.1975 267.799 41.0254 251.57 41.0254C235.342 41.0254 222.186 54.1975 222.186 70.4461C222.186 86.6947 235.342 99.8668 251.57 99.8668Z" fill="#E148BE"/>
    <path d="M267.242 83.3587L260.059 76.1669L261.365 74.8594L259.406 72.898C261.528 68.158 260.712 62.4373 256.794 58.5145C251.734 53.4476 243.735 53.4476 238.674 58.5145C233.614 63.5814 233.614 71.5904 238.674 76.6573C242.592 80.58 248.306 81.3973 253.04 79.2725L254.999 81.2338L256.305 79.9263L263.487 87.118L267.242 83.3587ZM242.266 73.0614C239.164 69.9559 239.164 65.0525 242.266 61.9469C245.367 58.8414 250.265 58.8414 253.366 61.9469C256.468 65.0525 256.468 69.9559 253.366 73.0614C250.265 76.1669 245.367 76.1669 242.266 73.0614Z" fill="white"/>
    <path d="M250.116 194.031L252.402 199.098C252.402 199.261 252.565 199.425 252.728 199.425L257.789 201.713C258.442 202.04 258.442 202.857 257.789 203.184L252.728 205.472C252.565 205.472 252.402 205.636 252.402 205.799L250.116 210.866C249.79 211.52 248.974 211.52 248.647 210.866L246.362 205.799C246.362 205.636 246.198 205.472 246.035 205.472L240.975 203.184C240.322 202.857 240.322 202.04 240.975 201.713L246.035 199.425C246.198 199.425 246.362 199.261 246.362 199.098L248.647 194.031C248.974 193.377 249.79 193.377 250.116 194.031Z" fill="#FCA70C"/>
    <path d="M230.224 180.075L232.019 184.161C232.019 184.325 232.183 184.488 232.346 184.488L236.427 186.286C236.917 186.45 236.917 187.267 236.427 187.43L232.346 189.228C232.183 189.228 232.019 189.392 232.019 189.555L230.224 193.641C230.061 194.132 229.244 194.132 229.081 193.641L227.285 189.555C227.285 189.392 227.122 189.228 226.959 189.228L222.878 187.43C222.388 187.267 222.388 186.45 222.878 186.286L226.959 184.488C227.122 184.488 227.285 184.325 227.285 184.161L229.081 180.075C229.244 179.585 229.897 179.585 230.224 180.075Z" fill="#FCA70C"/>
    <path d="M253.404 178.605L254.384 181.056C254.384 181.22 254.547 181.22 254.547 181.22L256.996 182.2C257.322 182.364 257.322 182.691 256.996 182.854L254.547 183.835C254.384 183.835 254.384 183.998 254.384 183.998L253.404 186.45C253.241 186.777 252.915 186.777 252.751 186.45L251.772 183.998C251.772 183.835 251.609 183.835 251.609 183.835L249.16 182.854C248.834 182.691 248.834 182.364 249.16 182.2L251.609 181.22C251.772 181.22 251.772 181.056 251.772 181.056L252.751 178.605C252.751 178.278 253.241 178.278 253.404 178.605Z" fill="#FCA70C"/>
    <path d="M33.8029 33.3434L36.0883 38.4103C36.0883 38.5737 36.2516 38.7372 36.4148 38.7372L41.4754 41.0254C42.1283 41.3523 42.1283 42.1696 41.4754 42.4965L36.4148 44.7848C36.2516 44.7848 36.0883 44.9482 36.0883 45.1117L33.8029 50.1786C33.4764 50.8323 32.6602 50.8323 32.3337 50.1786L30.0483 45.1117C30.0483 44.9482 29.885 44.7848 29.7218 44.7848L24.6612 42.4965C24.0083 42.1696 24.0083 41.3523 24.6612 41.0254L29.7218 38.7372C29.885 38.7372 30.0483 38.5737 30.0483 38.4103L32.3337 33.3434C32.6602 32.6896 33.4764 32.6896 33.8029 33.3434Z" fill="#FCA70C"/>
    <path d="M27.5996 61.6202L29.3953 65.7064C29.3953 65.8699 29.5586 66.0333 29.7218 66.0333L33.8029 67.8312C34.2926 67.9947 34.2926 68.8119 33.8029 68.9754L29.7218 70.7733C29.5586 70.7733 29.3953 70.9368 29.3953 71.1002L27.5996 75.1864C27.4364 75.6768 26.6202 75.6768 26.4569 75.1864L24.6612 71.1002C24.6612 70.9368 24.498 70.7733 24.3348 70.7733L20.2537 68.9754C19.7639 68.8119 19.7639 67.9947 20.2537 67.8312L24.3348 66.0333C24.498 66.0333 24.6612 65.8699 24.6612 65.7064L26.4569 61.6202C26.7834 61.1299 27.4364 61.1299 27.5996 61.6202Z" fill="#FCA70C"/>
    <path d="M45.0669 60.4761L46.0463 62.9279C46.0463 63.0913 46.2096 63.0913 46.2096 63.0913L48.6582 64.072C48.9847 64.2354 48.9847 64.5623 48.6582 64.7258L46.2096 65.7065C46.0463 65.7065 46.0463 65.8699 46.0463 65.8699L45.0669 68.3217C44.9036 68.6485 44.5771 68.6485 44.4139 68.3217L43.4344 65.8699C43.4344 65.7065 43.2712 65.7065 43.2712 65.7065L40.8225 64.7258C40.496 64.5623 40.496 64.2354 40.8225 64.072L43.2712 63.0913C43.4344 63.0913 43.4344 62.9279 43.4344 62.9279L44.4139 60.4761C44.4139 60.1492 44.9036 60.1492 45.0669 60.4761Z" fill="#FCA70C"/>
    <path d="M201.291 50.342C201.291 34.4875 188.068 21.5751 172.071 22.2289C157.542 22.7192 145.625 34.6509 145.135 49.1978C144.646 65.2158 157.379 78.4551 173.213 78.4551C174.682 78.4551 176.152 78.2916 177.621 78.1282C178.274 77.9647 178.927 78.1282 179.58 78.2916L186.11 80.7433L187.252 76.1668C187.415 75.1861 188.068 74.2054 188.885 73.7151C196.394 68.4847 201.291 59.9854 201.291 50.342Z" fill="#FCA70C"/>
    <path d="M183.661 44.6211H162.929C161.623 44.6211 160.643 45.6018 160.643 46.9094C160.643 48.217 161.623 49.1976 162.929 49.1976H183.661C184.967 49.1976 185.946 48.217 185.946 46.9094C185.946 45.6018 184.967 44.6211 183.661 44.6211Z" fill="white"/>
    <path d="M175.662 53.7744H162.766C161.46 53.7744 160.48 54.7551 160.48 56.0627C160.48 57.3703 161.46 58.351 162.766 58.351H175.662C176.968 58.351 177.947 57.3703 177.947 56.0627C177.947 54.9186 176.968 53.7744 175.662 53.7744Z" fill="white"/>
    <path d="M168.316 113.433C168.316 113.433 168.153 102.318 166.194 101.828C164.235 101.501 165.377 108.529 165.377 108.529C165.377 108.529 162.765 108.366 161.949 109.51C161.133 110.818 160.807 116.211 163.092 116.865C165.214 117.682 168.316 113.433 168.316 113.433Z" fill="#FF9569"/>
    <path d="M218.921 155.929C219.901 156.583 217.615 181.264 216.636 189.109C215.657 196.791 221.697 227.029 221.697 227.029L215.657 226.702C215.657 226.702 204.882 194.666 204.719 190.58C204.556 186.494 199.985 159.525 199.985 159.525L218.921 155.929Z" fill="#4A41A3"/>
    <path d="M220.88 155.93C220.88 155.93 216.962 167.861 211.086 173.255C205.209 178.812 197.863 190.908 197.863 190.908L199.985 227.03H193.292C193.292 227.03 186.109 190.744 186.109 187.639C186.109 184.533 195.904 152.007 195.904 152.007L220.88 155.93Z" fill="#5851BC"/>
    <path d="M196.557 100.03C196.557 100.03 194.435 110.818 202.597 111.798C210.596 112.779 210.922 96.5977 210.922 96.5977C210.922 96.5977 201.291 93.819 200.638 94.6363C199.985 95.4535 199.985 95.4535 199.985 95.4535L196.557 100.03Z" fill="#FF9569"/>
    <path d="M201.291 110.327H200.638C197.047 110.654 194.108 113.923 191.986 116.865L180.396 129.614L168.316 113.433L163.092 116.865C163.092 116.865 176.478 142.2 181.865 141.055C187.089 139.911 193.455 132.556 193.455 132.556C193.455 132.556 192.149 154.949 191.333 157.891C191.333 157.891 212.555 167.371 221.207 158.381L218.758 121.932C218.105 117.519 215.004 113.923 210.596 112.779L201.291 110.327Z" fill="#E148BE"/>
    <path d="M199.985 227.029V232.75H186.273C185.293 232.75 184.803 231.279 185.783 230.789C188.232 229.481 191.333 227.683 193.292 226.866C196.884 225.558 199.985 227.029 199.985 227.029Z" fill="#E148BE"/>
    <path d="M221.697 227.029V232.75H208.474C207.331 232.75 206.841 231.115 207.821 230.462C210.106 229.154 213.045 227.683 214.84 226.866C218.595 225.558 221.697 227.029 221.697 227.029Z" fill="#E148BE"/>
    <path d="M201.618 122.095C201.618 122.095 195.414 116.865 198.516 111.635C201.618 106.404 203.903 103.626 203.413 100.52C203.413 100.52 203.25 96.5976 200.475 99.0493C200.475 99.0493 199.332 101.011 196.72 100.193C196.72 100.193 194.435 88.9155 206.678 86.6272C219.411 84.0121 222.839 93.4921 221.86 99.5396C220.88 105.587 216.473 105.751 221.86 113.269C227.247 120.624 216.31 133.7 201.618 122.095Z" fill="#4A41A3"/>
</svg>
