<svg width="278" height="228" viewBox="0 0 278 228" fill="none" xmlns="http://www.w3.org/2000/svg">
    <path d="M4.52376 119.731C11.5715 115.088 18.9967 123.622 22.5206 131.654C26.0444 139.812 29.1907 148.472 37.7487 150.982C46.3066 153.492 50.9631 154.872 53.4801 162.152C56.123 169.431 55.8713 171.69 61.5347 175.706C67.198 179.722 72.9872 187.002 73.8681 195.034L44.4188 208.463C44.4188 208.463 36.8677 205.451 29.4424 196.163C22.0172 187.002 23.7791 180.601 21.1362 176.71C18.4933 172.694 9.05443 170.937 7.2925 163.532C5.53058 156.002 8.55102 150.731 4.64961 142.573C0.748204 134.415 -1.13957 123.371 4.52376 119.731Z" fill="#35CDC3"/>
    <path d="M8.80273 124.25C18.1158 149.099 23.5274 162.654 59.6469 201.56" stroke="white" stroke-width="0.5" stroke-miterlimit="10" stroke-linecap="round" stroke-linejoin="round"/>
    <path d="M17.2347 127.01C17.2347 127.01 18.3674 133.536 16.6055 143.577" stroke="white" stroke-width="0.5" stroke-miterlimit="10" stroke-linecap="round" stroke-linejoin="round"/>
    <path d="M8.42517 148.095C8.42517 148.095 9.93539 150.982 24.0308 157.634" stroke="white" stroke-width="0.5" stroke-miterlimit="10" stroke-linecap="round" stroke-linejoin="round"/>
    <path d="M40.5173 154.245C40.5173 154.245 45.2997 172.317 41.3983 181.103" stroke="white" stroke-width="0.5" stroke-miterlimit="10" stroke-linecap="round" stroke-linejoin="round"/>
    <path d="M27.4288 189.512C27.4288 189.512 38.0004 193.653 50.208 191.269" stroke="white" stroke-width="0.5" stroke-miterlimit="10" stroke-linecap="round" stroke-linejoin="round"/>
    <path d="M271.204 157.508C277.371 159.892 274.35 171.062 271.833 177.337C269.19 183.613 276.112 192.523 258.367 202.94L236.469 189.637C236.469 189.637 241.755 174.325 250.438 171.188C259.248 168.05 262.646 154.119 271.204 157.508Z" fill="#28C9BF"/>
    <path d="M269.945 160.269C269.945 160.269 261.765 180.224 247.418 196.289" stroke="white" stroke-width="0.5" stroke-miterlimit="10" stroke-linecap="round" stroke-linejoin="round"/>
    <path d="M263.905 160.018C263.905 160.018 261.891 167.046 263.401 173.07" stroke="white" stroke-width="0.5" stroke-miterlimit="10" stroke-linecap="round" stroke-linejoin="round"/>
    <path d="M269.568 184.24C269.568 184.24 259.374 188.005 253.711 188.382" stroke="white" stroke-width="0.5" stroke-miterlimit="10" stroke-linecap="round" stroke-linejoin="round"/>
    <path d="M271.787 207.712H118.657C124.43 180.24 132.534 162.873 141.487 152.229C150.491 141.525 160.369 137.604 169.671 137.048C179.033 136.488 186.083 138.044 192.189 141.228C198.309 144.419 203.516 149.261 209.17 155.338C214.86 161.453 218.904 164.511 223.272 166.633C226.21 168.061 229.305 169.066 233.118 170.304C234.922 170.89 236.887 171.528 239.073 172.288L239.076 172.289C245.478 174.478 248.35 179.394 249.628 183.814C250.267 186.027 250.503 188.104 250.578 189.63C250.616 190.393 250.613 191.015 250.601 191.445C250.596 191.66 250.587 191.827 250.581 191.939C250.579 191.971 250.577 191.999 250.576 192.022C250.574 192.039 250.573 192.053 250.573 192.065L250.57 192.095L250.57 192.102L250.57 192.104L250.57 192.104L250.524 192.62L251.042 192.647C258.224 193.014 263.489 196.93 266.979 200.797C268.722 202.728 270.013 204.638 270.867 206.065C271.272 206.739 271.578 207.304 271.787 207.712Z" fill="#5851BC" stroke="white"/>
    <path opacity="0.2" d="M204.125 22.4653V53.3394L192.924 60.3676L204.125 59.8656V65.7643H250.312V22.4653H204.125Z" fill="black"/>
    <path d="M99.5077 160.492L99.5078 160.492L99.7532 160.575L99.9622 160.422L99.9623 160.422L99.9623 160.422L99.9626 160.422L99.9639 160.421L99.9726 160.415C99.981 160.409 99.9943 160.399 100.013 160.387C100.049 160.361 100.106 160.323 100.183 160.273C100.336 160.173 100.568 160.027 100.879 159.847C101.502 159.488 102.439 158.995 103.685 158.471C106.176 157.421 109.903 156.243 114.82 155.746L114.827 155.746C124.407 154.643 132.935 159.526 139.918 168.852L139.92 168.855C143.512 173.568 145.484 175.869 149.293 177.994C152.349 179.698 156.601 181.296 163.86 184.023C165.521 184.647 167.34 185.331 169.338 186.088C179.967 190.117 185.511 196.83 188.404 202.524C189.853 205.374 190.638 207.973 191.062 209.857C191.273 210.798 191.394 211.56 191.462 212.084C191.475 212.183 191.486 212.274 191.495 212.355H12.3612C12.8113 207.307 15.4854 203.161 19.3319 199.762C23.317 196.239 28.5346 193.544 33.7456 191.515C38.9521 189.488 44.1243 188.137 47.998 187.294C49.934 186.872 51.5434 186.578 52.6679 186.388C53.2301 186.294 53.6709 186.226 53.9706 186.181C54.1204 186.159 54.2349 186.143 54.3117 186.132L54.3981 186.12L54.4195 186.117L54.4246 186.117L54.4258 186.117C54.426 186.117 54.426 186.117 54.3612 185.621L54.426 186.117L54.6791 186.084L54.8008 185.859L54.7782 185.847C54.8008 185.859 54.8008 185.859 54.8008 185.859L54.8011 185.858L54.8023 185.856L54.8076 185.847L54.8288 185.808C54.8478 185.773 54.8763 185.721 54.914 185.653C54.9895 185.517 55.1018 185.316 55.2485 185.058C55.5419 184.541 55.9729 183.796 56.5222 182.882C57.6209 181.054 59.1915 178.554 61.0786 175.868C64.8672 170.475 69.8807 164.405 74.8777 161.452C79.8387 158.521 85.9711 158.26 90.9183 158.758C93.3837 159.007 95.5353 159.441 97.0703 159.814C97.8374 160 98.4495 160.17 98.8685 160.294C99.078 160.355 99.2393 160.405 99.3474 160.44C99.4015 160.457 99.4422 160.47 99.4692 160.479L99.4991 160.489L99.5061 160.491L99.5076 160.492L99.5077 160.492Z" fill="#5851BC" stroke="white"/>
    <path d="M199.846 156.253H194.057V210.973H199.846V156.253Z" fill="#1A4CED"/>
    <path opacity="0.2" d="M199.72 180.224V156.253H194.057V173.447L199.72 180.224Z" fill="black"/>
    <path d="M214.571 158.01H179.206C178.074 158.01 177.067 157.006 176.815 155.5L176.06 150.73C175.682 148.722 176.941 146.84 178.451 146.84H215.326C216.836 146.84 218.094 148.722 217.717 150.73L216.962 155.5C216.836 157.006 215.829 158.01 214.571 158.01Z" fill="white"/>
    <path d="M196.951 208.211C189.4 208.211 182.604 210.973 177.57 215.24C176.689 215.993 177.193 217.373 178.325 217.373H215.577C216.71 217.373 217.213 215.993 216.333 215.24C211.298 210.973 204.502 208.211 196.951 208.211Z" fill="#1A4CED"/>
    <path d="M216.332 215.24C211.928 211.475 206.264 208.839 199.846 208.337V156.253H194.057V208.337C187.638 208.965 181.849 211.475 177.57 215.24C176.689 215.993 177.193 217.373 178.325 217.373H215.577C216.584 217.373 217.088 215.993 216.332 215.24Z" fill="white"/>
    <path d="M54.361 141.443H49.4527C48.9493 141.443 48.5718 141.067 48.5718 140.565V138.933C48.5718 138.431 48.9493 138.055 49.4527 138.055H54.361C54.8644 138.055 55.2419 138.431 55.2419 138.933V140.565C55.1161 141.067 54.7385 141.443 54.361 141.443Z" fill="#942754"/>
    <path d="M62.1639 114.46C62.1639 108.812 57.6332 104.294 51.9699 104.294C46.3065 104.294 41.7759 108.812 41.7759 114.46C41.7759 116.468 42.4051 118.852 43.412 120.986C44.5446 123.371 45.4256 126.006 45.4256 128.642L45.5514 130.775H58.2625L58.3883 128.642C58.5142 126.006 59.2693 123.371 60.402 120.986C61.5346 118.852 62.1639 116.593 62.1639 114.46Z" fill="#FCA70C"/>
    <path d="M57.1298 139.561H46.6841C45.8031 139.561 45.1738 138.933 45.1738 138.055V130.775H58.7658V138.055C58.64 138.933 58.0107 139.561 57.1298 139.561Z" fill="#E148BE"/>
    <path d="M54.361 122.743V117.096C54.361 115.088 53.9834 114.209 53.6059 114.209C53.3542 114.209 53.2283 114.46 53.1025 114.962C52.9766 114.46 52.7249 114.209 52.5991 114.209C52.4732 114.209 52.2215 114.46 52.0957 114.962C51.9698 114.46 51.7181 114.209 51.5923 114.209C51.4664 114.209 51.2147 114.46 51.0888 114.962C50.963 114.46 50.7113 114.209 50.5854 114.209C50.2079 114.209 49.8303 115.088 49.8303 117.096V122.743" stroke="white" stroke-width="0.5169" stroke-miterlimit="10" stroke-linecap="round" stroke-linejoin="round"/>
    <path d="M45.1738 132.784H58.64" stroke="#942754" stroke-width="0.5169" stroke-miterlimit="10"/>
    <path d="M45.1738 134.415H58.64" stroke="#942754" stroke-width="0.5169" stroke-miterlimit="10"/>
    <path d="M45.1738 135.921H58.64" stroke="#942754" stroke-width="0.5169" stroke-miterlimit="10"/>
    <path d="M45.1738 137.553H58.64" stroke="#942754" stroke-width="0.5169" stroke-miterlimit="10"/>
    <path d="M52.2217 95.7598V100.278" stroke="white" stroke-width="0.75" stroke-miterlimit="10" stroke-linecap="round" stroke-linejoin="round"/>
    <path d="M42.2793 98.3955L44.5446 102.286" stroke="white" stroke-width="0.75" stroke-miterlimit="10" stroke-linecap="round" stroke-linejoin="round"/>
    <path d="M35.1057 105.549L39.0071 107.808" stroke="white" stroke-width="0.75" stroke-miterlimit="10" stroke-linecap="round" stroke-linejoin="round"/>
    <path d="M64.9326 122.743L68.7082 125.002" stroke="white" stroke-width="0.75" stroke-miterlimit="10" stroke-linecap="round" stroke-linejoin="round"/>
    <path d="M32.4629 115.464H36.8677" stroke="white" stroke-width="0.75" stroke-miterlimit="10" stroke-linecap="round" stroke-linejoin="round"/>
    <path d="M66.8204 115.464H71.3511" stroke="white" stroke-width="0.75" stroke-miterlimit="10" stroke-linecap="round" stroke-linejoin="round"/>
    <path d="M35.1057 125.253L39.0071 122.994" stroke="white" stroke-width="0.75" stroke-miterlimit="10" stroke-linecap="round" stroke-linejoin="round"/>
    <path d="M64.9326 108.059L68.7082 105.926" stroke="white" stroke-width="0.75" stroke-miterlimit="10" stroke-linecap="round" stroke-linejoin="round"/>
    <path d="M59.521 102.788L61.7863 98.8975" stroke="white" stroke-width="0.75" stroke-miterlimit="10" stroke-linecap="round" stroke-linejoin="round"/>
    <path d="M56.5006 85.7193L61.7864 74.0474L49.0754 75.1769L51.3407 78.44L40.1399 85.4682L43.7896 90.6139L54.2353 82.4561L56.5006 85.7193Z" fill="white"/>
    <path d="M261.639 61.3716L256.353 49.6997L269.064 50.8292L266.799 54.0924L278 61.1206L274.35 66.2663L264.03 57.983L261.639 61.3716Z" fill="white"/>
    <path d="M25.541 55.0962H91.4874C91.4874 55.0962 91.865 38.2786 75.7559 40.1612C75.7559 40.1612 71.8545 30.3719 58.8918 32.6309C46.0549 34.89 45.929 44.8049 45.929 44.8049C45.929 44.8049 36.616 42.0438 33.9731 50.9546C33.9731 50.9546 26.6737 51.3311 25.541 55.0962Z" fill="white"/>
    <path d="M104.954 19.2021L103.695 20.2062L102.437 21.2102C105.079 25.7284 106.338 32.6311 106.338 32.6311C108.729 32.0036 111.875 35.7687 111.875 35.7687L117.161 31.5016C117.161 31.5016 114.267 27.6109 115.273 25.4774C115.273 25.4774 108.855 22.7163 104.954 19.2021Z" fill="white"/>
    <path d="M103.695 20.2061L110.114 28.2383" stroke="#B5B5B5" stroke-width="0.7713" stroke-miterlimit="10"/>
    <path d="M111.75 28.2386C112.127 28.7406 112.127 29.4937 111.624 29.8702C111.12 30.2467 110.365 30.2467 109.988 29.7447C109.61 29.2426 109.61 28.4896 110.113 28.1131C110.491 27.7366 111.246 27.7366 111.75 28.2386Z" stroke="#B5B5B5" stroke-width="0.7713" stroke-miterlimit="10"/>
    <path d="M117.574 31.1269L111.191 36.2288L115.441 41.517L121.824 36.4152L117.574 31.1269Z" fill="#B53498"/>
    <path d="M115.399 41.4167L137.549 69.0276C137.927 69.5296 139.689 68.6511 141.451 67.2705C143.213 65.89 144.345 64.3839 143.968 63.8819L121.818 36.271L115.399 41.4167Z" fill="#E148BE"/>
    <path d="M113.134 47.1895C107.596 59.4889 94.2561 71.0353 82.6777 70.4077C72.7354 69.7802 72.8613 64.6345 74.2457 62.6265C75.8817 60.3674 81.5451 60.6184 81.7968 66.2661C81.9226 71.9138 78.5246 78.0635 73.2388 83.4602C67.9531 88.8569 64.9326 95.1321 64.9326 95.1321" stroke="#E148BE" stroke-width="0.5" stroke-miterlimit="10" stroke-linecap="round" stroke-linejoin="round"/>
    <path d="M124.461 32.3802C128.11 25.4774 135.661 19.3277 143.338 16.4411C151.141 13.5545 157.937 11.0444 159.322 6.52629C160.706 2.00814 156.301 -1.12946 151.393 1.12961C146.485 3.38869 147.366 12.676 158.692 11.923C170.145 11.17 191.288 8.28335 196.7 18.1982" stroke="#E148BE" stroke-width="0.5" stroke-miterlimit="10" stroke-linecap="round" stroke-linejoin="round"/>
    <path d="M202.615 20.2061V50.9546L191.414 58.1083L202.615 57.6063V63.505H248.802V20.2061H202.615Z" fill="#EF8BD8"/>
    <path d="M221.115 46.5622C226.884 46.5622 231.561 41.8984 231.561 36.1454C231.561 30.3923 226.884 25.7285 221.115 25.7285C215.346 25.7285 210.669 30.3923 210.669 36.1454C210.669 41.8984 215.346 46.5622 221.115 46.5622Z" fill="white"/>
    <path d="M238.86 36.1455H221.115V53.8416H238.86V36.1455Z" fill="white"/>
    <path d="M221.115 46.5624C226.904 46.5624 231.561 41.9187 231.561 36.1455H221.115V46.5624Z" fill="#E148BE"/>
    <g opacity="0.2">
        <path opacity="0.2" d="M262.268 152.488H238.86C235.462 152.488 232.819 149.726 232.819 146.463V79.6951C232.819 76.3065 235.588 73.6709 238.86 73.6709H262.268C265.666 73.6709 268.309 76.432 268.309 79.6951V146.463C268.309 149.726 265.666 152.488 262.268 152.488Z" fill="black"/>
    </g>
    <path d="M260.381 150.354H236.972C233.574 150.354 230.931 147.593 230.931 144.33V77.5618C230.931 74.1732 233.7 71.5376 236.972 71.5376H260.381C263.779 71.5376 266.421 74.2987 266.421 77.5618V144.33C266.421 147.593 263.653 150.354 260.381 150.354Z" fill="white"/>
    <path d="M245.908 82.8331C245.908 85.0921 244.02 86.9747 241.755 86.9747C239.489 86.9747 237.601 85.0921 237.601 82.8331C237.601 80.574 239.489 78.6914 241.755 78.6914C244.146 78.6914 245.908 80.574 245.908 82.8331Z" fill="#FCA70C"/>
    <path d="M255.472 86.9747C257.766 86.9747 259.626 85.1204 259.626 82.8331C259.626 80.5457 257.766 78.6914 255.472 78.6914C253.179 78.6914 251.319 80.5457 251.319 82.8331C251.319 85.1204 253.179 86.9747 255.472 86.9747Z" fill="#E148BE"/>
    <path d="M245.908 95.3833C245.908 97.6424 244.02 99.525 241.755 99.525C239.489 99.525 237.601 97.6424 237.601 95.3833C237.601 93.1243 239.489 91.2417 241.755 91.2417C244.146 91.3672 245.908 93.1243 245.908 95.3833Z" fill="#C5C4FC"/>
    <path d="M259.5 95.3833C259.5 97.6424 257.612 99.525 255.347 99.525C253.081 99.525 251.193 97.6424 251.193 95.3833C251.193 93.1243 253.081 91.2417 255.347 91.2417C257.738 91.3672 259.5 93.1243 259.5 95.3833Z" fill="#5851BC"/>
    <path d="M245.908 108.059C245.908 110.318 244.02 112.201 241.755 112.201C239.489 112.201 237.601 110.318 237.601 108.059C237.601 105.8 239.489 103.917 241.755 103.917C244.146 103.917 245.908 105.8 245.908 108.059Z" fill="#EF8BD8"/>
    <path d="M259.5 108.059C259.5 110.318 257.612 112.201 255.347 112.201C253.081 112.201 251.193 110.318 251.193 108.059C251.193 105.8 253.081 103.917 255.347 103.917C257.738 103.917 259.5 105.8 259.5 108.059Z" fill="#4A41A3"/>
    <path d="M245.908 120.609C245.908 122.868 244.02 124.751 241.755 124.751C239.489 124.751 237.601 122.868 237.601 120.609C237.601 118.35 239.489 116.468 241.755 116.468C244.146 116.593 245.908 118.35 245.908 120.609Z" fill="#5620D8"/>
    <path d="M255.472 124.751C257.766 124.751 259.626 122.897 259.626 120.609C259.626 118.322 257.766 116.468 255.472 116.468C253.179 116.468 251.319 118.322 251.319 120.609C251.319 122.897 253.179 124.751 255.472 124.751Z" fill="#B53498"/>
    <path d="M254.214 134.164L251.193 131.152L242.636 139.686C242.006 140.314 241.755 141.192 241.88 141.945C241.88 142.196 241.88 142.447 241.629 142.698L240.874 143.451C240.622 143.702 240.622 144.079 240.874 144.455C241.125 144.706 241.503 144.706 241.88 144.455L242.636 143.702C242.761 143.577 243.139 143.451 243.391 143.451C244.272 143.577 245.153 143.326 245.656 142.698L254.214 134.164Z" fill="#8AB1FF"/>
    <path d="M255.472 133.662L254.969 133.16L256.102 132.03C256.857 131.277 256.857 130.022 256.102 129.269C255.347 128.516 254.088 128.516 253.333 129.269L252.2 130.399L251.697 129.897C251.445 129.646 251.068 129.646 250.816 129.897C250.564 130.148 250.564 130.524 250.816 130.775L254.717 134.666C254.969 134.917 255.347 134.917 255.598 134.666C255.598 134.29 255.598 133.913 255.472 133.662Z" fill="#E148BE"/>
    <path d="M149.379 203.317L148.624 211.851C148.624 211.851 138.053 215.993 138.053 217.499C138.053 218.879 156.679 219.381 157.308 217.499C158.063 215.616 158.944 203.317 158.944 203.317H149.379Z" fill="#FCA70C"/>
    <path d="M127.859 203.317L125.216 211.851C125.216 211.851 114.644 215.993 114.644 217.499C114.644 218.879 133.27 219.381 133.9 217.499C134.655 215.616 137.423 203.317 137.423 203.317H127.859Z" fill="#FCA70C"/>
    <path d="M187.387 125.504C187.387 125.504 146.107 127.638 140.696 139.686C135.158 151.86 126.474 204.949 126.474 204.949H138.053L153.532 148.221C153.532 148.221 194.56 146.966 203.621 142.824C212.683 138.682 216.207 125.379 216.207 125.379H187.387V125.504Z" fill="#C5C4FC"/>
    <path opacity="0.2" d="M143.213 186.499L153.658 148.346C153.658 148.346 194.686 147.091 203.747 142.949C212.809 138.808 216.332 125.504 216.332 125.504H187.387C187.387 125.504 146.107 127.638 140.696 139.686C140.066 141.067 139.437 142.949 138.682 145.209L143.213 186.499Z" fill="black"/>
    <path d="M216.333 125.504C216.333 125.504 218.724 132.156 216.333 140.063C213.941 147.97 205.258 149.727 197.832 149.727H172.914C171.026 149.727 169.264 151.107 169.012 152.99L160.454 204.949H147.114C147.114 204.949 148.498 157.508 151.519 147.217C156.049 131.529 167.754 130.901 196.322 128.391L216.333 125.504Z" fill="#C5C4FC"/>
    <path d="M168.131 73.0435C162.72 77.6871 159.951 109.691 159.951 109.691L137.046 114.962V121.739L161.461 120.359C165.362 120.108 168.635 117.346 169.39 113.456L173.92 90.363L168.131 73.0435Z" fill="#FCA70C"/>
    <path d="M166.495 118.602C166.495 118.602 160.832 119.606 158.441 120.233C156.301 120.735 146.736 125.881 146.736 127.01C146.736 128.14 153.281 127.763 153.281 127.763C153.281 127.763 159.951 126.132 160.958 124.124L167.754 123.747L166.495 118.602Z" fill="white"/>
    <path opacity="0.2" d="M169.893 110.946L173.92 90.3631L168.131 72.918C165.74 74.926 163.978 82.2053 162.594 89.7355L169.893 110.946Z" fill="black"/>
    <path d="M180.339 66.7684C188.016 65.6389 198.587 66.2664 203.747 72.7926C208.907 79.3189 215.577 107.683 216.332 114.837C217.088 121.99 220.486 126.508 213.69 126.508C206.894 126.508 193.05 126.508 186.757 126.508C180.465 126.508 180.213 125.755 180.339 118.727C180.465 111.824 179.458 104.671 172.41 93.1243C165.488 81.5779 165.362 76.3068 167.628 72.9181C170.019 69.655 176.563 67.2705 180.339 66.7684Z" fill="#FCA70C"/>
    <path opacity="0.2" d="M180.339 118.727C180.213 125.63 180.465 126.508 186.757 126.508C193.05 126.508 206.894 126.508 213.69 126.508C220.486 126.508 217.088 122.116 216.332 114.837C215.577 107.683 208.781 79.3188 203.747 72.7926C203.496 72.4161 203.118 72.0396 202.866 71.7886L179.961 111.573C180.213 113.958 180.339 116.343 180.339 118.727Z" fill="black"/>
    <path d="M199.342 69.7807C207.145 70.4082 206.516 90.2379 206.516 97.0151C206.516 103.792 206.642 117.096 199.972 119.104C193.302 121.237 166.243 125.003 166.243 125.003L165.237 118.351L192.672 109.314C192.672 109.314 193.176 92.3714 193.302 86.5982C193.427 80.825 191.917 69.1531 199.342 69.7807Z" fill="#FCA70C"/>
    <path d="M167.879 53.4649C168.886 55.724 168.383 58.2341 166.747 58.9871C165.111 59.7401 162.845 58.4851 161.839 56.1005C160.832 53.8414 161.335 51.3313 162.971 50.5783C164.733 49.8253 166.873 51.0803 167.879 53.4649Z" fill="#C5C4FC"/>
    <path d="M163.978 52.8372C165.363 58.1084 166.369 60.995 167.124 62.8775C167.88 64.8856 170.522 65.3876 174.046 64.3836C174.046 64.3836 175.431 68.3997 176.312 70.4078C177.193 72.5414 187.009 71.1608 185.876 67.5212C184.744 63.8816 183.108 59.6144 183.108 59.6144C183.108 59.6144 187.261 41.2908 174.298 40.1613C161.335 39.0317 160.328 50.7036 163.978 52.8372Z" fill="white"/>
    <path d="M169.641 44.4286C169.641 44.4286 172.662 48.8213 177.696 48.9468C177.696 48.9468 178.703 56.6025 182.982 59.7402C182.982 59.7402 189.526 56.6025 187.261 52.7119C187.261 52.7119 192.924 49.4488 186.128 42.7971C186.128 42.7971 190.407 41.291 190.155 39.4085C190.029 37.6514 182.227 38.7809 182.227 38.7809C182.227 38.7809 173.291 26.858 167.502 27.9876C164.23 28.6151 163.601 33.7608 163.601 33.7608C163.601 33.7608 156.679 31.1252 154.036 34.8903C151.267 38.6554 157.56 45.6837 157.56 45.6837C157.56 45.6837 154.917 46.5622 154.917 48.5703C155.043 52.7119 163.852 52.7119 163.852 52.7119L163.601 50.0763C163.601 50.0763 166.118 50.7039 165.866 49.8253C165.614 48.9468 164.356 47.8173 164.356 47.8173C164.356 47.8173 168.635 46.9387 169.641 44.4286Z" fill="#28C9BF"/>
    <path d="M184.348 52.956C184.857 50.4422 183.833 48.1152 182.062 47.7585C180.291 47.4019 178.442 49.1506 177.933 51.6645C177.424 54.1783 178.448 56.5053 180.219 56.862C181.99 57.2186 183.839 55.4699 184.348 52.956Z" fill="#C5C4FC"/>
    <path d="M182.227 52.0842C182.101 52.0842 182.101 52.0842 181.975 52.0842C181.471 51.9587 181.094 51.3312 181.22 50.8291C182.73 45.307 181.597 37.5257 181.597 37.4002C181.471 36.7727 181.849 36.2706 182.478 36.1451C183.108 36.0196 183.611 36.3961 183.737 37.0237C183.737 37.4002 184.995 45.307 183.359 51.3312C183.108 51.8332 182.604 52.0842 182.227 52.0842Z" fill="#C5C4FC"/>
    <path d="M193.302 80.6992L192.672 109.314L165.237 118.35" stroke="#103094" stroke-width="0.5" stroke-miterlimit="10"/>
    <path d="M148.121 129.395H93.5011L84.188 88.8572C83.9363 87.7277 84.8173 86.5981 85.9499 86.5981H136.039C137.298 86.5981 138.43 87.4767 138.682 88.7317L148.121 129.395Z" fill="#252933"/>
    <path d="M176.941 127.136H115.525V129.395H176.941V127.136Z" fill="#252933"/>
    <path d="M94.8854 134.415L80.4124 227.414H76.7627L86.8308 134.415H94.8854Z" fill="white"/>
    <path d="M112.63 218.001L107.722 134.415H99.6677L108.477 218.001H112.63Z" fill="white"/>
    <path d="M155.42 134.415L140.821 227.414H137.172L147.366 134.415H155.42Z" fill="white"/>
    <path d="M173.039 218.001L168.257 134.415H160.077L169.012 218.001H173.039Z" fill="white"/>
    <g opacity="0.2">
        <path opacity="0.2" d="M94.0045 140.565L94.8854 134.415H86.8309L86.3275 139.059L94.0045 140.565Z" fill="black"/>
        <path opacity="0.2" d="M107.722 134.415H99.6677L100.423 141.82L108.226 143.2L107.722 134.415Z" fill="black"/>
    </g>
    <g opacity="0.2">
        <path opacity="0.2" d="M154.413 140.565L155.42 134.415H147.366L146.862 139.059L154.413 140.565Z" fill="black"/>
        <path opacity="0.2" d="M168.257 134.415H160.203L160.958 141.82L168.76 143.2L168.257 134.415Z" fill="black"/>
    </g>
    <path d="M176.815 129.395H73.113V134.415H176.815V129.395Z" fill="white"/>
    <path d="M73.113 132.784H176.941" stroke="#FFCF30" stroke-width="0.5" stroke-miterlimit="10"/>
    <path opacity="0.15" d="M135.913 89.2334L145.352 129.395" stroke="white" stroke-width="0.5" stroke-miterlimit="10"/>
    <path d="M120.937 107.808C120.937 111.323 118.168 114.084 114.644 114.084C111.12 114.084 108.352 111.323 108.352 107.808C108.352 104.294 111.12 101.533 114.644 101.533C118.042 101.533 120.937 104.42 120.937 107.808Z" fill="#E148BE"/>
    <path d="M137.549 32.6313C137.549 34.6394 135.913 36.2709 133.899 36.2709C131.886 36.2709 130.25 34.6394 130.25 32.6313C130.25 30.6233 131.886 28.9917 133.899 28.9917C135.913 28.9917 137.549 30.6233 137.549 32.6313Z" stroke="white" stroke-width="0.75" stroke-miterlimit="10" stroke-linecap="round" stroke-linejoin="round"/>
    <path d="M38.7555 68.3998C38.7555 70.4079 37.1194 72.0395 35.1058 72.0395C33.0921 72.0395 31.4561 70.4079 31.4561 68.3998C31.4561 66.3918 33.0921 64.7602 35.1058 64.7602C37.1194 64.6347 38.7555 66.2663 38.7555 68.3998Z" stroke="white" stroke-width="0.75" stroke-miterlimit="10" stroke-linecap="round" stroke-linejoin="round"/>
    <path d="M119.804 72.0395C119.804 74.0476 118.168 75.6791 116.154 75.6791C114.141 75.6791 112.505 74.0476 112.505 72.0395C112.505 70.0315 114.141 68.3999 116.154 68.3999C118.168 68.3999 119.804 70.0315 119.804 72.0395Z" stroke="white" stroke-width="0.75" stroke-miterlimit="10" stroke-linecap="round" stroke-linejoin="round"/>
</svg>
