<svg width="335" height="201" viewBox="0 0 335 201" fill="none" xmlns="http://www.w3.org/2000/svg">
    <g opacity="0.5">
        <path opacity="0.5" d="M108.358 164.899V151.673C108.358 150.839 107.64 150.124 106.803 150.124H102.378C101.78 150.124 101.182 149.767 100.943 149.171C100.703 148.576 100.823 147.861 101.301 147.503L104.411 144.405C105.009 143.81 105.009 142.857 104.411 142.261L94.9625 132.848C94.3645 132.252 93.4077 132.252 92.8097 132.848L89.7001 135.946C89.2217 136.423 88.6237 136.542 88.0257 136.303C87.4277 136.065 87.0689 135.469 87.0689 134.874V130.465C87.0689 129.631 86.3513 128.916 85.5141 128.916H71.9993C71.1621 128.916 70.4445 129.631 70.4445 130.465V134.874C70.4445 135.469 70.0857 136.065 69.4877 136.303C68.8897 136.542 68.1721 136.423 67.8133 135.946L64.7037 132.848C64.1057 132.252 63.1489 132.252 62.5509 132.848L53.1024 142.261C52.5044 142.857 52.5044 143.81 53.1024 144.405L56.212 147.503C56.6905 147.98 56.81 148.576 56.5708 149.171C56.3316 149.767 55.7336 150.124 55.1356 150.124H50.7104C49.8732 150.124 49.1556 150.839 49.1556 151.673V164.899C49.1556 165.733 49.8732 166.448 50.7104 166.448H55.016C55.614 166.448 56.2121 166.805 56.4513 167.401C56.6905 167.996 56.5709 168.711 56.0925 169.069L52.9828 172.167C52.3848 172.762 52.3848 173.715 52.9828 174.311L62.4313 183.724C63.0293 184.319 63.9861 184.319 64.5841 183.724L67.6937 180.626C68.1721 180.149 68.7701 180.03 69.3681 180.269C69.9661 180.507 70.3249 181.103 70.3249 181.698V186.107C70.3249 186.941 71.0425 187.656 71.8797 187.656H85.1553C85.9925 187.656 86.7101 186.941 86.7101 186.107V181.698C86.7101 181.103 87.0689 180.507 87.6669 180.269C88.2649 180.03 88.9825 180.149 89.3413 180.626L92.4509 183.724C93.0489 184.319 94.0057 184.319 94.6037 183.724L104.052 174.311C104.65 173.715 104.65 172.762 104.052 172.167L100.943 169.069C100.464 168.592 100.345 167.996 100.584 167.401C100.823 166.805 101.421 166.448 102.019 166.448H106.444C107.64 166.448 108.358 165.733 108.358 164.899ZM93.2881 158.346C93.2881 166.328 86.7101 172.881 78.6969 172.881C70.6837 172.881 64.1057 166.328 64.1057 158.346C64.1057 150.363 70.6837 143.81 78.6969 143.81C86.7101 143.81 93.2881 150.244 93.2881 158.346Z" fill="#FFFDFE"/>
        <path opacity="0.5" d="M293.977 171.213H303.665C304.263 171.213 304.741 170.737 304.741 170.141V166.805C304.741 166.328 304.98 165.971 305.459 165.733C305.937 165.494 306.416 165.613 306.774 165.971L309.047 168.235C309.525 168.711 310.243 168.711 310.602 168.235L317.419 161.443C317.897 160.967 317.897 160.252 317.419 159.894L315.146 157.631C314.788 157.273 314.788 156.797 314.907 156.32C315.146 155.843 315.505 155.605 315.984 155.605H319.213C319.811 155.605 320.289 155.129 320.289 154.533V144.882C320.289 144.286 319.811 143.81 319.213 143.81H315.984C315.505 143.81 315.146 143.571 314.907 143.095C314.668 142.618 314.788 142.142 315.146 141.784L317.419 139.52C317.897 139.044 317.897 138.329 317.419 137.972L310.602 131.18C310.123 130.704 309.406 130.704 309.047 131.18L306.774 133.444C306.416 133.801 305.937 133.801 305.459 133.682C304.98 133.444 304.741 133.087 304.741 132.61V129.393C304.741 128.797 304.263 128.321 303.665 128.321H293.977C293.379 128.321 292.901 128.797 292.901 129.393V132.61C292.901 133.087 292.662 133.444 292.183 133.682C291.705 133.921 291.226 133.801 290.868 133.444L288.595 131.18C288.117 130.704 287.399 130.704 287.04 131.18L280.223 137.972C279.745 138.448 279.745 139.163 280.223 139.52L282.496 141.784C282.854 142.142 282.854 142.618 282.735 143.095C282.495 143.571 282.137 143.81 281.658 143.81H278.429C277.831 143.81 277.353 144.286 277.353 144.882V154.533C277.353 155.129 277.831 155.605 278.429 155.605H281.658C282.137 155.605 282.495 155.843 282.735 156.32C282.974 156.797 282.854 157.273 282.496 157.631L280.223 159.894C279.745 160.371 279.745 161.086 280.223 161.443L287.04 168.235C287.519 168.711 288.236 168.711 288.595 168.235L290.868 165.971C291.226 165.613 291.705 165.613 292.183 165.733C292.662 165.971 292.901 166.328 292.901 166.805V170.022C292.781 170.737 293.26 171.213 293.977 171.213ZM298.761 160.252C292.901 160.252 288.117 155.486 288.117 149.648C288.117 143.81 292.901 139.044 298.761 139.044C304.622 139.044 309.406 143.81 309.406 149.648C309.525 155.486 304.741 160.252 298.761 160.252Z" fill="#FFFDFE"/>
        <path opacity="0.5" d="M253.074 153.58H258.456C258.815 153.58 259.054 153.341 259.054 152.984V151.197C259.054 150.959 259.173 150.72 259.413 150.601C259.652 150.482 259.891 150.601 260.13 150.72L261.446 152.031C261.685 152.269 262.044 152.269 262.283 152.031L266.11 148.218C266.35 147.98 266.35 147.622 266.11 147.384L264.795 146.074C264.556 145.835 264.556 145.597 264.675 145.359C264.795 145.12 265.034 145.001 265.273 145.001H267.067C267.426 145.001 267.665 144.763 267.665 144.405V139.044C267.665 138.686 267.426 138.448 267.067 138.448H265.273C265.034 138.448 264.795 138.329 264.675 138.091C264.556 137.852 264.675 137.614 264.795 137.376L266.11 136.065C266.35 135.827 266.35 135.47 266.11 135.231L262.283 131.419C262.044 131.18 261.685 131.18 261.446 131.419L260.13 132.729C259.891 132.967 259.652 132.967 259.413 132.848C259.173 132.729 259.054 132.491 259.054 132.253V130.465C259.054 130.108 258.815 129.87 258.456 129.87H253.074C252.715 129.87 252.476 130.108 252.476 130.465V132.253C252.476 132.491 252.356 132.729 252.117 132.848C251.878 132.967 251.639 132.848 251.399 132.729L250.084 131.419C249.845 131.18 249.486 131.18 249.247 131.419L245.419 135.231C245.18 135.47 245.18 135.827 245.419 136.065L246.735 137.376C246.974 137.614 246.974 137.852 246.855 138.091C246.735 138.329 246.496 138.448 246.257 138.448H244.463C244.104 138.448 243.865 138.686 243.865 139.044V144.405C243.865 144.763 244.104 145.001 244.463 145.001H246.257C246.496 145.001 246.735 145.12 246.855 145.359C246.974 145.597 246.855 145.835 246.735 146.074L245.419 147.384C245.18 147.622 245.18 147.98 245.419 148.218L249.247 152.031C249.486 152.269 249.845 152.269 250.084 152.031L251.399 150.72C251.639 150.482 251.878 150.482 252.117 150.601C252.356 150.72 252.476 150.959 252.476 151.197V152.984C252.476 153.341 252.715 153.58 253.074 153.58ZM255.825 147.503C252.595 147.503 249.964 144.882 249.964 141.665C249.964 138.448 252.595 135.827 255.825 135.827C259.054 135.827 261.685 138.448 261.685 141.665C261.685 144.882 259.054 147.503 255.825 147.503Z" fill="#FFFDFE"/>
        <path opacity="0.5" d="M60.8765 67.0794H66.2585C66.6173 67.0794 66.8565 66.8411 66.8565 66.4837V64.6965C66.8565 64.4582 66.9761 64.2199 67.2153 64.1007C67.4545 63.9816 67.6937 64.1007 67.9329 64.2199L69.2485 65.5305C69.4877 65.7688 69.8465 65.7688 70.0857 65.5305L73.9129 61.7178C74.1521 61.4795 74.1521 61.1221 73.9129 60.8838L72.7169 59.5732C72.4777 59.3349 72.4777 59.0966 72.5973 58.8583C72.7169 58.62 72.9561 58.5009 73.1953 58.5009H74.9893C75.3481 58.5009 75.5873 58.2626 75.5873 57.9051V52.5435C75.5873 52.1861 75.3481 51.9478 74.9893 51.9478H73.1953C72.9561 51.9478 72.7169 51.8287 72.5973 51.5904C72.4777 51.3521 72.5973 51.1138 72.7169 50.8755L74.0325 49.5649C74.2717 49.3266 74.2717 48.9691 74.0325 48.7309L70.2053 44.9182C69.9661 44.6799 69.6073 44.6799 69.3681 44.9182L68.0525 46.2288C67.8133 46.4671 67.5741 46.4671 67.3349 46.3479C67.0957 46.2288 66.9761 45.9905 66.9761 45.7522V43.965C66.9761 43.6076 66.7369 43.3693 66.3781 43.3693H60.9961C60.6373 43.3693 60.3981 43.6076 60.3981 43.965V45.7522C60.3981 45.9905 60.2785 46.2288 60.0393 46.3479C59.8001 46.4671 59.5609 46.3479 59.3217 46.2288L58.0061 44.9182C57.7669 44.6799 57.4081 44.6799 57.1689 44.9182L53.3417 48.7309C53.1025 48.9691 53.1025 49.3266 53.3417 49.5649L54.6573 50.8755C54.8965 51.1138 54.8965 51.3521 54.7769 51.5904C54.6573 51.8287 54.4181 51.9478 54.1789 51.9478H52.3849C52.0261 51.9478 51.7869 52.1861 51.7869 52.5435V57.9051C51.7869 58.2626 52.0261 58.5009 52.3849 58.5009H54.1789C54.4181 58.5009 54.6573 58.62 54.7769 58.8583C54.8965 59.0966 54.7769 59.3349 54.6573 59.5732L53.3417 60.8838C53.1025 61.1221 53.1025 61.4795 53.3417 61.7178L57.1689 65.5305C57.4081 65.7688 57.7669 65.7688 58.0061 65.5305L59.3217 64.2199C59.5609 63.9816 59.8001 63.9816 60.0393 64.1007C60.2785 64.2199 60.3981 64.4582 60.3981 64.6965V66.4837C60.2785 66.8411 60.5177 67.0794 60.8765 67.0794ZM63.6273 61.0029C60.3981 61.0029 57.7669 58.3817 57.7669 55.1648C57.7669 51.9478 60.3981 49.3266 63.6273 49.3266C66.8565 49.3266 69.4877 51.9478 69.4877 55.1648C69.4877 58.3817 66.8565 61.0029 63.6273 61.0029Z" fill="#F1EBFF"/>
        <path opacity="0.5" d="M266.708 118.67H269.818C270.057 118.67 270.177 118.551 270.177 118.312V117.24C270.177 117.121 270.296 117.002 270.416 116.883C270.536 116.883 270.655 116.883 270.775 117.002L271.492 117.717C271.612 117.836 271.851 117.836 271.971 117.717L274.123 115.572C274.243 115.453 274.243 115.215 274.123 115.095L273.406 114.381C273.286 114.261 273.286 114.142 273.286 114.023C273.286 113.904 273.525 113.785 273.645 113.785H274.721C274.961 113.785 275.08 113.666 275.08 113.427V110.33C275.08 110.091 274.961 109.972 274.721 109.972H273.645C273.525 109.972 273.406 109.853 273.286 109.734C273.286 109.615 273.286 109.496 273.406 109.376L274.123 108.662C274.243 108.542 274.243 108.304 274.123 108.185L271.971 106.04C271.851 105.921 271.612 105.921 271.492 106.04L270.775 106.755C270.655 106.874 270.536 106.874 270.416 106.874C270.296 106.874 270.177 106.636 270.177 106.517V105.445C270.177 105.206 270.057 105.087 269.818 105.087H266.708C266.469 105.087 266.35 105.206 266.35 105.445V106.517C266.35 106.636 266.23 106.755 266.11 106.874C265.991 106.874 265.871 106.874 265.752 106.755L265.034 106.04C264.914 105.921 264.675 105.921 264.556 106.04L262.403 108.185C262.283 108.304 262.283 108.542 262.403 108.662L263.12 109.376C263.24 109.496 263.24 109.615 263.24 109.734C263.24 109.853 263.001 109.972 262.881 109.972H261.805C261.566 109.972 261.446 110.091 261.446 110.33V113.427C261.446 113.666 261.566 113.785 261.805 113.785H262.881C263.001 113.785 263.12 113.904 263.24 114.023C263.24 114.142 263.24 114.261 263.12 114.381L262.403 115.095C262.283 115.215 262.283 115.453 262.403 115.572L264.556 117.717C264.675 117.836 264.914 117.836 265.034 117.717L265.752 117.002C265.871 116.883 265.991 116.883 266.11 116.883C266.23 116.883 266.35 117.121 266.35 117.24V118.312C266.35 118.432 266.469 118.67 266.708 118.67ZM268.263 115.095C266.35 115.095 264.914 113.547 264.914 111.759C264.914 109.853 266.469 108.423 268.263 108.423C270.177 108.423 271.612 109.972 271.612 111.759C271.612 113.666 270.057 115.095 268.263 115.095Z" fill="#FFFDFE"/>
        <path opacity="0.5" d="M30.7372 152.984V146.073C30.7372 145.597 30.3784 145.239 29.9 145.239H27.6276C27.2688 145.239 27.0296 145.001 26.91 144.763C26.7904 144.405 26.7904 144.048 27.0296 143.929L28.704 142.261C29.0628 141.903 29.0628 141.427 28.704 141.069L23.8004 136.184C23.4416 135.827 22.9632 135.827 22.6044 136.184L20.93 137.852C20.6908 138.091 20.332 138.091 20.0928 137.972C19.734 137.852 19.6144 137.614 19.6144 137.257V134.993C19.6144 134.516 19.2556 134.159 18.7772 134.159H11.96C11.4816 134.159 11.1228 134.516 11.1228 134.993V137.257C11.1228 137.614 10.8836 137.852 10.6444 137.972C10.2856 138.091 9.92681 138.091 9.80721 137.852L8.13281 136.184C7.77401 135.827 7.29561 135.827 6.93681 136.184L2.0332 141.069C1.6744 141.427 1.6744 141.903 2.0332 142.261L3.7076 143.929C3.9468 144.167 3.9468 144.525 3.8272 144.763C3.7076 145.12 3.4684 145.239 3.1096 145.239H0.837201C0.3588 145.239 0 145.597 0 146.073V152.984C0 153.461 0.3588 153.818 0.837201 153.818H3.1096C3.4684 153.818 3.7076 154.056 3.8272 154.295C3.9468 154.652 3.9468 155.009 3.7076 155.129L2.0332 156.797C1.6744 157.154 1.6744 157.631 2.0332 157.988L6.93681 162.873C7.29561 163.231 7.77401 163.231 8.13281 162.873L9.80721 161.205C10.0464 160.967 10.4052 160.967 10.6444 161.086C11.0032 161.205 11.1228 161.443 11.1228 161.801V164.065C11.1228 164.541 11.4816 164.899 11.96 164.899H18.8968C19.3752 164.899 19.734 164.541 19.734 164.065V161.801C19.734 161.443 19.9732 161.205 20.2124 161.086C20.5712 160.967 20.93 160.967 21.0496 161.205L22.724 162.873C23.0828 163.231 23.5612 163.231 23.92 162.873L28.8236 157.988C29.1824 157.631 29.1824 157.154 28.8236 156.797L27.1492 155.129C26.91 154.89 26.91 154.533 27.0296 154.295C27.1492 153.937 27.3884 153.818 27.7472 153.818H29.9C30.3784 153.818 30.7372 153.461 30.7372 152.984ZM22.9632 149.648C22.9632 153.818 19.6144 157.154 15.4284 157.154C11.2424 157.154 7.89361 153.818 7.89361 149.648C7.89361 145.478 11.2424 142.142 15.4284 142.142C19.6144 142.022 22.9632 145.478 22.9632 149.648Z" fill="#FFFDFE"/>
        <path opacity="0.5" d="M252.835 24.0676H258.217C258.575 24.0676 258.815 23.8293 258.815 23.4718V21.6846C258.815 21.4463 258.934 21.2081 259.173 21.0889C259.413 20.9698 259.652 21.0889 259.891 21.208L261.207 22.5187C261.446 22.757 261.805 22.757 262.044 22.5187L265.871 18.706C266.11 18.4677 266.11 18.1102 265.871 17.872L264.555 16.5613C264.316 16.323 264.316 16.0848 264.436 15.8465C264.556 15.6082 264.795 15.489 265.034 15.489H266.828C267.187 15.489 267.426 15.2507 267.426 14.8933V9.41256C267.426 9.05512 267.187 8.81682 266.828 8.81682H265.034C264.795 8.81682 264.556 8.69768 264.436 8.45938C264.316 8.22109 264.436 7.9828 264.555 7.74451L265.871 6.4339C266.11 6.1956 266.11 5.83816 265.871 5.59987L262.044 1.78718C261.805 1.54889 261.446 1.54889 261.207 1.78718L259.891 3.0978C259.652 3.33609 259.413 3.33609 259.173 3.21694C258.934 3.0978 258.815 2.8595 258.815 2.62121V0.834013C258.815 0.476574 258.575 0.238281 258.217 0.238281H252.835C252.476 0.238281 252.237 0.476574 252.237 0.834013V2.62121C252.237 2.8595 252.117 3.0978 251.878 3.21694C251.639 3.33609 251.399 3.21694 251.16 3.0978L249.845 1.78718C249.605 1.54889 249.247 1.54889 249.007 1.78718L245.18 5.59987C244.941 5.83816 244.941 6.1956 245.18 6.4339L246.496 7.74451C246.735 7.9828 246.735 8.22109 246.615 8.45938C246.496 8.69768 246.257 8.81682 246.017 8.81682H244.223C243.865 8.81682 243.625 9.05512 243.625 9.41256V14.7741C243.625 15.1316 243.865 15.3699 244.223 15.3699H246.017C246.257 15.3699 246.496 15.489 246.615 15.7273C246.735 15.9656 246.615 16.2039 246.496 16.4422L245.18 17.7528C244.941 17.9911 244.941 18.3485 245.18 18.5868L249.007 22.3995C249.247 22.6378 249.605 22.6378 249.845 22.3995L251.16 21.0889C251.399 20.8506 251.639 20.8506 251.878 20.9698C252.117 21.0889 252.237 21.3272 252.237 21.5655V23.3527C252.237 23.8293 252.476 24.0676 252.835 24.0676ZM255.585 17.9911C252.356 17.9911 249.725 15.3699 249.725 12.1529C249.725 8.93597 252.356 6.31475 255.585 6.31475C258.815 6.31475 261.446 8.93597 261.446 12.1529C261.446 15.3699 258.815 17.9911 255.585 17.9911Z" fill="#FFFDFE"/>
        <path opacity="0.5" d="M278.07 34.9098H281.18C281.419 34.9098 281.539 34.7907 281.539 34.5524V33.4801C281.539 33.3609 281.658 33.2418 281.778 33.1226C281.898 33.1226 282.017 33.1226 282.137 33.2418L282.854 33.9567C282.974 34.0758 283.213 34.0758 283.333 33.9567L285.486 31.812C285.605 31.6929 285.605 31.4546 285.486 31.3354L284.768 30.6206C284.648 30.5014 284.648 30.3823 284.648 30.2631C284.648 30.144 284.888 30.0248 285.007 30.0248H286.084C286.323 30.0248 286.442 29.9057 286.442 29.6674V26.5696C286.442 26.3313 286.323 26.2122 286.084 26.2122H285.007C284.888 26.2122 284.768 26.093 284.648 25.9739C284.648 25.8547 284.648 25.7356 284.768 25.6164L285.486 24.9015C285.605 24.7824 285.605 24.5441 285.486 24.425L283.333 22.2803C283.213 22.1612 282.974 22.1612 282.854 22.2803L282.137 22.9952C282.017 23.1143 281.898 23.1143 281.778 23.1143C281.658 23.1143 281.539 22.8761 281.539 22.7569V21.6846C281.539 21.4463 281.419 21.3271 281.18 21.3271H278.07C277.831 21.3271 277.712 21.4463 277.712 21.6846V22.7569C277.712 22.8761 277.592 22.9952 277.472 23.1143C277.353 23.1143 277.233 23.1143 277.114 22.9952L276.396 22.2803C276.276 22.1612 276.037 22.1612 275.918 22.2803L273.765 24.425C273.645 24.5441 273.645 24.7824 273.765 24.9015L274.482 25.6164C274.602 25.7356 274.602 25.8547 274.602 25.9739C274.602 26.093 274.363 26.2122 274.243 26.2122H273.167C272.928 26.2122 272.808 26.3313 272.808 26.5696V29.6674C272.808 29.9057 272.928 30.0248 273.167 30.0248H274.243C274.363 30.0248 274.482 30.144 274.602 30.2631C274.602 30.3823 274.602 30.5014 274.482 30.6206L273.765 31.3354C273.645 31.4546 273.645 31.6929 273.765 31.812L275.918 33.9567C276.037 34.0758 276.276 34.0758 276.396 33.9567L277.114 33.2418C277.233 33.1226 277.353 33.1226 277.472 33.1226C277.592 33.1226 277.712 33.3609 277.712 33.4801V34.5524C277.712 34.7907 277.831 34.9098 278.07 34.9098ZM279.625 31.4546C277.712 31.4546 276.276 29.9057 276.276 28.1185C276.276 26.2122 277.831 24.7824 279.625 24.7824C281.539 24.7824 282.974 26.3313 282.974 28.1185C282.974 29.9057 281.419 31.4546 279.625 31.4546Z" fill="#FFFDFE"/>
        <path opacity="0.5" d="M84.0789 48.7309H87.1885C87.4277 48.7309 87.5473 48.6117 87.5473 48.3735V47.3011C87.5473 47.182 87.6669 47.0628 87.7865 46.9437C87.9061 46.9437 88.0257 46.9437 88.1453 47.0628L88.8629 47.7777C88.9825 47.8969 89.2217 47.8969 89.3413 47.7777L91.4941 45.6331C91.6137 45.5139 91.6137 45.2757 91.4941 45.1565L90.8961 44.3225C90.7765 44.2033 90.7765 44.0842 90.7765 43.965C90.7765 43.8459 91.0157 43.7267 91.1353 43.7267H92.0921C92.3313 43.7267 92.4509 43.6076 92.4509 43.3693V40.2715C92.4509 40.0332 92.3313 39.9141 92.0921 39.9141H91.0157C90.8961 39.9141 90.7765 39.7949 90.6569 39.6758C90.6569 39.5566 90.6569 39.4375 90.7765 39.3183L91.4941 38.6034C91.6137 38.4843 91.6137 38.246 91.4941 38.1269L89.3413 35.9822C89.2217 35.8631 88.9825 35.8631 88.8629 35.9822L88.1453 36.6971C88.0257 36.8162 87.9061 36.8162 87.7865 36.8162C87.6669 36.8162 87.5473 36.578 87.5473 36.4588V35.3865C87.5473 35.1482 87.4277 35.0291 87.1885 35.0291H84.0789C83.8397 35.0291 83.7201 35.1482 83.7201 35.3865V36.4588C83.7201 36.578 83.6005 36.6971 83.4809 36.8162C83.3613 36.8162 83.2417 36.8162 83.1221 36.6971L82.4045 35.9822C82.2849 35.8631 82.0457 35.8631 81.9261 35.9822L79.7733 38.1269C79.6537 38.246 79.6537 38.4843 79.7733 38.6034L80.4909 39.3183C80.6105 39.4375 80.6105 39.5566 80.6105 39.6758C80.6105 39.7949 80.3713 39.9141 80.2517 39.9141H79.1753C78.9361 39.9141 78.8165 40.0332 78.8165 40.2715V43.3693C78.8165 43.6076 78.9361 43.7267 79.1753 43.7267H80.2517C80.3713 43.7267 80.4909 43.8459 80.6105 43.965C80.6105 44.0842 80.6105 44.2033 80.4909 44.3225L79.7733 45.0374C79.6537 45.1565 79.6537 45.3948 79.7733 45.5139L81.9261 47.6586C82.0457 47.7777 82.2849 47.7777 82.4045 47.6586L83.1221 46.9437C83.2417 46.8246 83.3613 46.8246 83.4809 46.8246C83.6005 46.8246 83.7201 47.0628 83.7201 47.182V48.2543C83.7201 48.6118 83.8397 48.7309 84.0789 48.7309ZM85.6337 45.2757C83.7201 45.2757 82.2849 43.7267 82.2849 41.9395C82.2849 40.0332 83.8397 38.6034 85.6337 38.6034C87.5473 38.6034 88.9825 40.1524 88.9825 41.9395C88.9825 43.7267 87.4277 45.2757 85.6337 45.2757Z" fill="#F1EBFF"/>
    </g>
    <path opacity="0.13" d="M245.659 197.664H109.075C104.172 197.664 100.225 193.732 100.225 188.847V8.81684C100.225 3.93183 104.172 0 109.075 0H245.778C250.682 0 254.629 3.93183 254.629 8.81684V188.966C254.509 193.732 250.562 197.664 245.659 197.664Z" fill="#D6BDF1"/>
    <path d="M240.994 197.664H104.411C99.5073 197.664 95.5605 193.732 95.5605 188.847V8.81684C95.5605 3.93183 99.5073 0 104.411 0H241.114C246.017 0 249.964 3.93183 249.964 8.81684V188.966C249.845 193.732 245.898 197.664 240.994 197.664Z" fill="url(#paint0_linear)"/>
    <path d="M240.994 185.392H104.411C102.139 185.392 100.225 183.486 100.225 181.222V16.4422C100.225 14.1784 102.139 12.2721 104.411 12.2721H240.875C243.147 12.2721 245.061 14.1784 245.061 16.4422V181.222C245.18 183.486 243.267 185.392 240.994 185.392Z" fill="#FFFDFE"/>
    <path opacity="0.4" d="M235.253 174.788H179.998C177.487 174.788 175.334 172.762 175.334 170.141V26.5696C175.334 24.0675 177.367 21.9229 179.998 21.9229H235.253C237.765 21.9229 239.918 23.9483 239.918 26.5696V170.141C239.918 172.643 237.885 174.788 235.253 174.788Z" fill="#F1EBFF"/>
    <path d="M184.304 47.4202V33.5992C184.304 32.646 185.021 31.9312 185.978 31.9312C189.327 31.9312 196.503 31.9312 199.852 31.9312C200.809 31.9312 201.526 32.646 201.526 33.5992V47.4202C201.526 48.3734 200.809 49.0882 199.852 49.0882C196.503 49.0882 189.327 49.0882 185.978 49.0882C185.141 49.0882 184.304 48.3734 184.304 47.4202Z" fill="#F1EBFF"/>
    <path d="M230.589 35.6247H204.995C204.755 35.6247 204.516 35.3864 204.516 35.1481C204.516 34.9098 204.755 34.6715 204.995 34.6715H230.589C230.828 34.6715 231.067 34.9098 231.067 35.1481C230.948 35.3864 230.828 35.6247 230.589 35.6247ZM230.948 37.7693C230.948 37.531 230.709 37.2927 230.469 37.2927H204.875C204.636 37.2927 204.397 37.531 204.397 37.7693C204.397 38.0076 204.636 38.2459 204.875 38.2459H230.469C230.828 38.2459 230.948 38.1268 230.948 37.7693ZM230.948 40.5097C230.948 40.2714 230.709 40.0331 230.469 40.0331H204.875C204.636 40.0331 204.397 40.2714 204.397 40.5097C204.397 40.748 204.636 40.9863 204.875 40.9863H230.469C230.828 40.9863 230.948 40.748 230.948 40.5097ZM230.948 43.2501C230.948 43.0118 230.709 42.7735 230.469 42.7735H204.875C204.636 42.7735 204.397 43.0118 204.397 43.2501C204.397 43.4883 204.636 43.7266 204.875 43.7266H230.469C230.828 43.7266 230.948 43.4883 230.948 43.2501ZM230.948 45.8713C230.948 45.633 230.709 45.3947 230.469 45.3947H204.875C204.636 45.3947 204.397 45.633 204.397 45.8713C204.397 46.1096 204.636 46.3479 204.875 46.3479H230.469C230.828 46.3479 230.948 46.1096 230.948 45.8713Z" fill="#F1EBFF"/>
    <path d="M184.304 70.892V57.071C184.304 56.1178 185.021 55.403 185.978 55.403C189.327 55.403 196.503 55.403 199.852 55.403C200.809 55.403 201.526 56.1178 201.526 57.071V70.892C201.526 71.8452 200.809 72.56 199.852 72.56C196.503 72.56 189.327 72.56 185.978 72.56C185.141 72.56 184.304 71.8452 184.304 70.892Z" fill="#F1EBFF"/>
    <path d="M230.589 58.9773H204.995C204.755 58.9773 204.516 58.739 204.516 58.5008C204.516 58.2625 204.755 58.0242 204.995 58.0242H230.589C230.828 58.0242 231.067 58.2625 231.067 58.5008C230.948 58.8582 230.828 58.9773 230.589 58.9773ZM230.948 61.2411C230.948 61.0028 230.709 60.7645 230.469 60.7645H204.875C204.636 60.7645 204.397 61.0028 204.397 61.2411C204.397 61.4794 204.636 61.7177 204.875 61.7177H230.469C230.828 61.7177 230.948 61.4794 230.948 61.2411ZM230.948 63.9815C230.948 63.7432 230.709 63.5049 230.469 63.5049H204.875C204.636 63.5049 204.397 63.7432 204.397 63.9815C204.397 64.2198 204.636 64.4581 204.875 64.4581H230.469C230.828 64.4581 230.948 64.2198 230.948 63.9815ZM230.948 66.6027C230.948 66.3644 230.709 66.1261 230.469 66.1261H204.875C204.636 66.1261 204.397 66.3644 204.397 66.6027C204.397 66.841 204.636 67.0793 204.875 67.0793H230.469C230.828 67.0793 230.948 66.9602 230.948 66.6027ZM230.948 69.3431C230.948 69.1048 230.709 68.8665 230.469 68.8665H204.875C204.636 68.8665 204.397 69.1048 204.397 69.3431C204.397 69.5814 204.636 69.8197 204.875 69.8197H230.469C230.828 69.8197 230.948 69.5814 230.948 69.3431Z" fill="#F1EBFF"/>
    <path d="M184.304 94.0065V80.0664C184.304 79.1132 185.021 78.3983 185.978 78.3983C189.327 78.3983 196.503 78.3983 199.852 78.3983C200.809 78.3983 201.526 79.1132 201.526 80.0664V93.8874C201.526 94.8405 200.809 95.5554 199.852 95.5554C196.503 95.5554 189.327 95.5554 185.978 95.5554C185.141 95.6745 184.304 94.8405 184.304 94.0065Z" fill="#F1EBFF"/>
    <path d="M230.589 82.0918H204.995C204.755 82.0918 204.516 81.8536 204.516 81.6153C204.516 81.377 204.755 81.1387 204.995 81.1387H230.589C230.828 81.1387 231.067 81.377 231.067 81.6153C230.948 81.8536 230.828 82.0918 230.589 82.0918ZM230.948 84.3556C230.948 84.1173 230.709 83.879 230.469 83.879H204.875C204.636 83.879 204.397 84.1173 204.397 84.3556C204.397 84.5939 204.636 84.8322 204.875 84.8322H230.469C230.828 84.8322 230.948 84.5939 230.948 84.3556ZM230.948 86.9768C230.948 86.7386 230.709 86.5003 230.469 86.5003H204.875C204.636 86.5003 204.397 86.7386 204.397 86.9768C204.397 87.2151 204.636 87.4534 204.875 87.4534H230.469C230.828 87.4534 230.948 87.3343 230.948 86.9768ZM230.948 89.7172C230.948 89.4789 230.709 89.2406 230.469 89.2406H204.875C204.636 89.2406 204.397 89.4789 204.397 89.7172C204.397 89.9555 204.636 90.1938 204.875 90.1938H230.469C230.828 90.1938 230.948 89.9555 230.948 89.7172ZM230.948 92.4576C230.948 92.2193 230.709 91.981 230.469 91.981H204.875C204.636 91.981 204.397 92.2193 204.397 92.4576C204.397 92.6959 204.636 92.9342 204.875 92.9342H230.469C230.828 92.815 230.948 92.6959 230.948 92.4576Z" fill="#F1EBFF"/>
    <path d="M184.304 117.002V103.181C184.304 102.228 185.021 101.513 185.978 101.513C189.327 101.513 196.503 101.513 199.852 101.513C200.809 101.513 201.526 102.228 201.526 103.181V117.002C201.526 117.955 200.809 118.67 199.852 118.67C196.503 118.67 189.327 118.67 185.978 118.67C185.141 118.67 184.304 117.955 184.304 117.002Z" fill="#F1EBFF"/>
    <path d="M230.589 105.206H204.995C204.755 105.206 204.516 104.968 204.516 104.73C204.516 104.491 204.755 104.253 204.995 104.253H230.589C230.828 104.253 231.067 104.491 231.067 104.73C230.948 104.968 230.828 105.206 230.589 105.206ZM230.948 107.47C230.948 107.232 230.709 106.993 230.469 106.993H204.875C204.636 106.993 204.397 107.232 204.397 107.47C204.397 107.708 204.636 107.947 204.875 107.947H230.469C230.828 107.827 230.948 107.708 230.948 107.47ZM230.948 110.091C230.948 109.853 230.709 109.615 230.469 109.615H204.875C204.636 109.615 204.397 109.853 204.397 110.091C204.397 110.33 204.636 110.568 204.875 110.568H230.469C230.828 110.568 230.948 110.33 230.948 110.091ZM230.948 112.832C230.948 112.593 230.709 112.355 230.469 112.355H204.875C204.636 112.355 204.397 112.593 204.397 112.832C204.397 113.07 204.636 113.308 204.875 113.308H230.469C230.828 113.308 230.948 113.07 230.948 112.832ZM230.948 115.453C230.948 115.215 230.709 114.976 230.469 114.976H204.875C204.636 114.976 204.397 115.215 204.397 115.453C204.397 115.691 204.636 115.929 204.875 115.929H230.469C230.828 115.929 230.948 115.691 230.948 115.453Z" fill="#F1EBFF"/>
    <path d="M184.304 140.116V126.295C184.304 125.342 185.021 124.627 185.978 124.627C189.327 124.627 196.503 124.627 199.852 124.627C200.809 124.627 201.526 125.342 201.526 126.295V140.116C201.526 141.069 200.809 141.784 199.852 141.784C196.503 141.784 189.327 141.784 185.978 141.784C185.141 141.784 184.304 141.069 184.304 140.116Z" fill="#F1EBFF"/>
    <path d="M230.589 128.201H204.995C204.755 128.201 204.516 127.963 204.516 127.725C204.516 127.487 204.755 127.248 204.995 127.248H230.589C230.828 127.248 231.067 127.487 231.067 127.725C230.948 128.082 230.828 128.201 230.589 128.201ZM230.948 130.465C230.948 130.227 230.709 129.989 230.469 129.989H204.875C204.636 129.989 204.397 130.227 204.397 130.465C204.397 130.704 204.636 130.942 204.875 130.942H230.469C230.828 130.942 230.948 130.704 230.948 130.465ZM230.948 133.206C230.948 132.967 230.709 132.729 230.469 132.729H204.875C204.636 132.729 204.397 132.967 204.397 133.206C204.397 133.444 204.636 133.682 204.875 133.682H230.469C230.828 133.682 230.948 133.444 230.948 133.206ZM230.948 135.827C230.948 135.589 230.709 135.35 230.469 135.35H204.875C204.636 135.35 204.397 135.589 204.397 135.827C204.397 136.065 204.636 136.303 204.875 136.303H230.469C230.828 136.303 230.948 136.065 230.948 135.827ZM230.948 138.567C230.948 138.329 230.709 138.091 230.469 138.091H204.875C204.636 138.091 204.397 138.329 204.397 138.567C204.397 138.805 204.636 139.044 204.875 139.044H230.469C230.828 139.044 230.948 138.805 230.948 138.567Z" fill="#F1EBFF"/>
    <path d="M184.304 163.111V149.29C184.304 148.337 185.021 147.622 185.978 147.622C189.327 147.622 196.503 147.622 199.852 147.622C200.809 147.622 201.526 148.337 201.526 149.29V163.111C201.526 164.065 200.809 164.779 199.852 164.779C196.503 164.779 189.327 164.779 185.978 164.779C185.141 164.899 184.304 164.065 184.304 163.111Z" fill="#F1EBFF"/>
    <path d="M230.589 151.316H204.995C204.755 151.316 204.516 151.078 204.516 150.839C204.516 150.601 204.755 150.363 204.995 150.363H230.589C230.828 150.363 231.067 150.601 231.067 150.839C230.948 151.078 230.828 151.316 230.589 151.316ZM230.948 153.58C230.948 153.341 230.709 153.103 230.469 153.103H204.875C204.636 153.103 204.397 153.341 204.397 153.58C204.397 153.818 204.636 154.056 204.875 154.056H230.469C230.828 154.056 230.948 153.818 230.948 153.58ZM230.948 156.201C230.948 155.963 230.709 155.724 230.469 155.724H204.875C204.636 155.724 204.397 155.963 204.397 156.201C204.397 156.439 204.636 156.677 204.875 156.677H230.469C230.828 156.677 230.948 156.558 230.948 156.201ZM230.948 158.941C230.948 158.703 230.709 158.465 230.469 158.465H204.875C204.636 158.465 204.397 158.703 204.397 158.941C204.397 159.18 204.636 159.418 204.875 159.418H230.469C230.828 159.418 230.948 159.18 230.948 158.941ZM230.948 161.682C230.948 161.443 230.709 161.205 230.469 161.205H204.875C204.636 161.205 204.397 161.443 204.397 161.682C204.397 161.92 204.636 162.158 204.875 162.158H230.469C230.828 162.039 230.948 161.92 230.948 161.682Z" fill="#F1EBFF"/>
    <path opacity="0.4" d="M162.656 79.2323H111.348C108.358 79.2323 105.846 76.7303 105.846 73.7516V26.5696C105.846 23.5909 108.358 21.0889 111.348 21.0889H162.656C165.646 21.0889 168.158 23.5909 168.158 26.5696V73.7516C168.158 76.8494 165.766 79.2323 162.656 79.2323Z" fill="#F1EBFF"/>
    <path d="M126.537 45.1565V79.3515H111.228C108.238 79.3515 105.846 76.9686 105.846 73.9899V45.1565H126.537Z" fill="#F1EBFF"/>
    <path d="M114.697 176.575C119.783 176.575 123.906 172.467 123.906 167.401C123.906 162.334 119.783 158.226 114.697 158.226C109.61 158.226 105.487 162.334 105.487 167.401C105.487 172.467 109.61 176.575 114.697 176.575Z" fill="#F1EBFF"/>
    <path d="M169.952 159.537H129.527C129.168 159.537 128.809 159.18 128.809 158.822C128.809 158.465 129.168 158.107 129.527 158.107H169.952C170.311 158.107 170.669 158.465 170.669 158.822C170.669 159.18 170.311 159.537 169.952 159.537ZM170.669 163.111C170.669 162.754 170.311 162.396 169.952 162.396H129.527C129.168 162.396 128.809 162.754 128.809 163.111C128.809 163.469 129.168 163.826 129.527 163.826H169.952C170.311 163.826 170.669 163.469 170.669 163.111ZM170.669 167.401C170.669 167.043 170.311 166.686 169.952 166.686H129.527C129.168 166.686 128.809 167.043 128.809 167.401C128.809 167.758 129.168 168.115 129.527 168.115H169.952C170.311 167.996 170.669 167.758 170.669 167.401ZM170.669 171.571C170.669 171.213 170.311 170.856 169.952 170.856H129.527C129.168 170.856 128.809 171.213 128.809 171.571C128.809 171.928 129.168 172.286 129.527 172.286H169.952C170.311 172.286 170.669 171.928 170.669 171.571ZM170.669 175.86C170.669 175.503 170.311 175.145 169.952 175.145H129.527C129.168 175.145 128.809 175.503 128.809 175.86C128.809 176.217 129.168 176.575 129.527 176.575H169.952C170.311 176.575 170.669 176.217 170.669 175.86Z" fill="#F1EBFF"/>
    <path opacity="0.4" d="M162.656 149.767H111.348C108.358 149.767 105.846 147.265 105.846 144.286V97.1043C105.846 94.1256 108.358 91.6235 111.348 91.6235H162.656C165.646 91.6235 168.158 94.1256 168.158 97.1043V144.286C168.158 147.265 165.766 149.767 162.656 149.767Z" fill="#F1EBFF"/>
    <path d="M99.8661 139.044L120.437 114.619C122.351 112.355 125.7 112.355 127.733 114.38L163.733 152.269H99.2681L99.8661 139.044Z" fill="#F1EBFF"/>
    <path d="M156.078 121.887L193.154 152.388H119.6L149.5 122.244C151.294 120.338 154.045 120.219 156.078 121.887Z" fill="#F1EBFF"/>
    <path d="M146.869 109.972C146.869 113.189 144.238 115.691 141.128 115.691C137.899 115.691 135.387 113.07 135.387 109.972C135.387 106.755 138.019 104.253 141.128 104.253C144.357 104.253 146.869 106.874 146.869 109.972Z" fill="#F1EBFF"/>
    <path opacity="0.31" d="M92.9293 140.831H40.1856C37.9132 140.831 35.9996 138.925 35.9996 136.661V108.542C35.9996 106.279 37.9132 104.372 40.1856 104.372H92.9293C95.2017 104.372 97.1153 106.279 97.1153 108.542V136.661C97.1153 138.925 95.2017 140.831 92.9293 140.831Z" fill="#D6BDF1"/>
    <path d="M89.9393 138.925H37.1956C34.9232 138.925 33.0096 137.018 33.0096 134.755V106.636C33.0096 104.372 34.9232 102.466 37.1956 102.466H89.9393C92.2117 102.466 94.1253 104.372 94.1253 106.636V134.635C94.1253 137.018 92.2117 138.925 89.9393 138.925Z" fill="#D0FFFC"/>
    <g opacity="0.52">
        <path opacity="0.52" d="M37.076 128.559V112.712C37.076 111.64 37.9132 110.806 38.9897 110.806C42.6973 110.806 51.0693 110.806 54.7769 110.806C55.8533 110.806 56.6905 111.64 56.6905 112.712V128.44C56.6905 129.512 55.8533 130.346 54.7769 130.346C51.0693 130.346 42.6973 130.346 38.9897 130.346C37.9132 130.465 37.076 129.631 37.076 128.559Z" fill="#28C9BF"/>
        <path opacity="0.52" d="M89.5805 114.976H60.3981C60.1589 114.976 59.9197 114.738 59.9197 114.5C59.9197 114.261 60.1589 114.023 60.3981 114.023H89.5805C89.8197 114.023 90.0589 114.261 90.0589 114.5C90.0589 114.738 89.9393 114.976 89.5805 114.976ZM90.1785 117.597C90.1785 117.359 89.9393 117.121 89.7001 117.121H60.3981C60.1589 117.121 59.9197 117.359 59.9197 117.597C59.9197 117.836 60.1589 118.074 60.3981 118.074H89.5805C89.9393 118.074 90.1785 117.836 90.1785 117.597ZM90.1785 120.695C90.1785 120.457 89.9393 120.219 89.7001 120.219H60.3981C60.1589 120.219 59.9197 120.457 59.9197 120.695C59.9197 120.934 60.1589 121.172 60.3981 121.172H89.5805C89.9393 121.172 90.1785 120.934 90.1785 120.695ZM90.1785 123.674C90.1785 123.436 89.9393 123.197 89.7001 123.197H60.3981C60.1589 123.197 59.9197 123.436 59.9197 123.674C59.9197 123.912 60.1589 124.151 60.3981 124.151H89.5805C89.9393 124.27 90.1785 124.031 90.1785 123.674ZM90.1785 126.772C90.1785 126.533 89.9393 126.295 89.7001 126.295H60.3981C60.1589 126.295 59.9197 126.533 59.9197 126.772C59.9197 127.01 60.1589 127.248 60.3981 127.248H89.5805C89.9393 127.248 90.1785 127.01 90.1785 126.772Z" fill="#28C9BF"/>
    </g>
    <path d="M255.586 195.638H234.775L243.984 167.162C244.343 165.971 246.018 165.971 246.376 167.162L255.586 195.638Z" fill="#FFC504"/>
    <path d="M257.499 197.664H232.622C232.024 197.664 231.665 197.187 231.665 196.711C231.665 196.115 232.144 195.758 232.622 195.758H257.499C258.097 195.758 258.456 196.234 258.456 196.711C258.576 197.187 258.097 197.664 257.499 197.664Z" fill="#FFFDFE"/>
    <path d="M255.586 195.638H234.775L243.984 167.162C244.343 165.971 246.018 165.971 246.376 167.162L255.586 195.638Z" fill="url(#paint1_linear)"/>
    <path d="M256.183 190.515H234.894V185.034H256.183V190.515ZM256.183 174.549H234.894V180.03H256.183V174.549Z" fill="#FFFDFE"/>
    <path d="M58.4844 195.638H37.674L46.8832 167.162C47.242 165.971 48.9164 165.971 49.2752 167.162L58.4844 195.638Z" fill="#FFC504"/>
    <path d="M60.5176 197.664H35.6408C35.0428 197.664 34.684 197.187 34.684 196.711C34.684 196.115 35.1624 195.758 35.6408 195.758H60.5176C61.1156 195.758 61.4745 196.234 61.4745 196.711C61.4745 197.187 61.1156 197.664 60.5176 197.664Z" fill="#FFFDFE"/>
    <path d="M58.4844 195.638H37.674L46.8832 167.162C47.242 165.971 48.9164 165.971 49.2752 167.162L58.4844 195.638Z" fill="url(#paint2_linear)"/>
    <path d="M59.2012 190.515H37.9124V185.034H59.2012V190.515ZM59.2012 174.549H37.9124V180.03H59.2012V174.549Z" fill="#FFFDFE"/>
    <path d="M311.05 188.914V187.126H262.014V188.914H311.05Z" fill="#423BAA"/>
    <path d="M262.044 197.664C261.207 197.664 260.609 197.068 260.609 196.234V152.984C260.609 152.15 261.207 151.554 262.044 151.554C262.881 151.554 263.479 152.15 263.479 152.984V196.234C263.479 197.068 262.762 197.664 262.044 197.664Z" fill="#423BAA"/>
    <path d="M263.958 197.664H260.011C259.532 197.664 259.054 197.306 259.054 196.711C259.054 196.234 259.413 195.758 260.011 195.758H263.958C264.436 195.758 264.914 196.115 264.914 196.711C264.914 197.306 264.436 197.664 263.958 197.664Z" fill="#423BAA"/>
    <path d="M310.96 197.664C310.123 197.664 309.525 197.068 309.525 196.234V152.984C309.525 152.15 310.123 151.554 310.96 151.554C311.798 151.554 312.396 152.15 312.396 152.984V196.234C312.396 197.068 311.678 197.664 310.96 197.664Z" fill="#423BAA"/>
    <path d="M312.874 197.664H308.927C308.449 197.664 307.97 197.306 307.97 196.711C307.97 196.234 308.329 195.758 308.927 195.758H312.874C313.352 195.758 313.831 196.115 313.831 196.711C313.831 197.306 313.352 197.664 312.874 197.664Z" fill="#423BAA"/>
    <path d="M316.342 171.69H255.825V154.533H316.342V171.69ZM316.342 173.716H255.825V181.579H316.342V173.716Z" fill="#7357E5"/>
    <path d="M248.409 194.566H239.559L269.818 133.087H278.668L248.409 194.566ZM292.662 133.087H283.811L253.552 194.566H262.403L292.662 133.087ZM306.655 133.087H297.804L267.546 194.566H276.396L306.655 133.087ZM320.648 133.087H311.798L281.539 194.566H290.389L320.648 133.087ZM334.641 133.087H325.791L295.532 194.566H304.382L334.641 133.087Z" fill="url(#paint3_linear)"/>
    <path d="M248.409 194.566H239.559L269.818 133.087H278.668L248.409 194.566ZM292.662 133.087H283.811L253.552 194.566H262.403L292.662 133.087ZM306.655 133.087H297.804L267.546 194.566H276.396L306.655 133.087ZM320.648 133.087H311.798L281.539 194.566H290.389L320.648 133.087ZM334.641 133.087H325.791L295.532 194.566H304.382L334.641 133.087Z" fill="url(#paint4_linear)"/>
    <path d="M194.35 155.963C193.393 157.154 192.556 157.512 192.317 158.465C192.078 159.537 194.111 160.848 194.829 159.299C196.623 155.367 197.221 156.678 197.221 156.678L194.35 155.963Z" fill="#FFC9C5"/>
    <path d="M204.397 152.746C201.885 146.788 198.775 140.354 197.579 139.759C199.134 143.929 201.765 148.218 201.765 148.218L195.546 159.18L193.752 156.439L198.417 146.55C198.417 146.55 191.001 135.827 195.068 131.657C195.068 131.657 196.025 130.704 196.623 130.346C199.613 128.202 202.603 128.321 202.603 128.321C202.603 128.321 211.931 128.797 218.151 146.312C212.888 150.244 210.496 150.482 204.397 152.746Z" fill="#7357E5"/>
    <path d="M198.536 128.321C199.134 129.87 200.45 131.538 200.45 132.491C200.33 133.563 198.656 134.278 198.297 133.921C197.221 132.967 196.264 130.942 196.383 130.823C196.503 130.584 198.536 128.321 198.536 128.321Z" fill="#FFC9C5"/>
    <path d="M190.523 127.129C192.437 129.989 197.101 133.563 198.775 129.631C200.45 125.7 198.656 122.125 198.656 122.125C198.656 122.125 185.859 113.904 190.523 127.129Z" fill="#FFC9C5"/>
    <path d="M196.981 127.368C196.742 125.819 198.536 124.389 198.775 125.819C199.134 127.487 198.417 127.487 198.536 128.082C198.656 128.916 198.895 129.036 198.895 129.274C202.483 126.653 199.852 118.908 196.144 117.955C194.35 117.121 191.958 116.287 189.327 119.266C187.055 121.887 188.609 123.912 189.088 127.606C194.231 126.891 193.872 124.627 195.427 124.627C196.383 124.627 196.742 127.606 196.981 127.368Z" fill="#391D77"/>
    <path d="M201.407 148.814C195.905 143.095 194.829 131.657 194.829 131.657L195.905 130.942C195.905 130.942 198.536 139.401 199.254 139.64C200.689 140.235 202.363 138.448 202.363 138.448C201.287 135.469 200.689 132.253 200.45 128.678L201.765 128.202C204.038 138.806 207.745 138.925 211.931 145.12L216.596 141.188C216.596 141.188 218.868 142.857 219.705 150.244C220.662 159.775 222.217 168.83 222.217 168.83L229.991 191.587L225.446 192.541L215.759 170.975L210.616 155.844L208.822 171.571L209.659 193.255H204.755L201.765 171.333C201.765 171.333 202.961 162.277 203.32 152.507C202.005 147.98 202.722 150.244 201.407 148.814Z" fill="url(#paint5_linear)"/>
    <path d="M225.446 192.541C225.446 192.541 217.911 196.592 218.27 197.545C218.749 198.498 231.307 195.4 231.665 194.685C232.024 193.97 229.991 191.707 229.991 191.707L225.446 192.541Z" fill="#391D77"/>
    <path d="M209.659 193.255H204.755C204.755 193.255 197.221 196.234 197.579 197.068C197.938 197.902 210.018 197.187 210.377 196.353C210.855 195.519 209.659 193.255 209.659 193.255Z" fill="#391D77"/>
    <path d="M200.569 123.197C193.513 124.865 188.37 126.176 188.37 126.176C187.772 126.295 186.815 118.908 191.958 117.478C199.254 115.334 200.569 123.197 200.569 123.197Z" fill="#FFAE02"/>
    <path d="M187.892 124.985C183.347 130.823 193.752 125.7 194.589 124.627L187.892 124.985Z" fill="#FFAE02"/>
    <path d="M202.124 187.656H189.207L186.457 170.499H204.755L202.124 187.656Z" fill="url(#paint6_linear)"/>
    <path d="M204.755 170.975C204.636 170.975 204.397 170.856 204.397 170.737C204.397 170.618 199.852 159.894 195.427 159.894C191.001 159.894 186.935 170.618 186.935 170.737C186.815 170.975 186.576 171.094 186.337 170.975C186.098 170.856 185.978 170.618 186.098 170.379C186.217 169.903 190.403 158.941 195.427 158.941C200.45 158.941 204.995 169.903 205.234 170.379C205.353 170.618 205.234 170.856 204.995 170.975C204.875 170.975 204.875 170.975 204.755 170.975Z" fill="#B598FC"/>
    <path d="M197.101 156.678C196.144 157.869 194.589 158.227 194.35 159.299C194.111 160.371 195.307 162.516 197.221 160.49C200.091 157.273 198.536 158.822 198.536 158.822L197.101 156.678Z" fill="#FFC9C5"/>
    <path d="M202.722 128.44C213.486 129.036 209.779 147.622 208.583 149.529C207.387 151.435 197.699 160.014 197.699 160.014L196.144 157.512C196.144 157.512 202.363 149.529 203.559 147.384C204.516 145.597 204.397 134.278 204.397 134.278L202.722 128.44Z" fill="#7357E5"/>
    <path d="M77.1421 197.664H64.2253L61.4745 180.507H79.8929L77.1421 197.664Z" fill="url(#paint7_linear)"/>
    <path d="M63.0293 190.515C62.0725 190.515 61.2353 190.158 60.7569 189.443C58.9629 186.941 60.9961 180.745 61.1157 180.388C61.2353 180.149 61.4745 180.03 61.7137 180.149C61.9529 180.269 62.0725 180.507 61.9529 180.745C61.3549 182.413 60.1589 187.179 61.4745 188.966C61.8333 189.443 62.3117 189.681 63.0293 189.681C67.5741 189.681 79.4145 180.388 79.5341 180.269C79.7733 180.149 80.0125 180.149 80.1321 180.388C80.2517 180.626 80.2517 180.864 80.0125 180.983C79.6537 181.341 67.9329 190.515 63.0293 190.515Z" fill="#B598FC"/>
    <path d="M67.6937 197.664C67.5741 197.664 67.4545 197.664 67.4545 197.664C66.8565 197.545 66.4977 196.83 66.6173 196.234L98.6701 67.3177C98.7897 66.7219 99.5073 66.3645 100.105 66.4836C100.703 66.6028 101.062 67.3177 100.943 67.9134L68.8897 196.83C68.6505 197.306 68.1721 197.664 67.6937 197.664Z" fill="#423BAA"/>
    <path d="M93.2881 197.664C93.1685 197.664 93.0489 197.664 93.0489 197.664C92.4509 197.545 92.0921 196.83 92.2117 196.234L124.384 67.3177C124.504 66.7219 125.221 66.3645 125.819 66.4836C126.417 66.6028 126.776 67.3177 126.657 67.9134L94.4841 196.83C94.3645 197.306 93.8861 197.664 93.2881 197.664Z" fill="#423BAA"/>
    <path d="M98.4309 175.503H72.9561V173.12L98.4309 173.239V175.503ZM102.497 159.18L77.0225 159.06V156.677L102.497 156.797V159.18ZM106.564 142.737L81.0889 142.618V140.235L106.564 140.354V142.737ZM110.63 126.295L85.1553 126.176V123.793L110.63 123.912V126.295ZM114.697 109.853L89.2217 109.734V107.351L114.697 107.47V109.853ZM118.763 93.4107L93.2881 93.2916V90.9086L118.763 91.0278V93.4107ZM122.949 77.0876L97.4741 76.9685V74.5856L122.949 74.7047V77.0876Z" fill="#423BAA"/>
    <path d="M106.564 83.5216C108.119 82.9259 108.956 81.2579 110.63 81.4961C111.587 81.6153 111.109 84.2365 109.793 85.6663C109.434 86.0237 106.923 86.7386 106.923 86.7386L106.564 83.5216Z" fill="#FFC9C5"/>
    <path d="M107.76 82.6876C107.76 82.6876 102.139 85.1896 99.029 85.1896C96.9958 85.1896 94.9626 74.109 90.5374 74.109C90.059 76.8494 90.7766 79.2323 90.059 81.8535C91.7334 86.0236 94.245 90.6704 96.5174 91.2661C99.029 91.981 107.76 86.7385 107.76 86.7385V82.6876Z" fill="#7357E5"/>
    <path d="M94.7233 88.4066C93.8861 88.6449 92.8097 88.0492 93.1685 87.096C94.4841 82.9259 93.5273 76.492 91.3745 74.5856C88.9825 72.6793 85.3945 73.0367 82.6437 73.7516C79.2949 77.0877 82.0457 88.0492 81.8065 100.083C88.8629 99.6064 88.8629 101.87 95.4409 99.6064C94.2449 95.9129 94.3645 91.6236 94.7233 88.4066Z" fill="#7357E5"/>
    <path d="M84.7965 153.818C84.7965 153.818 93.6469 156.201 93.4077 157.273C93.1685 158.346 79.2949 158.226 78.8165 157.512C78.3381 156.797 79.8929 153.937 79.8929 153.937L84.7965 153.818Z" fill="#391D77"/>
    <path d="M94.3646 136.423L98.9094 137.376C98.9094 137.376 105.129 139.52 104.77 140.354C104.411 141.188 94.2449 140.95 93.8861 140.116C93.4077 139.401 94.3646 136.423 94.3646 136.423Z" fill="#391D77"/>
    <path d="M86.5905 70.4155C86.5905 71.9644 86.4709 72.2027 86.2317 73.1559C87.1885 74.4665 88.9825 75.7771 89.5805 75.658C90.1785 75.5388 89.4609 74.4665 89.4609 74.3474C89.4609 72.9176 89.7001 72.3219 90.0589 70.8921" fill="#FFC9C5"/>
    <path d="M95.5605 95.4363C94.9625 89.2407 94.3645 82.6876 93.6469 80.0664C92.6901 76.492 90.5373 74.1091 90.1785 73.7516C90.1785 73.7516 89.9393 73.5133 89.4609 73.3942C89.7001 73.3942 92.6901 80.9004 92.4509 80.9004C91.6137 81.0196 90.8961 81.0196 90.0589 81.0196C90.0589 80.9004 88.8629 75.5388 86.2317 73.0367C86.1121 73.0367 85.6337 73.1559 85.5141 73.275C86.2317 73.275 87.7865 78.2792 88.8629 83.045C89.7001 86.7386 88.7433 92.2193 88.7433 92.2193L81.3281 93.2916C81.3281 93.2916 81.2085 98.8915 81.2085 101.632C81.2085 106.993 87.6669 128.44 87.6669 128.44L79.7733 154.056L84.6769 153.937L95.6801 129.393C95.6801 129.393 96.1585 119.861 94.6037 108.423C96.7565 110.21 101.062 114.381 102.139 115.334C101.062 118.432 94.2449 136.423 94.2449 136.423L98.7897 137.376C98.7897 137.376 111.348 115.453 111.228 113.427C107.042 105.802 95.5605 95.4363 95.5605 95.4363Z" fill="url(#paint8_linear)"/>
    <path d="M99.2681 124.15C99.1485 124.15 99.1485 124.15 99.0289 124.15C98.5505 124.031 98.3113 123.555 98.4309 123.078L114.816 52.7818C114.816 52.5435 114.816 52.4243 114.697 52.3052C114.697 52.1861 114.457 52.0669 114.338 52.0669H105.487C104.889 52.0669 104.291 51.8286 103.813 51.352C103.335 50.8754 103.095 50.2797 103.095 49.684V47.5393C103.095 45.7521 104.531 44.3224 106.325 44.3224C106.803 44.3224 107.162 44.6798 107.162 45.1564C107.162 45.633 106.803 45.9904 106.325 45.9904C105.487 45.9904 104.889 46.7053 104.889 47.4202V49.5648C104.889 49.684 104.889 49.8031 105.009 49.9223C105.129 50.0414 105.248 50.0414 105.368 50.0414H114.218C114.936 50.0414 115.534 50.3989 116.012 50.8754C116.491 51.4712 116.61 52.0669 116.491 52.7818L100.105 123.078C99.9857 123.793 99.6269 124.15 99.2681 124.15Z" fill="#B598FC"/>
    <path d="M124.743 49.0883H108.477C107.401 49.0883 106.564 48.2542 106.564 47.1819V43.131C106.564 42.0586 107.401 41.2246 108.477 41.2246H124.743C125.819 41.2246 126.657 42.0586 126.657 43.131V47.1819C126.657 48.2542 125.819 49.0883 124.743 49.0883Z" fill="#7357E5"/>
    <path d="M93.8861 64.6965C93.8861 68.6283 91.4941 74.824 87.4277 71.9645C83.4809 69.1049 83.1221 64.6965 83.1221 64.6965C83.1221 64.6965 90.2981 49.2075 93.8861 64.6965Z" fill="#FFC9C5"/>
    <path d="M86.5905 65.6496C85.3945 66.2453 85.8729 68.2708 86.7101 68.7474C86.8297 68.7474 86.9493 68.8666 87.0689 68.9857C87.0689 69.1048 87.0689 69.1048 87.0689 69.224C86.9493 69.9389 87.0689 70.892 86.4709 71.2495C83.7201 69.9389 83.2417 67.9134 82.8829 65.8879C82.7633 65.0539 82.6437 64.2198 82.8829 63.3858C83.1221 62.5518 83.7201 61.8369 84.1985 61.122C84.7965 60.4072 85.2749 59.6923 86.1121 59.454C86.4709 59.3348 86.9493 59.3348 87.3081 59.3348C88.6237 59.3348 89.9393 59.2157 91.2549 59.2157C91.6137 59.2157 91.8529 59.2157 92.2117 59.3348C92.8097 59.454 93.1685 60.0497 93.5273 60.5263C94.3645 61.8369 94.9625 63.2667 95.2017 64.8156C95.2017 64.9347 95.2017 65.173 95.2017 65.2922C95.0821 65.4113 94.9625 65.5305 94.8429 65.5305C94.2449 65.7687 93.5273 65.8879 92.8097 65.8879C87.7865 65.4113 88.5041 68.2708 88.5041 68.2708C88.5041 68.2708 87.6669 65.173 86.5905 65.6496Z" fill="#391D77"/>
    <path d="M82.6437 68.2709C90.059 65.0539 95.6802 62.9093 95.6802 62.9093C96.2782 62.5519 92.2118 55.2839 86.5906 57.4286C78.6969 60.2881 82.6437 68.2709 82.6437 68.2709Z" fill="#FFAE02"/>
    <path d="M95.3213 61.4795C103.335 63.7433 90.5373 66.0071 88.9825 65.6496L95.3213 61.4795Z" fill="#FFAE02"/>
    <path d="M102.617 94.9596C104.291 95.0788 105.727 94.1256 106.683 94.6022C107.64 95.1979 110.032 98.0574 105.368 97.9383C100.703 97.8191 101.541 97.9383 101.541 97.9383L102.617 94.9596Z" fill="#FFC9C5"/>
    <path d="M84.6769 73.5134C83.1221 73.3942 80.8497 74.3474 80.3713 75.658C78.2185 81.2579 80.4909 93.1725 81.3281 94.9597C83.0025 98.8915 102.139 98.0575 102.139 98.0575L103.215 94.6023C103.215 94.6023 87.9061 93.1725 86.1121 91.8619C85.5141 91.2662 86.8298 73.6325 84.6769 73.5134Z" fill="#7357E5"/>
    <path opacity="0.31" d="M289.911 91.5044H237.167C234.895 91.5044 232.981 89.5981 232.981 87.3343V59.2158C232.981 56.952 234.895 55.0457 237.167 55.0457H289.911C292.183 55.0457 294.097 56.952 294.097 59.2158V87.3343C294.097 89.7173 292.303 91.5044 289.911 91.5044Z" fill="#D6BDF1"/>
    <path d="M286.921 89.5981H234.177C231.905 89.5981 229.991 87.6917 229.991 85.428V57.3094C229.991 55.0456 231.905 53.1393 234.177 53.1393H286.921C289.193 53.1393 291.107 55.0456 291.107 57.3094V85.428C291.226 87.6917 289.313 89.5981 286.921 89.5981Z" fill="#D0FFFC"/>
    <g opacity="0.52">
        <path opacity="0.52" d="M234.057 79.2323V63.505C234.057 62.4327 234.895 61.5986 235.971 61.5986C239.679 61.5986 248.051 61.5986 251.758 61.5986C252.835 61.5986 253.672 62.4327 253.672 63.505V79.2323C253.672 80.3046 252.835 81.1386 251.758 81.1386C248.051 81.1386 239.679 81.1386 235.971 81.1386C234.895 81.1386 234.057 80.3046 234.057 79.2323Z" fill="#28C9BF"/>
        <path opacity="0.52" d="M286.682 65.7687H257.499C257.26 65.7687 257.021 65.5304 257.021 65.2921C257.021 65.0538 257.26 64.8156 257.499 64.8156H286.682C286.921 64.8156 287.16 65.0538 287.16 65.2921C287.16 65.5304 286.921 65.7687 286.682 65.7687ZM287.16 68.2708C287.16 68.0325 286.921 67.7942 286.682 67.7942H257.499C257.26 67.7942 257.021 68.0325 257.021 68.2708C257.021 68.5091 257.26 68.7474 257.499 68.7474H286.682C286.921 68.7474 287.16 68.5091 287.16 68.2708ZM287.16 71.3686C287.16 71.1303 286.921 70.892 286.682 70.892H257.499C257.26 70.892 257.021 71.1303 257.021 71.3686C257.021 71.6069 257.26 71.8452 257.499 71.8452H286.682C286.921 71.8452 287.16 71.6069 287.16 71.3686ZM287.16 74.3473C287.16 74.109 286.921 73.8707 286.682 73.8707H257.499C257.26 73.8707 257.021 74.109 257.021 74.3473C257.021 74.5856 257.26 74.8239 257.499 74.8239H286.682C286.921 74.943 287.16 74.7047 287.16 74.3473ZM287.16 77.4451C287.16 77.2068 286.921 76.9685 286.682 76.9685H257.499C257.26 76.9685 257.021 77.2068 257.021 77.4451C257.021 77.6834 257.26 77.9217 257.499 77.9217H286.682C286.921 78.0408 287.16 77.8025 287.16 77.4451Z" fill="#28C9BF"/>
    </g>
    <path d="M333.206 201H11.8404C10.8836 201 10.0464 200.166 10.0464 199.213C10.0464 198.26 10.8836 197.426 11.8404 197.426H333.206C334.163 197.426 335 198.26 335 199.213C335 200.166 334.163 201 333.206 201Z" fill="#E4D4F4"/>
    <defs>
        <linearGradient id="paint0_linear" x1="172.719" y1="27.1208" x2="172.719" y2="294.181" gradientUnits="userSpaceOnUse">
            <stop offset="0.00060096" stop-color="#ABB4FC"/>
            <stop offset="1" stop-color="#7765FC"/>
        </linearGradient>
        <linearGradient id="paint1_linear" x1="245.132" y1="161.435" x2="245.132" y2="208.683" gradientUnits="userSpaceOnUse">
            <stop stop-color="#FFC504"/>
            <stop offset="0.2528" stop-color="#FFB504"/>
            <stop offset="0.7431" stop-color="#FF8C05"/>
            <stop offset="1" stop-color="#FF7406"/>
        </linearGradient>
        <linearGradient id="paint2_linear" x1="48.1034" y1="161.435" x2="48.1034" y2="208.683" gradientUnits="userSpaceOnUse">
            <stop stop-color="#FFC504"/>
            <stop offset="0.2528" stop-color="#FFB504"/>
            <stop offset="0.7431" stop-color="#FF8C05"/>
            <stop offset="1" stop-color="#FF7406"/>
        </linearGradient>
        <linearGradient id="paint3_linear" x1="239.645" y1="163.873" x2="334.592" y2="163.873" gradientUnits="userSpaceOnUse">
            <stop stop-color="#FFC504"/>
            <stop offset="0.2528" stop-color="#FFB504"/>
            <stop offset="0.7431" stop-color="#FF8C05"/>
            <stop offset="1" stop-color="#FF7406"/>
        </linearGradient>
        <linearGradient id="paint4_linear" x1="239.645" y1="163.873" x2="334.592" y2="163.873" gradientUnits="userSpaceOnUse">
            <stop stop-color="#FFC504"/>
            <stop offset="0.2528" stop-color="#FFB504"/>
            <stop offset="0.7431" stop-color="#FF8C05"/>
            <stop offset="1" stop-color="#FF7406"/>
        </linearGradient>
        <linearGradient id="paint5_linear" x1="202.705" y1="133.956" x2="217.68" y2="192.832" gradientUnits="userSpaceOnUse">
            <stop stop-color="#FFC504"/>
            <stop offset="0.2528" stop-color="#FFB504"/>
            <stop offset="0.7431" stop-color="#FF8C05"/>
            <stop offset="1" stop-color="#FF7406"/>
        </linearGradient>
        <linearGradient id="paint6_linear" x1="195.609" y1="191.327" x2="195.609" y2="168.889" gradientUnits="userSpaceOnUse">
            <stop stop-color="#4F2CA0"/>
            <stop offset="1" stop-color="#8149ED"/>
        </linearGradient>
        <linearGradient id="paint7_linear" x1="70.6868" y1="205.154" x2="70.6868" y2="179.861" gradientUnits="userSpaceOnUse">
            <stop stop-color="#4F2CA0"/>
            <stop offset="1" stop-color="#8149ED"/>
        </linearGradient>
        <linearGradient id="paint8_linear" x1="95.2791" y1="65.4544" x2="95.5849" y2="142.49" gradientUnits="userSpaceOnUse">
            <stop stop-color="#FFC504"/>
            <stop offset="0.2528" stop-color="#FFB504"/>
            <stop offset="0.7431" stop-color="#FF8C05"/>
            <stop offset="1" stop-color="#FF7406"/>
        </linearGradient>
    </defs>
</svg>
