<svg width="56" height="56" viewBox="0 0 56 56" fill="none" xmlns="http://www.w3.org/2000/svg">
<path d="M22.0948 39.244C21.8833 39.244 21.6702 39.1712 21.4964 39.0231L15.5138 33.9289C15.3074 33.753 15.1887 33.4961 15.1887 33.2247C15.1887 32.9539 15.3079 32.6969 15.5138 32.521L21.4964 27.4268C21.8848 27.0956 22.4684 27.1425 22.7996 27.531C23.1303 27.92 23.0838 28.5035 22.6948 28.8342L17.5393 33.2247L22.6948 37.6152C23.0838 37.9464 23.1303 38.5299 22.7996 38.9184C22.6164 39.1335 22.3564 39.244 22.0948 39.244Z" fill="#333333"/>
<path d="M33.9052 39.244C33.6436 39.244 33.3836 39.1335 33.201 38.9184C32.8698 38.5299 32.9167 37.9464 33.3052 37.6152L38.4608 33.2247L33.3052 28.8342C32.9167 28.5035 32.8698 27.92 33.201 27.531C33.5317 27.1425 34.1157 27.0956 34.5037 27.4268L40.4863 32.521C40.6927 32.6969 40.8113 32.9539 40.8113 33.2247C40.8113 33.4961 40.6927 33.753 40.4863 33.9289L34.5037 39.0231C34.3298 39.1712 34.1167 39.244 33.9052 39.244V39.244Z" fill="#333333"/>
<path d="M25.8823 43.0649C25.8188 43.0649 25.7549 43.0582 25.6904 43.0447C25.191 42.9395 24.8711 42.4489 24.9763 41.9494L28.7049 24.2467C28.8101 23.7473 29.3003 23.4274 29.8002 23.5327C30.2996 23.6379 30.6195 24.128 30.5142 24.628L26.7857 42.3307C26.6938 42.7662 26.31 43.0649 25.8823 43.0649V43.0649Z" fill="#333333"/>
<path d="M49.7925 52.7095H6.20755C2.78494 52.7095 0 49.925 0 46.5019V9.50943C0 6.08682 2.78494 3.30188 6.20755 3.30188H49.7925C53.2151 3.30188 56 6.08682 56 9.50943V46.5019C56 49.925 53.2151 52.7095 49.7925 52.7095ZM6.20755 5.15094C3.80439 5.15094 1.84906 7.10627 1.84906 9.50943V46.5019C1.84906 48.9051 3.80439 50.8604 6.20755 50.8604H49.7925C52.1956 50.8604 54.1509 48.9051 54.1509 46.5019V9.50943C54.1509 7.10627 52.1956 5.15094 49.7925 5.15094H6.20755Z" fill="#333333"/>
<path d="M55.0755 18.1062H0.924528C0.413768 18.1062 0 17.6924 0 17.1817C0 16.6714 0.413768 16.2571 0.924528 16.2571H55.0755C55.5862 16.2571 56 16.6714 56 17.1817C56 17.6924 55.5862 18.1062 55.0755 18.1062Z" fill="#333333"/>
<path d="M15.7964 13.6822C14.1836 13.6822 12.8706 12.3692 12.8706 10.7564C12.8706 9.14313 14.1836 7.83063 15.7964 7.83063C17.4097 7.83063 18.7222 9.14313 18.7222 10.7564C18.7222 12.3692 17.4097 13.6822 15.7964 13.6822ZM15.7964 9.67968C15.2031 9.67968 14.7197 10.1626 14.7197 10.7564C14.7197 11.3502 15.2031 11.8331 15.7964 11.8331C16.3902 11.8331 16.8731 11.3502 16.8731 10.7564C16.8731 10.1626 16.3902 9.67968 15.7964 9.67968Z" fill="#333333"/>
<path d="M6.80713 13.6538C5.19385 13.6538 3.88135 12.3413 3.88135 10.728C3.88135 9.11475 5.19385 7.80225 6.80713 7.80225C8.42041 7.80225 9.73291 9.11475 9.73291 10.728C9.73291 12.3413 8.42041 13.6538 6.80713 13.6538ZM6.80713 9.6513C6.21382 9.6513 5.7304 10.1347 5.7304 10.728C5.7304 11.3219 6.21382 11.8048 6.80713 11.8048C7.40095 11.8048 7.88385 11.3219 7.88385 10.728C7.88385 10.1347 7.40095 9.6513 6.80713 9.6513Z" fill="#333333"/>
<path d="M24.7859 13.7101C23.1731 13.7101 21.8606 12.3976 21.8606 10.7843C21.8606 9.17151 23.1731 7.85901 24.7859 7.85901C26.3991 7.85901 27.7116 9.17151 27.7116 10.7843C27.7116 12.3976 26.3991 13.7101 24.7859 13.7101ZM24.7859 9.70755C24.1926 9.70755 23.7097 10.1905 23.7097 10.7843C23.7097 11.3781 24.1926 11.861 24.7859 11.861C25.3797 11.861 25.8626 11.3781 25.8626 10.7843C25.8626 10.1905 25.3797 9.70755 24.7859 9.70755Z" fill="#333333"/>
</svg>
