<svg width="122" height="35" viewBox="0 0 122 35" fill="none" xmlns="http://www.w3.org/2000/svg">
<g clip-path="url(#clip0)">
<path d="M112.057 12.4578C111.761 12.4578 111.473 12.5199 111.219 12.6661L103.157 17.3899C102.635 17.695 102.318 18.271 102.318 18.8838V28.3143C102.318 28.9267 102.635 29.5019 103.157 29.8077L105.262 31.0409C106.285 31.5524 106.662 31.5444 107.128 31.5444C108.642 31.5444 109.507 30.612 109.507 28.9916V19.6825C109.507 19.551 109.395 19.4569 109.267 19.4569H108.258C108.128 19.4569 108.018 19.551 108.018 19.6825V28.9916C108.018 29.7097 107.281 30.4321 106.084 29.8251L103.893 28.5226C103.816 28.4799 103.756 28.4043 103.756 28.3143V18.8836C103.756 18.7943 103.815 18.7033 103.893 18.6579L111.937 13.9517C111.974 13.9302 112.015 13.9188 112.057 13.9188C112.099 13.9188 112.141 13.9302 112.177 13.9517L120.222 18.6581C120.298 18.705 120.359 18.7916 120.359 18.8841V28.3145C120.359 28.4046 120.314 28.4968 120.239 28.5402L112.177 33.2466C112.108 33.2884 112.013 33.2884 111.937 33.2466L109.866 31.9963C109.835 31.9789 109.8 31.9698 109.764 31.9698C109.728 31.9698 109.693 31.9789 109.661 31.9963C109.089 32.325 108.982 32.3632 108.446 32.5519C108.314 32.5988 108.113 32.6714 108.514 32.8995L111.219 34.5143C111.474 34.6636 111.763 34.7416 112.057 34.7403C112.352 34.7421 112.641 34.6642 112.896 34.5146L120.958 29.8079C121.479 29.5002 121.796 28.9269 121.796 28.3145V18.8838C121.796 18.2712 121.479 17.6962 120.958 17.3904L112.896 12.6666C112.643 12.5201 112.354 12.4581 112.057 12.4581L112.057 12.4578Z" fill="#83CD29"/>
<path d="M114.214 19.1964C111.918 19.1964 110.551 20.1877 110.551 21.8363C110.551 23.6245 111.908 24.1159 114.111 24.337C116.747 24.5989 116.952 24.9917 116.952 25.5181C116.952 26.4312 116.235 26.8206 114.539 26.8206C112.408 26.8206 111.94 26.2809 111.784 25.2055C111.765 25.0901 111.677 24.997 111.561 24.997H110.517C110.388 24.997 110.277 25.1095 110.277 25.2403C110.277 26.6169 111.015 28.2447 114.539 28.2447C117.09 28.2447 118.561 27.2288 118.561 25.4486C118.561 23.6841 117.373 23.2103 114.898 22.8784C112.398 22.5426 112.16 22.3782 112.16 21.7842C112.16 21.2937 112.362 20.6377 114.214 20.6377C115.868 20.6377 116.479 20.9997 116.73 22.1316C116.752 22.2378 116.844 22.3225 116.952 22.3225H117.997C118.061 22.3225 118.123 22.2824 118.168 22.2356C118.211 22.1856 118.242 22.1294 118.236 22.062C118.074 20.1131 116.794 19.1964 114.214 19.1964Z" fill="#83CD29"/>
<path d="M64.6629 0.0924583C64.5728 0.092519 64.4843 0.116395 64.406 0.161734C64.3283 0.207903 64.2637 0.273831 64.2187 0.353023C64.1737 0.432215 64.1498 0.521939 64.1493 0.613355V13.8994C64.1493 14.0297 64.0896 14.1465 63.9783 14.2119C63.9237 14.2442 63.8617 14.2612 63.7986 14.2612C63.7354 14.2612 63.6734 14.2442 63.6189 14.2119L61.4793 12.9616C61.3232 12.87 61.1461 12.8217 60.9658 12.8217C60.7855 12.8217 60.6084 12.87 60.4523 12.9616L51.9114 17.9632C51.5922 18.1503 51.3981 18.5097 51.3981 18.8838V28.8873C51.3981 29.261 51.5924 29.6033 51.9114 29.7903L60.4523 34.7922C60.6083 34.884 60.7855 34.9324 60.9658 34.9324C61.1462 34.9324 61.3233 34.884 61.4793 34.7922L70.0202 29.7903C70.1766 29.699 70.3064 29.5674 70.3966 29.4089C70.4868 29.2503 70.5341 29.0704 70.5338 28.8873V3.94801C70.5336 3.76065 70.4843 3.57671 70.3911 3.41497C70.2979 3.25323 70.1641 3.11949 70.0033 3.02739L64.9196 0.144355C64.8399 0.0992169 64.7514 0.0912514 64.6629 0.0924583ZM9.72033 12.5795C9.55762 12.586 9.40442 12.615 9.25835 12.7009L0.717224 17.7028C0.560768 17.794 0.430871 17.9255 0.340711 18.0841C0.250552 18.2427 0.203338 18.4227 0.203862 18.6058L0.22099 32.031C0.22099 32.2176 0.315907 32.3912 0.477671 32.4824C0.555224 32.5297 0.643995 32.5547 0.734471 32.5547C0.824947 32.5547 0.913718 32.5297 0.991271 32.4824L6.05757 29.5301C6.37848 29.3365 6.58806 29 6.58806 28.6269V22.3573C6.58806 21.9832 6.78194 21.6399 7.10166 21.454L9.25812 20.1863C9.41403 20.0943 9.59136 20.0463 9.77172 20.0473C9.94775 20.0473 10.1285 20.0919 10.2851 20.1863L12.4418 21.454C12.5984 21.5452 12.7284 21.6767 12.8186 21.8354C12.9088 21.994 12.956 22.1741 12.9554 22.3573V28.6266C12.9554 28.9998 13.1671 29.3387 13.4859 29.5299L18.5522 32.4824C18.6297 32.5297 18.7185 32.5547 18.809 32.5547C18.8994 32.5547 18.9882 32.5297 19.0658 32.4824C19.1438 32.4366 19.2086 32.3707 19.2537 32.2915C19.2988 32.2122 19.3226 32.1223 19.3227 32.0308L19.3393 18.6058C19.3403 18.4226 19.2933 18.2424 19.2031 18.0838C19.1129 17.9251 18.9828 17.7936 18.826 17.7028L10.2851 12.7009C10.1407 12.615 9.98701 12.5863 9.8231 12.5795H9.72033ZM86.4687 12.7009C86.2903 12.7009 86.1154 12.7468 85.9553 12.8399L77.4145 17.8418C77.2581 17.9331 77.1282 18.0647 77.038 18.2232C76.9478 18.3818 76.9005 18.5617 76.9009 18.7448V28.7483C76.9009 29.1246 77.1097 29.4654 77.4313 29.6515L85.904 34.5491C86.2168 34.7302 86.5988 34.7439 86.9138 34.566L92.0486 31.6658C92.2116 31.5741 92.3217 31.4027 92.3224 31.2145C92.3233 31.1228 92.3 31.0325 92.2548 30.9531C92.2097 30.8737 92.1444 30.808 92.0657 30.7628L83.4735 25.761C83.3127 25.6678 83.1997 25.4793 83.1997 25.292V22.1661C83.1997 21.979 83.3138 21.8077 83.4735 21.7145L86.1435 20.1513C86.2216 20.1055 86.3101 20.0814 86.4003 20.0814C86.4905 20.0814 86.5791 20.1055 86.6571 20.1513L89.3269 21.7145C89.4052 21.7601 89.4701 21.8259 89.5152 21.9051C89.5603 21.9844 89.584 22.0743 89.5839 22.1659V24.632C89.5836 24.7236 89.6072 24.8135 89.6523 24.8928C89.6974 24.9721 89.7623 25.0378 89.8405 25.0834C90.0006 25.1773 90.1943 25.1776 90.3539 25.0834L95.4718 22.0621C95.6279 21.9704 95.7576 21.8387 95.8477 21.6802C95.9379 21.5217 95.9854 21.3419 95.9854 21.1588V18.745C95.9854 18.3721 95.7904 18.0291 95.4718 17.8418L86.9823 12.8399C86.8262 12.7483 86.649 12.7004 86.4687 12.7011V12.7009ZM60.9314 20.1689C60.9762 20.1689 61.0285 20.18 61.0685 20.2035L63.9954 21.9228C64.0749 21.9694 64.1325 22.0556 64.1325 22.1485V25.5872C64.1325 25.6806 64.0754 25.7665 63.9954 25.8131L61.0685 27.5325C61.0294 27.5551 60.9851 27.567 60.9401 27.567C60.8951 27.567 60.8509 27.5551 60.8118 27.5325L57.885 25.8131C57.8054 25.7663 57.748 25.6806 57.748 25.5872V22.1485C57.748 22.0553 57.8056 21.9699 57.885 21.9228L60.8118 20.2037C60.8478 20.181 60.8893 20.169 60.9317 20.1692V20.1689H60.9314Z" fill="#404137"/>
<path d="M35.3773 12.6488C35.1994 12.6488 35.0233 12.6946 34.8639 12.7878L26.323 17.7723C26.0036 17.9589 25.8094 18.319 25.8094 18.6927V28.6962C25.8094 29.0703 26.0038 29.4121 26.323 29.5994L34.8639 34.601C35.0199 34.693 35.1971 34.7414 35.3774 34.7414C35.5578 34.7414 35.7349 34.693 35.8909 34.601L44.4318 29.5994C44.5882 29.508 44.718 29.3764 44.8081 29.2178C44.8983 29.0592 44.9455 28.8792 44.9452 28.6962V18.6927C44.9452 18.3185 44.751 17.9589 44.4318 17.7723L35.8909 12.7878C35.7348 12.6963 35.5576 12.6484 35.3773 12.6488ZM86.4516 21.5757C86.4176 21.5757 86.3798 21.5757 86.3491 21.5931L84.706 22.5656C84.6754 22.5829 84.6497 22.608 84.6317 22.6385C84.6136 22.669 84.6038 22.7038 84.6032 22.7394V24.6497C84.6032 24.7216 84.6442 24.7875 84.706 24.8235L86.3491 25.7786C86.4107 25.8148 86.4764 25.8148 86.5373 25.7786L88.1804 24.8232C88.2109 24.8059 88.2364 24.7807 88.2544 24.7503C88.2725 24.7198 88.2823 24.6852 88.2831 24.6497V22.7392C88.2823 22.7037 88.2725 22.669 88.2544 22.6385C88.2364 22.6081 88.2109 22.583 88.1804 22.5656L86.5373 21.5928C86.5068 21.5747 86.4859 21.5759 86.4516 21.5759V21.5757Z" fill="#83CD29"/>
</g>
<defs>
<clipPath id="clip0">
<rect width="121.8" height="35" fill="white"/>
</clipPath>
</defs>
</svg>
